<svg width="60" height="57" viewBox="0 0 60 57" fill="none" xmlns="http://www.w3.org/2000/svg">
<rect width="60" height="56.1446" rx="6" fill="#8AD6AF"/>
<g clip-path="url(#clip0_636_1611)">
<path d="M25.0301 16.1562C23.7533 16.2164 22.8814 16.4202 22.1191 16.7197C21.3303 17.0272 20.6616 17.4397 19.9963 18.1074C19.3311 18.7751 18.9214 19.4442 18.6161 20.2343C18.3207 20.9982 18.1205 21.8708 18.0641 23.1484C18.0077 24.4259 17.9952 24.8365 18.0015 28.0952C18.0077 31.354 18.0221 31.7624 18.084 33.0426C18.145 34.3192 18.348 35.1908 18.6475 35.9533C18.9555 36.7422 19.3675 37.4106 20.0355 38.0761C20.7034 38.7416 21.372 39.1504 22.164 39.4561C22.9272 39.7511 23.8001 39.9522 25.0774 40.0081C26.3547 40.064 26.7658 40.077 30.0235 40.0708C33.2813 40.0645 33.6915 40.0501 34.9714 39.9894C36.2513 39.9287 37.1184 39.7242 37.8811 39.4261C38.67 39.1175 39.3389 38.7061 40.0039 38.038C40.669 37.3698 41.0784 36.7002 41.3835 35.9096C41.6791 35.1464 41.88 34.2736 41.9355 32.9972C41.9914 31.7164 42.0046 31.3074 41.9983 28.0492C41.9921 24.7909 41.9775 24.3824 41.9167 23.1028C41.856 21.8231 41.6527 20.954 41.3535 20.1911C41.0451 19.4022 40.6335 18.7343 39.9658 18.0683C39.2981 17.4023 38.628 16.9931 37.8377 16.6888C37.074 16.3933 36.2016 16.192 34.9243 16.1368C33.6471 16.0816 33.2359 16.0674 29.977 16.0736C26.718 16.0799 26.31 16.0938 25.0301 16.1562ZM25.1703 37.8493C24.0003 37.7984 23.365 37.604 22.9416 37.4413C22.381 37.2253 21.9816 36.9642 21.5597 36.5464C21.1378 36.1285 20.8786 35.7277 20.6597 35.1683C20.4953 34.7449 20.2973 34.1104 20.2426 32.9404C20.1831 31.6758 20.1706 31.2961 20.1636 28.0924C20.1567 24.8886 20.1689 24.5094 20.2243 23.2444C20.2743 22.0753 20.4699 21.4393 20.6323 21.0162C20.8483 20.4548 21.1085 20.0562 21.5273 19.6345C21.9461 19.2128 22.3457 18.9532 22.9056 18.7343C23.3285 18.5692 23.9631 18.3728 25.1326 18.3172C26.3981 18.2572 26.7773 18.2452 29.9806 18.2382C33.1839 18.2312 33.564 18.2432 34.83 18.2989C35.9991 18.3498 36.6353 18.5435 37.0579 18.7069C37.6188 18.9229 38.0179 19.1824 38.4396 19.6019C38.8613 20.0214 39.1212 20.4196 39.3401 20.9807C39.5055 21.4024 39.7018 22.0367 39.757 23.2069C39.8172 24.4724 39.8309 24.8519 39.8367 28.0549C39.8424 31.258 39.8311 31.6384 39.7757 32.9029C39.7246 34.0729 39.5307 34.7084 39.3677 35.1323C39.1517 35.6927 38.8913 36.0923 38.4723 36.5137C38.0532 36.9352 37.6541 37.1948 37.0939 37.4137C36.6715 37.5786 36.0363 37.7754 34.8677 37.8311C33.6022 37.8906 33.223 37.9031 30.0185 37.91C26.814 37.917 26.436 37.904 25.1705 37.8493M34.9529 21.6587C34.9534 21.9435 35.0383 22.2218 35.1969 22.4583C35.3556 22.6949 35.5808 22.8791 35.8442 22.9876C36.1075 23.0962 36.3971 23.1242 36.6764 23.0681C36.9556 23.012 37.212 22.8744 37.413 22.6726C37.614 22.4709 37.7507 22.214 37.8058 21.9346C37.8608 21.6551 37.8317 21.3656 37.7222 21.1027C37.6127 20.8397 37.4277 20.6152 37.1906 20.4574C36.9534 20.2996 36.6748 20.2157 36.39 20.2163C36.0082 20.217 35.6423 20.3694 35.3728 20.6399C35.1033 20.9104 34.9523 21.2768 34.9529 21.6587ZM23.8385 28.0842C23.8452 31.4874 26.6091 34.24 30.0115 34.2335C33.414 34.227 36.1685 31.4634 36.162 28.0602C36.1555 24.657 33.391 21.9037 29.988 21.9104C26.5851 21.9172 23.832 24.6815 23.8385 28.0842ZM25.9999 28.0799C25.9984 27.2887 26.2314 26.5149 26.6697 25.8562C27.1079 25.1975 27.7316 24.6836 28.4619 24.3794C29.1923 24.0752 29.9964 23.9944 30.7726 24.1472C31.5489 24.3 32.2624 24.6796 32.8229 25.2379C33.3834 25.7962 33.7658 26.5082 33.9217 27.2838C34.0776 28.0594 33.9999 28.8639 33.6986 29.5954C33.3973 30.3269 32.8859 30.9527 32.2289 31.3935C31.572 31.8343 30.7991 32.0705 30.0079 32.072C29.4826 32.0731 28.9622 31.9707 28.4765 31.7707C27.9908 31.5707 27.5492 31.2769 27.177 30.9062C26.8048 30.5355 26.5093 30.0951 26.3073 29.6101C26.1054 29.1252 26.0009 28.6052 25.9999 28.0799Z" fill="black"/>
</g>
<defs>
<clipPath id="clip0_636_1611">
<rect width="24" height="24" fill="white" transform="translate(18 16.0723)"/>
</clipPath>
</defs>
</svg>
