<svg width="60" height="57" viewBox="0 0 60 57" fill="none" xmlns="http://www.w3.org/2000/svg">
<rect width="60" height="56.1446" rx="6" fill="#8AD6AF"/>
<g clip-path="url(#clip0_636_1614)">
<path d="M37.2907 35.0631H34.2838V30.4005C34.2838 29.2887 34.2638 27.8575 32.7199 27.8575C31.1538 27.8575 30.9142 29.0688 30.9142 30.3196V35.0628H27.9073V25.4747H30.7939V26.785H30.8343C31.1232 26.296 31.5407 25.8936 32.0422 25.6209C32.5437 25.3481 33.1106 25.2152 33.6824 25.2362C36.73 25.2362 37.2919 27.2211 37.2919 29.8032L37.2907 35.0631ZM24.5145 24.1641C24.1694 24.1641 23.832 24.0629 23.545 23.8731C23.2581 23.6833 23.0344 23.4135 22.9022 23.0978C22.7701 22.7821 22.7355 22.4347 22.8028 22.0996C22.87 21.7644 23.0362 21.4565 23.2802 21.2149C23.5241 20.9732 23.835 20.8086 24.1735 20.7418C24.512 20.6751 24.8628 20.7093 25.1817 20.84C25.5006 20.9707 25.7731 21.1921 25.9649 21.4762C26.1567 21.7603 26.2591 22.0943 26.2592 22.436C26.2592 22.6629 26.2141 22.8876 26.1265 23.0972C26.0388 23.3069 25.9103 23.4974 25.7483 23.6578C25.5863 23.8183 25.394 23.9456 25.1823 24.0324C24.9706 24.1193 24.7437 24.164 24.5145 24.1641ZM26.018 35.0631H23.008V25.4747H26.018V35.0631ZM38.7897 17.9438H21.497C21.1045 17.9394 20.7263 18.0895 20.4455 18.361C20.1647 18.6326 20.0043 19.0034 19.9995 19.3921V36.5855C20.0041 36.9743 20.1644 37.3454 20.4452 37.6173C20.726 37.8892 21.1043 38.0395 21.497 38.0354H38.7897C39.1832 38.0403 39.5626 37.8903 39.8445 37.6185C40.1264 37.3466 40.2877 36.9751 40.2932 36.5855V19.3908C40.2876 19.0014 40.1261 18.6302 39.8442 18.3586C39.5623 18.087 39.183 17.9374 38.7897 17.9425" fill="black"/>
</g>
<defs>
<clipPath id="clip0_636_1614">
<rect width="24" height="20.2597" fill="white" transform="translate(18 17.9424)"/>
</clipPath>
</defs>
</svg>
