<svg width="24" height="24" viewBox="0 0 24 24" fill="none" xmlns="http://www.w3.org/2000/svg">
<path d="M12.75 18.138V15H11.25V18.138C10.7496 18.3149 10.3278 18.6631 10.0593 19.1209C9.79072 19.5787 9.69265 20.1167 9.78241 20.6398C9.87216 21.1629 10.144 21.6375 10.5498 21.9796C10.9556 22.3217 11.4692 22.5093 12 22.5093C12.5308 22.5093 13.0444 22.3217 13.4503 21.9796C13.8561 21.6375 14.1278 21.1629 14.2176 20.6398C14.3074 20.1167 14.2093 19.5787 13.9407 19.1209C13.6722 18.6631 13.2504 18.3149 12.75 18.138Z" fill="black"/>
<path d="M19.4995 9.00001C18.8362 9.00198 18.1923 9.22394 17.6687 9.63111C17.1451 10.0383 16.7713 10.6076 16.606 11.25H7.39302C7.21047 10.543 6.77635 9.92686 6.17201 9.51706C5.56768 9.10725 4.83463 8.93191 4.11027 9.02392C3.38591 9.11592 2.71997 9.46895 2.23728 10.0168C1.75459 10.5647 1.48828 11.2698 1.48828 12C1.48828 12.7302 1.75459 13.4353 2.23728 13.9832C2.71997 14.5311 3.38591 14.8841 4.11027 14.9761C4.83463 15.0681 5.56768 14.8928 6.17201 14.483C6.77635 14.0731 7.21047 13.457 7.39302 12.75H16.606C16.7473 13.2919 17.0376 13.7834 17.4441 14.1686C17.8506 14.5538 18.357 14.8173 18.9057 14.9291C19.4545 15.041 20.0236 14.9968 20.5484 14.8015C21.0733 14.6062 21.5329 14.2676 21.875 13.8242C22.2171 13.3808 22.428 12.8504 22.4838 12.2932C22.5396 11.7359 22.4381 11.1742 22.1907 10.6718C21.9433 10.1694 21.56 9.74642 21.0843 9.4509C20.6086 9.15539 20.0595 8.99917 19.4995 9.00001ZM4.49952 13.5C4.20285 13.5 3.91284 13.412 3.66616 13.2472C3.41949 13.0824 3.22723 12.8481 3.1137 12.574C3.00017 12.2999 2.97046 11.9983 3.02834 11.7074C3.08622 11.4164 3.22908 11.1491 3.43886 10.9393C3.64864 10.7296 3.91591 10.5867 4.20688 10.5288C4.49785 10.471 4.79945 10.5007 5.07354 10.6142C5.34763 10.7277 5.5819 10.92 5.74672 11.1667C5.91155 11.4133 5.99952 11.7033 5.99952 12C5.99892 12.3976 5.8407 12.7788 5.55952 13.06C5.27835 13.3412 4.89716 13.4994 4.49952 13.5ZM19.4995 13.5C19.2028 13.5 18.9128 13.412 18.6662 13.2472C18.4195 13.0824 18.2272 12.8481 18.1137 12.574C18.0002 12.2999 17.9705 11.9983 18.0283 11.7074C18.0862 11.4164 18.2291 11.1491 18.4389 10.9393C18.6486 10.7296 18.9159 10.5867 19.2069 10.5288C19.4979 10.471 19.7995 10.5007 20.0735 10.6142C20.3476 10.7277 20.5819 10.92 20.7467 11.1667C20.9115 11.4133 20.9995 11.7033 20.9995 12C20.9989 12.3976 20.8407 12.7788 20.5595 13.06C20.2783 13.3412 19.8972 13.4994 19.4995 13.5Z" fill="black"/>
<path d="M14.25 3.74955C14.2517 3.33666 14.1398 2.93126 13.9264 2.57775C13.7131 2.22424 13.4066 1.93624 13.0405 1.74529C12.6744 1.55435 12.2629 1.46782 11.8509 1.49518C11.4389 1.52254 11.0424 1.66274 10.7048 1.90043C10.3672 2.13811 10.1015 2.46411 9.93675 2.84273C9.77206 3.22136 9.71472 3.638 9.77102 4.04703C9.82731 4.45607 9.99508 4.84172 10.2559 5.16177C10.5168 5.48182 10.8607 5.72391 11.25 5.86155V8.99955H12.75V5.86155C13.1876 5.70774 13.5669 5.42207 13.8355 5.04385C14.1041 4.66563 14.2489 4.21345 14.25 3.74955Z" fill="black"/>
</svg>
