<svg width="24" height="24" viewBox="0 0 24 24" fill="none" xmlns="http://www.w3.org/2000/svg">
<path d="M1.11426 20.0466V13.8409L6.5434 11.5146L11.9725 13.8426V20.0466L6.5434 22.3712L1.11426 20.0466Z" stroke="black" stroke-linecap="round" stroke-linejoin="round"/>
<path d="M1.11426 13.8297L6.5434 16.156L11.9725 13.8297M6.5434 5.35254L11.9708 7.68054L17.4 5.35425" stroke="black" stroke-linecap="round" stroke-linejoin="round"/>
<path d="M11.9707 13.8291L17.3998 16.1554L22.829 13.8291" stroke="black" stroke-linecap="round" stroke-linejoin="round"/>
<path d="M6.54297 16.1589V22.3732M17.403 16.1589V22.3732M11.9704 7.68006V13.8926M6.5464 11.5115V5.30578L11.9738 2.97949L17.403 5.30578V11.5115L11.9738 13.8378L6.5464 11.5115ZM11.9704 20.0469V13.8412L17.3995 11.5149L22.8287 13.8429V20.0469L17.3995 22.3715L11.9704 20.0469Z" stroke="black" stroke-linecap="round" stroke-linejoin="round"/>
</svg>
