<svg width="144" height="49" viewBox="0 0 144 49" fill="none" xmlns="http://www.w3.org/2000/svg">
<g clip-path="url(#clip0_384_508)">
<path d="M132.161 0.500001H11.4416C11.0016 0.500001 10.5668 0.500001 10.1278 0.502401C9.76053 0.504801 9.39609 0.511761 9.02517 0.517641C8.21939 0.527119 7.4155 0.598005 6.6205 0.729681C5.8266 0.864224 5.05757 1.11788 4.33943 1.48208C3.62218 1.84938 2.96681 2.32663 2.39711 2.89652C1.82441 3.46477 1.34701 4.12159 0.983277 4.84172C0.618529 5.56049 0.365618 6.33071 0.233279 7.1258C0.0996728 7.91985 0.0277779 8.72304 0.0182399 9.5282C0.00707998 9.89612 0.00587998 10.2652 0 10.6333V38.3704C0.00587998 38.7429 0.00707998 39.1039 0.0182399 39.4768C0.027787 40.2817 0.0996817 41.0849 0.233279 41.8788C0.365263 42.6744 0.618189 43.4451 0.983277 44.1641C1.34684 44.8819 1.82431 45.5361 2.39711 46.1012C2.96467 46.6736 3.62044 47.1512 4.33943 47.5157C5.05756 47.8808 5.82651 48.136 6.6205 48.2725C7.41564 48.4032 8.21944 48.4741 9.02517 48.4847C9.39597 48.4929 9.76053 48.4976 10.128 48.4976C10.5668 48.5 11.0016 48.5 11.4416 48.5H132.161C132.592 48.5 133.031 48.5 133.462 48.4976C133.827 48.4976 134.203 48.4929 134.568 48.4847C135.373 48.4747 136.175 48.4038 136.968 48.2725C137.764 48.135 138.537 47.8799 139.258 47.5157C139.977 47.151 140.631 46.6734 141.199 46.1012C141.77 45.5338 142.249 44.8801 142.617 44.1641C142.979 43.4445 143.23 42.6739 143.36 41.8788C143.494 41.0848 143.568 40.2817 143.582 39.4765C143.588 39.1039 143.588 38.7429 143.588 38.3704C143.596 37.9343 143.596 37.5008 143.596 37.0578V11.9434C143.596 11.5039 143.596 11.068 143.588 10.6333C143.588 10.2652 143.588 9.89612 143.582 9.52808C143.568 8.72286 143.494 7.91984 143.36 7.12568C143.229 6.33114 142.979 5.56105 142.617 4.84184C141.876 3.39828 140.701 2.22324 139.258 1.48196C138.537 1.11866 137.764 0.865065 136.968 0.729561C136.175 0.597325 135.373 0.526435 134.568 0.517521C134.203 0.511641 133.827 0.504561 133.462 0.502281C133.031 0.499881 132.592 0.500001 132.161 0.500001Z" fill="black"/>
<path d="M29.7226 24.8613C29.7355 23.8597 30.0015 22.8777 30.4959 22.0065C30.9903 21.1354 31.6971 20.4035 32.5505 19.8789C32.0084 19.1047 31.2932 18.4676 30.4618 18.0181C29.6304 17.5687 28.7058 17.3192 27.7611 17.2896C25.7459 17.0781 23.7925 18.4954 22.7655 18.4954C21.7189 18.4954 20.1379 17.3107 18.4355 17.3457C17.3342 17.3813 16.261 17.7015 15.3203 18.2752C14.3797 18.8488 13.6037 19.6564 13.0679 20.6191C10.7471 24.6372 12.4782 30.5424 14.7014 33.7904C15.8137 35.3808 17.1135 37.1573 18.8145 37.0943C20.4789 37.0253 21.1005 36.0329 23.1098 36.0329C25.1003 36.0329 25.6835 37.0943 27.419 37.0542C29.2051 37.0253 30.3303 35.4568 31.4036 33.8513C32.2028 32.718 32.8177 31.4657 33.2256 30.1403C32.1879 29.7015 31.3025 28.9668 30.6795 28.0281C30.0566 27.0893 29.7238 25.9879 29.7226 24.8613ZM26.4447 15.1535C27.4185 13.9845 27.8983 12.4819 27.7821 10.9648C26.2943 11.1211 24.92 11.8321 23.933 12.9563C23.4504 13.5056 23.0808 14.1444 22.8453 14.8366C22.6099 15.5287 22.5131 16.2605 22.5606 16.9901C23.3048 16.9977 24.0409 16.8364 24.7138 16.5183C25.3866 16.2002 25.9784 15.7336 26.4447 15.1535ZM50.7626 33.0681H45.0826L43.7185 37.0958H41.3125L46.6927 22.1941H49.1923L54.5723 37.0958H52.1254L50.7626 33.0681ZM45.6708 31.2094H50.1732L47.9537 24.6728H47.8915L45.6708 31.2094ZM66.1915 31.6642C66.1915 35.0403 64.3844 37.2094 61.6576 37.2094C60.9667 37.2455 60.2797 37.0864 59.6752 36.7503C59.0706 36.414 58.5729 35.9145 58.2391 35.3086H58.1875V40.6899H55.9574V26.2313H58.116V28.0384H58.1571C58.5062 27.4354 59.0123 26.9384 59.6215 26.6002C60.2306 26.262 60.9201 26.0952 61.6164 26.1177C64.3738 26.1177 66.1915 28.2975 66.1915 31.6642ZM63.8993 31.6642C63.8993 29.4646 62.7625 28.0185 61.0282 28.0185C59.3242 28.0185 58.1782 29.495 58.1782 31.6641C58.1782 33.8532 59.3242 35.3193 61.0282 35.3193C62.7625 35.3193 63.8993 33.8838 63.8993 31.6642ZM78.1492 31.6642C78.1492 35.0403 76.3422 37.2094 73.6152 37.2094C72.9245 37.2455 72.2374 37.0864 71.6329 36.7503C71.0283 36.414 70.5307 35.9144 70.1969 35.3086H70.1453V40.6899H67.9152V26.2313H70.0738V28.0384H70.1148C70.464 27.4354 70.97 26.9384 71.5792 26.6002C72.1883 26.262 72.8778 26.0952 73.5742 26.1177C76.3317 26.1177 78.1492 28.2975 78.1492 31.6642ZM75.857 31.6642C75.857 29.4646 74.7203 28.0185 72.986 28.0185C71.282 28.0185 70.136 29.495 70.136 31.6641C70.136 33.8532 71.282 35.3193 72.986 35.3193C74.7203 35.3193 75.857 33.8838 75.857 31.6642ZM86.0524 32.9439C86.2176 34.4216 87.6531 35.3919 89.6147 35.3919C91.4945 35.3919 92.8469 34.4216 92.8469 33.0891C92.8469 31.9324 92.0312 31.2399 90.1001 30.7653L88.1686 30.3C85.4324 29.6391 84.1621 28.3594 84.1621 26.2828C84.1621 23.7117 86.4028 21.9458 89.5843 21.9458C92.7331 21.9458 94.8918 23.7117 94.9643 26.2828H92.7131C92.5784 24.7957 91.3491 23.898 89.5526 23.898C87.7562 23.898 86.5269 24.8063 86.5269 26.1282C86.5269 27.1817 87.3121 27.8016 89.2327 28.2761L90.8745 28.6793C93.9319 29.4023 95.2023 30.6305 95.2023 32.8101C95.2023 35.598 92.9816 37.3442 89.4495 37.3442C86.1447 37.3442 83.9136 35.639 83.7694 32.9438L86.0524 32.9439ZM100.015 23.6603V26.2313H102.081V27.9974H100.015V33.9868C100.015 34.9173 100.429 35.3508 101.337 35.3508C101.582 35.3466 101.827 35.3293 102.071 35.2992V37.0548C101.662 37.1311 101.247 37.1656 100.832 37.1578C98.6324 37.1578 97.7745 36.3317 97.7745 34.2246V27.9974H96.1947V26.2313H97.7745V23.6603H100.015ZM103.278 31.6642C103.278 28.2458 105.291 26.0977 108.43 26.0977C111.58 26.0977 113.584 28.2458 113.584 31.6642C113.584 35.0919 111.591 37.2305 108.43 37.2305C105.271 37.2305 103.278 35.0919 103.278 31.6642ZM111.312 31.6642C111.312 29.3193 110.237 27.9352 108.43 27.9352C106.623 27.9352 105.55 29.3297 105.55 31.6642C105.55 34.0185 106.623 35.3919 108.43 35.3919C110.237 35.3919 111.312 34.0185 111.312 31.6642ZM115.422 26.2313H117.55V28.0805H117.601C117.745 27.503 118.083 26.9926 118.56 26.6351C119.036 26.2776 119.62 26.0949 120.215 26.1177C120.472 26.1167 120.728 26.1447 120.978 26.2008V28.2868C120.654 28.1877 120.316 28.1421 119.977 28.152C119.653 28.139 119.33 28.196 119.03 28.3195C118.73 28.443 118.461 28.6299 118.24 28.8672C118.019 29.1047 117.852 29.3872 117.752 29.6952C117.65 30.0032 117.616 30.3295 117.653 30.6516V37.0958H115.422V26.2313ZM131.26 33.9047C130.96 35.877 129.04 37.2305 126.582 37.2305C123.422 37.2305 121.461 35.113 121.461 31.7157C121.461 28.3079 123.433 26.0977 126.489 26.0977C129.495 26.0977 131.385 28.1626 131.385 31.4567V32.2208H123.711V32.3555C123.676 32.7554 123.726 33.1581 123.858 33.5372C123.99 33.9162 124.202 34.2628 124.478 34.5538C124.755 34.8449 125.09 35.0738 125.462 35.2254C125.833 35.3769 126.233 35.4477 126.634 35.4329C127.161 35.4823 127.69 35.3602 128.142 35.0849C128.594 34.8095 128.945 34.3956 129.143 33.9047H131.26ZM123.722 30.6622H129.154C129.173 30.3027 129.119 29.9429 128.993 29.6055C128.868 29.268 128.674 28.9602 128.424 28.7012C128.173 28.4423 127.872 28.2379 127.539 28.1008C127.206 27.9637 126.849 27.897 126.489 27.9047C126.125 27.9025 125.765 27.9724 125.429 28.11C125.093 28.2477 124.788 28.4506 124.53 28.707C124.274 28.9634 124.07 29.2682 123.93 29.6037C123.792 29.9393 123.721 30.2991 123.722 30.6622Z" fill="white"/>
<path d="M49.922 14.0893H48.9009C48.7002 13.4085 48.1329 13.0333 47.426 13.0333C46.3439 13.0333 45.698 13.8973 45.698 15.3023C45.698 16.7074 46.3351 17.554 47.426 17.554C48.1068 17.554 48.6566 17.2049 48.8835 16.5329H49.9133C49.5904 17.7111 48.5955 18.3743 47.426 18.3743C45.7329 18.3743 44.7031 17.2136 44.7031 15.3023C44.7031 13.3998 45.7417 12.2129 47.4522 12.2129C48.6304 12.2129 49.6428 12.8587 49.922 14.0893Z" fill="white"/>
<path d="M52.7717 18.3756C51.419 18.3756 50.5986 17.4592 50.5986 15.9406C50.5986 14.361 51.4452 13.4883 52.7717 13.4883C54.1244 13.4883 54.9448 14.4221 54.9448 15.9406C54.9448 17.5116 54.0983 18.3756 52.7717 18.3756ZM52.7717 17.5901C53.5659 17.5901 53.9935 17.0141 53.9935 15.9406C53.9935 14.8759 53.5572 14.2737 52.7717 14.2737C51.9863 14.2737 51.5499 14.8585 51.5499 15.9406C51.5499 16.9966 51.9863 17.5901 52.7717 17.5901Z" fill="white"/>
<path d="M55.8545 18.2621V13.6105H56.7883V14.2039C57.085 13.7239 57.5476 13.4883 58.0974 13.4883C58.717 13.4883 59.1796 13.7588 59.4065 14.2912C59.7119 13.7588 60.2181 13.4883 60.829 13.4883C61.7454 13.4883 62.3389 14.0556 62.3389 15.1552V18.2621H61.405V15.3472C61.405 14.6752 61.1519 14.265 60.5759 14.265C59.9476 14.265 59.5636 14.8846 59.5636 15.5305V18.2621H58.6298V15.3472C58.6298 14.6752 58.3679 14.265 57.8007 14.265C57.1723 14.265 56.7883 14.8846 56.7883 15.5305V18.2621H55.8545Z" fill="white"/>
<path d="M63.4736 13.0345V11.9785H64.4074V13.0345H63.4736ZM63.4736 18.2622V13.6105H64.4074V18.2622H63.4736Z" fill="white"/>
<path d="M65.5361 18.2621V13.6105H66.4699V14.2301C66.7841 13.7326 67.2729 13.4883 67.875 13.4883C68.8438 13.4883 69.446 14.0556 69.446 15.1552V18.2621H68.5209V15.3472C68.5209 14.6752 68.2241 14.265 67.587 14.265C66.8889 14.265 66.4699 14.8846 66.4699 15.5305V18.2621H65.5361Z" fill="white"/>
<path d="M72.257 18.2883C71.0701 18.2883 70.3545 17.3806 70.3545 15.897C70.3545 14.3436 71.0876 13.4883 72.257 13.4883C72.8505 13.4883 73.2956 13.6977 73.5923 14.0992V13.6105H74.5261V18.4105C74.5261 19.6846 73.6796 20.3043 72.5625 20.3043C71.4454 20.3043 70.6425 19.7806 70.4767 18.6985H71.4105C71.4978 19.257 71.9429 19.5537 72.5538 19.5537C73.1734 19.5537 73.5923 19.2308 73.5923 18.4279V17.6425C73.2781 18.0701 72.8243 18.2883 72.257 18.2883ZM72.449 17.5028C73.1909 17.5028 73.5923 16.9356 73.5923 15.8883C73.5923 14.8672 73.1734 14.2737 72.449 14.2737C71.7072 14.2737 71.3058 14.841 71.3058 15.897C71.3058 16.9181 71.7159 17.5028 72.449 17.5028Z" fill="white"/>
<path d="M78.1157 14.8323C78.1157 16.0192 81.0918 15.0243 81.0918 16.9181C81.0918 17.7996 80.2975 18.3756 79.1717 18.3756C78.0459 18.3756 77.2517 17.8519 77.0771 16.7436H78.011C78.107 17.3283 78.5433 17.6512 79.1979 17.6512C79.8262 17.6512 80.1579 17.3719 80.1579 16.9792C80.1579 15.8185 77.2255 16.7959 77.2255 14.8846C77.2255 14.1603 77.7928 13.4883 78.971 13.4883C80.0095 13.4883 80.7775 13.9683 80.926 15.129H79.9921C79.8873 14.4745 79.5208 14.2301 78.9273 14.2301C78.4124 14.2301 78.1157 14.4832 78.1157 14.8323Z" fill="white"/>
<path d="M83.8889 18.3756C82.5361 18.3756 81.7158 17.4592 81.7158 15.9406C81.7158 14.361 82.5624 13.4883 83.8889 13.4883C85.2416 13.4883 86.062 14.4221 86.062 15.9406C86.062 17.5116 85.2155 18.3756 83.8889 18.3756ZM83.8889 17.5901C84.6831 17.5901 85.1106 17.0141 85.1106 15.9406C85.1106 14.8759 84.6744 14.2737 83.8889 14.2737C83.1033 14.2737 82.667 14.8585 82.667 15.9406C82.667 16.9966 83.1033 17.5901 83.8889 17.5901Z" fill="white"/>
<path d="M88.9172 18.3756C87.5645 18.3756 86.7441 17.4592 86.7441 15.9406C86.7441 14.361 87.5907 13.4883 88.9172 13.4883C90.27 13.4883 91.0903 14.4221 91.0903 15.9406C91.0903 17.5116 90.2438 18.3756 88.9172 18.3756ZM88.9172 17.5901C89.7114 17.5901 90.139 17.0141 90.139 15.9406C90.139 14.8759 89.7027 14.2737 88.9172 14.2737C88.1318 14.2737 87.6954 14.8585 87.6954 15.9406C87.6954 16.9966 88.1318 17.5901 88.9172 17.5901Z" fill="white"/>
<path d="M91.999 18.2621V13.6105H92.9328V14.2301C93.247 13.7326 93.7358 13.4883 94.3379 13.4883C95.3067 13.4883 95.9088 14.0556 95.9088 15.1552V18.2621H94.9838V15.3472C94.9838 14.6752 94.687 14.265 94.0499 14.265C93.3518 14.265 92.9328 14.8846 92.9328 15.5305V18.2621H91.999Z" fill="white"/>
<path d="M100.703 18.3756C99.3506 18.3756 98.5303 17.4592 98.5303 15.9406C98.5303 14.361 99.3768 13.4883 100.703 13.4883C102.056 13.4883 102.876 14.4221 102.876 15.9406C102.876 17.5116 102.03 18.3756 100.703 18.3756ZM100.703 17.5901C101.498 17.5901 101.925 17.0141 101.925 15.9406C101.925 14.8759 101.489 14.2737 100.703 14.2737C99.9179 14.2737 99.4815 14.8585 99.4815 15.9406C99.4815 16.9966 99.9179 17.5901 100.703 17.5901Z" fill="white"/>
<path d="M103.786 18.2621V13.6105H104.72V14.2301C105.034 13.7326 105.523 13.4883 106.125 13.4883C107.094 13.4883 107.696 14.0556 107.696 15.1552V18.2621H106.771V15.3472C106.771 14.6752 106.474 14.265 105.837 14.265C105.139 14.265 104.72 14.8846 104.72 15.5305V18.2621H103.786Z" fill="white"/>
<path d="M110.666 16.8746V14.3349H110.038V13.6106H110.666V12.5371H111.6V13.6106H112.605V14.3349H111.6V16.8222C111.6 17.3546 111.75 17.6077 112.403 17.6077H112.586V18.2884C112.482 18.3407 112.265 18.3757 112.002 18.3757C111.094 18.3757 110.666 17.8782 110.666 16.8746Z" fill="white"/>
<path d="M113.307 18.2622V11.9785H114.24V14.2302C114.555 13.7327 115.043 13.4883 115.646 13.4883C116.614 13.4883 117.216 14.0556 117.216 15.1552V18.2622H116.291V15.3472C116.291 14.6752 115.995 14.2651 115.358 14.2651C114.659 14.2651 114.24 14.8847 114.24 15.5305V18.2622H113.307Z" fill="white"/>
<path d="M122.48 16.7436C122.227 17.8257 121.424 18.3756 120.333 18.3756C118.963 18.3756 118.125 17.4592 118.125 15.9406C118.125 14.361 118.963 13.4883 120.289 13.4883C121.633 13.4883 122.445 14.3959 122.445 15.8883V16.1152H119.076C119.129 17.0665 119.574 17.5988 120.333 17.5988C120.926 17.5988 121.345 17.3196 121.502 16.7436H122.48ZM120.289 14.265C119.617 14.265 119.216 14.6926 119.102 15.4781H121.476C121.363 14.6926 120.953 14.265 120.289 14.265Z" fill="white"/>
</g>
<defs>
<clipPath id="clip0_384_508">
<rect width="144" height="48" fill="white" transform="translate(0 0.5)"/>
</clipPath>
</defs>
</svg>
