<svg width="99" height="279" viewBox="0 0 99 279" fill="none" xmlns="http://www.w3.org/2000/svg">
<path d="M54.7175 141.176L61.6686 148.365L61.5774 138.366L65.2486 147.667L68.9908 138.394L68.8232 148.392L75.829 141.257L71.8482 150.43L81.0511 146.519L73.863 153.47L83.8619 153.379L74.5609 157.05L83.8336 160.792L73.8357 160.625L80.9705 167.631L71.7977 163.65L75.7084 172.853L68.7573 165.665L68.8485 175.663L65.1773 166.362L61.4351 175.635L61.6027 165.637L54.5969 172.772L58.5777 163.599L49.3748 167.51L56.5629 160.559L46.564 160.65L55.865 156.979L46.5923 153.237L56.5902 153.404L49.4554 146.398L58.6282 150.379L54.7175 141.176Z" fill="white" fill-opacity="0.5"/>
<path d="M70.9382 192.809L77.8893 199.997L77.7981 189.998L81.4693 199.299L85.2115 190.027L85.0439 200.025L92.0497 192.89L88.0689 202.063L97.2718 198.152L90.0837 205.103L100.083 205.012L90.7816 208.683L100.054 212.425L90.0564 212.258L97.1912 219.263L88.0184 215.283L91.9291 224.485L84.978 217.297L85.0692 227.296L81.398 217.995L77.6558 227.268L77.8234 217.27L70.8176 224.405L74.7984 215.232L65.5956 219.143L72.7836 212.192L62.7847 212.283L72.0857 208.612L62.813 204.87L72.8109 205.037L65.6761 198.031L74.8489 202.012L70.9382 192.809Z" fill="white" fill-opacity="0.5"/>
<path d="M112.167 227.87L119.118 235.058L119.027 225.059L122.698 234.36L126.44 225.087L126.272 235.085L133.278 227.95L129.297 237.123L138.5 233.212L131.312 240.164L141.311 240.072L132.01 243.744L141.283 247.486L131.285 247.318L138.42 254.324L129.247 250.343L133.158 259.546L126.206 252.358L126.298 262.357L122.626 253.056L118.884 262.329L119.052 252.331L112.046 259.465L116.027 250.293L106.824 254.203L114.012 247.252L104.013 247.343L113.314 243.672L104.042 239.93L114.039 240.098L106.905 233.092L116.077 237.073L112.167 227.87Z" fill="white" fill-opacity="0.5"/>
<path d="M73.1565 92.9684L80.1076 100.156L80.0164 90.1576L83.6876 99.4586L87.4297 90.1859L87.2622 100.184L94.268 93.049L90.2871 102.222L99.49 98.3111L92.3019 105.262L102.301 105.171L92.9998 108.842L102.273 112.584L92.2746 112.417L99.4094 119.423L90.2367 115.442L94.1474 124.645L87.1962 117.457L87.2875 127.455L83.6162 118.154L79.8741 127.427L80.0416 117.429L73.0359 124.564L77.0167 115.391L67.8138 119.302L75.0019 112.351L65.003 112.442L74.304 108.771L65.0313 105.029L75.0292 105.196L67.8944 98.1905L77.0672 102.171L73.1565 92.9684Z" fill="white" fill-opacity="0.5"/>
<path d="M113.5 47.0407L120.451 54.2288L120.36 44.2298L124.031 53.5309L127.773 44.2581L127.605 54.2561L134.611 47.1213L130.63 56.294L139.833 52.3833L132.645 59.3345L142.644 59.2432L133.343 62.9145L142.616 66.6566L132.618 66.489L139.753 73.4948L130.58 69.514L134.491 78.7169L127.54 71.5288L127.631 81.5277L123.959 72.2267L120.217 81.4994L120.385 71.5015L113.379 78.6363L117.36 69.4635L108.157 73.3742L115.345 66.4231L105.346 66.5143L114.647 62.8431L105.375 59.101L115.372 59.2685L108.238 52.2627L117.41 56.2436L113.5 47.0407Z" fill="white" fill-opacity="0.5"/>
</svg>
