<svg width="105" height="192" viewBox="0 0 105 192" fill="none" xmlns="http://www.w3.org/2000/svg">
<path d="M48.0609 31.7762L40.0003 25.8589L41.7711 35.7002L36.5885 27.1488L34.4585 36.9186L32.9429 27.0348L27.2362 35.2458L29.6184 25.5343L21.2039 30.9365L27.1212 22.8759L17.2799 24.6467L25.8314 19.4642L16.0615 17.3341L25.9453 15.8185L17.7343 10.1119L27.4458 12.494L22.0436 4.07955L30.1042 9.99679L28.3334 0.155509L33.516 8.70697L35.646 -1.06285L37.1616 8.82096L42.8682 0.609956L40.4861 10.3214L48.9006 4.91926L42.9833 12.9798L52.8246 11.209L44.2731 16.3916L54.043 18.5216L44.1592 20.0372L52.3702 25.7439L42.6587 23.3617L48.0609 31.7762Z" fill="white" fill-opacity="0.5"/>
<path d="M37.9886 82.3983L29.928 76.481L31.6988 86.3223L26.5163 77.7708L24.3862 87.5407L22.8706 77.6568L17.164 85.8679L19.5461 76.1564L11.1317 81.5586L17.0489 73.498L7.20762 75.2688L15.7591 70.0862L5.98926 67.9562L15.8731 66.4406L7.66207 60.7339L17.3735 63.1161L11.9714 54.7016L20.0319 60.6189L18.2611 50.7776L23.4437 59.329L25.5737 49.5592L27.0893 59.443L32.796 51.232L30.4138 60.9435L38.8283 55.5413L32.9111 63.6019L42.7523 61.8311L34.2009 67.0136L43.9707 69.1437L34.0869 70.6593L42.2979 76.3659L32.5865 73.9838L37.9886 82.3983Z" fill="white" fill-opacity="0.5"/>
<path d="M5.94074 134.455L-2.11984 128.538L-0.349003 138.379L-5.53157 129.827L-7.66163 139.597L-9.1772 129.713L-14.8839 137.924L-12.5017 128.213L-20.9162 133.615L-14.999 125.555L-24.8402 127.325L-16.2888 122.143L-26.0586 120.013L-16.1748 118.497L-24.3858 112.791L-14.6744 115.173L-20.0765 106.758L-12.0159 112.675L-13.7867 102.834L-8.60417 111.386L-6.47411 101.616L-4.95854 111.5L0.74813 103.289L-1.63404 113L6.78045 107.598L0.86321 115.659L10.7045 113.888L2.15302 119.07L11.9228 121.2L2.03904 122.716L10.25 128.423L0.538611 126.04L5.94074 134.455Z" fill="white" fill-opacity="0.5"/>
</svg>
