<svg width="12" height="12" viewBox="0 0 12 12" fill="none" xmlns="http://www.w3.org/2000/svg">
<path d="M9 1V2M3 1V2" stroke="black" stroke-width="0.75" stroke-linecap="round" stroke-linejoin="round"/>
<path d="M5.99775 6.5H6.00225M5.99775 8.5H6.00225M7.9955 6.5H8M4 6.5H4.00449M4 8.5H4.00449" stroke="black" stroke-linecap="round" stroke-linejoin="round"/>
<path d="M1.75 4H10.25" stroke="black" stroke-width="0.75" stroke-linecap="round" stroke-linejoin="round"/>
<path d="M1.25 6.1216C1.25 3.94297 1.25 2.85364 1.87606 2.17682C2.50212 1.5 3.50975 1.5 5.525 1.5H6.475C8.49025 1.5 9.4979 1.5 10.124 2.17682C10.75 2.85364 10.75 3.94297 10.75 6.1216V6.3784C10.75 8.55705 10.75 9.64635 10.124 10.3232C9.4979 11 8.49025 11 6.475 11H5.525C3.50975 11 2.50212 11 1.87606 10.3232C1.25 9.64635 1.25 8.55705 1.25 6.3784V6.1216Z" stroke="black" stroke-width="0.75" stroke-linecap="round" stroke-linejoin="round"/>
<path d="M1.5 4H10.5" stroke="black" stroke-width="0.75" stroke-linecap="round" stroke-linejoin="round"/>
</svg>
