<svg width="163" height="49" viewBox="0 0 163 49" fill="none" xmlns="http://www.w3.org/2000/svg">
<g clip-path="url(#clip0_384_526)">
<path d="M156.435 48.5H6.67782C3.38318 48.5 0.6875 45.8 0.6875 42.5V6.50002C0.6875 3.2 3.38313 0.5 6.67782 0.5H156.435C159.731 0.5 162.426 3.2 162.426 6.50002V42.5C162.426 45.8 159.731 48.5 156.435 48.5Z" fill="black"/>
<path d="M156.435 0.5H6.67782C3.38318 0.5 0.6875 3.2 0.6875 6.50002V42.5C0.6875 45.8 3.38313 48.5 6.67782 48.5H156.435C159.731 48.5 162.426 45.8 162.426 42.5V6.50002C162.426 3.2 159.731 0.5 156.435 0.5ZM156.435 1.45997C159.21 1.45997 161.467 3.72129 161.467 6.50002V42.5C161.467 45.2792 159.21 47.5405 156.435 47.5405H6.67782C3.90361 47.5405 1.64596 45.2792 1.64596 42.5V6.50002C1.64596 3.72129 3.90356 1.46002 6.67782 1.46002L156.435 1.45997Z" fill="#A6A6A6"/>
<path d="M128.804 36.5003H131.039V21.4989H128.804V36.5003ZM148.94 26.9027L146.377 33.4066H146.301L143.64 26.9027H141.232L145.221 35.993L142.947 41.0495H145.28L151.426 26.9027H148.94ZM136.262 34.7964C135.528 34.7964 134.508 34.4299 134.508 33.5223C134.508 32.3644 135.78 31.9207 136.877 31.9207C137.861 31.9207 138.322 32.133 138.92 32.4227C138.746 33.8121 137.552 34.7964 136.262 34.7964ZM136.532 26.5746C134.913 26.5746 133.237 27.2889 132.543 28.8715L134.527 29.7011C134.951 28.8715 135.741 28.6009 136.57 28.6009C137.726 28.6009 138.901 29.296 138.92 30.5313V30.6855C138.515 30.4538 137.649 30.1066 136.588 30.1066C134.45 30.1066 132.272 31.2836 132.272 33.4838C132.272 35.4911 134.026 36.7844 135.991 36.7844C137.495 36.7844 138.322 36.1089 138.843 35.3176H138.92V36.4754H141.077V30.7238C141.077 28.0609 139.094 26.5746 136.532 26.5746ZM122.715 28.7289H119.535V23.5868H122.715C124.387 23.5868 125.336 24.9728 125.336 26.1577C125.336 27.3203 124.387 28.7289 122.715 28.7289ZM122.657 21.4989H117.301V36.5003H119.535V30.8168H122.657C125.135 30.8168 127.571 29.0199 127.571 26.1577C127.571 23.2956 125.135 21.4989 122.657 21.4989ZM93.4477 34.7991C91.9033 34.7991 90.6103 33.504 90.6103 31.7252C90.6103 29.9276 91.9033 28.6127 93.4477 28.6127C94.9725 28.6127 96.1691 29.9275 96.1691 31.7252C96.1691 33.504 94.9725 34.7991 93.4477 34.7991ZM96.0147 27.7427H95.9374C95.4358 27.1436 94.4703 26.6023 93.2545 26.6023C90.7067 26.6023 88.3714 28.8446 88.3714 31.7252C88.3714 34.5864 90.7066 36.8097 93.2545 36.8097C94.4703 36.8097 95.4358 36.2683 95.9374 35.6499H96.0147V36.3844C96.0147 38.3374 94.9725 39.3813 93.2933 39.3813C91.923 39.3813 91.0736 38.395 90.7258 37.5638L88.7768 38.3758C89.3364 39.7291 90.8228 41.3917 93.2933 41.3917C95.9182 41.3917 98.1379 39.8448 98.1379 36.0752V26.9115H96.0147V27.7427ZM99.6819 36.5003H101.921V21.4983H99.6819V36.5003ZM105.221 31.5513C105.163 29.5791 106.746 28.5742 107.885 28.5742C108.773 28.5742 109.526 29.0185 109.776 29.6571L105.221 31.5513ZM112.169 29.8501C111.746 28.7091 110.451 26.6023 107.808 26.6023C105.183 26.6023 103.002 28.6707 103.002 31.706C103.002 34.5672 105.163 36.8097 108.059 36.8097C110.395 36.8097 111.746 35.379 112.305 34.5479L110.568 33.3877C109.99 34.2385 109.198 34.7991 108.059 34.7991C106.92 34.7991 106.109 34.277 105.588 33.2528L112.401 30.4299L112.169 29.8501ZM57.8878 28.1683V30.3334H63.0605C62.906 31.5513 62.5007 32.4405 61.8829 33.0591C61.1304 33.8134 59.953 34.6446 57.8877 34.6446C54.703 34.6446 52.2133 32.0734 52.2133 28.8835C52.2133 25.6938 54.703 23.1223 57.8878 23.1223C59.6057 23.1223 60.8599 23.7991 61.7865 24.669L63.3113 23.1419C62.0182 21.9043 60.3003 20.957 57.8878 20.957C53.5256 20.957 49.8584 24.5144 49.8584 28.8835C49.8584 33.2528 53.5256 36.8097 57.8878 36.8097C60.2427 36.8097 62.0182 36.0368 63.4077 34.5864C64.8361 33.1558 65.2803 31.1454 65.2803 29.5215C65.2803 29.0185 65.2417 28.555 65.1641 28.1683H57.8878ZM71.161 34.7991C69.6166 34.7991 68.2847 33.5232 68.2847 31.706C68.2847 29.8693 69.6166 28.6127 71.161 28.6127C72.7049 28.6127 74.0368 29.8693 74.0368 31.706C74.0368 33.5232 72.7049 34.7991 71.161 34.7991ZM71.161 26.6023C68.3427 26.6023 66.0457 28.7481 66.0457 31.706C66.0457 34.6446 68.3427 36.8097 71.161 36.8097C73.9787 36.8097 76.2756 34.6446 76.2756 31.706C76.2756 28.7481 73.9787 26.6023 71.161 26.6023ZM82.3187 34.7991C80.775 34.7991 79.443 33.5232 79.443 31.706C79.443 29.8693 80.775 28.6127 82.3188 28.6127C83.8628 28.6127 85.1946 29.8693 85.1946 31.706C85.1946 33.5232 83.8627 34.7991 82.3187 34.7991ZM82.3187 26.6023C79.5006 26.6023 77.2042 28.7481 77.2042 31.706C77.2042 34.6446 79.5006 36.8097 82.3188 36.8097C85.1367 36.8097 87.4337 34.6446 87.4337 31.706C87.4337 28.7481 85.1367 26.6023 82.3187 26.6023Z" fill="white"/>
<path d="M13.2777 9.63368C12.8757 9.99701 12.6357 10.603 12.6357 11.4075V11.2256V37.7709V37.5961C12.6357 38.339 12.8416 38.9127 13.1901 39.2822L13.2792 39.3675C13.5614 39.6225 13.9231 39.7584 14.3379 39.7579C14.7431 39.7579 15.1989 39.6285 15.68 39.3553L33.0701 29.4585L39.0435 26.0587C39.8022 25.627 40.2281 25.0701 40.2992 24.5029V24.5006C40.2281 23.9321 39.8022 23.3756 39.0436 22.9438L33.0697 19.5445L15.68 9.6477C15.198 9.374 14.7417 9.24414 14.3355 9.24414C13.9213 9.24414 13.5599 9.37913 13.2777 9.63368Z" fill="#00C1FF"/>
<path d="M13.2793 39.3686L13.1901 39.2833C12.8416 38.9139 12.6357 38.3401 12.6357 37.5972V37.772V11.2333V11.4086C12.6357 10.6041 12.8757 9.9981 13.2777 9.63477L28.1215 24.5022L13.2793 39.3686Z" fill="url(#paint0_linear_384_526)"/>
<path d="M33.0697 29.459L28.1211 24.5016L33.0692 19.5449L39.0432 22.9443C39.8018 23.3761 40.2277 23.9326 40.2988 24.5011V24.5033C40.2277 25.0706 39.8018 25.6275 39.0432 26.0592L33.0697 29.459Z" fill="url(#paint1_linear_384_526)"/>
<path d="M14.3378 39.7588C13.9233 39.7592 13.5614 39.6237 13.2793 39.3688L28.1217 24.502L33.0702 29.4594L15.6801 39.3561C15.199 39.6294 14.7431 39.7588 14.3378 39.7588Z" fill="url(#paint2_linear_384_526)"/>
<path d="M28.1212 24.5011L13.2773 9.63368C13.5596 9.37913 13.9209 9.24414 14.335 9.24414C14.7413 9.24414 15.1976 9.37395 15.6796 9.6477L33.0694 19.5444L28.1212 24.5011Z" fill="url(#paint3_linear_384_526)"/>
<path d="M14.3385 39.9342C13.9238 39.9342 13.5616 39.7987 13.2793 39.5437C13.2781 39.5426 13.2765 39.5419 13.2752 39.5409L13.198 39.4655C13.1956 39.4631 13.1933 39.4603 13.1904 39.4575L13.2794 39.3684C13.5617 39.6234 13.9234 39.7588 14.3381 39.7584C14.7432 39.7584 15.1991 39.629 15.6802 39.3558L33.0704 29.459L33.1818 29.5707L33.069 29.6348L15.6802 39.531C15.2417 39.78 14.8247 39.9098 14.4479 39.9314C14.4115 39.9332 14.375 39.9341 14.3385 39.9342Z" fill="url(#paint4_linear_384_526)"/>
<path d="M13.1901 39.4567C12.8416 39.0872 12.6357 38.5139 12.6357 37.7706V37.5957C12.6357 38.3386 12.8416 38.9123 13.1901 39.2818L13.2792 39.3671L13.1901 39.4567Z" fill="url(#paint5_linear_384_526)"/>
<path d="M33.1808 29.5712L33.0693 29.4596L39.0427 26.0598C39.8014 25.6281 40.2273 25.0712 40.2985 24.5039C40.2985 24.7122 40.2521 24.9202 40.16 25.1228C39.9741 25.5311 39.6017 25.9169 39.0428 26.2351L33.1808 29.5712Z" fill="url(#paint6_linear_384_526)"/>
<path d="M40.2989 24.5014C40.2278 23.9328 39.8019 23.3764 39.0433 22.9447L33.0693 19.5453L33.1807 19.4336L39.0433 22.7698C39.8797 23.2461 40.2985 23.8736 40.2989 24.5014Z" fill="url(#paint7_linear_384_526)"/>
<path d="M12.6357 11.4068V11.2235C12.6357 11.1574 12.6375 11.0927 12.6409 11.0299V11.0271L12.6412 11.0243V11.0172C12.6773 10.3774 12.8757 9.87822 13.1901 9.54492L13.2777 9.63299C12.8757 9.99638 12.6357 10.6024 12.6357 11.4068Z" fill="url(#paint8_linear_384_526)"/>
<path d="M33.0698 19.544L15.6802 9.6472C15.1981 9.3735 14.7419 9.24369 14.3357 9.24369C13.9214 9.24369 13.5601 9.37868 13.278 9.63323L13.1904 9.54511C13.2178 9.5161 13.2463 9.48813 13.2756 9.46124C13.2766 9.46027 13.278 9.4593 13.279 9.45838C13.5588 9.20577 13.9163 9.07078 14.3268 9.06836H14.3357C14.7419 9.06836 15.1981 9.19822 15.6802 9.47203L33.1818 19.432L33.0698 19.544Z" fill="url(#paint9_linear_384_526)"/>
<path d="M56.883 11.3451H55.8619C55.6612 10.6644 55.0939 10.2891 54.387 10.2891C53.3048 10.2891 52.659 11.1531 52.659 12.5582C52.659 13.9633 53.2961 14.8099 54.387 14.8099C55.0677 14.8099 55.6175 14.4608 55.8444 13.7888H56.8742C56.5513 14.967 55.5564 15.6302 54.387 15.6302C52.6939 15.6302 51.6641 14.4695 51.6641 12.5582C51.6641 10.6557 52.7026 9.46875 54.4132 9.46875C55.5913 9.46875 56.6037 10.1146 56.883 11.3451Z" fill="white"/>
<path d="M59.7327 15.6315C58.3799 15.6315 57.5596 14.7151 57.5596 13.1965C57.5596 11.6169 58.4061 10.7441 59.7327 10.7441C61.0854 10.7441 61.9058 11.678 61.9058 13.1965C61.9058 14.7675 61.0592 15.6315 59.7327 15.6315ZM59.7327 14.846C60.5268 14.846 60.9545 14.27 60.9545 13.1965C60.9545 12.1318 60.5181 11.5296 59.7327 11.5296C58.9472 11.5296 58.5108 12.1144 58.5108 13.1965C58.5108 14.2525 58.9472 14.846 59.7327 14.846Z" fill="white"/>
<path d="M62.8145 15.518V10.8663H63.7483V11.4598C64.045 10.9798 64.5075 10.7441 65.0574 10.7441C65.677 10.7441 66.1395 11.0147 66.3664 11.5471C66.6719 11.0147 67.1781 10.7441 67.789 10.7441C68.7054 10.7441 69.2988 11.3114 69.2988 12.4111V15.518H68.365V12.6031C68.365 11.9311 68.1119 11.5209 67.5359 11.5209C66.9075 11.5209 66.5235 12.1405 66.5235 12.7864V15.518H65.5897V12.6031C65.5897 11.9311 65.3279 11.5209 64.7606 11.5209C64.1323 11.5209 63.7483 12.1405 63.7483 12.7864V15.518H62.8145Z" fill="white"/>
<path d="M70.4336 10.2904V9.23438H71.3674V10.2904H70.4336ZM70.4336 15.5181V10.8664H71.3674V15.5181H70.4336Z" fill="white"/>
<path d="M72.4961 15.518V10.8663H73.4299V11.486C73.7441 10.9885 74.2328 10.7441 74.835 10.7441C75.8037 10.7441 76.4059 11.3114 76.4059 12.4111V15.518H75.4808V12.6031C75.4808 11.9311 75.1841 11.5209 74.547 11.5209C73.8488 11.5209 73.4299 12.1405 73.4299 12.7864V15.518H72.4961Z" fill="white"/>
<path d="M79.217 15.5442C78.0301 15.5442 77.3145 14.6365 77.3145 13.1529C77.3145 11.5995 78.0475 10.7441 79.217 10.7441C79.8104 10.7441 80.2555 10.9536 80.5523 11.355V10.8663H81.4861V15.6664C81.4861 16.9405 80.6395 17.5602 79.5225 17.5602C78.4054 17.5602 77.6025 17.0365 77.4366 15.9544H78.3704C78.4577 16.5129 78.9028 16.8096 79.5137 16.8096C80.1334 16.8096 80.5523 16.4867 80.5523 15.6838V14.8984C80.2381 15.326 79.7843 15.5442 79.217 15.5442ZM79.409 14.7587C80.1508 14.7587 80.5523 14.1915 80.5523 13.1442C80.5523 12.1231 80.1334 11.5296 79.409 11.5296C78.6672 11.5296 78.2657 12.0969 78.2657 13.1529C78.2657 14.174 78.6759 14.7587 79.409 14.7587Z" fill="white"/>
<path d="M85.0766 12.0882C85.0766 13.2751 88.0526 12.2802 88.0526 14.174C88.0526 15.0555 87.2584 15.6315 86.1326 15.6315C85.0068 15.6315 84.2126 15.1078 84.0381 13.9995H84.9719C85.0679 14.5842 85.5043 14.9071 86.1588 14.9071C86.7872 14.9071 87.1188 14.6278 87.1188 14.2351C87.1188 13.0744 84.1865 14.0518 84.1865 12.1405C84.1865 11.4162 84.7537 10.7441 85.9319 10.7441C86.9704 10.7441 87.7384 11.2241 87.8868 12.3849H86.953C86.8483 11.7304 86.4817 11.486 85.8883 11.486C85.3734 11.486 85.0766 11.7391 85.0766 12.0882Z" fill="white"/>
<path d="M90.8489 15.6315C89.4961 15.6315 88.6758 14.7151 88.6758 13.1965C88.6758 11.6169 89.5223 10.7441 90.8489 10.7441C92.2016 10.7441 93.022 11.678 93.022 13.1965C93.022 14.7675 92.1754 15.6315 90.8489 15.6315ZM90.8489 14.846C91.6431 14.846 92.0707 14.27 92.0707 13.1965C92.0707 12.1318 91.6343 11.5296 90.8489 11.5296C90.0634 11.5296 89.627 12.1144 89.627 13.1965C89.627 14.2525 90.0634 14.846 90.8489 14.846Z" fill="white"/>
<path d="M95.8772 15.6315C94.5245 15.6315 93.7041 14.7151 93.7041 13.1965C93.7041 11.6169 94.5506 10.7441 95.8772 10.7441C97.2299 10.7441 98.0503 11.678 98.0503 13.1965C98.0503 14.7675 97.2037 15.6315 95.8772 15.6315ZM95.8772 14.846C96.6714 14.846 97.099 14.27 97.099 13.1965C97.099 12.1318 96.6626 11.5296 95.8772 11.5296C95.0917 11.5296 94.6554 12.1144 94.6554 13.1965C94.6554 14.2525 95.0917 14.846 95.8772 14.846Z" fill="white"/>
<path d="M98.96 15.518V10.8663H99.8938V11.486C100.208 10.9885 100.697 10.7441 101.299 10.7441C102.268 10.7441 102.87 11.3114 102.87 12.4111V15.518H101.945V12.6031C101.945 11.9311 101.648 11.5209 101.011 11.5209C100.313 11.5209 99.8938 12.1405 99.8938 12.7864V15.518H98.96Z" fill="white"/>
<path d="M107.664 15.6315C106.312 15.6315 105.491 14.7151 105.491 13.1965C105.491 11.6169 106.338 10.7441 107.664 10.7441C109.017 10.7441 109.837 11.678 109.837 13.1965C109.837 14.7675 108.991 15.6315 107.664 15.6315ZM107.664 14.846C108.458 14.846 108.886 14.27 108.886 13.1965C108.886 12.1318 108.45 11.5296 107.664 11.5296C106.879 11.5296 106.442 12.1144 106.442 13.1965C106.442 14.2525 106.879 14.846 107.664 14.846Z" fill="white"/>
<path d="M110.747 15.518V10.8663H111.681V11.486C111.995 10.9885 112.484 10.7441 113.086 10.7441C114.055 10.7441 114.657 11.3114 114.657 12.4111V15.518H113.732V12.6031C113.732 11.9311 113.435 11.5209 112.798 11.5209C112.1 11.5209 111.681 12.1405 111.681 12.7864V15.518H110.747Z" fill="white"/>
</g>
<defs>
<linearGradient id="paint0_linear_384_526" x1="22.1219" y1="10.9528" x2="9.3298" y2="23.7654" gradientUnits="userSpaceOnUse">
<stop stop-color="#00A0FF"/>
<stop offset="0.00657" stop-color="#00A1FF"/>
<stop offset="0.2601" stop-color="#00BEFF"/>
<stop offset="0.5122" stop-color="#00D2FF"/>
<stop offset="0.7604" stop-color="#00DFFF"/>
<stop offset="1" stop-color="#00E3FF"/>
</linearGradient>
<linearGradient id="paint1_linear_384_526" x1="41.2231" y1="24.4159" x2="12.2335" y2="24.4159" gradientUnits="userSpaceOnUse">
<stop stop-color="#FFE000"/>
<stop offset="0.4087" stop-color="#FFBD00"/>
<stop offset="0.7754" stop-color="#FFA500"/>
<stop offset="1" stop-color="#FF9C00"/>
</linearGradient>
<linearGradient id="paint2_linear_384_526" x1="30.4429" y1="29.2152" x2="8.76593" y2="50.7685" gradientUnits="userSpaceOnUse">
<stop stop-color="#FF3A44"/>
<stop offset="1" stop-color="#C31162"/>
</linearGradient>
<linearGradient id="paint3_linear_384_526" x1="9.45172" y1="7.42952" x2="19.1127" y2="17.0501" gradientUnits="userSpaceOnUse">
<stop stop-color="#32A071"/>
<stop offset="0.0685" stop-color="#2DA771"/>
<stop offset="0.4762" stop-color="#15CF74"/>
<stop offset="0.8009" stop-color="#06E775"/>
<stop offset="1" stop-color="#00F076"/>
</linearGradient>
<linearGradient id="paint4_linear_384_526" x1="30.4324" y1="32.6537" x2="13.0723" y2="50.0418" gradientUnits="userSpaceOnUse">
<stop stop-color="#CC2E36"/>
<stop offset="1" stop-color="#9C0E4E"/>
</linearGradient>
<linearGradient id="paint5_linear_384_526" x1="14.6131" y1="10.9513" x2="3.34357" y2="22.2392" gradientUnits="userSpaceOnUse">
<stop stop-color="#008DE0"/>
<stop offset="0.00657" stop-color="#008DE0"/>
<stop offset="0.2601" stop-color="#00A7E0"/>
<stop offset="0.5122" stop-color="#00B8E0"/>
<stop offset="0.7604" stop-color="#00C4E0"/>
<stop offset="1" stop-color="#00C7E0"/>
</linearGradient>
<linearGradient id="paint6_linear_384_526" x1="41.2228" y1="24.5028" x2="12.2332" y2="24.5028" gradientUnits="userSpaceOnUse">
<stop stop-color="#E0C500"/>
<stop offset="0.4087" stop-color="#E0A600"/>
<stop offset="0.7754" stop-color="#E09100"/>
<stop offset="1" stop-color="#E08900"/>
</linearGradient>
<linearGradient id="paint7_linear_384_526" x1="41.2232" y1="24.5026" x2="12.2337" y2="24.5026" gradientUnits="userSpaceOnUse">
<stop stop-color="#FFE840"/>
<stop offset="0.4087" stop-color="#FFCE40"/>
<stop offset="0.7754" stop-color="#FFBC40"/>
<stop offset="1" stop-color="#FFB540"/>
</linearGradient>
<linearGradient id="paint8_linear_384_526" x1="14.6009" y1="10.9715" x2="3.74632" y2="21.3726" gradientUnits="userSpaceOnUse">
<stop stop-color="#40B8FF"/>
<stop offset="0.00657" stop-color="#40B9FF"/>
<stop offset="0.2601" stop-color="#40CEFF"/>
<stop offset="0.5122" stop-color="#40DDFF"/>
<stop offset="0.7604" stop-color="#40E7FF"/>
<stop offset="1" stop-color="#40EAFF"/>
</linearGradient>
<linearGradient id="paint9_linear_384_526" x1="9.43069" y1="10.5732" x2="17.1827" y2="18.3379" gradientUnits="userSpaceOnUse">
<stop stop-color="#65B895"/>
<stop offset="0.0685" stop-color="#62BD95"/>
<stop offset="0.4762" stop-color="#50DB97"/>
<stop offset="0.8009" stop-color="#44ED98"/>
<stop offset="1" stop-color="#40F498"/>
</linearGradient>
<clipPath id="clip0_384_526">
<rect width="162.545" height="48" fill="white" transform="translate(0 0.5)"/>
</clipPath>
</defs>
</svg>
