<svg width="123" height="275" viewBox="0 0 123 275" fill="none" xmlns="http://www.w3.org/2000/svg">
<path d="M52.0375 144.74L59.4587 151.121L58.6916 141.628L62.9834 150.228L66.0899 141.178L66.5988 150.686L73.1061 143.457L69.7546 152.428L78.672 148.12L71.9704 155.186L81.9403 154.456L72.9088 158.543L82.4133 161.501L72.427 161.985L80.0192 168.181L70.5982 164.99L75.1222 173.481L67.701 167.1L68.4681 176.593L64.1764 167.993L61.0698 177.043L60.5609 167.535L54.0536 174.764L57.4051 165.793L48.4877 170.101L55.1893 163.035L45.2194 163.765L54.2509 159.678L44.7464 156.72L54.7328 156.236L47.1406 150.04L56.5615 153.231L52.0375 144.74Z" fill="#004622" fill-opacity="0.1"/>
<path d="M71.7123 192.747L79.1335 199.128L78.3664 189.635L82.6582 198.234L85.7647 189.184L86.2736 198.693L92.7809 191.464L89.4294 200.435L98.3468 196.127L91.6452 203.193L101.615 202.463L92.5836 206.549L102.088 209.507L92.1018 209.992L99.694 216.188L90.273 212.997L94.7971 221.488L87.3758 215.107L88.1429 224.6L83.8512 216L80.7446 225.05L80.2357 215.541L73.7284 222.771L77.0799 213.8L68.1625 218.108L74.8641 211.041L64.8942 211.772L73.9257 207.685L64.4212 204.727L74.4076 204.243L66.8154 198.047L76.2363 201.238L71.7123 192.747Z" fill="#004622" fill-opacity="0.1"/>
<path d="M115.217 223.4L122.638 229.781L121.871 220.288L126.163 228.888L129.27 219.838L129.778 229.347L136.286 222.117L132.934 231.088L141.852 226.78L135.15 233.847L145.12 233.116L136.088 237.203L145.593 240.161L135.607 240.645L143.199 246.841L133.778 243.65L138.302 252.141L130.881 245.76L131.648 255.253L127.356 246.654L124.249 255.704L123.741 246.195L117.233 253.424L120.585 244.453L111.667 248.761L118.369 241.695L108.399 242.425L117.431 238.339L107.926 235.381L117.912 234.896L110.32 228.7L119.741 231.891L115.217 223.4Z" fill="#004622" fill-opacity="0.1"/>
<path d="M67.1742 97.7556L74.5955 104.137L73.8283 94.6436L78.1201 103.243L81.2266 94.1932L81.7355 103.702L88.2428 96.4729L84.8914 105.443L93.8087 101.136L87.1071 108.202L97.077 107.472L88.0455 111.558L97.5501 114.516L87.5637 115.001L95.1559 121.197L85.7349 118.006L90.259 126.497L82.8377 120.115L83.6048 129.609L79.3131 121.009L76.2065 130.059L75.6976 120.55L69.1903 127.779L72.5418 118.809L63.6244 123.117L70.326 116.05L60.3562 116.781L69.3876 112.694L59.8831 109.736L69.8695 109.252L62.2773 103.055L71.6982 106.247L67.1742 97.7556Z" fill="#004622" fill-opacity="0.1"/>
<path d="M104.32 51.5251L111.741 57.9063L110.974 48.4131L115.266 57.0128L118.372 47.9627L118.881 57.4716L125.388 50.2424L122.037 59.2129L130.954 54.9052L124.253 61.9716L134.223 61.2411L125.191 65.3277L134.696 68.2857L124.709 68.7703L132.301 74.9664L122.88 71.7752L127.404 80.2662L119.983 73.885L120.75 83.3782L116.459 74.7786L113.352 83.8286L112.843 74.3197L106.336 81.5489L109.687 72.5784L100.77 76.8862L107.472 69.8197L97.5017 70.5502L106.533 66.4636L97.0286 63.5056L107.015 63.0211L99.4228 56.8249L108.844 60.0161L104.32 51.5251Z" fill="#004622" fill-opacity="0.1"/>
</svg>
