<svg width="156" height="48" viewBox="0 0 156 48" fill="none" xmlns="http://www.w3.org/2000/svg">
<path d="M1.55746 3.86981C2.41762 3.86981 3.11492 3.17251 3.11492 2.31235C3.11492 1.45218 2.41762 0.754883 1.55746 0.754883C0.6973 0.754883 0 1.45218 0 2.31235C0 3.17251 0.6973 3.86981 1.55746 3.86981Z" fill="#FDFDFD"/>
<path d="M1.55746 8.28094C2.41762 8.28094 3.11492 7.58364 3.11492 6.72348C3.11492 5.86332 2.41762 5.16602 1.55746 5.16602C0.6973 5.16602 0 5.86332 0 6.72348C0 7.58364 0.6973 8.28094 1.55746 8.28094Z" fill="#FDFDFD"/>
<path d="M1.55746 12.693C2.41762 12.693 3.11492 11.9957 3.11492 11.1356C3.11492 10.2754 2.41762 9.57812 1.55746 9.57812C0.6973 9.57812 0 10.2754 0 11.1356C0 11.9957 0.6973 12.693 1.55746 12.693Z" fill="#FDFDFD"/>
<path d="M1.55746 17.1042C2.41762 17.1042 3.11492 16.4069 3.11492 15.5467C3.11492 14.6866 2.41762 13.9893 1.55746 13.9893C0.6973 13.9893 0 14.6866 0 15.5467C0 16.4069 0.6973 17.1042 1.55746 17.1042Z" fill="#FDFDFD"/>
<path d="M1.55746 21.5232C2.41762 21.5232 3.11492 20.8258 3.11492 19.9657C3.11492 19.1055 2.41762 18.4082 1.55746 18.4082C0.6973 18.4082 0 19.1055 0 19.9657C0 20.8258 0.6973 21.5232 1.55746 21.5232Z" fill="#FDFDFD"/>
<path d="M1.55746 25.9343C2.41762 25.9343 3.11492 25.2371 3.11492 24.3769C3.11492 23.5167 2.41762 22.8193 1.55746 22.8193C0.6973 22.8193 0 23.5167 0 24.3769C0 25.2371 0.6973 25.9343 1.55746 25.9343Z" fill="#FDFDFD"/>
<path d="M1.55746 30.3462C2.41762 30.3462 3.11492 29.649 3.11492 28.7888C3.11492 27.9286 2.41762 27.2314 1.55746 27.2314C0.6973 27.2314 0 27.9286 0 28.7888C0 29.649 0.6973 30.3462 1.55746 30.3462Z" fill="#FDFDFD"/>
<path d="M1.55746 34.7586C2.41762 34.7586 3.11492 34.0612 3.11492 33.201C3.11492 32.341 2.41762 31.6436 1.55746 31.6436C0.6973 31.6436 0 32.341 0 33.201C0 34.0612 0.6973 34.7586 1.55746 34.7586Z" fill="#FDFDFD"/>
<path d="M1.55746 39.1763C2.41762 39.1763 3.11492 38.4791 3.11492 37.6189C3.11492 36.7587 2.41762 36.0615 1.55746 36.0615C0.6973 36.0615 0 36.7587 0 37.6189C0 38.4791 0.6973 39.1763 1.55746 39.1763Z" fill="#FDFDFD"/>
<path d="M1.55746 43.5886C2.41762 43.5886 3.11492 42.8912 3.11492 42.031C3.11492 41.171 2.41762 40.4736 1.55746 40.4736C0.6973 40.4736 0 41.171 0 42.031C0 42.8912 0.6973 43.5886 1.55746 43.5886Z" fill="#FDFDFD"/>
<path d="M5.98971 8.28094C6.84989 8.28094 7.54719 7.58364 7.54719 6.72348C7.54719 5.86332 6.84989 5.16602 5.98971 5.16602C5.12955 5.16602 4.43225 5.86332 4.43225 6.72348C4.43225 7.58364 5.12955 8.28094 5.98971 8.28094Z" fill="#FDFDFD"/>
<path d="M5.98971 12.693C6.84989 12.693 7.54719 11.9957 7.54719 11.1356C7.54719 10.2754 6.84989 9.57812 5.98971 9.57812C5.12955 9.57812 4.43225 10.2754 4.43225 11.1356C4.43225 11.9957 5.12955 12.693 5.98971 12.693Z" fill="#FDFDFD"/>
<path d="M5.98971 17.1042C6.84989 17.1042 7.54719 16.4069 7.54719 15.5467C7.54719 14.6866 6.84989 13.9893 5.98971 13.9893C5.12955 13.9893 4.43225 14.6866 4.43225 15.5467C4.43225 16.4069 5.12955 17.1042 5.98971 17.1042Z" fill="#FDFDFD"/>
<path d="M5.98971 21.5232C6.84989 21.5232 7.54719 20.8258 7.54719 19.9657C7.54719 19.1055 6.84989 18.4082 5.98971 18.4082C5.12955 18.4082 4.43225 19.1055 4.43225 19.9657C4.43225 20.8258 5.12955 21.5232 5.98971 21.5232Z" fill="#FDFDFD"/>
<path d="M5.98971 25.9343C6.84989 25.9343 7.54719 25.2371 7.54719 24.3769C7.54719 23.5167 6.84989 22.8193 5.98971 22.8193C5.12955 22.8193 4.43225 23.5167 4.43225 24.3769C4.43225 25.2371 5.12955 25.9343 5.98971 25.9343Z" fill="#FDFDFD"/>
<path d="M5.98971 30.3462C6.84989 30.3462 7.54719 29.649 7.54719 28.7888C7.54719 27.9286 6.84989 27.2314 5.98971 27.2314C5.12955 27.2314 4.43225 27.9286 4.43225 28.7888C4.43225 29.649 5.12955 30.3462 5.98971 30.3462Z" fill="#FDFDFD"/>
<path d="M5.98971 34.7586C6.84989 34.7586 7.54719 34.0612 7.54719 33.201C7.54719 32.341 6.84989 31.6436 5.98971 31.6436C5.12955 31.6436 4.43225 32.341 4.43225 33.201C4.43225 34.0612 5.12955 34.7586 5.98971 34.7586Z" fill="#FDFDFD"/>
<path d="M5.98971 39.1763C6.84989 39.1763 7.54719 38.4791 7.54719 37.6189C7.54719 36.7587 6.84989 36.0615 5.98971 36.0615C5.12955 36.0615 4.43225 36.7587 4.43225 37.6189C4.43225 38.4791 5.12955 39.1763 5.98971 39.1763Z" fill="#FDFDFD"/>
<path d="M5.98971 43.5886C6.84989 43.5886 7.54719 42.8912 7.54719 42.031C7.54719 41.171 6.84989 40.4736 5.98971 40.4736C5.12955 40.4736 4.43225 41.171 4.43225 42.031C4.43225 42.8912 5.12955 43.5886 5.98971 43.5886Z" fill="#FDFDFD"/>
<path d="M10.4288 21.5232C11.289 21.5232 11.9863 20.8258 11.9863 19.9657C11.9863 19.1055 11.289 18.4082 10.4288 18.4082C9.56867 18.4082 8.87137 19.1055 8.87137 19.9657C8.87137 20.8258 9.56867 21.5232 10.4288 21.5232Z" fill="#FDFDFD"/>
<path d="M10.4288 25.9343C11.289 25.9343 11.9863 25.2371 11.9863 24.3769C11.9863 23.5167 11.289 22.8193 10.4288 22.8193C9.56867 22.8193 8.87137 23.5167 8.87137 24.3769C8.87137 25.2371 9.56867 25.9343 10.4288 25.9343Z" fill="#FDFDFD"/>
<path d="M10.4288 30.3462C11.289 30.3462 11.9863 29.649 11.9863 28.7888C11.9863 27.9286 11.289 27.2314 10.4288 27.2314C9.56867 27.2314 8.87137 27.9286 8.87137 28.7888C8.87137 29.649 9.56867 30.3462 10.4288 30.3462Z" fill="#FDFDFD"/>
<path d="M10.4288 34.7586C11.289 34.7586 11.9863 34.0612 11.9863 33.201C11.9863 32.341 11.289 31.6436 10.4288 31.6436C9.56867 31.6436 8.87137 32.341 8.87137 33.201C8.87137 34.0612 9.56867 34.7586 10.4288 34.7586Z" fill="#FDFDFD"/>
<path d="M10.4288 39.1763C11.289 39.1763 11.9863 38.4791 11.9863 37.6189C11.9863 36.7587 11.289 36.0615 10.4288 36.0615C9.56867 36.0615 8.87137 36.7587 8.87137 37.6189C8.87137 38.4791 9.56867 39.1763 10.4288 39.1763Z" fill="#FDFDFD"/>
<path d="M10.4288 43.5886C11.289 43.5886 11.9863 42.8912 11.9863 42.031C11.9863 41.171 11.289 40.4736 10.4288 40.4736C9.56867 40.4736 8.87137 41.171 8.87137 42.031C8.87137 42.8912 9.56867 43.5886 10.4288 43.5886Z" fill="#FDFDFD"/>
<path d="M14.861 21.5232C15.7212 21.5232 16.4185 20.8258 16.4185 19.9657C16.4185 19.1055 15.7212 18.4082 14.861 18.4082C14.0009 18.4082 13.3036 19.1055 13.3036 19.9657C13.3036 20.8258 14.0009 21.5232 14.861 21.5232Z" fill="#FDFDFD"/>
<path d="M14.861 25.9343C15.7212 25.9343 16.4185 25.2371 16.4185 24.3769C16.4185 23.5167 15.7212 22.8193 14.861 22.8193C14.0009 22.8193 13.3036 23.5167 13.3036 24.3769C13.3036 25.2371 14.0009 25.9343 14.861 25.9343Z" fill="#FDFDFD"/>
<path d="M14.861 30.3462C15.7212 30.3462 16.4185 29.649 16.4185 28.7888C16.4185 27.9286 15.7212 27.2314 14.861 27.2314C14.0009 27.2314 13.3036 27.9286 13.3036 28.7888C13.3036 29.649 14.0009 30.3462 14.861 30.3462Z" fill="#FDFDFD"/>
<path d="M14.861 34.7586C15.7212 34.7586 16.4185 34.0612 16.4185 33.201C16.4185 32.341 15.7212 31.6436 14.861 31.6436C14.0009 31.6436 13.3036 32.341 13.3036 33.201C13.3036 34.0612 14.0009 34.7586 14.861 34.7586Z" fill="#FDFDFD"/>
<path d="M14.861 39.1763C15.7212 39.1763 16.4185 38.4791 16.4185 37.6189C16.4185 36.7587 15.7212 36.0615 14.861 36.0615C14.0009 36.0615 13.3036 36.7587 13.3036 37.6189C13.3036 38.4791 14.0009 39.1763 14.861 39.1763Z" fill="#FDFDFD"/>
<path d="M19.3002 21.5232C20.1604 21.5232 20.8576 20.8258 20.8576 19.9657C20.8576 19.1055 20.1604 18.4082 19.3002 18.4082C18.44 18.4082 17.7427 19.1055 17.7427 19.9657C17.7427 20.8258 18.44 21.5232 19.3002 21.5232Z" fill="#FDFDFD"/>
<path d="M19.3002 25.9343C20.1604 25.9343 20.8576 25.2371 20.8576 24.3769C20.8576 23.5167 20.1604 22.8193 19.3002 22.8193C18.44 22.8193 17.7427 23.5167 17.7427 24.3769C17.7427 25.2371 18.44 25.9343 19.3002 25.9343Z" fill="#FDFDFD"/>
<path d="M19.3002 30.3462C20.1604 30.3462 20.8576 29.649 20.8576 28.7888C20.8576 27.9286 20.1604 27.2314 19.3002 27.2314C18.44 27.2314 17.7427 27.9286 17.7427 28.7888C17.7427 29.649 18.44 30.3462 19.3002 30.3462Z" fill="#FDFDFD"/>
<path d="M19.3002 34.7586C20.1604 34.7586 20.8576 34.0612 20.8576 33.201C20.8576 32.341 20.1604 31.6436 19.3002 31.6436C18.44 31.6436 17.7427 32.341 17.7427 33.201C17.7427 34.0612 18.44 34.7586 19.3002 34.7586Z" fill="#FDFDFD"/>
<path d="M23.7392 21.5232C24.5994 21.5232 25.2968 20.8258 25.2968 19.9657C25.2968 19.1055 24.5994 18.4082 23.7392 18.4082C22.8792 18.4082 22.1818 19.1055 22.1818 19.9657C22.1818 20.8258 22.8792 21.5232 23.7392 21.5232Z" fill="#FDFDFD"/>
<path d="M23.7392 25.9343C24.5994 25.9343 25.2968 25.2371 25.2968 24.3769C25.2968 23.5167 24.5994 22.8193 23.7392 22.8193C22.8792 22.8193 22.1818 23.5167 22.1818 24.3769C22.1818 25.2371 22.8792 25.9343 23.7392 25.9343Z" fill="#FDFDFD"/>
<path d="M28.1716 25.9343C29.0316 25.9343 29.729 25.2371 29.729 24.3769C29.729 23.5167 29.0316 22.8193 28.1716 22.8193C27.3114 22.8193 26.614 23.5167 26.614 24.3769C26.614 25.2371 27.3114 25.9343 28.1716 25.9343Z" fill="#FDFDFD"/>
<path d="M23.7392 30.3462C24.5994 30.3462 25.2968 29.649 25.2968 28.7888C25.2968 27.9286 24.5994 27.2314 23.7392 27.2314C22.8792 27.2314 22.1818 27.9286 22.1818 28.7888C22.1818 29.649 22.8792 30.3462 23.7392 30.3462Z" fill="#FDFDFD"/>
<path d="M23.7392 34.7586C24.5994 34.7586 25.2968 34.0612 25.2968 33.201C25.2968 32.341 24.5994 31.6436 23.7392 31.6436C22.8792 31.6436 22.1818 32.341 22.1818 33.201C22.1818 34.0612 22.8792 34.7586 23.7392 34.7586Z" fill="#FDFDFD"/>
<path d="M28.1716 30.3462C29.0316 30.3462 29.729 29.649 29.729 28.7888C29.729 27.9286 29.0316 27.2314 28.1716 27.2314C27.3114 27.2314 26.614 27.9286 26.614 28.7888C26.614 29.649 27.3114 30.3462 28.1716 30.3462Z" fill="#FDFDFD"/>
<path d="M28.1716 34.7586C29.0316 34.7586 29.729 34.0612 29.729 33.201C29.729 32.341 29.0316 31.6436 28.1716 31.6436C27.3114 31.6436 26.614 32.341 26.614 33.201C26.614 34.0612 27.3114 34.7586 28.1716 34.7586Z" fill="#FDFDFD"/>
<path d="M32.6106 30.3462C33.4708 30.3462 34.168 29.649 34.168 28.7888C34.168 27.9286 33.4708 27.2314 32.6106 27.2314C31.7504 27.2314 31.0532 27.9286 31.0532 28.7888C31.0532 29.649 31.7504 30.3462 32.6106 30.3462Z" fill="#FDFDFD"/>
<path d="M32.6106 34.7586C33.4708 34.7586 34.168 34.0612 34.168 33.201C34.168 32.341 33.4708 31.6436 32.6106 31.6436C31.7504 31.6436 31.0532 32.341 31.0532 33.201C31.0532 34.0612 31.7504 34.7586 32.6106 34.7586Z" fill="#FDFDFD"/>
<path d="M19.3002 38.6277C20.1604 38.6277 20.8576 37.9303 20.8576 37.0703C20.8576 36.2101 20.1604 35.5127 19.3002 35.5127C18.44 35.5127 17.7427 36.2101 17.7427 37.0703C17.7427 37.9303 18.44 38.6277 19.3002 38.6277Z" fill="#FDFDFD"/>
<path d="M23.7392 38.6277C24.5994 38.6277 25.2968 37.9303 25.2968 37.0703C25.2968 36.2101 24.5994 35.5127 23.7392 35.5127C22.8792 35.5127 22.1818 36.2101 22.1818 37.0703C22.1818 37.9303 22.8792 38.6277 23.7392 38.6277Z" fill="#FDFDFD"/>
<path d="M28.1716 38.6277C29.0316 38.6277 29.729 37.9303 29.729 37.0703C29.729 36.2101 29.0316 35.5127 28.1716 35.5127C27.3114 35.5127 26.614 36.2101 26.614 37.0703C26.614 37.9303 27.3114 38.6277 28.1716 38.6277Z" fill="#FDFDFD"/>
<path d="M32.6106 38.6277C33.4708 38.6277 34.168 37.9303 34.168 37.0703C34.168 36.2101 33.4708 35.5127 32.6106 35.5127C31.7504 35.5127 31.0532 36.2101 31.0532 37.0703C31.0532 37.9303 31.7504 38.6277 32.6106 38.6277Z" fill="#FDFDFD"/>
<path d="M37.0428 30.3462C37.903 30.3462 38.6004 29.649 38.6004 28.7888C38.6004 27.9286 37.903 27.2314 37.0428 27.2314C36.1828 27.2314 35.4854 27.9286 35.4854 28.7888C35.4854 29.649 36.1828 30.3462 37.0428 30.3462Z" fill="#FDFDFD"/>
<path d="M37.0428 34.7586C37.903 34.7586 38.6004 34.0612 38.6004 33.201C38.6004 32.341 37.903 31.6436 37.0428 31.6436C36.1828 31.6436 35.4854 32.341 35.4854 33.201C35.4854 34.0612 36.1828 34.7586 37.0428 34.7586Z" fill="#FDFDFD"/>
<path d="M37.0428 39.1763C37.903 39.1763 38.6004 38.4791 38.6004 37.6189C38.6004 36.7587 37.903 36.0615 37.0428 36.0615C36.1828 36.0615 35.4854 36.7587 35.4854 37.6189C35.4854 38.4791 36.1828 39.1763 37.0428 39.1763Z" fill="#FDFDFD"/>
<path d="M37.0428 43.5886C37.903 43.5886 38.6004 42.8912 38.6004 42.031C38.6004 41.171 37.903 40.4736 37.0428 40.4736C36.1828 40.4736 35.4854 41.171 35.4854 42.031C35.4854 42.8912 36.1828 43.5886 37.0428 43.5886Z" fill="#FDFDFD"/>
<path d="M41.482 30.3462C42.3422 30.3462 43.0394 29.649 43.0394 28.7888C43.0394 27.9286 42.3422 27.2314 41.482 27.2314C40.6218 27.2314 39.9246 27.9286 39.9246 28.7888C39.9246 29.649 40.6218 30.3462 41.482 30.3462Z" fill="#FDFDFD"/>
<path d="M41.482 34.7586C42.3422 34.7586 43.0394 34.0612 43.0394 33.201C43.0394 32.341 42.3422 31.6436 41.482 31.6436C40.6218 31.6436 39.9246 32.341 39.9246 33.201C39.9246 34.0612 40.6218 34.7586 41.482 34.7586Z" fill="#FDFDFD"/>
<path d="M41.482 39.1763C42.3422 39.1763 43.0394 38.4791 43.0394 37.6189C43.0394 36.7587 42.3422 36.0615 41.482 36.0615C40.6218 36.0615 39.9246 36.7587 39.9246 37.6189C39.9246 38.4791 40.6218 39.1763 41.482 39.1763Z" fill="#FDFDFD"/>
<path d="M41.482 43.5886C42.3422 43.5886 43.0394 42.8912 43.0394 42.031C43.0394 41.171 42.3422 40.4736 41.482 40.4736C40.6218 40.4736 39.9246 41.171 39.9246 42.031C39.9246 42.8912 40.6218 43.5886 41.482 43.5886Z" fill="#FDFDFD"/>
<path d="M45.9142 34.7586C46.7744 34.7586 47.4718 34.0612 47.4718 33.201C47.4718 32.341 46.7744 31.6436 45.9142 31.6436C45.054 31.6436 44.3568 32.341 44.3568 33.201C44.3568 34.0612 45.054 34.7586 45.9142 34.7586Z" fill="#FDFDFD"/>
<path d="M49.8044 34.7586C50.6646 34.7586 51.362 34.0612 51.362 33.201C51.362 32.341 50.6646 31.6436 49.8044 31.6436C48.9442 31.6436 48.247 32.341 48.247 33.201C48.247 34.0612 48.9442 34.7586 49.8044 34.7586Z" fill="#FDFDFD"/>
<path d="M45.9142 43.5886C46.7744 43.5886 47.4718 42.8912 47.4718 42.031C47.4718 41.171 46.7744 40.4736 45.9142 40.4736C45.054 40.4736 44.3568 41.171 44.3568 42.031C44.3568 42.8912 45.054 43.5886 45.9142 43.5886Z" fill="#FDFDFD"/>
<path d="M45.9142 47.9998C46.7744 47.9998 47.4718 47.3026 47.4718 46.4424C47.4718 45.5822 46.7744 44.8848 45.9142 44.8848C45.054 44.8848 44.3568 45.5822 44.3568 46.4424C44.3568 47.3026 45.054 47.9998 45.9142 47.9998Z" fill="#FDFDFD"/>
<path d="M50.3534 30.3462C51.2136 30.3462 51.9108 29.649 51.9108 28.7888C51.9108 27.9286 51.2136 27.2314 50.3534 27.2314C49.4932 27.2314 48.7958 27.9286 48.7958 28.7888C48.7958 29.649 49.4932 30.3462 50.3534 30.3462Z" fill="#FDFDFD"/>
<path d="M50.3534 43.5886C51.2136 43.5886 51.9108 42.8912 51.9108 42.031C51.9108 41.171 51.2136 40.4736 50.3534 40.4736C49.4932 40.4736 48.7958 41.171 48.7958 42.031C48.7958 42.8912 49.4932 43.5886 50.3534 43.5886Z" fill="#FDFDFD"/>
<path d="M50.3534 47.9998C51.2136 47.9998 51.9108 47.3026 51.9108 46.4424C51.9108 45.5822 51.2136 44.8848 50.3534 44.8848C49.4932 44.8848 48.7958 45.5822 48.7958 46.4424C48.7958 47.3026 49.4932 47.9998 50.3534 47.9998Z" fill="#FDFDFD"/>
<path d="M81.7084 11.7873C81.7084 15.5746 80.7684 18.4883 78.8886 20.5284C77.0086 22.5684 74.3122 23.586 70.7994 23.5814C67.2864 23.5814 64.5924 22.5638 62.717 20.5284C60.8416 18.4929 59.9016 15.5678 59.897 11.753C59.897 7.93824 60.8394 5.02688 62.7238 3.01886C64.6084 1.01086 67.3116 0.00457404 70.8336 0C74.3556 0 77.0474 1.01315 78.909 3.03946C80.7752 5.07032 81.7084 7.97942 81.7084 11.7873ZM64.988 11.7873C64.988 14.3442 65.4728 16.2699 66.4426 17.5643C66.9546 18.22 67.6194 18.7403 68.3788 19.0799C69.1382 19.4196 69.9692 19.5682 70.7994 19.5129C74.6782 19.5129 76.6152 16.9377 76.6106 11.7873C76.606 6.63694 74.6804 4.05488 70.8336 4.04116C70 3.98736 69.166 4.13726 68.4034 4.47794C67.6406 4.81862 66.9724 5.33984 66.4562 5.99656C65.4752 7.29332 64.988 9.22814 64.988 11.7873Z" fill="#FDFDFD"/>
<path d="M95.1492 10.4081H104.24V22.2847C102.886 22.7477 101.495 23.0965 100.082 23.3275C98.7602 23.5209 97.4254 23.6173 96.0892 23.6157C92.6312 23.6157 89.992 22.6003 88.1716 20.5693C86.351 18.5385 85.4362 15.6225 85.4272 11.8215C85.4272 8.12112 86.486 5.23718 88.6038 3.16972C90.7216 1.10224 93.6626 0.0570732 97.427 0.034203C99.7662 0.0303322 102.081 0.509156 104.226 1.44072L102.614 5.33094C100.999 4.50774 99.2124 4.07754 97.3996 4.07538C96.4522 4.03188 95.5068 4.19742 94.6306 4.56024C93.7544 4.92308 92.9686 5.47432 92.3294 6.17486C91.0058 7.76546 90.3298 9.79614 90.4356 11.8627C90.4356 14.3532 90.9434 16.2469 91.9588 17.5574C92.4892 18.2163 93.1694 18.7389 93.9428 19.0815C94.7162 19.424 95.5604 19.5766 96.4048 19.5265C97.4396 19.5249 98.4718 19.4192 99.4854 19.2109V14.4081H95.1424L95.1492 10.4081Z" fill="#FDFDFD"/>
<path d="M128.343 0.363281V15.1832C128.375 16.7434 127.981 18.2829 127.204 19.636C126.434 20.923 125.29 21.945 123.925 22.5656C122.329 23.2772 120.594 23.624 118.847 23.581C115.897 23.581 113.61 22.8264 111.986 21.317C111.163 20.521 110.519 19.5583 110.098 18.4934C109.677 17.4285 109.488 16.2858 109.544 15.142V0.363281H114.388V14.4079C114.388 16.1712 114.738 17.4679 115.451 18.2912C116.165 19.1146 117.338 19.5331 118.978 19.5331C120.617 19.5331 121.722 19.1146 122.408 18.2844C123.094 17.4542 123.485 16.1506 123.485 14.3736V0.363281H128.343Z" fill="#FDFDFD"/>
<path d="M154.271 23.2724H148.096L138.134 5.94133H137.99C138.191 9.00137 138.292 11.1832 138.292 12.4868V23.2724H133.949V0.363281H140.075L150.024 17.5159H150.141C149.983 14.5382 149.901 12.4387 149.901 11.2038V0.363281H154.271V23.2724Z" fill="#FDFDFD"/>
<path d="M64.9674 29.5028C65.3004 29.8186 65.5606 30.2032 65.73 30.6298C65.8994 31.0562 65.974 31.5146 65.9486 31.9728C65.9718 32.4334 65.8992 32.894 65.735 33.3252C65.5708 33.7562 65.3188 34.1486 64.9948 34.477C64.1818 35.1506 63.1382 35.4804 62.0858 35.3964H59.8284V28.6382H62.1612C63.1722 28.5624 64.1744 28.8712 64.9674 29.5028ZM64.7958 32.0002C64.7958 30.4496 63.904 29.6674 62.12 29.6674H60.9742V34.3192H62.2504C62.93 34.3658 63.6024 34.1578 64.1372 33.736C64.362 33.5144 64.537 33.2474 64.6506 32.9528C64.7642 32.6582 64.8138 32.3428 64.7958 32.0276V32.0002Z" fill="#FDFDFD"/>
<path d="M68.398 28.6377H69.5368V35.4233H68.398V28.6377Z" fill="#FDFDFD"/>
<path d="M77.091 32.1236H78.2162V34.4428C77.863 34.8084 77.4348 35.0928 76.961 35.2764C76.487 35.46 75.9788 35.5384 75.4718 35.5062C75.0066 35.5178 74.5442 35.4358 74.1114 35.2648C73.6788 35.094 73.2852 34.8378 72.9536 34.5114C72.2962 33.8394 71.928 32.9368 71.928 31.9968C71.928 31.0568 72.2962 30.154 72.9536 29.4822C73.2828 29.1518 73.6758 28.8918 74.1088 28.7184C74.5418 28.545 75.0054 28.4618 75.4718 28.4736C76.3624 28.444 77.2318 28.75 77.9074 29.3312L77.3174 30.1888C77.0824 29.9814 76.8098 29.8208 76.5146 29.7154C76.2118 29.6256 75.8972 29.5816 75.5814 29.5852C75.2624 29.5802 74.9454 29.6384 74.6486 29.756C74.352 29.8738 74.0814 30.0488 73.8524 30.2712C73.4092 30.7432 73.1624 31.3664 73.1624 32.014C73.1624 32.6614 73.4092 33.2846 73.8524 33.7566C74.0666 33.976 74.323 34.1496 74.6058 34.2676C74.8888 34.3854 75.1926 34.445 75.4992 34.4428C76.0656 34.461 76.6254 34.3158 77.1114 34.0242L77.091 32.1236Z" fill="#FDFDFD"/>
<path d="M80.7136 28.6377H81.8594V35.4233H80.7136V28.6377Z" fill="#FDFDFD"/>
<path d="M87.2796 29.6875V35.4233H86.1338V29.6875H84.0754V28.6377H89.338V29.6875H87.2796Z" fill="#FDFDFD"/>
<path d="M91.9794 33.8797L91.2934 35.4233H90.0652L93.0566 28.6377H94.2848L97.2692 35.4233H96.0548L95.3688 33.8797H91.9794ZM94.909 32.8231L93.674 30.0237L92.446 32.8231H94.909Z" fill="#FDFDFD"/>
<path d="M99.1904 35.4233V28.6377H100.336V34.3393H103.437V35.4233H99.1904Z" fill="#FDFDFD"/>
<path d="M111.341 29.5023C111.053 29.4907 110.767 29.5621 110.518 29.7081C110.415 29.7737 110.332 29.8655 110.276 29.9741C110.221 30.0825 110.195 30.2039 110.202 30.3255C110.193 30.4495 110.217 30.5737 110.273 30.6849C110.328 30.7961 110.413 30.8901 110.518 30.9569C110.95 31.1791 111.412 31.3363 111.89 31.4233C112.462 31.5271 113.002 31.7619 113.468 32.1095C113.655 32.2833 113.799 32.4971 113.89 32.7347C113.982 32.9725 114.018 33.2279 113.997 33.4817C114.001 33.7585 113.942 34.0327 113.823 34.2827C113.704 34.5327 113.528 34.7517 113.31 34.9225C112.81 35.3115 112.187 35.5085 111.554 35.4783C110.506 35.4853 109.496 35.0927 108.727 34.3805L109.448 33.5159C110.026 34.0641 110.785 34.3815 111.581 34.4079C111.892 34.4245 112.2 34.3403 112.46 34.1677C112.563 34.0987 112.648 34.0047 112.705 33.8943C112.763 33.7841 112.792 33.6609 112.789 33.5365C112.799 33.4215 112.779 33.3059 112.733 33.2003C112.686 33.0949 112.613 33.0029 112.521 32.9329C112.196 32.7425 111.841 32.6079 111.472 32.5349C111.085 32.4515 110.704 32.3415 110.333 32.2055C110.087 32.1079 109.856 31.9761 109.647 31.8145C109.447 31.6485 109.289 31.4377 109.185 31.1995C109.081 30.9611 109.035 30.7017 109.05 30.4423C109.037 30.1621 109.092 29.8831 109.212 29.6295C109.331 29.3759 109.511 29.1557 109.736 28.9877C110.231 28.6393 110.826 28.4611 111.431 28.4799C111.871 28.4797 112.31 28.5515 112.727 28.6927C113.13 28.8225 113.505 29.0275 113.832 29.2965L113.208 30.1883C112.97 29.9843 112.691 29.8323 112.391 29.7425C112.058 29.6025 111.702 29.5211 111.341 29.5023Z" fill="#FDFDFD"/>
<path d="M117.901 33.8727C118.063 34.0439 118.259 34.1801 118.476 34.2731C118.693 34.3661 118.927 34.4141 119.163 34.4141C119.399 34.4141 119.633 34.3661 119.85 34.2731C120.067 34.1801 120.263 34.0439 120.425 33.8727C120.754 33.4533 120.919 32.9295 120.892 32.3977V28.6377H122.038V32.4457C122.065 32.8573 122.007 33.2701 121.867 33.6583C121.728 34.0467 121.51 34.4023 121.228 34.7029C120.661 35.2079 119.929 35.4869 119.17 35.4869C118.411 35.4869 117.678 35.2079 117.111 34.7029C116.829 34.4023 116.612 34.0467 116.472 33.6583C116.333 33.2701 116.275 32.8573 116.302 32.4457V28.6377H117.448V32.3977C117.416 32.9277 117.577 33.4515 117.901 33.8727Z" fill="#FDFDFD"/>
<path d="M125.949 35.4233H124.803V28.6377H126.587L128.645 32.8985L130.703 28.6377H132.48V35.4233H131.321V30.1267L128.947 34.8333H128.302L125.942 30.1267L125.949 35.4233Z" fill="#FDFDFD"/>
<path d="M136.467 35.4233H135.321V28.6377H137.105L139.163 32.8985L141.221 28.6377H142.998V35.4233H141.852V30.1267L139.485 34.8333H138.84L136.487 30.1267L136.467 35.4233Z" fill="#FDFDFD"/>
<path d="M145.832 28.6377H146.978V35.4233H145.832V28.6377Z" fill="#FDFDFD"/>
<path d="M152.398 29.6875V35.4233H151.252V29.6875H149.194V28.6377H154.456V29.6875H152.398Z" fill="#FDFDFD"/>
<path d="M122.955 47.3362V45.713C122.955 45.374 123.009 45.0782 123.117 44.8256C123.232 44.573 123.413 44.3494 123.658 44.1546C123.903 43.9526 124.228 43.765 124.632 43.592L125.909 43.04C126.234 42.903 126.472 42.7334 126.623 42.5314C126.782 42.3294 126.861 42.0732 126.861 41.763C126.861 41.4456 126.764 41.1858 126.569 40.9838C126.374 40.7818 126.089 40.6808 125.714 40.6808C125.339 40.6808 125.054 40.7854 124.859 40.9946C124.664 41.2038 124.567 41.4852 124.567 41.8388H122.846C122.846 41.341 122.955 40.8936 123.171 40.4968C123.388 40.0928 123.709 39.7754 124.134 39.5446C124.56 39.3136 125.087 39.1982 125.714 39.1982C126.342 39.1982 126.865 39.31 127.283 39.5336C127.709 39.7574 128.03 40.0568 128.247 40.432C128.47 40.807 128.582 41.2292 128.582 41.698V41.828C128.582 42.434 128.416 42.9354 128.084 43.3322C127.752 43.7218 127.24 44.068 126.547 44.371L125.281 44.923C125.065 45.0168 124.91 45.1142 124.816 45.2152C124.729 45.3162 124.686 45.4532 124.686 45.6264V46.1676L124.264 45.8104H128.593V47.3362H122.955Z" fill="#FDFDFD"/>
<path d="M133.277 47.5418C132.649 47.5418 132.112 47.4408 131.664 47.2388C131.217 47.0296 130.853 46.7482 130.571 46.3948C130.297 46.0412 130.092 45.6336 129.955 45.172C129.825 44.703 129.76 44.2088 129.76 43.6892V43.0724C129.76 42.351 129.886 41.698 130.139 41.1136C130.391 40.5294 130.777 40.064 131.297 39.7176C131.816 39.3714 132.476 39.1982 133.277 39.1982C134.078 39.1982 134.734 39.3714 135.247 39.7176C135.766 40.064 136.152 40.5294 136.404 41.1136C136.657 41.698 136.783 42.351 136.783 43.0724V43.6892C136.783 44.2088 136.715 44.703 136.578 45.172C136.448 45.6336 136.242 46.0412 135.961 46.3948C135.687 46.7482 135.326 47.0296 134.879 47.2388C134.438 47.4408 133.905 47.5418 133.277 47.5418ZM133.277 45.9078C133.861 45.9078 134.294 45.7058 134.576 45.3018C134.864 44.8906 135.008 44.2556 135.008 43.3972C135.008 42.488 134.861 41.8352 134.565 41.4384C134.276 41.0344 133.847 40.8324 133.277 40.8324C132.693 40.8324 132.256 41.0344 131.967 41.4384C131.679 41.8352 131.535 42.4808 131.535 43.3754C131.535 44.2412 131.675 44.8798 131.957 45.291C132.245 45.7022 132.685 45.9078 133.277 45.9078Z" fill="#FDFDFD"/>
<path d="M138.046 47.3362V45.713C138.046 45.374 138.1 45.0782 138.208 44.8256C138.324 44.573 138.504 44.3494 138.75 44.1546C138.995 43.9526 139.319 43.765 139.723 43.592L141 43.04C141.325 42.903 141.563 42.7334 141.715 42.5314C141.873 42.3294 141.953 42.0732 141.953 41.763C141.953 41.4456 141.855 41.1858 141.661 40.9838C141.466 40.7818 141.181 40.6808 140.806 40.6808C140.431 40.6808 140.146 40.7854 139.951 40.9946C139.756 41.2038 139.659 41.4852 139.659 41.8388H137.938C137.938 41.341 138.046 40.8936 138.263 40.4968C138.479 40.0928 138.8 39.7754 139.226 39.5446C139.651 39.3136 140.178 39.1982 140.806 39.1982C141.433 39.1982 141.956 39.31 142.375 39.5336C142.801 39.7574 143.122 40.0568 143.338 40.432C143.562 40.807 143.673 41.2292 143.673 41.698V41.828C143.673 42.434 143.508 42.9354 143.176 43.3322C142.844 43.7218 142.332 44.068 141.639 44.371L140.373 44.923C140.156 45.0168 140.001 45.1142 139.907 45.2152C139.821 45.3162 139.778 45.4532 139.778 45.6264V46.1676L139.356 45.8104H143.684V47.3362H138.046Z" fill="#FDFDFD"/>
<path d="M147.589 47.5421C146.976 47.5421 146.442 47.4303 145.988 47.2067C145.54 46.9759 145.198 46.6657 144.96 46.2761C144.721 45.8865 144.602 45.4463 144.602 44.9557H146.312C146.312 45.2877 146.424 45.5581 146.648 45.7675C146.871 45.9695 147.185 46.0705 147.589 46.0705C147.856 46.0705 148.083 46.0199 148.271 45.9189C148.459 45.8179 148.603 45.6809 148.704 45.5077C148.805 45.3273 148.855 45.1253 148.855 44.9017C148.855 44.5553 148.744 44.2703 148.52 44.0467C148.303 43.8231 147.993 43.7113 147.589 43.7113C147.373 43.7113 147.182 43.7437 147.016 43.8087C146.857 43.8735 146.72 43.9529 146.604 44.0467L145.804 42.6939L148.195 41.1357L148.098 40.9517H144.927V39.4365H150.251V41.0815L147.492 42.8347L146.626 42.5965C146.77 42.5533 146.922 42.5209 147.081 42.4991C147.247 42.4703 147.423 42.4559 147.611 42.4559C148.224 42.4559 148.751 42.5569 149.191 42.7589C149.631 42.9609 149.97 43.2459 150.208 43.6139C150.453 43.9745 150.576 44.3967 150.576 44.8801V45.0099C150.576 45.4933 150.453 45.9261 150.208 46.3085C149.97 46.6909 149.627 46.9939 149.18 47.2175C148.74 47.4339 148.21 47.5421 147.589 47.5421Z" fill="#FDFDFD"/>
</svg>
