<svg width="634" height="473" viewBox="0 0 634 473" fill="none" xmlns="http://www.w3.org/2000/svg">
<path opacity="0.0344828" d="M132.904 230.265C109.901 221.004 113.433 187.396 137.859 183.121L207.14 170.994C220.509 168.654 229.609 156.129 227.703 142.691L217.827 73.054C214.345 48.5023 245.217 34.7572 261.133 53.7732L306.275 107.709C314.986 118.117 330.383 119.735 341.068 111.366L396.437 67.9942C415.959 52.7029 443.298 72.5662 434.788 95.8575L410.649 161.92C405.991 174.667 412.288 188.811 424.878 193.88L490.124 220.145C513.128 229.406 509.595 263.014 485.169 267.289L415.888 279.416C402.52 281.756 393.419 294.281 395.325 307.719L405.201 377.356C408.683 401.908 377.811 415.653 361.896 396.637L316.753 342.701C308.042 332.293 292.645 330.675 281.961 339.044L226.591 382.416C207.07 397.707 179.73 377.844 188.24 354.553L212.379 288.49C217.037 275.743 210.74 261.599 198.15 256.531L132.904 230.265Z" stroke="#00A651" stroke-opacity="0.2" stroke-width="0.5"/>
<path opacity="0.0689655" d="M135.899 221.381C113.412 210.929 118.698 177.551 143.315 174.56L210.86 166.353C224.332 164.716 234.076 152.684 232.876 139.165L226.861 71.3897C224.668 46.6894 256.217 34.579 271.116 54.4018L311.996 108.794C320.15 119.643 335.442 122.065 346.55 114.266L402.237 75.1693C422.532 60.9206 448.795 82.1876 439.077 105.002L412.412 167.601C407.094 180.087 412.642 194.541 424.949 200.261L486.652 228.94C509.139 239.391 503.853 272.769 479.237 275.76L411.692 283.967C398.219 285.604 388.476 297.636 389.675 311.155L395.691 378.93C397.883 403.631 366.334 415.741 351.435 395.918L310.555 341.526C302.401 330.677 287.109 328.255 276.002 336.054L220.314 375.151C200.019 389.4 173.757 368.133 183.475 345.319L210.139 282.719C215.458 270.233 209.909 255.779 197.602 250.059L135.899 221.381Z" stroke="#00A651" stroke-opacity="0.2" stroke-width="0.5"/>
<path opacity="0.103448" d="M139.874 213.04C117.964 201.426 124.99 168.371 149.729 166.672L215.324 162.168C228.864 161.238 239.224 149.733 238.733 136.17L236.356 70.4633C235.459 45.6822 267.599 35.2395 281.44 55.8149L318.138 110.369C325.713 121.631 340.857 124.85 352.357 117.643L408.072 82.7314C429.085 69.5644 454.198 92.1767 443.3 114.451L414.403 173.509C408.438 185.7 413.223 200.425 425.214 206.781L483.306 237.576C505.215 249.19 498.189 282.245 473.45 283.944L407.855 288.448C394.315 289.378 383.956 300.883 384.446 314.446L386.823 380.152C387.72 404.934 355.58 415.376 341.74 394.801L305.042 340.246C297.467 328.985 282.323 325.766 270.822 332.973L215.107 367.884C194.094 381.051 168.981 358.439 179.879 336.165L208.776 277.106C214.741 264.916 209.957 250.191 197.965 243.834L139.874 213.04Z" stroke="#00A651" stroke-opacity="0.2" stroke-width="0.5"/>
<path opacity="0.137931" d="M144.085 203.977C122.813 191.232 131.56 158.59 156.354 158.188L220.089 157.156C233.659 156.936 244.607 145.988 244.826 132.418L245.859 68.6831C246.26 43.889 278.903 35.1426 291.647 56.4141L324.409 111.094C331.384 122.736 346.339 126.743 358.201 120.149L413.913 89.1752C435.587 77.1259 459.482 101.022 447.433 122.695L416.46 178.407C409.865 190.269 413.872 205.224 425.514 212.199L480.194 244.961C501.466 257.706 492.719 290.348 467.925 290.749L404.19 291.782C390.62 292.002 379.672 302.949 379.453 316.519L378.42 380.254C378.018 405.048 345.376 413.795 332.632 392.523L299.87 337.843C292.895 326.201 277.94 322.194 266.078 328.789L210.366 359.762C188.692 371.811 164.797 347.916 176.846 326.243L207.819 270.53C214.414 258.668 210.407 243.714 198.765 236.738L144.085 203.977Z" stroke="#00A651" stroke-opacity="0.2" stroke-width="0.5"/>
<path opacity="0.172414" d="M148.318 196.595C127.742 182.754 138.185 150.615 162.966 151.511L224.377 153.733C237.94 154.223 249.446 143.864 250.375 130.324L254.585 69.0174C256.284 44.2782 289.339 37.2522 300.953 59.1616L329.734 113.456C336.091 125.447 350.815 130.231 363.006 124.266L418.204 97.2587C440.478 86.3603 463.09 111.474 449.923 132.487L417.294 184.559C410.087 196.059 413.306 211.203 424.567 218.779L475.555 253.077C496.131 266.918 485.688 299.058 460.907 298.161L399.496 295.939C385.933 295.449 374.428 305.808 373.498 319.348L369.288 380.655C367.59 405.394 334.535 412.42 322.92 390.511L294.139 336.217C287.783 324.225 273.058 319.441 260.867 325.406L205.67 352.413C183.395 363.312 160.783 338.198 173.95 317.186L206.579 265.113C213.786 253.613 210.567 238.469 199.306 230.894L148.318 196.595Z" stroke="#00A651" stroke-opacity="0.2" stroke-width="0.5"/>
<path opacity="0.206897" d="M152.636 189.622C132.813 174.723 144.924 143.174 169.624 145.366L228.55 150.596C242.069 151.796 254.101 142.053 255.738 128.58L262.874 69.8539C265.865 45.2376 299.243 39.9511 309.694 62.4383L334.628 116.085C340.349 128.393 354.803 133.941 367.289 128.622L421.715 105.439C444.529 95.7214 465.796 121.984 451.547 142.279L417.555 190.696C409.756 201.803 412.178 217.095 423.028 225.249L470.318 260.792C490.141 275.691 478.03 307.24 453.33 305.047L394.404 299.817C380.885 298.618 368.853 308.361 367.216 321.834L360.08 380.56C357.089 405.176 323.711 410.463 313.26 387.976L288.326 334.329C282.605 322.021 268.151 316.473 255.665 321.791L201.239 344.975C178.425 354.693 157.158 328.43 171.407 308.135L205.399 259.718C213.198 248.611 210.776 233.319 199.926 225.165L152.636 189.622Z" stroke="#00A651" stroke-opacity="0.2" stroke-width="0.5"/>
<path opacity="0.241379" d="M157.847 182.184C138.831 166.268 152.577 135.396 177.128 138.878L233.43 146.863C246.868 148.769 259.393 139.669 261.733 126.3L271.538 70.2858C275.813 45.8598 309.421 42.3274 318.682 65.3308L339.918 118.082C344.986 130.672 359.13 136.97 371.877 132.312L425.289 112.796C448.581 104.285 468.444 131.625 453.152 151.146L418.086 195.913C409.717 206.597 411.335 221.995 421.743 230.705L465.351 267.203C484.367 283.119 470.621 313.991 446.07 310.509L389.767 302.524C376.33 300.618 363.805 309.718 361.465 323.087L351.66 379.101C347.385 403.527 313.777 407.06 304.516 384.056L283.28 331.305C278.212 318.714 264.068 312.417 251.32 317.075L197.909 336.591C174.617 345.102 154.754 317.762 170.045 298.241L205.112 253.474C213.481 242.79 211.862 227.392 201.455 218.682L157.847 182.184Z" stroke="#00A651" stroke-opacity="0.2" stroke-width="0.5"/>
<path opacity="0.275862" d="M163.115 175.883C144.958 158.994 160.3 128.884 184.636 133.646L238.193 144.126C251.512 146.733 264.497 138.3 267.533 125.072L279.743 71.8826C285.291 47.7138 319.038 45.9452 327.082 69.4018L344.784 121.024C349.186 133.862 362.981 140.891 375.955 136.906L428.124 120.885C451.828 113.605 470.234 141.947 453.942 160.641L418.087 201.783C409.17 212.015 409.98 227.476 419.918 236.72L459.877 273.888C478.034 290.777 462.692 320.887 438.356 316.125L384.798 305.645C371.479 303.039 358.495 311.471 355.458 324.699L343.249 377.889C337.701 402.057 303.954 403.826 295.91 380.37L278.207 328.747C273.805 315.909 260.01 308.881 247.036 312.865L194.868 328.886C171.163 336.166 152.758 307.824 169.05 289.13L204.905 247.988C213.821 237.756 213.011 222.295 203.074 213.052L163.115 175.883Z" stroke="#00A651" stroke-opacity="0.2" stroke-width="0.5"/>
<path opacity="0.310345" d="M168.631 169.488C151.383 151.672 168.279 122.406 192.333 128.435L243.322 141.216C256.487 144.516 269.895 136.775 273.62 123.724L288.046 73.1753C294.851 49.3299 328.644 49.3299 335.449 73.1753L349.875 123.724C353.6 136.775 367.008 144.516 380.173 141.216L431.162 128.435C455.216 122.406 472.112 151.672 454.864 169.488L418.301 207.256C408.861 217.007 408.861 232.489 418.301 242.24L454.864 280.008C472.112 297.824 455.216 327.09 431.162 321.061L380.173 308.28C367.008 304.98 353.6 312.721 349.875 325.772L335.449 376.321C328.644 400.166 294.851 400.166 288.046 376.321L273.62 325.772C269.895 312.721 256.487 304.98 243.322 308.28L192.333 321.061C168.279 327.09 151.383 297.824 168.631 280.008L205.194 242.24C214.635 232.489 214.635 217.007 205.194 207.256L168.631 169.488Z" stroke="#00A651" stroke-opacity="0.2" stroke-width="0.5"/>
<path opacity="0.344828" d="M173.996 163.674C157.704 144.98 176.109 116.638 199.814 123.918L247.873 138.677C260.847 142.662 274.642 135.633 279.044 122.795L295.353 75.2388C303.396 51.7823 337.144 53.5509 342.691 77.7197L353.939 126.72C356.976 139.948 369.96 148.38 383.279 145.774L432.618 136.119C456.954 131.357 472.296 161.467 454.139 178.356L417.328 212.597C407.39 221.841 406.58 237.302 415.497 247.533L448.527 285.435C464.82 304.129 446.414 332.471 422.71 325.191L374.65 310.432C361.676 306.447 347.881 313.476 343.479 326.314L327.171 373.87C319.127 397.327 285.38 395.558 279.832 371.389L268.584 322.389C265.548 309.161 252.563 300.729 239.244 303.335L189.905 312.99C165.569 317.752 150.227 287.642 168.384 270.753L205.196 236.512C215.133 227.268 215.943 211.807 207.027 201.576L173.996 163.674Z" stroke="#00A651" stroke-opacity="0.2" stroke-width="0.5"/>
<path opacity="0.37931" d="M180.215 158.852C164.924 139.331 184.787 111.991 208.078 120.502L253.146 136.969C265.894 141.627 280.037 135.33 285.106 122.74L303.024 78.2289C312.285 55.2255 345.893 58.7579 350.168 83.184L358.441 130.448C360.781 143.816 373.306 152.917 386.744 151.011L434.251 144.273C458.802 140.791 472.547 171.663 453.531 187.579L416.736 218.375C406.329 227.086 404.71 242.483 413.08 253.168L442.668 290.941C457.959 310.462 438.096 337.802 414.804 329.291L369.737 312.824C356.989 308.166 342.845 314.463 337.777 327.053L319.858 371.564C310.598 394.567 276.99 391.035 272.714 366.609L264.442 319.345C262.102 305.977 249.576 296.876 236.139 298.782L188.632 305.52C164.08 309.002 150.335 278.13 169.351 262.214L206.146 231.418C216.554 222.707 218.172 207.31 209.803 196.625L180.215 158.852Z" stroke="#00A651" stroke-opacity="0.2" stroke-width="0.5"/>
<path opacity="0.413793" d="M186.461 154.146C172.213 133.851 193.48 107.589 216.294 117.306L258.329 135.211C270.815 140.53 285.269 134.982 290.989 122.674L310.247 81.2411C320.698 58.754 354.076 64.0404 357.067 88.6568L362.578 134.013C364.215 147.486 376.247 157.229 389.766 156.029L435.277 151.99C459.977 149.798 472.087 181.347 452.265 196.245L415.741 223.696C404.891 231.85 402.47 247.142 410.268 258.249L436.521 295.643C450.77 315.938 429.503 342.201 406.689 332.483L364.654 314.578C352.168 309.259 337.714 314.808 331.994 327.115L312.736 368.548C302.285 391.035 268.907 385.749 265.916 361.133L260.405 315.777C258.768 302.304 246.736 292.56 233.217 293.76L187.706 297.799C163.006 299.992 150.896 268.443 170.718 253.544L207.242 226.093C218.091 217.939 220.513 202.648 212.715 191.54L186.461 154.146Z" stroke="#00A651" stroke-opacity="0.2" stroke-width="0.5"/>
<path opacity="0.448276" d="M193.012 149.203C179.845 128.19 202.457 103.077 224.731 113.975L263.969 133.174C276.16 139.139 290.885 134.355 297.241 122.364L317.701 83.7676C329.315 61.8582 362.37 68.8842 364.069 93.6233L367.062 137.204C367.991 150.744 379.497 161.104 393.06 160.613L436.715 159.034C461.496 158.138 471.939 190.277 451.364 204.118L415.118 228.5C403.857 236.075 400.638 251.219 407.844 262.72L431.039 299.736C444.206 320.749 421.594 345.863 399.32 334.964L360.081 315.765C347.891 309.8 333.166 314.585 326.809 326.576L306.35 365.172C294.735 387.082 261.68 380.055 259.982 355.316L256.989 311.735C256.06 298.195 244.554 287.836 230.991 288.326L187.336 289.906C162.555 290.802 152.112 258.663 172.687 244.822L208.933 220.44C220.194 212.865 223.413 197.721 216.207 186.22L193.012 149.203Z" stroke="#00A651" stroke-opacity="0.2" stroke-width="0.5"/>
<path opacity="0.482759" d="M199.334 145.424C187.285 123.75 211.181 99.8548 232.854 111.904L269.03 132.016C280.892 138.611 295.847 134.604 302.822 122.962L324.096 87.4559C336.841 66.1844 369.483 74.9308 369.884 99.7249L370.555 141.111C370.775 154.681 381.722 165.628 395.292 165.848L436.678 166.519C461.472 166.92 470.219 199.562 448.947 212.307L413.441 233.581C401.799 240.556 397.792 255.511 404.387 267.373L424.499 303.549C436.548 325.222 412.653 349.118 390.979 337.069L354.803 316.956C342.941 310.362 327.986 314.369 321.011 326.011L299.738 361.517C286.993 382.788 254.351 374.042 253.949 349.248L253.279 307.862C253.059 294.292 242.111 283.344 228.541 283.124L187.155 282.454C162.361 282.052 153.615 249.41 174.886 236.666L210.392 215.392C222.034 208.417 226.041 193.462 219.447 181.6L199.334 145.424Z" stroke="#00A651" stroke-opacity="0.2" stroke-width="0.5"/>
<path opacity="0.517241" d="M205.694 142.442C194.795 120.168 219.909 97.5556 240.921 110.723L274.053 131.483C285.553 138.69 300.697 135.471 308.273 124.21L330.096 91.7681C343.936 71.1927 376.076 81.6355 375.179 106.417L373.766 145.49C373.275 159.053 383.635 170.558 397.175 171.488L436.181 174.166C460.921 175.865 467.947 208.92 446.037 220.534L411.492 238.847C399.501 245.203 394.717 259.928 400.681 272.119L417.865 307.239C428.764 329.513 403.65 352.125 382.637 338.958L349.506 318.197C338.005 310.991 322.861 314.21 315.286 325.471L293.463 357.913C279.623 378.488 247.483 368.045 248.38 343.264L249.793 304.191C250.284 290.628 239.924 279.122 226.384 278.193L187.377 275.514C162.638 273.816 155.612 240.761 177.522 229.146L212.067 210.834C224.058 204.477 228.842 189.753 222.877 177.562L205.694 142.442Z" stroke="#00A651" stroke-opacity="0.2" stroke-width="0.5"/>
<path opacity="0.551724" d="M212.1 139.384C202.382 116.57 228.645 95.3033 248.94 109.552L279.063 130.701C290.171 138.499 305.462 136.077 313.616 125.228L335.73 95.8058C350.629 75.9829 382.178 88.0935 379.985 112.794L376.731 149.456C375.532 162.975 385.275 175.007 398.748 176.644L435.285 181.083C459.901 184.074 465.188 217.452 442.701 227.903L409.323 243.416C397.016 249.137 391.468 263.591 396.786 276.077L411.21 309.939C420.928 332.753 394.665 354.02 374.37 339.771L344.247 318.622C333.139 310.824 317.848 313.246 309.694 324.095L287.58 353.518C272.682 373.34 241.133 361.23 243.325 336.53L246.579 299.868C247.779 286.349 238.035 274.317 224.562 272.68L188.025 268.24C163.409 265.249 158.122 231.872 180.609 221.42L213.987 205.907C226.294 200.187 231.842 185.733 226.524 173.246L212.1 139.384Z" stroke="#00A651" stroke-opacity="0.2" stroke-width="0.5"/>
<path opacity="0.586207" d="M218.566 137.031C210.056 113.74 237.395 93.8765 256.916 109.168L284.087 130.451C294.771 138.82 310.169 137.201 318.879 126.794L341.031 100.327C356.947 81.3111 387.819 95.0562 384.337 119.608L379.49 153.78C377.585 167.217 386.685 179.742 400.054 182.082L434.05 188.033C458.476 192.308 462.009 225.917 439.005 235.177L406.989 248.066C394.399 253.134 388.101 267.278 392.759 280.026L404.604 312.443C413.115 335.734 385.775 355.597 366.254 340.306L339.084 319.023C328.399 310.654 313.002 312.273 304.291 322.68L282.139 349.147C266.224 368.163 235.352 354.418 238.834 329.866L243.68 295.694C245.586 282.257 236.485 269.731 223.117 267.392L189.12 261.441C164.694 257.166 161.162 223.557 184.165 214.297L216.182 201.408C228.772 196.34 235.069 182.196 230.411 169.448L218.566 137.031Z" stroke="#00A651" stroke-opacity="0.2" stroke-width="0.5"/>
<path opacity="0.62069" d="M225.449 135.11C218.17 111.406 246.511 93.0003 265.206 109.292L289.713 130.65C299.944 139.567 315.405 138.757 324.649 128.819L346.789 105.017C363.678 86.8599 393.788 102.202 389.026 126.538L382.783 158.44C380.177 171.759 388.609 184.744 401.837 187.78L433.521 195.053C457.69 200.601 459.458 234.348 436.002 242.392L405.252 252.937C392.414 257.339 385.385 271.134 389.369 284.108L398.913 315.183C406.193 338.888 377.851 357.293 359.157 341.001L334.65 319.644C324.418 310.727 308.957 311.537 299.713 321.475L277.573 345.277C260.684 363.434 230.574 348.092 235.336 323.756L241.579 291.853C244.185 278.534 235.753 265.55 222.525 262.513L190.841 255.24C166.673 249.693 164.904 215.945 188.36 207.902L219.11 197.357C231.948 192.954 238.977 179.159 234.993 166.186L225.449 135.11Z" stroke="#00A651" stroke-opacity="0.2" stroke-width="0.5"/>
<path opacity="0.655172" d="M231.268 133.224C225.239 109.17 254.505 92.2735 272.321 109.522L294.029 130.538C303.78 139.978 319.263 139.978 329.013 130.538L350.722 109.522C368.538 92.2735 397.804 109.17 391.775 133.224L384.428 162.532C381.129 175.697 388.87 189.105 401.921 192.829L430.976 201.121C454.821 207.926 454.821 241.72 430.976 248.525L401.921 256.817C388.87 260.541 381.129 273.949 384.428 287.114L391.775 316.422C397.804 340.476 368.538 357.372 350.722 340.124L329.013 319.108C319.262 309.668 303.78 309.668 294.029 319.108L272.321 340.124C254.505 357.372 225.239 340.476 231.268 316.422L238.614 287.114C241.914 273.949 234.173 260.541 221.122 256.817L192.067 248.525C168.222 241.72 168.222 207.926 192.067 201.121L221.122 192.829C234.173 189.105 241.914 175.697 238.614 162.532L231.268 133.224Z" stroke="#00A651" stroke-opacity="0.2" stroke-width="0.5"/>
<path opacity="0.689655" d="M234.724 131.908C229.962 107.573 260.072 92.2307 276.961 110.388L295.978 130.833C305.222 140.77 320.683 141.58 330.915 132.664L351.965 114.318C370.659 98.0263 399.001 116.432 391.721 140.136L383.524 166.829C379.539 179.802 386.568 193.597 399.406 198L425.819 207.057C449.276 215.101 447.507 248.848 423.338 254.396L396.123 260.643C382.895 263.68 374.463 276.664 377.07 289.983L382.432 317.386C387.194 341.722 357.084 357.064 340.195 338.907L321.177 318.462C311.934 308.525 296.473 307.714 286.241 316.631L265.191 334.976C246.496 351.268 218.155 332.863 225.434 309.158L233.632 282.466C237.616 269.492 230.587 255.697 217.749 251.295L191.336 242.237C167.88 234.194 169.649 200.446 193.817 194.899L221.032 188.652C234.26 185.615 242.692 172.631 240.086 159.311L234.724 131.908Z" stroke="#00A651" stroke-opacity="0.2" stroke-width="0.5"/>
<path opacity="0.724138" d="M240.782 131.124C237.3 106.572 268.172 92.827 284.087 111.843L300.537 131.497C309.248 141.905 324.645 143.523 335.33 135.154L355.507 119.349C375.028 104.058 402.368 123.921 393.857 147.213L385.061 171.286C380.403 184.034 386.7 198.177 399.29 203.246L423.066 212.817C446.07 222.077 442.537 255.686 418.111 259.961L392.865 264.38C379.496 266.72 370.396 279.246 372.302 292.683L375.9 318.059C379.382 342.611 348.511 356.356 332.595 337.34L316.145 317.686C307.434 307.278 292.037 305.66 281.352 314.029L261.175 329.833C241.654 345.125 214.314 325.261 222.825 301.97L231.621 277.897C236.279 265.149 229.982 251.005 217.392 245.937L193.616 236.366C170.613 227.105 174.145 193.497 198.571 189.222L223.817 184.803C237.186 182.463 246.286 169.937 244.38 156.5L240.782 131.124Z" stroke="#00A651" stroke-opacity="0.2" stroke-width="0.5"/>
<path opacity="0.758621" d="M246.996 130.831C244.804 106.131 276.353 94.0203 291.252 113.843L305.273 132.499C313.427 143.348 328.719 145.77 339.827 137.972L358.927 124.562C379.222 110.313 405.484 131.58 395.767 154.394L386.621 175.865C381.302 188.351 386.851 202.805 399.158 208.525L420.321 218.362C442.809 228.813 437.522 262.191 412.906 265.182L389.739 267.997C376.266 269.634 366.523 281.666 367.722 295.185L369.786 318.431C371.978 343.131 340.429 355.242 325.53 335.419L311.509 316.763C303.355 305.914 288.063 303.492 276.955 311.29L257.855 324.7C237.56 338.949 211.298 317.682 221.016 294.868L230.161 273.397C235.48 260.911 229.931 246.457 217.624 240.737L196.461 230.9C173.973 220.449 179.26 187.071 203.876 184.08L227.043 181.265C240.516 179.628 250.259 167.596 249.06 154.077L246.996 130.831Z" stroke="#00A651" stroke-opacity="0.2" stroke-width="0.5"/>
<path opacity="0.793103" d="M252.962 130.865C252.066 106.083 284.205 95.6406 298.046 116.216L309.952 133.916C317.527 145.177 332.671 148.396 344.172 141.189L362.248 129.863C383.261 116.696 408.374 139.308 397.476 161.582L388.101 180.743C382.136 192.934 386.92 207.658 398.911 214.015L417.759 224.006C439.668 235.62 432.642 268.675 407.903 270.374L386.621 271.835C373.081 272.765 362.722 284.27 363.212 297.833L363.984 319.151C364.88 343.932 332.741 354.375 318.9 333.799L306.994 316.1C299.418 304.839 284.274 301.62 272.774 308.826L254.698 320.153C233.685 333.32 208.572 310.708 219.47 288.434L228.845 269.273C234.81 257.082 230.026 242.357 218.034 236.001L199.187 226.01C177.278 214.396 184.304 181.341 209.043 179.642L230.324 178.181C243.864 177.251 254.224 165.745 253.734 152.182L252.962 130.865Z" stroke="#00A651" stroke-opacity="0.2" stroke-width="0.5"/>
<path opacity="0.827586" d="M258.754 131.463C259.156 106.669 291.798 97.9228 304.543 119.194L314.328 135.526C321.303 147.168 336.258 151.176 348.12 144.581L364.76 135.33C386.434 123.28 410.329 147.176 398.28 168.849L389.029 185.49C382.434 197.352 386.441 212.306 398.083 219.282L414.415 229.067C435.687 241.812 426.94 274.454 402.146 274.856L383.11 275.164C369.54 275.384 358.592 286.331 358.372 299.902L358.064 318.938C357.662 343.732 325.02 352.479 312.275 331.207L302.49 314.875C295.514 303.233 280.56 299.226 268.698 305.821L252.057 315.072C230.384 327.121 206.489 303.225 218.538 281.552L227.789 264.912C234.384 253.05 230.377 238.095 218.734 231.12L202.403 221.334C181.131 208.59 189.877 175.948 214.672 175.546L233.708 175.238C247.278 175.018 258.226 164.07 258.446 150.5L258.754 131.463Z" stroke="#00A651" stroke-opacity="0.2" stroke-width="0.5"/>
<path opacity="0.862069" d="M260.67 131.623C262.368 106.884 295.424 99.8577 307.038 121.767L314.881 136.563C321.238 148.555 335.962 153.339 348.153 147.374L363.196 140.014C385.47 129.115 408.082 154.229 394.915 175.242L386.023 189.432C378.816 200.933 382.035 216.077 393.296 223.652L407.192 232.999C427.767 246.84 417.324 278.98 392.543 278.083L375.807 277.478C362.244 276.987 350.739 287.347 349.809 300.887L348.662 317.594C346.963 342.333 313.908 349.359 302.294 327.45L294.451 312.653C288.094 300.662 273.369 295.878 261.179 301.843L246.136 309.203C223.862 320.101 201.25 294.988 214.417 273.975L223.309 259.784C230.515 248.284 227.296 233.14 216.035 225.564L202.14 216.217C181.565 202.377 192.007 170.237 216.789 171.134L233.524 171.739C247.087 172.23 258.593 161.87 259.523 148.33L260.67 131.623Z" stroke="#00A651" stroke-opacity="0.2" stroke-width="0.5"/>
<path opacity="0.896552" d="M266.153 132.959C269.144 108.343 302.522 103.056 312.973 125.543L319.065 138.651C324.786 150.958 339.24 156.507 351.726 151.188L365.024 145.524C387.838 135.806 409.105 162.068 394.856 182.363L386.551 194.193C378.752 205.301 381.174 220.592 392.024 228.746L403.578 237.431C423.401 252.329 411.29 283.878 386.59 281.686L372.193 280.408C358.674 279.208 346.642 288.952 345.005 302.424L343.261 316.773C340.27 341.389 306.893 346.676 296.441 324.188L290.349 311.081C284.629 298.773 270.175 293.225 257.688 298.544L244.39 304.208C221.576 313.926 200.31 287.663 214.558 267.368L222.864 255.539C230.662 244.431 228.24 229.139 217.391 220.985L205.836 212.301C186.014 197.403 198.124 165.854 222.824 168.046L237.222 169.324C250.741 170.524 262.773 160.78 264.41 147.307L266.153 132.959Z" stroke="#00A651" stroke-opacity="0.2" stroke-width="0.5"/>
<path opacity="0.931035" d="M271.122 134.618C275.398 110.192 309.006 106.659 318.267 129.663L322.808 140.944C327.877 153.534 342.02 159.832 354.768 155.174L366.191 151C389.482 142.489 409.345 169.829 394.054 189.35L386.555 198.924C378.185 209.609 379.804 225.006 390.211 233.717L399.537 241.522C418.553 257.438 404.808 288.31 380.257 284.828L368.216 283.12C354.778 281.215 342.253 290.315 339.913 303.683L337.816 315.663C333.541 340.089 299.932 343.621 290.672 320.618L286.13 309.336C281.062 296.746 266.918 290.449 254.171 295.107L242.748 299.281C219.456 307.791 199.593 280.452 214.885 260.93L222.384 251.356C230.753 240.672 229.135 225.274 218.727 216.564L209.401 208.758C190.385 192.843 204.13 161.971 228.682 165.453L240.723 167.16C254.16 169.066 266.686 159.966 269.026 146.597L271.122 134.618Z" stroke="#00A651" stroke-opacity="0.2" stroke-width="0.5"/>
<path opacity="0.965517" d="M276.846 135.727C282.394 111.558 316.141 109.79 324.185 133.246L327.479 142.853C331.881 155.691 345.676 162.719 358.65 158.735L368.358 155.754C392.063 148.474 410.468 176.816 394.176 195.51L387.504 203.166C378.587 213.398 379.397 228.859 389.335 238.102L396.771 245.019C414.928 261.908 399.586 292.018 375.25 287.256L365.284 285.306C351.964 282.699 338.98 291.132 335.943 304.36L333.671 314.258C328.123 338.426 294.376 340.195 286.332 316.739L283.038 307.132C278.636 294.294 264.841 287.265 251.867 291.25L242.159 294.231C218.454 301.511 200.049 273.169 216.341 254.475L223.013 246.819C231.93 236.587 231.12 221.126 221.182 211.883L213.746 204.966C195.589 188.077 210.931 157.967 235.267 162.729L245.234 164.679C258.553 167.285 271.537 158.853 274.574 145.625L276.846 135.727Z" stroke="#00A651" stroke-opacity="0.2" stroke-width="0.5"/>
<path d="M281.718 137.975C288.523 114.129 322.316 114.129 329.122 137.975L331.279 145.536C335.004 158.586 348.412 166.328 361.577 163.028L369.204 161.116C393.257 155.087 410.154 184.353 392.906 202.169L387.436 207.818C377.996 217.569 377.996 233.051 387.436 242.802L392.906 248.452C410.154 266.268 393.257 295.534 369.204 289.505L361.577 287.593C348.412 284.293 335.004 292.034 331.279 305.085L329.122 312.646C322.316 336.491 288.523 336.491 281.718 312.646L279.56 305.085C275.835 292.034 262.427 284.293 249.263 287.593L241.636 289.505C217.582 295.534 200.686 266.268 217.934 248.452L223.403 242.802C232.843 233.051 232.843 217.569 223.403 207.818L217.934 202.169C200.686 184.353 217.582 155.087 241.636 161.116L249.263 163.028C262.427 166.328 275.835 158.586 279.56 145.536L281.718 137.975Z" stroke="#00A651" stroke-opacity="0.2" stroke-width="0.5"/>
</svg>
