<svg width="207" height="500" viewBox="0 0 207 500" fill="none" xmlns="http://www.w3.org/2000/svg">
<path opacity="0.0344828" d="M129.385 260.805C107.082 251.826 110.506 219.241 134.189 215.095L163.563 209.954C177.33 207.544 186.702 194.645 184.739 180.807L180.552 151.282C177.176 127.478 207.109 114.151 222.54 132.588L241.679 155.456C250.65 166.174 266.507 167.84 277.51 159.222L300.985 140.833C319.913 126.007 346.42 145.266 338.169 167.848L327.934 195.857C323.138 208.985 329.623 223.551 342.588 228.77L370.251 239.906C392.555 248.885 389.13 281.471 365.447 285.616L336.073 290.757C322.306 293.167 312.934 306.066 314.897 319.904L319.084 349.429C322.46 373.234 292.527 386.561 277.096 368.123L257.957 345.256C248.986 334.538 233.129 332.871 222.126 341.49L198.651 359.878C179.723 374.704 153.216 355.445 161.467 332.863L171.702 304.854C176.498 291.726 170.013 277.161 157.048 271.941L129.385 260.805Z" stroke="#00A651" stroke-opacity="0.2" stroke-width="2"/>
<path opacity="0.0689655" d="M131.347 254.853C109.544 244.719 114.67 212.358 138.537 209.457L166.371 206.075C180.246 204.389 190.28 191.998 189.044 178.077L186.566 150.147C184.44 126.199 215.029 114.457 229.474 133.676L246.32 156.09C254.718 167.263 270.465 169.757 281.904 161.726L304.852 145.615C324.53 131.8 349.993 152.42 340.571 174.539L329.583 200.336C324.106 213.194 329.819 228.079 342.494 233.97L367.921 245.788C389.724 255.922 384.598 288.284 360.731 291.184L332.897 294.566C319.022 296.252 308.988 308.643 310.224 322.565L312.703 350.494C314.828 374.442 284.239 386.184 269.794 366.965L252.948 344.551C244.55 333.378 228.803 330.884 217.364 338.915L194.416 355.026C174.738 368.841 149.275 348.221 158.697 326.102L169.685 300.305C175.162 287.447 169.449 272.562 156.774 266.671L131.347 254.853Z" stroke="#00A651" stroke-opacity="0.2" stroke-width="2"/>
<path opacity="0.103448" d="M134.019 249.303C112.777 238.042 119.589 205.993 143.575 204.346L169.771 202.547C183.715 201.59 194.384 189.741 193.878 175.773L192.929 149.533C192.06 125.506 223.221 115.381 236.641 135.33L251.297 157.117C259.098 168.714 274.693 172.029 286.537 164.608L308.787 150.665C329.161 137.899 353.51 159.823 342.943 181.419L331.403 205.005C325.26 217.56 330.187 232.723 342.536 239.269L365.736 251.568C386.978 262.828 380.166 294.878 356.18 296.525L329.984 298.323C316.04 299.281 305.371 311.13 305.877 325.097L306.826 351.338C307.695 375.365 276.534 385.49 263.114 365.54L248.458 343.753C240.657 332.156 225.062 328.841 213.218 336.263L190.968 350.205C170.594 362.972 146.245 341.047 156.812 319.451L168.352 295.865C174.495 283.311 169.568 268.147 157.219 261.601L134.019 249.303Z" stroke="#00A651" stroke-opacity="0.2" stroke-width="2"/>
<path opacity="0.137931" d="M136.828 243.169C116.203 230.812 124.684 199.163 148.723 198.774L173.419 198.374C187.394 198.147 198.668 186.873 198.894 172.898L199.294 148.203C199.684 124.163 231.333 115.683 243.69 136.307L256.384 157.494C263.567 169.483 278.968 173.61 291.184 166.819L312.771 154.817C333.785 143.135 356.953 166.303 345.271 187.317L333.269 208.904C326.478 221.12 330.605 236.521 342.594 243.704L363.781 256.398C384.405 268.755 375.925 300.404 351.885 300.794L327.19 301.194C313.215 301.42 301.941 312.694 301.714 326.669L301.314 351.365C300.925 375.404 269.276 383.885 256.919 363.26L244.225 342.073C237.041 330.084 221.64 325.957 209.425 332.749L187.838 344.75C166.824 356.433 143.655 333.264 155.338 312.251L167.339 290.663C174.131 278.448 170.004 263.047 158.015 255.863L136.828 243.169Z" stroke="#00A651" stroke-opacity="0.2" stroke-width="2"/>
<path opacity="0.172414" d="M139.606 238.315C119.657 224.896 129.782 193.734 153.809 194.604L176.711 195.432C190.679 195.937 202.528 185.269 203.485 171.325L205.055 148.461C206.702 124.475 238.751 117.662 250.012 138.905L260.746 159.154C267.292 171.503 282.456 176.43 295.01 170.287L315.596 160.215C337.192 149.648 359.116 173.997 346.35 194.371L334.181 213.791C326.76 225.634 330.075 241.23 341.672 249.031L360.687 261.823C380.637 275.242 370.512 306.404 346.485 305.534L323.582 304.706C309.614 304.201 297.766 314.869 296.808 328.813L295.238 351.677C293.591 375.663 261.542 382.476 250.281 361.233L239.547 340.984C233.001 328.635 217.837 323.708 205.283 329.851L184.697 339.923C163.101 350.49 141.177 326.141 153.943 305.767L166.112 286.347C173.533 274.504 170.219 258.908 158.622 251.107L139.606 238.315Z" stroke="#00A651" stroke-opacity="0.2" stroke-width="2"/>
<path opacity="0.206897" d="M142.406 233.752C123.186 219.307 134.928 188.718 158.877 190.843L179.93 192.712C193.852 193.947 206.243 183.913 207.929 170.039L210.479 149.057C213.379 125.189 245.741 120.064 255.874 141.867L264.783 161.034C270.674 173.709 285.559 179.423 298.417 173.945L317.863 165.662C339.983 156.24 360.603 181.703 346.788 201.381L334.642 218.68C326.611 230.118 329.106 245.866 340.278 254.264L357.175 266.963C376.394 281.408 364.652 311.997 340.704 309.871L319.65 308.003C305.728 306.767 293.337 316.801 291.651 330.676L289.102 351.658C286.202 375.525 253.84 380.651 243.706 358.848L234.798 339.68C228.907 327.006 214.022 321.292 201.163 326.769L181.717 335.052C159.597 344.474 138.978 319.011 152.793 299.334L164.938 282.035C172.969 270.596 170.475 254.848 159.302 246.451L142.406 233.752Z" stroke="#00A651" stroke-opacity="0.2" stroke-width="2"/>
<path opacity="0.241379" d="M145.855 228.796C127.417 213.365 140.744 183.432 164.549 186.808L183.712 189.526C197.55 191.489 210.449 182.117 212.859 168.35L216.196 149.284C220.341 125.602 252.927 122.177 261.906 144.48L269.134 162.435C274.353 175.4 288.919 181.885 302.047 177.089L320.226 170.446C342.809 162.195 362.068 188.702 347.242 207.63L335.306 222.867C326.688 233.87 328.354 249.726 339.072 258.697L353.915 271.119C372.352 286.551 359.025 316.483 335.22 313.107L316.057 310.389C302.219 308.427 289.32 317.799 286.91 331.566L283.573 350.631C279.428 374.314 246.842 377.739 237.864 355.435L230.636 337.481C225.416 324.515 210.85 318.03 197.723 322.827L179.543 329.47C156.961 337.721 137.702 311.213 152.528 292.286L164.463 277.049C173.082 266.046 171.415 250.189 160.697 241.219L145.855 228.796Z" stroke="#00A651" stroke-opacity="0.2" stroke-width="2"/>
<path opacity="0.275862" d="M149.304 224.692C131.7 208.317 146.575 179.123 170.17 183.74L187.417 187.115C201.134 189.799 214.505 181.115 217.632 167.493L221.564 150.365C226.943 126.931 259.663 125.217 267.462 147.959L273.163 164.583C277.697 177.804 291.903 185.042 305.264 180.939L322.063 175.78C345.047 168.722 362.892 196.201 347.096 214.326L335.55 227.575C326.367 238.112 327.201 254.034 337.435 263.553L350.303 275.522C367.907 291.897 353.032 321.091 329.437 316.474L312.19 313.099C298.474 310.415 285.102 319.099 281.975 332.721L278.043 349.85C272.664 373.283 239.944 374.998 232.145 352.255L226.444 335.632C221.91 322.411 207.704 315.172 194.343 319.275L177.544 324.435C154.56 331.493 136.715 304.014 152.511 285.888L164.058 272.639C173.24 262.103 172.406 246.18 162.172 236.661L149.304 224.692Z" stroke="#00A651" stroke-opacity="0.2" stroke-width="2"/>
<path opacity="0.310345" d="M152.908 220.48C136.185 203.206 152.568 174.83 175.889 180.676L191.423 184.57C204.981 187.968 218.789 179.996 222.624 166.556L227.019 151.156C233.617 128.036 266.383 128.036 272.981 151.156L277.376 166.556C281.211 179.996 295.019 187.968 308.577 184.57L324.111 180.676C347.432 174.83 363.815 203.206 347.092 220.48L335.952 231.986C326.231 242.028 326.231 257.972 335.952 268.014L347.092 279.52C363.815 296.794 347.432 325.17 324.111 319.324L308.577 315.43C295.019 312.032 281.211 320.004 277.376 333.444L272.981 348.844C266.383 371.964 233.617 371.964 227.019 348.844L222.624 333.444C218.789 320.004 204.981 312.032 191.423 315.43L175.889 319.324C152.568 325.17 136.185 296.794 152.908 279.52L164.048 268.014C173.769 257.972 173.769 242.028 164.048 231.986L152.908 220.48Z" stroke="#00A651" stroke-opacity="0.2" stroke-width="2"/>
<path opacity="0.344828" d="M156.355 216.683C140.559 198.558 158.404 171.078 181.388 178.137L194.994 182.315C208.355 186.419 222.561 179.18 227.095 165.959L231.712 152.495C239.511 129.752 272.232 131.467 277.611 154.901L280.795 168.774C283.922 182.396 297.294 191.08 311.011 188.396L324.98 185.662C348.575 181.045 363.45 210.239 345.846 226.614L335.423 236.308C325.19 245.828 324.355 261.75 333.538 272.287L342.89 283.017C358.686 301.143 340.841 328.622 317.857 321.564L304.251 317.385C290.89 313.282 276.683 320.52 272.15 333.741L267.533 347.205C259.734 369.948 227.013 368.233 221.634 344.8L218.45 330.927C215.323 317.305 201.951 308.621 188.234 311.305L174.265 314.038C150.67 318.656 135.795 289.462 153.399 273.087L163.822 263.392C174.055 253.873 174.89 237.951 165.707 227.414L156.355 216.683Z" stroke="#00A651" stroke-opacity="0.2" stroke-width="2"/>
<path opacity="0.37931" d="M160.43 213.618C145.604 194.69 164.862 168.183 187.445 176.434L199.141 180.708C212.269 185.505 226.835 179.02 232.054 166.054L236.704 154.503C245.683 132.199 278.269 135.624 282.414 159.307L284.561 171.573C286.971 185.34 299.87 194.712 313.708 192.749L326.037 191.001C349.842 187.625 363.169 217.557 344.731 232.989L335.182 240.981C324.464 249.951 322.797 265.808 331.416 276.811L339.095 286.614C353.921 305.542 334.662 332.049 312.079 323.798L300.383 319.524C287.256 314.727 272.69 321.212 267.47 334.178L262.82 345.73C253.842 368.033 221.256 364.608 217.111 340.925L214.964 328.659C212.554 314.892 199.655 305.52 185.817 307.483L173.487 309.231C149.683 312.607 136.356 282.675 154.793 267.243L164.343 259.251C175.061 250.28 176.727 234.424 168.108 223.421L160.43 213.618Z" stroke="#00A651" stroke-opacity="0.2" stroke-width="2"/>
<path opacity="0.413793" d="M164.489 210.602C150.674 190.924 171.294 165.461 193.414 174.883L203.232 179.065C216.09 184.542 230.975 178.828 236.866 166.154L241.364 156.477C251.498 134.674 283.859 139.799 286.76 163.667L288.047 174.26C289.733 188.134 302.123 198.168 316.045 196.933L326.675 195.989C350.624 193.864 362.366 224.453 343.146 238.898L334.615 245.309C323.443 253.707 320.948 269.455 328.98 280.893L335.111 289.627C348.926 309.305 328.307 334.768 306.187 325.346L296.369 321.164C283.51 315.687 268.625 321.401 262.734 334.075L258.237 343.752C248.103 365.555 215.741 360.429 212.841 336.562L211.554 325.969C209.868 312.094 197.477 302.06 183.555 303.296L172.926 304.239C148.977 306.365 137.235 275.776 156.455 261.331L164.985 254.919C176.158 246.522 178.652 230.774 170.621 219.335L164.489 210.602Z" stroke="#00A651" stroke-opacity="0.2" stroke-width="2"/>
<path opacity="0.448276" d="M168.755 207.36C155.988 186.986 177.913 162.637 199.509 173.204L207.694 177.208C220.249 183.351 235.412 178.424 241.959 166.075L246.227 158.024C257.487 136.781 289.537 143.594 291.184 167.58L291.808 176.671C292.765 190.615 304.614 201.284 318.582 200.778L327.688 200.449C351.715 199.58 361.84 230.741 341.891 244.161L334.33 249.247C322.733 257.048 319.418 272.644 326.839 284.487L331.678 292.209C344.444 312.583 322.52 336.932 300.924 326.365L292.739 322.36C280.184 316.217 265.02 321.144 258.474 333.493L254.206 341.544C242.946 362.787 210.896 355.975 209.249 331.989L208.625 322.897C207.668 308.954 195.819 298.285 181.851 298.79L172.745 299.12C148.718 299.989 138.593 268.827 158.542 255.408L166.103 250.322C177.7 242.521 181.015 226.925 173.593 215.081L168.755 207.36Z" stroke="#00A651" stroke-opacity="0.2" stroke-width="2"/>
<path opacity="0.482759" d="M172.812 204.977C161.129 183.963 184.298 160.795 205.311 172.477L211.719 176.039C223.935 182.831 239.335 178.704 246.519 166.715L250.287 160.426C262.644 139.802 294.293 148.282 294.682 172.322L294.801 179.652C295.027 193.627 306.301 204.901 320.276 205.127L327.606 205.246C351.646 205.636 360.126 237.284 339.502 249.641L333.213 253.409C321.224 260.593 317.097 275.994 323.889 288.209L327.451 294.617C339.134 315.631 315.965 338.799 294.951 327.117L288.544 323.554C276.328 316.763 260.927 320.89 253.744 332.879L249.976 339.168C237.619 359.792 205.97 351.312 205.581 327.272L205.462 319.942C205.235 305.967 193.961 294.693 179.986 294.466L172.656 294.348C148.616 293.958 140.136 262.309 160.76 249.952L167.049 246.184C179.039 239.001 183.165 223.6 176.374 211.384L172.812 204.977Z" stroke="#00A651" stroke-opacity="0.2" stroke-width="2"/>
<path opacity="0.517241" d="M176.869 203.169C166.303 181.573 190.652 159.649 211.025 172.415L215.728 175.362C227.572 182.783 243.168 179.468 250.969 167.871L254.066 163.266C267.486 143.317 298.648 153.442 297.778 177.469L297.578 183.015C297.072 196.983 307.741 208.832 321.685 209.789L327.222 210.169C351.208 211.816 358.02 243.866 336.778 255.126L331.874 257.726C319.525 264.272 314.598 279.436 320.741 291.99L323.18 296.975C333.747 318.572 309.398 340.496 289.024 327.729L284.321 324.783C272.478 317.361 256.882 320.676 249.081 332.273L245.983 336.878C232.564 356.827 201.402 346.702 202.271 322.675L202.472 317.129C202.977 303.161 192.309 291.313 178.365 290.355L172.828 289.975C148.841 288.328 142.029 256.279 163.272 245.018L168.175 242.419C180.524 235.872 185.451 220.709 179.309 208.154L176.869 203.169Z" stroke="#00A651" stroke-opacity="0.2" stroke-width="2"/>
<path opacity="0.551724" d="M180.939 201.255C171.517 179.135 196.98 158.515 216.658 172.33L219.742 174.496C231.181 182.527 246.929 180.033 255.326 168.86L257.59 165.847C272.036 146.628 302.625 158.37 300.499 182.318L300.166 186.072C298.93 199.994 308.964 212.385 322.839 214.071L326.58 214.526C350.447 217.426 355.573 249.788 333.77 259.921L330.352 261.509C317.678 267.4 311.964 282.285 317.441 295.144L318.918 298.611C328.34 320.731 302.877 341.351 283.199 327.536L280.115 325.37C268.676 317.339 252.928 319.833 244.531 331.006L242.267 334.019C227.821 353.239 197.232 341.497 199.358 317.548L199.691 313.794C200.927 299.872 190.893 287.481 177.018 285.795L173.277 285.341C149.41 282.441 144.284 250.079 166.087 239.945L169.505 238.357C182.179 232.466 187.893 217.581 182.416 204.722L180.939 201.255Z" stroke="#00A651" stroke-opacity="0.2" stroke-width="2"/>
<path opacity="0.586207" d="M185.031 199.84C176.779 177.258 203.287 157.999 222.214 172.825L223.779 174.05C234.782 182.669 250.639 181.002 259.609 170.284L260.885 168.76C276.316 150.323 306.249 163.65 302.873 187.455L302.593 189.422C300.631 203.26 310.003 216.16 323.77 218.569L325.728 218.912C349.41 223.057 352.835 255.643 330.532 264.622L328.688 265.364C315.723 270.583 309.238 285.149 314.035 298.277L314.717 300.143C322.968 322.726 296.46 341.985 277.533 327.159L275.968 325.933C264.966 317.314 249.109 318.981 240.138 329.699L238.863 331.223C223.431 349.66 193.499 336.334 196.875 312.529L197.154 310.561C199.116 296.723 189.745 283.824 175.977 281.414L174.02 281.072C150.337 276.926 146.912 244.341 169.216 235.362L171.059 234.62C184.025 229.4 190.51 214.835 185.713 201.707L185.031 199.84Z" stroke="#00A651" stroke-opacity="0.2" stroke-width="2"/>
<path opacity="0.62069" d="M189.526 199.033C182.468 176.05 210.102 158.104 228.227 173.901C238.764 183.083 254.819 182.242 264.339 172.008C280.714 154.404 310.072 169.362 305.455 192.958C302.771 206.674 311.527 220.158 325.149 223.285C348.583 228.664 350.307 261.568 327.565 269.367C314.344 273.901 307.045 288.226 311.148 301.587C318.206 324.57 290.572 342.516 272.447 326.72C261.91 317.537 245.855 318.378 236.335 328.612C219.96 346.217 190.602 331.258 195.219 307.663C197.903 293.946 189.147 280.462 175.525 277.335C152.091 271.956 150.367 239.052 173.109 231.253C186.33 226.719 193.629 212.394 189.526 199.033Z" stroke="#00A651" stroke-opacity="0.2" stroke-width="2"/>
<path opacity="0.655172" d="M192.721 196.532C186.949 173.506 214.965 157.331 232.021 173.843C241.945 183.451 257.703 183.451 267.628 173.843C284.683 157.331 312.699 173.506 306.928 196.532C303.569 209.931 311.448 223.578 324.731 227.369C347.558 233.883 347.558 266.234 324.731 272.749C311.448 276.539 303.569 290.186 306.928 303.585C312.699 326.611 284.683 342.787 267.628 326.275C257.703 316.667 241.945 316.667 232.021 326.275C214.965 342.787 186.949 326.611 192.721 303.585C196.079 290.186 188.2 276.539 174.917 272.749C152.09 266.234 152.09 233.883 174.917 227.369C188.2 223.578 196.079 209.931 192.721 196.532Z" stroke="#00A651" stroke-opacity="0.2" stroke-width="2"/>
<path opacity="0.689655" d="M194.207 194.392C189.726 171.488 218.064 157.049 233.959 174.138C243.22 184.095 258.712 184.906 268.963 175.972C286.557 160.639 313.231 177.961 306.379 200.27C302.387 213.27 309.43 227.092 322.293 231.503C344.369 239.073 342.704 270.834 319.958 276.055C306.704 279.098 298.256 292.108 300.867 305.453C305.349 328.356 277.011 342.795 261.116 325.707C251.854 315.75 236.363 314.938 226.111 323.873C208.517 339.206 181.844 321.884 188.695 299.574C192.687 286.575 185.645 272.753 172.781 268.342C150.706 260.772 152.37 229.011 175.116 223.789C188.37 220.747 196.819 207.737 194.207 194.392Z" stroke="#00A651" stroke-opacity="0.2" stroke-width="2"/>
<path opacity="0.724138" d="M197.848 192.59C194.627 169.88 223.183 157.166 237.904 174.756C246.494 185.019 261.678 186.615 272.214 178.362C290.271 164.217 315.559 182.591 307.687 204.135C303.094 216.705 309.304 230.653 321.719 235.651C342.997 244.216 339.73 275.304 317.136 279.258C303.953 281.566 294.979 293.917 296.858 307.168C300.079 329.878 271.523 342.592 256.801 325.003C248.212 314.739 233.028 313.144 222.492 321.396C204.435 335.541 179.146 317.167 187.018 295.623C191.611 283.053 185.402 269.105 172.986 264.107C151.709 255.542 154.976 224.455 177.57 220.5C190.753 218.193 199.727 205.841 197.848 192.59Z" stroke="#00A651" stroke-opacity="0.2" stroke-width="2"/>
<path opacity="0.758621" d="M201.747 191.107C199.755 168.659 228.427 157.653 241.967 175.668C249.879 186.195 264.716 188.545 275.494 180.978C293.938 168.029 317.806 187.356 308.974 208.09C303.814 220.206 309.197 234.23 321.139 239.78C341.576 249.279 336.772 279.613 314.4 282.331C301.327 283.92 291.874 295.594 293.038 308.711C295.03 331.159 266.358 342.166 252.818 324.15C244.906 313.624 230.068 311.274 219.291 318.84C200.846 331.79 176.979 312.462 185.81 291.728C190.971 279.613 185.587 265.588 173.646 260.038C153.209 250.54 158.013 220.205 180.385 217.487C193.457 215.899 202.911 204.224 201.747 191.107Z" stroke="#00A651" stroke-opacity="0.2" stroke-width="2"/>
<path opacity="0.793103" d="M205.598 190.001C204.796 167.83 233.551 158.487 245.934 176.896C253.179 187.666 267.663 190.745 278.662 183.852C297.462 172.072 319.931 192.303 310.18 212.231C304.475 223.891 309.051 237.973 320.52 244.053C340.122 254.444 333.836 284.018 311.702 285.538C298.752 286.427 288.844 297.431 289.313 310.403C290.115 332.574 261.361 341.917 248.977 323.509C241.732 312.738 227.248 309.66 216.249 316.552C197.449 328.332 174.981 308.102 184.731 288.173C190.436 276.514 185.86 262.431 174.392 256.351C154.79 245.96 161.076 216.387 183.209 214.867C196.159 213.978 206.068 202.973 205.598 190.001Z" stroke="#00A651" stroke-opacity="0.2" stroke-width="2"/>
<path opacity="0.827586" d="M209.441 189.12C209.794 167.338 238.471 159.654 249.668 178.342C256.229 189.292 270.295 193.061 281.452 186.858C300.492 176.273 321.485 197.266 310.9 216.306C304.697 227.463 308.466 241.53 319.416 248.09C338.104 259.287 330.42 287.964 308.638 288.317C295.874 288.524 285.577 298.821 285.37 311.585C285.017 333.367 256.34 341.051 245.144 322.363C238.583 311.413 224.516 307.644 213.359 313.847C194.319 324.432 173.326 303.439 183.912 284.399C190.114 273.242 186.345 259.175 175.395 252.614C156.708 241.418 164.391 212.741 186.174 212.388C198.937 212.181 209.235 201.884 209.441 189.12Z" stroke="#00A651" stroke-opacity="0.2" stroke-width="2"/>
<path opacity="0.862069" d="M210.418 187.868C211.883 166.534 240.388 160.475 250.404 179.369C256.282 190.457 269.899 194.882 281.172 189.366C300.38 179.967 319.88 201.624 308.526 219.745C301.861 230.38 304.838 244.384 315.252 251.389C332.995 263.325 323.99 291.041 302.619 290.268C290.077 289.814 279.437 299.394 278.578 311.915C277.113 333.249 248.607 339.308 238.592 320.415C232.713 309.326 219.097 304.901 207.824 310.417C188.615 319.816 169.115 298.159 180.47 280.038C187.134 269.403 184.157 255.399 173.744 248.394C156 236.458 165.006 208.742 186.376 209.515C198.918 209.969 209.558 200.389 210.418 187.868Z" stroke="#00A651" stroke-opacity="0.2" stroke-width="2"/>
<path opacity="0.896552" d="M214.311 187.512C216.842 166.682 245.086 162.209 253.931 181.237C259.13 192.424 272.267 197.467 283.616 192.632C302.921 184.409 320.917 206.633 308.86 223.806C301.772 233.902 303.973 247.801 313.834 255.212C330.608 267.819 320.36 294.516 299.459 292.661C287.172 291.571 276.236 300.426 274.748 312.672C272.217 333.502 243.973 337.976 235.128 318.947C229.929 307.761 216.792 302.718 205.443 307.552C186.138 315.775 168.142 293.552 180.199 276.378C187.287 266.282 185.086 252.383 175.225 244.972C158.451 232.365 168.699 205.668 189.6 207.523C201.887 208.614 212.823 199.758 214.311 187.512Z" stroke="#00A651" stroke-opacity="0.2" stroke-width="2"/>
<path opacity="0.931035" d="M217.951 187.4C221.5 167.125 249.396 164.193 257.083 183.287C261.609 194.531 274.24 200.155 285.625 195.995C304.958 188.931 321.445 211.624 308.753 227.828C301.278 237.369 302.724 251.12 312.018 258.9C327.802 272.11 316.393 297.735 296.014 294.845C284.014 293.143 272.828 301.27 270.738 313.209C267.189 333.484 239.293 336.416 231.606 317.322C227.08 306.079 214.449 300.455 203.064 304.615C183.732 311.679 167.244 288.986 179.937 272.782C187.411 263.24 185.965 249.489 176.671 241.71C160.887 228.499 172.296 202.874 192.675 205.764C204.675 207.466 215.861 199.339 217.951 187.4Z" stroke="#00A651" stroke-opacity="0.2" stroke-width="2"/>
<path opacity="0.965517" d="M222.284 187.037C226.81 167.318 254.345 165.874 260.908 185.013C264.778 196.3 276.907 202.48 288.314 198.977C307.654 193.037 322.671 216.161 309.379 231.414C301.539 240.41 302.251 254.003 310.988 262.13C325.803 275.91 313.285 300.477 293.429 296.592C281.719 294.3 270.303 301.714 267.633 313.344C263.107 333.063 235.572 334.506 229.009 315.368C225.139 304.081 213.01 297.901 201.603 301.404C182.263 307.344 167.246 284.22 180.538 268.967C188.378 259.971 187.666 246.378 178.929 238.251C164.114 224.471 176.632 199.904 196.488 203.789C208.198 206.081 219.614 198.667 222.284 187.037Z" stroke="#00A651" stroke-opacity="0.2" stroke-width="2"/>
<path d="M226.128 187.401C231.57 168.331 258.597 168.331 264.039 187.401C267.255 198.669 278.831 205.352 290.197 202.503C309.433 197.681 322.946 221.087 309.152 235.335C301.002 243.754 301.002 257.121 309.152 265.539C322.946 279.788 309.433 303.193 290.197 298.371C278.831 295.522 267.255 302.205 264.039 313.473C258.597 332.543 231.57 332.543 226.128 313.473C222.912 302.205 211.336 295.522 199.97 298.371C180.734 303.193 167.221 279.788 181.015 265.539C189.165 257.121 189.165 243.754 181.015 235.335C167.221 221.087 180.734 197.681 199.97 202.503C211.336 205.352 222.912 198.669 226.128 187.401Z" stroke="#00A651" stroke-opacity="0.2" stroke-width="2"/>
</svg>
