<svg width="433" height="356" viewBox="0 0 433 356" fill="none" xmlns="http://www.w3.org/2000/svg">
<path d="M339.468 -0.00642398L342.084 5.5088C341.071 9.29651 339.827 13.0186 338.358 16.6542C329.047 38.8905 314.585 58.6 296.161 74.1611C277.574 90.0253 257.217 103.695 235.495 114.899C213.836 127.033 190.723 136.102 170.388 150.235C150.057 163.705 132.819 181.333 119.813 201.954C107.043 223.418 99.4649 247.565 97.6831 272.472C95.8452 299.023 96.9124 325.695 100.866 352.015L92.586 355.936C88.2287 327.617 87.2034 298.886 89.5311 270.328C90.9882 244.401 98.5952 219.19 111.724 196.779C125.568 175.085 144.047 156.723 165.834 143.011C187.149 130.082 209.135 118.292 231.7 107.691C253.145 96.8064 273.327 83.5994 291.882 68.3076C309.794 53.6266 324.101 35.0415 333.708 13.9781C336.03 9.49211 337.957 4.813 339.468 -0.00642398Z" fill="url(#paint0_linear_384_162)" fill-opacity="0.2"/>
<path d="M361.563 46.565L364.034 51.7738C355.582 64.8692 345.202 76.616 333.244 86.6179C314.488 102.242 294.099 115.798 272.432 127.049C250.773 139.183 227.66 148.252 207.325 162.386C186.994 175.856 169.756 193.484 156.75 214.104C143.98 235.568 136.402 259.715 134.62 284.622C133.143 301.729 133.136 318.931 134.6 336.039L125.4 340.395C123.635 321.886 123.469 303.259 124.903 284.721C127.033 258.793 135.203 233.721 148.759 211.51C162.646 189.851 181.116 171.498 202.869 157.742C224.473 144.635 246.767 132.699 269.654 121.986C291.099 111.102 311.281 97.8946 329.837 82.6028C342.221 72.3094 352.925 60.151 361.563 46.565Z" fill="url(#paint1_linear_384_162)" fill-opacity="0.2"/>
<path d="M379.585 84.5593L381.911 89.4617L370.76 99.996C352.004 115.62 331.615 129.176 309.948 140.428C287.654 151.104 265.967 163.003 244.986 176.07C224.602 189.475 207.351 207.116 194.411 227.789C181.495 249.086 173.858 273.158 172.136 298C171.686 304.968 171.542 311.79 171.705 318.467L163.425 322.388C163.294 314.195 163.776 305.711 164.259 297.228C166.486 271.319 174.649 246.269 188.115 224.016C202.002 202.358 220.472 184.005 242.225 170.248C263.539 157.319 285.525 145.529 308.09 134.928C329.535 124.044 349.717 110.837 368.273 95.5453C372.272 92.1252 376.05 88.4559 379.585 84.5593Z" fill="url(#paint2_linear_384_162)" fill-opacity="0.2"/>
<path d="M394.993 117.037L397.318 121.94C381.675 134.012 364.992 144.675 347.464 153.805C325.175 164.49 303.488 176.389 282.503 189.447C262.118 202.852 244.868 220.493 231.928 241.166C220.535 258.956 213.266 279.065 210.651 300.023L202.064 304.089C204.637 280.606 212.371 257.98 224.712 237.829C238.67 216.085 257.249 197.679 279.128 183.916C300.336 171.029 322.22 159.287 344.687 148.741C362.437 139.815 379.284 129.198 394.993 117.037Z" fill="url(#paint3_linear_384_162)" fill-opacity="0.2"/>
<path d="M409.091 146.758L411.417 151.66C402.217 156.017 393.889 162.212 384.98 167.182C363.628 179.17 340.209 188.385 320.019 202.824C299.721 216.334 282.49 233.954 269.443 254.543C264.821 261.743 261.042 269.45 258.182 277.512L248.062 282.305C251.646 271.36 256.503 260.874 262.534 251.061C276.493 229.317 295.071 210.911 316.951 197.148C338.257 184.204 360.244 172.414 382.816 161.828C391.564 157.31 400.473 152.34 409.091 146.758Z" fill="url(#paint4_linear_384_162)" fill-opacity="0.2"/>
<path d="M422.169 174.336L424.495 179.238L422.348 180.255C400.996 192.243 377.576 201.458 357.693 215.752C344.41 224.544 332.347 235.051 321.818 247.001L306.792 254.117C319.69 236.742 335.7 221.908 354.012 210.366C375.318 197.423 397.305 185.632 419.877 175.046L422.169 174.336Z" fill="url(#paint5_linear_384_162)" fill-opacity="0.2"/>
<defs>
<linearGradient id="paint0_linear_384_162" x1="1.40321" y1="216.455" x2="362.191" y2="237.537" gradientUnits="userSpaceOnUse">
<stop stop-color="#00A651"/>
<stop offset="0.33" stop-color="#90A023"/>
<stop offset="0.585" stop-color="#FF9C00"/>
<stop offset="1" stop-color="#FF3A44"/>
</linearGradient>
<linearGradient id="paint1_linear_384_162" x1="53.0756" y1="235.571" x2="362.419" y2="277.143" gradientUnits="userSpaceOnUse">
<stop stop-color="#00A651"/>
<stop offset="0.33" stop-color="#90A023"/>
<stop offset="0.585" stop-color="#FF9C00"/>
<stop offset="1" stop-color="#FF3A44"/>
</linearGradient>
<linearGradient id="paint2_linear_384_162" x1="107.162" y1="245.515" x2="360.472" y2="299.579" gradientUnits="userSpaceOnUse">
<stop stop-color="#00A651"/>
<stop offset="0.33" stop-color="#90A023"/>
<stop offset="0.585" stop-color="#FF9C00"/>
<stop offset="1" stop-color="#FF3A44"/>
</linearGradient>
<linearGradient id="paint3_linear_384_162" x1="159.9" y1="250.935" x2="355.197" y2="312.41" gradientUnits="userSpaceOnUse">
<stop stop-color="#00A651"/>
<stop offset="0.33" stop-color="#90A023"/>
<stop offset="0.585" stop-color="#FF9C00"/>
<stop offset="1" stop-color="#FF3A44"/>
</linearGradient>
<linearGradient id="paint4_linear_384_162" x1="219.44" y1="250.552" x2="349.467" y2="310.545" gradientUnits="userSpaceOnUse">
<stop stop-color="#00A651"/>
<stop offset="0.33" stop-color="#90A023"/>
<stop offset="0.585" stop-color="#FF9C00"/>
<stop offset="1" stop-color="#FF3A44"/>
</linearGradient>
<linearGradient id="paint5_linear_384_162" x1="291.708" y1="241.757" x2="348.577" y2="284.267" gradientUnits="userSpaceOnUse">
<stop stop-color="#00A651"/>
<stop offset="0.33" stop-color="#90A023"/>
<stop offset="0.585" stop-color="#FF9C00"/>
<stop offset="1" stop-color="#FF3A44"/>
</linearGradient>
</defs>
</svg>
