<svg width="110" height="169" viewBox="0 0 110 169" fill="none" xmlns="http://www.w3.org/2000/svg">
<path d="M53.0609 126.776L45.0003 120.859L46.7711 130.7L41.5885 122.149L39.4585 131.919L37.9429 122.035L32.2362 130.246L34.6184 120.534L26.2039 125.936L32.1212 117.876L22.2799 119.647L30.8314 114.464L21.0615 112.334L30.9453 110.819L22.7343 105.112L32.4458 107.494L27.0436 99.0795L35.1042 104.997L33.3334 95.1555L38.516 103.707L40.646 93.9371L42.1616 103.821L47.8682 95.61L45.4861 105.321L53.9006 99.9193L47.9833 107.98L57.8246 106.209L49.2731 111.392L59.043 113.522L49.1592 115.037L57.3702 120.744L47.6587 118.362L53.0609 126.776Z" fill="white" fill-opacity="0.5"/>
<path d="M28.3919 78.6063L20.3313 72.689L22.1022 82.5303L16.9196 73.9788L14.7895 83.7487L13.274 73.8649L7.5673 82.0759L9.94947 72.3644L1.53498 77.7666L7.45222 69.706L-2.38906 71.4768L6.16241 66.2942L-3.60742 64.1642L6.27639 62.6486L-1.93461 56.9419L7.77682 59.3241L2.37469 50.9096L10.4353 56.8269L8.66443 46.9856L13.847 55.5371L15.9771 45.7672L17.4926 55.651L23.1993 47.44L20.8171 57.1515L29.2316 51.7493L23.3144 59.8099L33.1557 58.0391L24.6042 63.2217L34.374 65.3517L24.4902 66.8673L32.7012 72.5739L22.9898 70.1918L28.3919 78.6063Z" fill="white" fill-opacity="0.5"/>
<path d="M42.9886 177.398L34.928 171.481L36.6988 181.322L31.5163 172.771L29.3862 182.541L27.8706 172.657L22.164 180.868L24.5461 171.156L16.1317 176.559L22.0489 168.498L12.2076 170.269L20.7591 165.086L10.9893 162.956L20.8731 161.441L12.6621 155.734L22.3735 158.116L16.9714 149.702L25.0319 155.619L23.2611 145.778L28.4437 154.329L30.5737 144.559L32.0893 154.443L37.796 146.232L35.4138 155.943L43.8283 150.541L37.9111 158.602L47.7523 156.831L39.2009 162.014L48.9707 164.144L39.0869 165.659L47.2979 171.366L37.5865 168.984L42.9886 177.398Z" fill="white" fill-opacity="0.5"/>
</svg>
