<svg width="32" height="32" viewBox="0 0 32 32" fill="none" xmlns="http://www.w3.org/2000/svg">
<path d="M19.7721 15.9307L21.6574 14.0454L16.0001 8.38672L10.3428 14.0441L12.2294 15.9294L14.6668 13.4934V23.5427H17.3334V13.4934L19.7721 15.9307Z" fill="#00A651"/>
<path fill-rule="evenodd" clip-rule="evenodd" d="M26.3703 5.62901C20.6423 -0.0989921 11.357 -0.0989921 5.62901 5.62901C-0.0989921 11.357 -0.0989921 20.6423 5.62901 26.3703C11.357 32.0983 20.6423 32.0983 26.3703 26.3703C32.0983 20.6423 32.0983 11.357 26.3703 5.62901ZM24.485 7.51434C22.2346 5.26389 19.1823 3.9996 15.9997 3.9996C12.8171 3.9996 9.76479 5.26389 7.51434 7.51434C5.26389 9.76479 3.9996 12.8171 3.9996 15.9997C3.9996 19.1823 5.26389 22.2346 7.51434 24.485C9.76479 26.7355 12.8171 27.9997 15.9997 27.9997C19.1823 27.9997 22.2346 26.7355 24.485 24.485C26.7355 22.2346 27.9997 19.1823 27.9997 15.9997C27.9997 12.8171 26.7355 9.76479 24.485 7.51434Z" fill="#00A651"/>
</svg>
