<svg width="105" height="32" viewBox="0 0 105 32" fill="none" xmlns="http://www.w3.org/2000/svg">
<g clip-path="url(#clip0_699_2273)">
<path d="M1.53831 2.57955C2.11175 2.57955 2.57661 2.11468 2.57661 1.54124C2.57661 0.967796 2.11175 0.50293 1.53831 0.50293C0.964867 0.50293 0.5 0.967796 0.5 1.54124C0.5 2.11468 0.964867 2.57955 1.53831 2.57955Z" fill="#00A651"/>
<path d="M1.53831 5.52095C2.11175 5.52095 2.57661 5.05608 2.57661 4.48264C2.57661 3.9092 2.11175 3.44434 1.53831 3.44434C0.964867 3.44434 0.5 3.9092 0.5 4.48264C0.5 5.05608 0.964867 5.52095 1.53831 5.52095Z" fill="#00A651"/>
<path d="M1.53831 8.46236C2.11175 8.46236 2.57661 7.99749 2.57661 7.42405C2.57661 6.85061 2.11175 6.38574 1.53831 6.38574C0.964867 6.38574 0.5 6.85061 0.5 7.42405C0.5 7.99749 0.964867 8.46236 1.53831 8.46236Z" fill="#00A651"/>
<path d="M1.53831 11.4028C2.11175 11.4028 2.57661 10.9379 2.57661 10.3645C2.57661 9.79104 2.11175 9.32617 1.53831 9.32617C0.964867 9.32617 0.5 9.79104 0.5 10.3645C0.5 10.9379 0.964867 11.4028 1.53831 11.4028Z" fill="#00A651"/>
<path d="M1.53831 14.3491C2.11175 14.3491 2.57661 13.8842 2.57661 13.3108C2.57661 12.7373 2.11175 12.2725 1.53831 12.2725C0.964867 12.2725 0.5 12.7373 0.5 13.3108C0.5 13.8842 0.964867 14.3491 1.53831 14.3491Z" fill="#00A651"/>
<path d="M1.53831 17.2896C2.11175 17.2896 2.57661 16.8248 2.57661 16.2513C2.57661 15.6778 2.11175 15.2129 1.53831 15.2129C0.964867 15.2129 0.5 15.6778 0.5 16.2513C0.5 16.8248 0.964867 17.2896 1.53831 17.2896Z" fill="#00A651"/>
<path d="M1.53831 20.2308C2.11175 20.2308 2.57661 19.766 2.57661 19.1926C2.57661 18.6191 2.11175 18.1543 1.53831 18.1543C0.964867 18.1543 0.5 18.6191 0.5 19.1926C0.5 19.766 0.964867 20.2308 1.53831 20.2308Z" fill="#00A651"/>
<path d="M1.53831 23.1724C2.11175 23.1724 2.57661 22.7074 2.57661 22.134C2.57661 21.5606 2.11175 21.0957 1.53831 21.0957C0.964867 21.0957 0.5 21.5606 0.5 22.134C0.5 22.7074 0.964867 23.1724 1.53831 23.1724Z" fill="#00A651"/>
<path d="M1.53831 26.1176C2.11175 26.1176 2.57661 25.6528 2.57661 25.0793C2.57661 24.5058 2.11175 24.041 1.53831 24.041C0.964867 24.041 0.5 24.5058 0.5 25.0793C0.5 25.6528 0.964867 26.1176 1.53831 26.1176Z" fill="#00A651"/>
<path d="M1.53831 29.0591C2.11175 29.0591 2.57661 28.5942 2.57661 28.0207C2.57661 27.4474 2.11175 26.9824 1.53831 26.9824C0.964867 26.9824 0.5 27.4474 0.5 28.0207C0.5 28.5942 0.964867 29.0591 1.53831 29.0591Z" fill="#00A651"/>
<path d="M4.4929 5.52095C5.06635 5.52095 5.53122 5.05608 5.53122 4.48264C5.53122 3.9092 5.06635 3.44434 4.4929 3.44434C3.91946 3.44434 3.45459 3.9092 3.45459 4.48264C3.45459 5.05608 3.91946 5.52095 4.4929 5.52095Z" fill="#00A651"/>
<path d="M4.4929 8.46236C5.06635 8.46236 5.53122 7.99749 5.53122 7.42405C5.53122 6.85061 5.06635 6.38574 4.4929 6.38574C3.91946 6.38574 3.45459 6.85061 3.45459 7.42405C3.45459 7.99749 3.91946 8.46236 4.4929 8.46236Z" fill="#00A651"/>
<path d="M4.4929 11.4028C5.06635 11.4028 5.53122 10.9379 5.53122 10.3645C5.53122 9.79104 5.06635 9.32617 4.4929 9.32617C3.91946 9.32617 3.45459 9.79104 3.45459 10.3645C3.45459 10.9379 3.91946 11.4028 4.4929 11.4028Z" fill="#00A651"/>
<path d="M4.4929 14.3491C5.06635 14.3491 5.53122 13.8842 5.53122 13.3108C5.53122 12.7373 5.06635 12.2725 4.4929 12.2725C3.91946 12.2725 3.45459 12.7373 3.45459 13.3108C3.45459 13.8842 3.91946 14.3491 4.4929 14.3491Z" fill="#00A651"/>
<path d="M4.4929 17.2896C5.06635 17.2896 5.53122 16.8248 5.53122 16.2513C5.53122 15.6778 5.06635 15.2129 4.4929 15.2129C3.91946 15.2129 3.45459 15.6778 3.45459 16.2513C3.45459 16.8248 3.91946 17.2896 4.4929 17.2896Z" fill="#00A651"/>
<path d="M4.4929 20.2308C5.06635 20.2308 5.53122 19.766 5.53122 19.1926C5.53122 18.6191 5.06635 18.1543 4.4929 18.1543C3.91946 18.1543 3.45459 18.6191 3.45459 19.1926C3.45459 19.766 3.91946 20.2308 4.4929 20.2308Z" fill="#00A651"/>
<path d="M4.4929 23.1724C5.06635 23.1724 5.53122 22.7074 5.53122 22.134C5.53122 21.5606 5.06635 21.0957 4.4929 21.0957C3.91946 21.0957 3.45459 21.5606 3.45459 22.134C3.45459 22.7074 3.91946 23.1724 4.4929 23.1724Z" fill="#00A651"/>
<path d="M4.4929 26.1176C5.06635 26.1176 5.53122 25.6528 5.53122 25.0793C5.53122 24.5058 5.06635 24.041 4.4929 24.041C3.91946 24.041 3.45459 24.5058 3.45459 25.0793C3.45459 25.6528 3.91946 26.1176 4.4929 26.1176Z" fill="#00A651"/>
<path d="M4.4929 29.0591C5.06635 29.0591 5.53122 28.5942 5.53122 28.0207C5.53122 27.4474 5.06635 26.9824 4.4929 26.9824C3.91946 26.9824 3.45459 27.4474 3.45459 28.0207C3.45459 28.5942 3.91946 29.0591 4.4929 29.0591Z" fill="#00A651"/>
<path d="M7.45237 14.3491C8.02581 14.3491 8.49068 13.8842 8.49068 13.3108C8.49068 12.7373 8.02581 12.2725 7.45237 12.2725C6.87893 12.2725 6.41406 12.7373 6.41406 13.3108C6.41406 13.8842 6.87893 14.3491 7.45237 14.3491Z" fill="#00A651"/>
<path d="M7.45237 17.2896C8.02581 17.2896 8.49068 16.8248 8.49068 16.2513C8.49068 15.6778 8.02581 15.2129 7.45237 15.2129C6.87893 15.2129 6.41406 15.6778 6.41406 16.2513C6.41406 16.8248 6.87893 17.2896 7.45237 17.2896Z" fill="#00A651"/>
<path d="M7.45237 20.2308C8.02581 20.2308 8.49068 19.766 8.49068 19.1926C8.49068 18.6191 8.02581 18.1543 7.45237 18.1543C6.87893 18.1543 6.41406 18.6191 6.41406 19.1926C6.41406 19.766 6.87893 20.2308 7.45237 20.2308Z" fill="#00A651"/>
<path d="M7.45237 23.1724C8.02581 23.1724 8.49068 22.7074 8.49068 22.134C8.49068 21.5606 8.02581 21.0957 7.45237 21.0957C6.87893 21.0957 6.41406 21.5606 6.41406 22.134C6.41406 22.7074 6.87893 23.1724 7.45237 23.1724Z" fill="#00A651"/>
<path d="M7.45237 26.1176C8.02581 26.1176 8.49068 25.6528 8.49068 25.0793C8.49068 24.5058 8.02581 24.041 7.45237 24.041C6.87893 24.041 6.41406 24.5058 6.41406 25.0793C6.41406 25.6528 6.87893 26.1176 7.45237 26.1176Z" fill="#00A651"/>
<path d="M7.45237 29.0591C8.02581 29.0591 8.49068 28.5942 8.49068 28.0207C8.49068 27.4474 8.02581 26.9824 7.45237 26.9824C6.87893 26.9824 6.41406 27.4474 6.41406 28.0207C6.41406 28.5942 6.87893 29.0591 7.45237 29.0591Z" fill="#00A651"/>
<path d="M10.4074 14.3491C10.9809 14.3491 11.4458 13.8842 11.4458 13.3108C11.4458 12.7373 10.9809 12.2725 10.4074 12.2725C9.83401 12.2725 9.36914 12.7373 9.36914 13.3108C9.36914 13.8842 9.83401 14.3491 10.4074 14.3491Z" fill="#00A651"/>
<path d="M10.4074 17.2896C10.9809 17.2896 11.4458 16.8248 11.4458 16.2513C11.4458 15.6778 10.9809 15.2129 10.4074 15.2129C9.83401 15.2129 9.36914 15.6778 9.36914 16.2513C9.36914 16.8248 9.83401 17.2896 10.4074 17.2896Z" fill="#00A651"/>
<path d="M10.4074 20.2308C10.9809 20.2308 11.4458 19.766 11.4458 19.1926C11.4458 18.6191 10.9809 18.1543 10.4074 18.1543C9.83401 18.1543 9.36914 18.6191 9.36914 19.1926C9.36914 19.766 9.83401 20.2308 10.4074 20.2308Z" fill="#00A651"/>
<path d="M10.4074 23.1724C10.9809 23.1724 11.4458 22.7074 11.4458 22.134C11.4458 21.5606 10.9809 21.0957 10.4074 21.0957C9.83401 21.0957 9.36914 21.5606 9.36914 22.134C9.36914 22.7074 9.83401 23.1724 10.4074 23.1724Z" fill="#00A651"/>
<path d="M10.4074 26.1176C10.9809 26.1176 11.4458 25.6528 11.4458 25.0793C11.4458 24.5058 10.9809 24.041 10.4074 24.041C9.83401 24.041 9.36914 24.5058 9.36914 25.0793C9.36914 25.6528 9.83401 26.1176 10.4074 26.1176Z" fill="#00A651"/>
<path d="M13.3669 14.3491C13.9404 14.3491 14.4052 13.8842 14.4052 13.3108C14.4052 12.7373 13.9404 12.2725 13.3669 12.2725C12.7935 12.2725 12.3286 12.7373 12.3286 13.3108C12.3286 13.8842 12.7935 14.3491 13.3669 14.3491Z" fill="#00A651"/>
<path d="M13.3669 17.2896C13.9404 17.2896 14.4052 16.8248 14.4052 16.2513C14.4052 15.6778 13.9404 15.2129 13.3669 15.2129C12.7935 15.2129 12.3286 15.6778 12.3286 16.2513C12.3286 16.8248 12.7935 17.2896 13.3669 17.2896Z" fill="#00A651"/>
<path d="M13.3669 20.2308C13.9404 20.2308 14.4052 19.766 14.4052 19.1926C14.4052 18.6191 13.9404 18.1543 13.3669 18.1543C12.7935 18.1543 12.3286 18.6191 12.3286 19.1926C12.3286 19.766 12.7935 20.2308 13.3669 20.2308Z" fill="#00A651"/>
<path d="M13.3669 23.1724C13.9404 23.1724 14.4052 22.7074 14.4052 22.134C14.4052 21.5606 13.9404 21.0957 13.3669 21.0957C12.7935 21.0957 12.3286 21.5606 12.3286 22.134C12.3286 22.7074 12.7935 23.1724 13.3669 23.1724Z" fill="#00A651"/>
<path d="M16.3264 14.3491C16.8998 14.3491 17.3648 13.8842 17.3648 13.3108C17.3648 12.7373 16.8998 12.2725 16.3264 12.2725C15.753 12.2725 15.2881 12.7373 15.2881 13.3108C15.2881 13.8842 15.753 14.3491 16.3264 14.3491Z" fill="#00A651"/>
<path d="M16.3264 17.2896C16.8998 17.2896 17.3648 16.8248 17.3648 16.2513C17.3648 15.6778 16.8998 15.2129 16.3264 15.2129C15.753 15.2129 15.2881 15.6778 15.2881 16.2513C15.2881 16.8248 15.753 17.2896 16.3264 17.2896Z" fill="#00A651"/>
<path d="M19.2811 17.2896C19.8544 17.2896 20.3193 16.8248 20.3193 16.2513C20.3193 15.6778 19.8544 15.2129 19.2811 15.2129C18.7076 15.2129 18.2427 15.6778 18.2427 16.2513C18.2427 16.8248 18.7076 17.2896 19.2811 17.2896Z" fill="#00A651"/>
<path d="M16.3264 20.2308C16.8998 20.2308 17.3648 19.766 17.3648 19.1926C17.3648 18.6191 16.8998 18.1543 16.3264 18.1543C15.753 18.1543 15.2881 18.6191 15.2881 19.1926C15.2881 19.766 15.753 20.2308 16.3264 20.2308Z" fill="#00A651"/>
<path d="M16.3264 23.1724C16.8998 23.1724 17.3648 22.7074 17.3648 22.134C17.3648 21.5606 16.8998 21.0957 16.3264 21.0957C15.753 21.0957 15.2881 21.5606 15.2881 22.134C15.2881 22.7074 15.753 23.1724 16.3264 23.1724Z" fill="#00A651"/>
<path d="M19.2811 20.2308C19.8544 20.2308 20.3193 19.766 20.3193 19.1926C20.3193 18.6191 19.8544 18.1543 19.2811 18.1543C18.7076 18.1543 18.2427 18.6191 18.2427 19.1926C18.2427 19.766 18.7076 20.2308 19.2811 20.2308Z" fill="#00A651"/>
<path d="M19.2811 23.1724C19.8544 23.1724 20.3193 22.7074 20.3193 22.134C20.3193 21.5606 19.8544 21.0957 19.2811 21.0957C18.7076 21.0957 18.2427 21.5606 18.2427 22.134C18.2427 22.7074 18.7076 23.1724 19.2811 23.1724Z" fill="#00A651"/>
<path d="M22.2404 20.2308C22.8139 20.2308 23.2787 19.766 23.2787 19.1926C23.2787 18.6191 22.8139 18.1543 22.2404 18.1543C21.6669 18.1543 21.2021 18.6191 21.2021 19.1926C21.2021 19.766 21.6669 20.2308 22.2404 20.2308Z" fill="#00A651"/>
<path d="M22.2404 23.1724C22.8139 23.1724 23.2787 22.7074 23.2787 22.134C23.2787 21.5606 22.8139 21.0957 22.2404 21.0957C21.6669 21.0957 21.2021 21.5606 21.2021 22.134C21.2021 22.7074 21.6669 23.1724 22.2404 23.1724Z" fill="#00A651"/>
<path d="M13.3669 25.7515C13.9404 25.7515 14.4052 25.2865 14.4052 24.7132C14.4052 24.1397 13.9404 23.6748 13.3669 23.6748C12.7935 23.6748 12.3286 24.1397 12.3286 24.7132C12.3286 25.2865 12.7935 25.7515 13.3669 25.7515Z" fill="#00A651"/>
<path d="M16.3264 25.7515C16.8998 25.7515 17.3648 25.2865 17.3648 24.7132C17.3648 24.1397 16.8998 23.6748 16.3264 23.6748C15.753 23.6748 15.2881 24.1397 15.2881 24.7132C15.2881 25.2865 15.753 25.7515 16.3264 25.7515Z" fill="#00A651"/>
<path d="M19.2811 25.7515C19.8544 25.7515 20.3193 25.2865 20.3193 24.7132C20.3193 24.1397 19.8544 23.6748 19.2811 23.6748C18.7076 23.6748 18.2427 24.1397 18.2427 24.7132C18.2427 25.2865 18.7076 25.7515 19.2811 25.7515Z" fill="#00A651"/>
<path d="M22.2404 25.7515C22.8139 25.7515 23.2787 25.2865 23.2787 24.7132C23.2787 24.1397 22.8139 23.6748 22.2404 23.6748C21.6669 23.6748 21.2021 24.1397 21.2021 24.7132C21.2021 25.2865 21.6669 25.7515 22.2404 25.7515Z" fill="#00A651"/>
<path d="M25.195 20.2308C25.7685 20.2308 26.2334 19.766 26.2334 19.1926C26.2334 18.6191 25.7685 18.1543 25.195 18.1543C24.6217 18.1543 24.1567 18.6191 24.1567 19.1926C24.1567 19.766 24.6217 20.2308 25.195 20.2308Z" fill="#00A651"/>
<path d="M25.195 23.1724C25.7685 23.1724 26.2334 22.7074 26.2334 22.134C26.2334 21.5606 25.7685 21.0957 25.195 21.0957C24.6217 21.0957 24.1567 21.5606 24.1567 22.134C24.1567 22.7074 24.6217 23.1724 25.195 23.1724Z" fill="#00A651"/>
<path d="M25.195 26.1176C25.7685 26.1176 26.2334 25.6528 26.2334 25.0793C26.2334 24.5058 25.7685 24.041 25.195 24.041C24.6217 24.041 24.1567 24.5058 24.1567 25.0793C24.1567 25.6528 24.6217 26.1176 25.195 26.1176Z" fill="#00A651"/>
<path d="M25.195 29.0591C25.7685 29.0591 26.2334 28.5942 26.2334 28.0207C26.2334 27.4474 25.7685 26.9824 25.195 26.9824C24.6217 26.9824 24.1567 27.4474 24.1567 28.0207C24.1567 28.5942 24.6217 29.0591 25.195 29.0591Z" fill="#00A651"/>
<path d="M28.1545 20.2308C28.7279 20.2308 29.1927 19.766 29.1927 19.1926C29.1927 18.6191 28.7279 18.1543 28.1545 18.1543C27.581 18.1543 27.1162 18.6191 27.1162 19.1926C27.1162 19.766 27.581 20.2308 28.1545 20.2308Z" fill="#00A651"/>
<path d="M28.1545 23.1724C28.7279 23.1724 29.1927 22.7074 29.1927 22.134C29.1927 21.5606 28.7279 21.0957 28.1545 21.0957C27.581 21.0957 27.1162 21.5606 27.1162 22.134C27.1162 22.7074 27.581 23.1724 28.1545 23.1724Z" fill="#00A651"/>
<path d="M28.1545 26.1176C28.7279 26.1176 29.1927 25.6528 29.1927 25.0793C29.1927 24.5058 28.7279 24.041 28.1545 24.041C27.581 24.041 27.1162 24.5058 27.1162 25.0793C27.1162 25.6528 27.581 26.1176 28.1545 26.1176Z" fill="#00A651"/>
<path d="M28.1545 29.0591C28.7279 29.0591 29.1927 28.5942 29.1927 28.0207C29.1927 27.4474 28.7279 26.9824 28.1545 26.9824C27.581 26.9824 27.1162 27.4474 27.1162 28.0207C27.1162 28.5942 27.581 29.0591 28.1545 29.0591Z" fill="#00A651"/>
<path d="M31.1096 23.1724C31.683 23.1724 32.148 22.7074 32.148 22.134C32.148 21.5606 31.683 21.0957 31.1096 21.0957C30.5361 21.0957 30.0713 21.5606 30.0713 22.134C30.0713 22.7074 30.5361 23.1724 31.1096 23.1724Z" fill="#00A651"/>
<path d="M33.7028 23.1724C34.2763 23.1724 34.7412 22.7074 34.7412 22.134C34.7412 21.5606 34.2763 21.0957 33.7028 21.0957C33.1294 21.0957 32.6646 21.5606 32.6646 22.134C32.6646 22.7074 33.1294 23.1724 33.7028 23.1724Z" fill="#00A651"/>
<path d="M31.1096 29.0591C31.683 29.0591 32.148 28.5942 32.148 28.0207C32.148 27.4474 31.683 26.9824 31.1096 26.9824C30.5361 26.9824 30.0713 27.4474 30.0713 28.0207C30.0713 28.5942 30.5361 29.0591 31.1096 29.0591Z" fill="#00A651"/>
<path d="M31.1096 31.9995C31.683 31.9995 32.148 31.5347 32.148 30.9613C32.148 30.3878 31.683 29.9229 31.1096 29.9229C30.5361 29.9229 30.0713 30.3878 30.0713 30.9613C30.0713 31.5347 30.5361 31.9995 31.1096 31.9995Z" fill="#00A651"/>
<path d="M34.0692 20.2308C34.6426 20.2308 35.1074 19.766 35.1074 19.1926C35.1074 18.6191 34.6426 18.1543 34.0692 18.1543C33.4957 18.1543 33.0308 18.6191 33.0308 19.1926C33.0308 19.766 33.4957 20.2308 34.0692 20.2308Z" fill="#00A651"/>
<path d="M34.0692 29.0591C34.6426 29.0591 35.1074 28.5942 35.1074 28.0207C35.1074 27.4474 34.6426 26.9824 34.0692 26.9824C33.4957 26.9824 33.0308 27.4474 33.0308 28.0207C33.0308 28.5942 33.4957 29.0591 34.0692 29.0591Z" fill="#00A651"/>
<path d="M34.0692 31.9995C34.6426 31.9995 35.1074 31.5347 35.1074 30.9613C35.1074 30.3878 34.6426 29.9229 34.0692 29.9229C33.4957 29.9229 33.0308 30.3878 33.0308 30.9613C33.0308 31.5347 33.4957 31.9995 34.0692 31.9995Z" fill="#00A651"/>
<path d="M54.9721 7.8582C54.9721 10.3831 54.3454 12.3255 53.0922 13.6856C51.8389 15.0456 50.0413 15.724 47.6994 15.7209C45.3574 15.7209 43.5614 15.0425 42.3112 13.6856C41.0609 12.3286 40.4342 10.3785 40.4312 7.83533C40.4312 5.29216 41.0594 3.35125 42.3157 2.01257C43.5721 0.673909 45.3742 0.00304936 47.7222 0C50.0702 0 51.8648 0.675433 53.1058 2.02631C54.35 3.38021 54.9721 5.31961 54.9721 7.8582ZM43.8252 7.8582C43.8252 9.5628 44.1484 10.8466 44.7949 11.7095C45.1362 12.1466 45.5794 12.4935 46.0857 12.72C46.592 12.9464 47.146 13.0455 47.6994 13.0086C50.2853 13.0086 51.5766 11.2918 51.5736 7.8582C51.5705 4.42463 50.2868 2.70325 47.7222 2.69411C47.1665 2.65824 46.6105 2.75817 46.1021 2.98529C45.5936 3.21241 45.1481 3.55989 44.804 3.99771C44.15 4.86221 43.8252 6.15209 43.8252 7.8582Z" fill="#00A651"/>
<path d="M63.933 6.93843H69.9937V14.8561C69.0907 15.1648 68.1635 15.3973 67.2218 15.5513C66.3403 15.6803 65.4505 15.7445 64.5597 15.7435C62.2543 15.7435 60.4949 15.0665 59.2813 13.7125C58.0675 12.3587 57.4577 10.4147 57.4517 7.88069C57.4517 5.41375 58.1575 3.49113 59.5694 2.11282C60.9813 0.734502 62.9419 0.0377233 65.4515 0.0224765C67.011 0.0198959 68.5541 0.339112 69.9845 0.960155L68.9095 3.55363C67.8329 3.00483 66.6418 2.71803 65.4333 2.71659C64.8017 2.68759 64.1714 2.79795 63.5873 3.03983C63.0031 3.28173 62.4793 3.64922 62.0531 4.11625C61.1707 5.17665 60.7201 6.53043 60.7906 7.90813C60.7906 9.5685 61.1291 10.8309 61.8061 11.7046C62.1597 12.1439 62.6131 12.4923 63.1287 12.7206C63.6443 12.949 64.2071 13.0507 64.7701 13.0173C65.4599 13.0163 66.1481 12.9458 66.8238 12.8069V9.6051H63.9285L63.933 6.93843Z" fill="#00A651"/>
<path d="M86.0622 0.242188V10.1221C86.0837 11.1623 85.8211 12.1886 85.303 13.0907C84.7895 13.9487 84.0269 14.63 83.1166 15.0438C82.0526 15.5182 80.8963 15.7494 79.7318 15.7207C77.7649 15.7207 76.2402 15.2176 75.1577 14.2114C74.6089 13.6807 74.1795 13.0389 73.8987 12.3289C73.6179 11.619 73.4919 10.8572 73.5294 10.0947V0.242188H76.7586V9.60526C76.7586 10.7808 76.9919 11.6453 77.4677 12.1942C77.9433 12.743 78.7255 13.0221 79.8186 13.0221C80.9118 13.0221 81.6483 12.743 82.1057 12.1896C82.5631 11.6361 82.8238 10.7671 82.8238 9.58238V0.242188H86.0622Z" fill="#00A651"/>
<path d="M103.347 15.515H99.2304L92.589 3.96088H92.493C92.6271 6.00091 92.6942 7.45546 92.6942 8.32452V15.515H89.7988V0.242188H93.8834L100.516 11.6773H100.593C100.488 9.69216 100.434 8.2925 100.434 7.46918V0.242188H103.347V15.515Z" fill="#00A651"/>
<path d="M43.8117 19.6689C44.0337 19.8794 44.2072 20.1358 44.3201 20.4202C44.4331 20.7045 44.4828 21.0101 44.4659 21.3155C44.4813 21.6226 44.4329 21.9297 44.3235 22.2171C44.214 22.5045 44.046 22.7661 43.83 22.985C43.288 23.4341 42.5923 23.6539 41.8907 23.5979H40.3857V19.0925H41.9409C42.6149 19.0419 43.2831 19.2478 43.8117 19.6689ZM43.6973 21.3338C43.6973 20.3001 43.1028 19.7786 41.9135 19.7786H41.1496V22.8798H42.0004C42.4535 22.9109 42.9017 22.7722 43.2583 22.491C43.4081 22.3433 43.5248 22.1653 43.6005 21.9689C43.6763 21.7725 43.7093 21.5622 43.6973 21.3521V21.3338Z" fill="#00A651"/>
<path d="M46.0986 19.0918H46.8578V23.6155H46.0986V19.0918Z" fill="#00A651"/>
<path d="M51.8941 21.4161H52.6443V22.9622C52.4088 23.206 52.1233 23.3956 51.8075 23.518C51.4915 23.6404 51.1527 23.6926 50.8147 23.6712C50.5045 23.6789 50.1963 23.6242 49.9077 23.5102C49.6193 23.3964 49.3569 23.2256 49.1359 23.008C48.6976 22.56 48.4521 21.9582 48.4521 21.3316C48.4521 20.7049 48.6976 20.103 49.1359 19.6552C49.3553 19.4349 49.6173 19.2616 49.906 19.146C50.1947 19.0304 50.5037 18.9749 50.8147 18.9828C51.4084 18.963 51.988 19.167 52.4384 19.5545L52.0451 20.1262C51.8884 19.988 51.7067 19.8809 51.5099 19.8106C51.308 19.7508 51.0983 19.7214 50.8877 19.7238C50.6751 19.7205 50.4637 19.7593 50.2659 19.8377C50.0681 19.9162 49.8877 20.0329 49.7351 20.1812C49.4396 20.4958 49.2751 20.9113 49.2751 21.343C49.2751 21.7746 49.4396 22.1901 49.7351 22.5048C49.8779 22.651 50.0488 22.7668 50.2373 22.8454C50.426 22.924 50.6285 22.9637 50.8329 22.9622C51.2105 22.9744 51.5837 22.8776 51.9077 22.6832L51.8941 21.4161Z" fill="#00A651"/>
<path d="M54.3091 19.0918H55.0729V23.6155H54.3091V19.0918Z" fill="#00A651"/>
<path d="M58.6864 19.7917V23.6155H57.9226V19.7917H56.5503V19.0918H60.0587V19.7917H58.6864Z" fill="#00A651"/>
<path d="M61.8196 22.5865L61.3623 23.6155H60.5435L62.5377 19.0918H63.3565L65.3461 23.6155H64.5365L64.0792 22.5865H61.8196ZM63.7727 21.8821L62.9493 20.0158L62.1307 21.8821H63.7727Z" fill="#00A651"/>
<path d="M66.627 23.6155V19.0918H67.3908V22.8929H69.4583V23.6155H66.627Z" fill="#00A651"/>
<path d="M74.7277 19.6688C74.5353 19.6611 74.3449 19.7087 74.1787 19.806C74.1102 19.8498 74.0547 19.911 74.0177 19.9834C73.9807 20.0556 73.9637 20.1366 73.9683 20.2176C73.9619 20.3003 73.9782 20.3831 74.0153 20.4572C74.0523 20.5314 74.1089 20.594 74.1787 20.6386C74.4667 20.7867 74.775 20.8915 75.0935 20.9495C75.4749 21.0187 75.835 21.1752 76.1455 21.407C76.2698 21.5228 76.3659 21.6654 76.427 21.8238C76.4881 21.9823 76.5122 22.1526 76.4978 22.3218C76.501 22.5063 76.4614 22.6891 76.3819 22.8558C76.3026 23.0224 76.1857 23.1684 76.0403 23.2823C75.7067 23.5416 75.2914 23.673 74.8694 23.6528C74.171 23.6575 73.4971 23.3958 72.9849 22.921L73.4651 22.3446C73.8507 22.71 74.3567 22.9216 74.8877 22.9392C75.095 22.9503 75.3003 22.8942 75.4731 22.7791C75.5422 22.7331 75.5985 22.6704 75.6369 22.5968C75.6751 22.5234 75.6945 22.4412 75.6927 22.3583C75.6993 22.2816 75.6863 22.2046 75.6551 22.1342C75.6239 22.0639 75.5755 22.0026 75.5143 21.9559C75.2975 21.829 75.061 21.7392 74.8146 21.6906C74.5567 21.635 74.303 21.5616 74.0553 21.471C73.8914 21.4059 73.7374 21.318 73.5978 21.2103C73.4646 21.0996 73.3591 20.9591 73.2899 20.8003C73.2209 20.6414 73.1899 20.4684 73.1999 20.2955C73.1911 20.1087 73.2282 19.9227 73.3079 19.7536C73.3877 19.5846 73.5077 19.4378 73.6573 19.3258C73.9873 19.0935 74.3838 18.9747 74.7871 18.9872C75.081 18.9871 75.3731 19.035 75.6515 19.1291C75.9202 19.2156 76.1701 19.3523 76.3881 19.5316L75.9718 20.1262C75.8131 19.9902 75.6277 19.8888 75.4274 19.829C75.2051 19.7356 74.9683 19.6814 74.7277 19.6688Z" fill="#00A651"/>
<path d="M79.1004 22.5818C79.2088 22.6959 79.3394 22.7867 79.4841 22.8487C79.6288 22.9107 79.7845 22.9427 79.942 22.9427C80.0993 22.9427 80.2552 22.9107 80.3998 22.8487C80.5445 22.7867 80.675 22.6959 80.7836 22.5818C81.0024 22.3022 81.1128 21.953 81.0946 21.5985V19.0918H81.8585V21.6305C81.8764 21.9049 81.8377 22.1801 81.7448 22.4389C81.652 22.6978 81.5069 22.9349 81.3188 23.1353C80.9409 23.4719 80.4525 23.6579 79.9465 23.6579C79.4405 23.6579 78.9521 23.4719 78.5742 23.1353C78.3861 22.9349 78.241 22.6978 78.1482 22.4389C78.0553 22.1801 78.0167 21.9049 78.0345 21.6305V19.0918H78.7984V21.5985C78.7776 21.9518 78.8848 22.301 79.1004 22.5818Z" fill="#00A651"/>
<path d="M84.4655 23.6155H83.7017V19.0918H84.8909L86.2631 21.9323L87.6353 19.0918H88.8199V23.6155H88.047V20.0845L86.4643 23.2222H86.0343L84.4609 20.0845L84.4655 23.6155Z" fill="#00A651"/>
<path d="M91.4777 23.6155H90.7139V19.0918H91.9031L93.2753 21.9323L94.6475 19.0918H95.8321V23.6155H95.0683V20.0845L93.4903 23.2222H93.0603L91.4915 20.0845L91.4777 23.6155Z" fill="#00A651"/>
<path d="M97.7212 19.0918H98.4851V23.6155H97.7212V19.0918Z" fill="#00A651"/>
<path d="M102.099 19.7917V23.6155H101.335V19.7917H99.9624V19.0918H103.471V19.7917H102.099Z" fill="#00A651"/>
<path d="M82.4696 31.5572V30.475C82.4696 30.249 82.5057 30.0518 82.5779 29.8834C82.6548 29.715 82.7751 29.566 82.9385 29.4361C83.1021 29.3014 83.3185 29.1764 83.5879 29.061L84.4392 28.693C84.6556 28.6017 84.8144 28.4886 84.9153 28.354C85.0212 28.2193 85.0741 28.0485 85.0741 27.8417C85.0741 27.6301 85.0092 27.4569 84.8793 27.3222C84.7495 27.1876 84.5595 27.1202 84.3093 27.1202C84.0592 27.1202 83.8692 27.19 83.7393 27.3294C83.6095 27.4689 83.5445 27.6565 83.5445 27.8922H82.3975C82.3975 27.5604 82.4696 27.2621 82.6139 26.9976C82.7583 26.7282 82.9723 26.5166 83.256 26.3628C83.5397 26.2088 83.8909 26.1318 84.3093 26.1318C84.7277 26.1318 85.0765 26.2064 85.3555 26.3554C85.6392 26.5046 85.8532 26.7042 85.9976 26.9544C86.1467 27.2044 86.2212 27.4858 86.2212 27.7984V27.885C86.2212 28.289 86.1105 28.6233 85.8893 28.8878C85.6681 29.1476 85.3265 29.3784 84.8648 29.5804L84.0208 29.9484C83.8764 30.0109 83.7731 30.0758 83.7105 30.1432C83.6528 30.2105 83.624 30.3018 83.624 30.4173V30.7781L83.3425 30.54H86.2284V31.5572H82.4696Z" fill="#00A651"/>
<path d="M89.3511 31.6942C88.9326 31.6942 88.5743 31.6269 88.2761 31.4922C87.9779 31.3528 87.735 31.1652 87.5474 30.9296C87.3647 30.6938 87.2277 30.4221 87.1362 30.1144C87.0497 29.8017 87.0063 29.4722 87.0063 29.1258V28.7146C87.0063 28.2337 87.0905 27.7984 87.2589 27.4088C87.4271 27.0193 87.6845 26.709 88.0309 26.4781C88.3772 26.2473 88.8173 26.1318 89.3511 26.1318C89.885 26.1318 90.3226 26.2473 90.6642 26.4781C91.0105 26.709 91.2678 27.0193 91.4361 27.4088C91.6045 27.7984 91.6886 28.2337 91.6886 28.7146V29.1258C91.6886 29.4722 91.643 29.8017 91.5516 30.1144C91.465 30.4221 91.328 30.6938 91.1403 30.9296C90.9576 31.1652 90.717 31.3528 90.4189 31.4922C90.1254 31.6269 89.7695 31.6942 89.3511 31.6942ZM89.3511 30.6049C89.7407 30.6049 90.0293 30.4702 90.2169 30.2009C90.4093 29.9268 90.5054 29.5034 90.5054 28.9312C90.5054 28.325 90.4069 27.8898 90.2097 27.6253C90.0173 27.356 89.731 27.2213 89.3511 27.2213C88.9615 27.2213 88.6705 27.356 88.4781 27.6253C88.2858 27.8898 88.1896 28.3202 88.1896 28.9166C88.1896 29.4938 88.2834 29.9196 88.4709 30.1937C88.6633 30.4678 88.9567 30.6049 89.3511 30.6049Z" fill="#00A651"/>
<path d="M92.5306 31.5572V30.475C92.5306 30.249 92.5668 30.0518 92.6389 29.8834C92.7158 29.715 92.8361 29.566 92.9997 29.4361C93.1632 29.3014 93.3796 29.1764 93.6489 29.061L94.5002 28.693C94.7168 28.6017 94.8754 28.4886 94.9765 28.354C95.0822 28.2193 95.1352 28.0485 95.1352 27.8417C95.1352 27.6301 95.0702 27.4569 94.9404 27.3222C94.8105 27.1876 94.6205 27.1202 94.3704 27.1202C94.1204 27.1202 93.9304 27.19 93.8005 27.3294C93.6706 27.4689 93.6057 27.6565 93.6057 27.8922H92.4585C92.4585 27.5604 92.5308 27.2621 92.675 26.9976C92.8193 26.7282 93.0333 26.5166 93.317 26.3628C93.6009 26.2088 93.952 26.1318 94.3704 26.1318C94.7889 26.1318 95.1376 26.2064 95.4165 26.3554C95.7004 26.5046 95.9144 26.7042 96.0586 26.9544C96.2077 27.2044 96.2822 27.4858 96.2822 27.7984V27.885C96.2822 28.289 96.1717 28.6233 95.9504 28.8878C95.7292 29.1476 95.3877 29.3784 94.926 29.5804L94.0818 29.9484C93.9376 30.0109 93.8341 30.0758 93.7716 30.1432C93.714 30.2105 93.685 30.3018 93.685 30.4173V30.7781L93.4037 30.54H96.2896V31.5572H92.5306Z" fill="#00A651"/>
<path d="M98.8926 31.6947C98.4838 31.6947 98.1279 31.6202 97.8248 31.4711C97.5266 31.3173 97.2982 31.1105 97.1395 30.8507C96.9807 30.591 96.9014 30.2975 96.9014 29.9705H98.0412C98.0412 30.1918 98.1158 30.3721 98.265 30.5117C98.414 30.6463 98.6232 30.7137 98.8926 30.7137C99.0706 30.7137 99.222 30.6799 99.3471 30.6126C99.4722 30.5453 99.5684 30.4539 99.6358 30.3385C99.7031 30.2182 99.7367 30.0835 99.7367 29.9345C99.7367 29.7035 99.6622 29.5135 99.5131 29.3645C99.3687 29.2154 99.1619 29.1409 98.8926 29.1409C98.7483 29.1409 98.6208 29.1625 98.5102 29.2058C98.4044 29.249 98.313 29.3019 98.236 29.3645L97.7022 28.4626L99.2966 27.4238L99.2316 27.3011H97.1178V26.291H100.667V27.3877L98.8276 28.5565L98.2504 28.3977C98.3467 28.3689 98.4476 28.3473 98.5535 28.3327C98.6642 28.3135 98.7819 28.3039 98.907 28.3039C99.3159 28.3039 99.667 28.3713 99.9603 28.5059C100.254 28.6406 100.48 28.8306 100.639 29.0759C100.802 29.3163 100.884 29.5978 100.884 29.9201V30.0066C100.884 30.3289 100.802 30.6174 100.639 30.8723C100.48 31.1273 100.251 31.3293 99.9531 31.4783C99.6598 31.6226 99.3063 31.6947 98.8926 31.6947Z" fill="#00A651"/>
</g>
<defs>
<clipPath id="clip0_699_2273">
<rect width="104" height="32" fill="white" transform="translate(0.5)"/>
</clipPath>
</defs>
</svg>
