<svg width="24" height="24" viewBox="0 0 24 24" fill="none" xmlns="http://www.w3.org/2000/svg">
<path d="M21.25 11.5469C21.25 14.0001 20.2754 16.3529 18.5407 18.0876C16.806 19.8223 14.4533 20.7969 12 20.7969C9.54675 20.7969 7.19397 19.8223 5.45926 18.0876C3.72455 16.3529 2.75 14.0001 2.75 11.5469" stroke="black" stroke-linecap="round" stroke-linejoin="round"/>
<path d="M17.667 11.5469C17.667 13.05 17.0699 14.4915 16.0071 15.5544C14.9442 16.6173 13.5026 17.2144 11.9995 17.2144C10.4964 17.2144 9.05487 16.6173 7.992 15.5544C6.92914 14.4915 6.33203 13.05 6.33203 11.5469" stroke="black" stroke-linecap="round" stroke-linejoin="round"/>
<path d="M14.7317 11.5461C14.7317 12.2706 14.4439 12.9653 13.9316 13.4776C13.4194 13.9898 12.7246 14.2776 12.0002 14.2776C11.2757 14.2776 10.581 13.9898 10.0687 13.4776C9.55645 12.9653 9.26867 12.2706 9.26867 11.5461M11.8552 11.4791C10.5107 11.4791 11.4967 8.35712 10.1327 7.76812C8.66367 7.13362 5.49767 7.17062 5.13867 3.20312C6.47178 3.26529 7.78905 3.51854 9.05017 3.95512C10.5502 4.59712 11.4607 4.55412 12.1542 6.24612C12.1542 6.24612 12.4192 4.76962 14.6512 4.15262C15.9588 3.78515 17.3043 3.56923 18.6612 3.50912C18.7312 4.02592 18.6797 4.55193 18.5107 5.04531C18.3417 5.53868 18.0599 5.98581 17.6877 6.35113C16.4227 7.51713 13.7062 7.48763 13.4672 8.67712C13.2222 9.89312 13.1992 11.4791 11.8552 11.4791Z" stroke="black" stroke-linecap="round" stroke-linejoin="round"/>
</svg>
