<svg width="24" height="24" viewBox="0 0 24 24" fill="none" xmlns="http://www.w3.org/2000/svg">
<g clip-path="url(#clip0_697_915)">
<path d="M10.3232 7.45215C9.15474 8.33773 8.04922 9.30349 7.01468 10.3424C2.13925 15.2179 -0.329323 20.6504 1.49811 22.4796C3.32553 24.307 8.75982 21.8367 13.6335 16.963C14.6725 15.9279 15.6383 14.8218 16.5238 13.6527" stroke="black" stroke-linecap="round" stroke-linejoin="round"/>
<path d="M16.5241 13.6534C19.399 17.4694 20.5698 21.0591 19.1504 22.4786C17.3212 24.3077 11.8887 21.8374 7.01324 16.9637C2.14124 12.0866 -0.327331 6.65571 1.5001 4.82657C2.91953 3.40885 6.50924 4.57971 10.3252 7.45285" stroke="black" stroke-linecap="round" stroke-linejoin="round"/>
<path d="M9.46582 13.653C9.46582 13.8803 9.55613 14.0983 9.71687 14.2591C9.87762 14.4198 10.0956 14.5101 10.323 14.5101C10.5503 14.5101 10.7683 14.4198 10.9291 14.2591C11.0898 14.0983 11.1801 13.8803 11.1801 13.653C11.1801 13.4257 11.0898 13.2077 10.9291 13.0469C10.7683 12.8862 10.5503 12.7959 10.323 12.7959C10.0956 12.7959 9.87762 12.8862 9.71687 13.0469C9.55613 13.2077 9.46582 13.4257 9.46582 13.653ZM13.7687 6.189C13.2287 6.09471 13.2287 5.32157 13.7687 5.229C14.7224 5.06309 15.6051 4.61692 16.3043 3.94737C17.0035 3.27783 17.4874 2.41523 17.6944 1.46957L17.7252 1.32043C17.8418 0.789 18.5995 0.785571 18.7195 1.31529L18.7607 1.48843C18.9754 2.4299 19.4636 3.28692 20.1639 3.95183C20.8642 4.61673 21.7453 5.05987 22.6967 5.22557C23.2384 5.31986 23.2384 6.09814 22.6967 6.19071C21.7453 6.35642 20.8642 6.79956 20.1639 7.46446C19.4636 8.12936 18.9754 8.98638 18.7607 9.92786L18.7195 10.101C18.5995 10.6324 17.8418 10.629 17.7252 10.0976L17.691 9.94843C17.484 9.00277 17 8.14017 16.3009 7.47063C15.6017 6.80108 14.719 6.35491 13.7652 6.189H13.7687Z" stroke="black" stroke-linecap="round" stroke-linejoin="round"/>
</g>
<defs>
<clipPath id="clip0_697_915">
<rect width="24" height="24" fill="white"/>
</clipPath>
</defs>
</svg>
