<svg width="145" height="48" viewBox="0 0 145 48" fill="none" xmlns="http://www.w3.org/2000/svg">
<g clip-path="url(#clip0_405_10061)">
<path d="M132.616 9.91736e-07H11.8962C11.4562 9.91736e-07 11.0214 9.91605e-07 10.5824 0.00240099C10.2151 0.00480099 9.85068 0.011761 9.47976 0.017641C8.67398 0.0271193 7.87009 0.0980047 7.07509 0.229681C6.28119 0.364224 5.51216 0.617884 4.79402 0.982081C4.07677 1.34938 3.4214 1.82663 2.8517 2.39652C2.279 2.96477 1.8016 3.62159 1.43787 4.34172C1.07312 5.06049 0.820208 5.83071 0.687869 6.6258C0.554263 7.41985 0.482368 8.22304 0.47283 9.0282C0.46167 9.39612 0.46047 9.76524 0.45459 10.1333V37.8704C0.46047 38.2429 0.46167 38.6039 0.47283 38.9768C0.482377 39.7817 0.554272 40.5849 0.687869 41.3788C0.819852 42.1744 1.07278 42.9451 1.43787 43.6641C1.80143 44.3819 2.2789 45.0361 2.8517 45.6012C3.41926 46.1736 4.07503 46.6512 4.79402 47.0157C5.51215 47.3808 6.2811 47.636 7.07509 47.7725C7.87023 47.9032 8.67403 47.9741 9.47976 47.9847C9.85056 47.9929 10.2151 47.9976 10.5826 47.9976C11.0214 48 11.4562 48 11.8962 48H132.616C133.047 48 133.486 48 133.916 47.9976C134.282 47.9976 134.657 47.9929 135.023 47.9847C135.828 47.9747 136.63 47.9038 137.423 47.7725C138.219 47.635 138.991 47.3799 139.712 47.0157C140.431 46.651 141.086 46.1734 141.653 45.6012C142.225 45.0338 142.704 44.3801 143.071 43.6641C143.434 42.9445 143.684 42.1739 143.814 41.3788C143.948 40.5848 144.023 39.7817 144.037 38.9765C144.042 38.6039 144.042 38.2429 144.042 37.8704C144.051 37.4343 144.051 37.0008 144.051 36.5578V11.4434C144.051 11.0039 144.051 10.568 144.042 10.1333C144.042 9.76524 144.042 9.39612 144.037 9.02808C144.023 8.22286 143.948 7.41984 143.814 6.62568C143.683 5.83114 143.434 5.06105 143.071 4.34184C142.331 2.89828 141.156 1.72324 139.712 0.981961C138.991 0.618657 138.219 0.365065 137.423 0.229561C136.63 0.0973248 135.828 0.0264348 135.023 0.017521C134.657 0.011641 134.282 0.00456099 133.916 0.00228099C133.486 -0.000119008 133.047 9.91736e-07 132.616 9.91736e-07Z" fill="#131815"/>
<path d="M30.1772 24.3613C30.1901 23.3597 30.4561 22.3777 30.9505 21.5065C31.4449 20.6354 32.1517 19.9035 33.005 19.3789C32.463 18.6047 31.7478 17.9676 30.9164 17.5181C30.085 17.0687 29.1604 16.8192 28.2157 16.7896C26.2005 16.5781 24.2471 17.9954 23.2201 17.9954C22.1735 17.9954 20.5925 16.8107 18.8901 16.8457C17.7888 16.8813 16.7156 17.2015 15.7749 17.7752C14.8343 18.3488 14.0582 19.1564 13.5225 20.1191C11.2017 24.1372 12.9328 30.0424 15.156 33.2904C16.2683 34.8808 17.5681 36.6573 19.2691 36.5943C20.9335 36.5253 21.5551 35.5329 23.5644 35.5329C25.5549 35.5329 26.1381 36.5943 27.8736 36.5542C29.6597 36.5253 30.7849 34.9568 31.8582 33.3513C32.6574 32.218 33.2723 30.9657 33.6802 29.6403C32.6425 29.2015 31.757 28.4668 31.1341 27.5281C30.5112 26.5893 30.1784 25.4879 30.1772 24.3613ZM26.8993 14.6535C27.8731 13.4845 28.3529 11.9819 28.2367 10.4648C26.7489 10.6211 25.3746 11.3321 24.3876 12.4563C23.905 13.0056 23.5354 13.6444 23.2999 14.3366C23.0645 15.0287 22.9677 15.7605 23.0152 16.4901C23.7594 16.4977 24.4955 16.3364 25.1684 16.0183C25.8412 15.7002 26.433 15.2336 26.8993 14.6535ZM51.2172 32.5681H45.5372L44.1731 36.5958H41.7671L47.1473 21.6941H49.6469L55.0269 36.5958H52.58L51.2172 32.5681ZM46.1254 30.7094H50.6278L48.4082 24.1728H48.3461L46.1254 30.7094ZM66.6461 31.1642C66.6461 34.5403 64.839 36.7094 62.1121 36.7094C61.4213 36.7455 60.7343 36.5864 60.1297 36.2503C59.5252 35.914 59.0275 35.4145 58.6937 34.8086H58.6421V40.1899H56.412V25.7313H58.5706V27.5384H58.6117C58.9608 26.9354 59.4669 26.4384 60.0761 26.1002C60.6852 25.762 61.3747 25.5952 62.071 25.6177C64.8284 25.6177 66.6461 27.7975 66.6461 31.1642ZM64.3539 31.1642C64.3539 28.9646 63.2171 27.5185 61.4828 27.5185C59.7788 27.5185 58.6328 28.995 58.6328 31.1641C58.6328 33.3532 59.7788 34.8193 61.4828 34.8193C63.2171 34.8193 64.3539 33.3838 64.3539 31.1642ZM78.6037 31.1642C78.6037 34.5403 76.7968 36.7094 74.0698 36.7094C73.379 36.7455 72.692 36.5864 72.0875 36.2503C71.4829 35.914 70.9853 35.4144 70.6514 34.8086H70.5998V40.1899H68.3698V25.7313H70.5284V27.5384H70.5694C70.9186 26.9354 71.4246 26.4384 72.0337 26.1002C72.6429 25.762 73.3324 25.5952 74.0288 25.6177C76.7863 25.6177 78.6037 27.7975 78.6037 31.1642ZM76.3116 31.1642C76.3116 28.9646 75.1749 27.5185 73.4406 27.5185C71.7366 27.5185 70.5906 28.995 70.5906 31.1641C70.5906 33.3532 71.7366 34.8193 73.4406 34.8193C75.1749 34.8193 76.3116 33.3838 76.3116 31.1642ZM86.5069 32.4439C86.6722 33.9216 88.1077 34.8919 90.0693 34.8919C91.949 34.8919 93.3015 33.9216 93.3015 32.5891C93.3015 31.4324 92.4858 30.7399 90.5546 30.2653L88.6232 29.8C85.887 29.1391 84.6167 27.8594 84.6167 25.7828C84.6167 23.2117 86.8573 21.4458 90.0389 21.4458C93.1877 21.4458 95.3464 23.2117 95.4189 25.7828H93.1677C93.033 24.2957 91.8037 23.398 90.0072 23.398C88.2108 23.398 86.9815 24.3063 86.9815 25.6282C86.9815 26.6817 87.7667 27.3016 89.6873 27.7761L91.3291 28.1793C94.3865 28.9023 95.6569 30.1305 95.6569 32.3101C95.6569 35.098 93.4362 36.8442 89.9041 36.8442C86.5993 36.8442 84.3682 35.139 84.224 32.4438L86.5069 32.4439ZM100.47 23.1603V25.7313H102.536V27.4974H100.47V33.4868C100.47 34.4173 100.883 34.8508 101.792 34.8508C102.037 34.8466 102.282 34.8293 102.525 34.7992V36.5548C102.117 36.6311 101.702 36.6656 101.287 36.6578C99.087 36.6578 98.2291 35.8317 98.2291 33.7246V27.4974H96.6493V25.7313H98.2291V23.1603H100.47ZM103.732 31.1642C103.732 27.7458 105.745 25.5977 108.885 25.5977C112.035 25.5977 114.039 27.7458 114.039 31.1642C114.039 34.5919 112.046 36.7305 108.885 36.7305C105.726 36.7305 103.732 34.5919 103.732 31.1642ZM111.767 31.1642C111.767 28.8193 110.692 27.4352 108.885 27.4352C107.078 27.4352 106.004 28.8297 106.004 31.1642C106.004 33.5185 107.078 34.8919 108.885 34.8919C110.692 34.8919 111.767 33.5185 111.767 31.1642ZM115.877 25.7313H118.004V27.5805H118.056C118.2 27.003 118.538 26.4926 119.015 26.1351C119.49 25.7776 120.075 25.5949 120.669 25.6177C120.927 25.6167 121.182 25.6447 121.433 25.7008V27.7868C121.109 27.6877 120.771 27.6421 120.432 27.652C120.108 27.639 119.785 27.696 119.485 27.8195C119.185 27.943 118.915 28.1299 118.695 28.3672C118.473 28.6047 118.307 28.8872 118.206 29.1952C118.105 29.5032 118.071 29.8295 118.108 30.1516V36.5958H115.877V25.7313ZM131.715 33.4047C131.415 35.377 129.495 36.7305 127.037 36.7305C123.877 36.7305 121.915 34.613 121.915 31.2157C121.915 27.8079 123.888 25.5977 126.943 25.5977C129.95 25.5977 131.839 27.6626 131.839 30.9567V31.7208H124.166V31.8555C124.131 32.2554 124.181 32.6581 124.313 33.0372C124.445 33.4162 124.657 33.7628 124.933 34.0538C125.21 34.3449 125.545 34.5738 125.917 34.7254C126.288 34.8769 126.688 34.9477 127.088 34.9329C127.615 34.9823 128.144 34.8602 128.597 34.5849C129.049 34.3095 129.4 33.8956 129.597 33.4047H131.715ZM124.177 30.1622H129.608C129.628 29.8027 129.573 29.4429 129.448 29.1055C129.323 28.768 129.128 28.4602 128.879 28.2012C128.628 27.9423 128.327 27.7379 127.994 27.6008C127.661 27.4637 127.303 27.397 126.943 27.4047C126.58 27.4025 126.22 27.4724 125.884 27.61C125.548 27.7477 125.243 27.9506 124.985 28.207C124.729 28.4634 124.525 28.7682 124.385 29.1037C124.246 29.4393 124.176 29.7991 124.177 30.1622Z" fill="white"/>
<path d="M50.3766 13.5893H49.3555C49.1548 12.9085 48.5875 12.5333 47.8806 12.5333C46.7984 12.5333 46.1526 13.3973 46.1526 14.8023C46.1526 16.2074 46.7897 17.054 47.8806 17.054C48.5613 17.054 49.1112 16.7049 49.3381 16.0329H50.3679C50.045 17.2111 49.0501 17.8743 47.8806 17.8743C46.1875 17.8743 45.1577 16.7136 45.1577 14.8023C45.1577 12.8998 46.1963 11.7129 47.9068 11.7129C49.085 11.7129 50.0974 12.3587 50.3766 13.5893Z" fill="white"/>
<path d="M53.2263 17.8756C51.8736 17.8756 51.0532 16.9592 51.0532 15.4406C51.0532 13.861 51.8998 12.9883 53.2263 12.9883C54.579 12.9883 55.3994 13.9221 55.3994 15.4406C55.3994 17.0116 54.5529 17.8756 53.2263 17.8756ZM53.2263 17.0901C54.0205 17.0901 54.4481 16.5141 54.4481 15.4406C54.4481 14.3759 54.0118 13.7737 53.2263 13.7737C52.4409 13.7737 52.0045 14.3585 52.0045 15.4406C52.0045 16.4966 52.4409 17.0901 53.2263 17.0901Z" fill="white"/>
<path d="M56.3086 17.7621V13.1105H57.2424V13.7039C57.5391 13.2239 58.0017 12.9883 58.5515 12.9883C59.1711 12.9883 59.6337 13.2588 59.8606 13.7912C60.166 13.2588 60.6722 12.9883 61.2831 12.9883C62.1995 12.9883 62.793 13.5556 62.793 14.6552V17.7621H61.8591V14.8472C61.8591 14.1752 61.606 13.765 61.03 13.765C60.4017 13.765 60.0177 14.3846 60.0177 15.0305V17.7621H59.0839V14.8472C59.0839 14.1752 58.822 13.765 58.2548 13.765C57.6264 13.765 57.2424 14.3846 57.2424 15.0305V17.7621H56.3086Z" fill="white"/>
<path d="M63.9282 12.5345V11.4785H64.862V12.5345H63.9282ZM63.9282 17.7622V13.1105H64.862V17.7622H63.9282Z" fill="white"/>
<path d="M65.9907 17.7621V13.1105H66.9245V13.7301C67.2387 13.2326 67.7275 12.9883 68.3296 12.9883C69.2984 12.9883 69.9005 13.5556 69.9005 14.6552V17.7621H68.9755V14.8472C68.9755 14.1752 68.6787 13.765 68.0416 13.765C67.3435 13.765 66.9245 14.3846 66.9245 15.0305V17.7621H65.9907Z" fill="white"/>
<path d="M72.7116 17.7883C71.5247 17.7883 70.8091 16.8806 70.8091 15.397C70.8091 13.8436 71.5422 12.9883 72.7116 12.9883C73.3051 12.9883 73.7502 13.1977 74.0469 13.5992V13.1105H74.9807V17.9105C74.9807 19.1846 74.1342 19.8043 73.0171 19.8043C71.9 19.8043 71.0971 19.2806 70.9313 18.1985H71.8651C71.9524 18.757 72.3974 19.0537 73.0084 19.0537C73.628 19.0537 74.0469 18.7308 74.0469 17.9279V17.1425C73.7327 17.5701 73.2789 17.7883 72.7116 17.7883ZM72.9036 17.0028C73.6454 17.0028 74.0469 16.4356 74.0469 15.3883C74.0469 14.3672 73.628 13.7737 72.9036 13.7737C72.1618 13.7737 71.7604 14.341 71.7604 15.397C71.7604 16.4181 72.1705 17.0028 72.9036 17.0028Z" fill="white"/>
<path d="M78.5703 14.3323C78.5703 15.5192 81.5464 14.5243 81.5464 16.4181C81.5464 17.2996 80.7521 17.8756 79.6263 17.8756C78.5005 17.8756 77.7063 17.3519 77.5317 16.2436H78.4656C78.5616 16.8283 78.9979 17.1512 79.6525 17.1512C80.2808 17.1512 80.6125 16.8719 80.6125 16.4792C80.6125 15.3185 77.6801 16.2959 77.6801 14.3846C77.6801 13.6603 78.2474 12.9883 79.4256 12.9883C80.4641 12.9883 81.2321 13.4683 81.3806 14.629H80.4467C80.3419 13.9745 79.9754 13.7301 79.3819 13.7301C78.867 13.7301 78.5703 13.9832 78.5703 14.3323Z" fill="white"/>
<path d="M84.343 17.8756C82.9902 17.8756 82.1699 16.9592 82.1699 15.4406C82.1699 13.861 83.0165 12.9883 84.343 12.9883C85.6957 12.9883 86.5161 13.9221 86.5161 15.4406C86.5161 17.0116 85.6696 17.8756 84.343 17.8756ZM84.343 17.0901C85.1372 17.0901 85.5647 16.5141 85.5647 15.4406C85.5647 14.3759 85.1285 13.7737 84.343 13.7737C83.5574 13.7737 83.1211 14.3585 83.1211 15.4406C83.1211 16.4966 83.5574 17.0901 84.343 17.0901Z" fill="white"/>
<path d="M89.3713 17.8756C88.0186 17.8756 87.1982 16.9592 87.1982 15.4406C87.1982 13.861 88.0448 12.9883 89.3713 12.9883C90.7241 12.9883 91.5444 13.9221 91.5444 15.4406C91.5444 17.0116 90.6979 17.8756 89.3713 17.8756ZM89.3713 17.0901C90.1655 17.0901 90.5932 16.5141 90.5932 15.4406C90.5932 14.3759 90.1568 13.7737 89.3713 13.7737C88.5859 13.7737 88.1495 14.3585 88.1495 15.4406C88.1495 16.4966 88.5859 17.0901 89.3713 17.0901Z" fill="white"/>
<path d="M92.4536 17.7621V13.1105H93.3874V13.7301C93.7016 13.2326 94.1903 12.9883 94.7925 12.9883C95.7613 12.9883 96.3634 13.5556 96.3634 14.6552V17.7621H95.4383V14.8472C95.4383 14.1752 95.1416 13.765 94.5045 13.765C93.8063 13.765 93.3874 14.3846 93.3874 15.0305V17.7621H92.4536Z" fill="white"/>
<path d="M101.158 17.8756C99.8057 17.8756 98.9854 16.9592 98.9854 15.4406C98.9854 13.861 99.8319 12.9883 101.158 12.9883C102.511 12.9883 103.332 13.9221 103.332 15.4406C103.332 17.0116 102.485 17.8756 101.158 17.8756ZM101.158 17.0901C101.953 17.0901 102.38 16.5141 102.38 15.4406C102.38 14.3759 101.944 13.7737 101.158 13.7737C100.373 13.7737 99.9366 14.3585 99.9366 15.4406C99.9366 16.4966 100.373 17.0901 101.158 17.0901Z" fill="white"/>
<path d="M104.241 17.7621V13.1105H105.175V13.7301C105.489 13.2326 105.977 12.9883 106.58 12.9883C107.548 12.9883 108.151 13.5556 108.151 14.6552V17.7621H107.225V14.8472C107.225 14.1752 106.929 13.765 106.292 13.765C105.593 13.765 105.175 14.3846 105.175 15.0305V17.7621H104.241Z" fill="white"/>
<path d="M111.121 16.3746V13.8349H110.492V13.1106H111.121V12.0371H112.054V13.1106H113.059V13.8349H112.054V16.3222C112.054 16.8546 112.204 17.1077 112.857 17.1077H113.041V17.7884C112.936 17.8407 112.719 17.8757 112.456 17.8757C111.548 17.8757 111.121 17.3782 111.121 16.3746Z" fill="white"/>
<path d="M113.761 17.7622V11.4785H114.695V13.7302C115.009 13.2327 115.497 12.9883 116.1 12.9883C117.068 12.9883 117.671 13.5556 117.671 14.6552V17.7622H116.745V14.8472C116.745 14.1752 116.449 13.7651 115.812 13.7651C115.113 13.7651 114.695 14.3847 114.695 15.0305V17.7622H113.761Z" fill="white"/>
<path d="M122.934 16.2436C122.681 17.3257 121.878 17.8756 120.787 17.8756C119.417 17.8756 118.579 16.9592 118.579 15.4406C118.579 13.861 119.417 12.9883 120.743 12.9883C122.087 12.9883 122.899 13.8959 122.899 15.3883V15.6152H119.53C119.583 16.5665 120.028 17.0988 120.787 17.0988C121.381 17.0988 121.799 16.8196 121.957 16.2436H122.934ZM120.743 13.765C120.071 13.765 119.67 14.1926 119.557 14.9781H121.93C121.817 14.1926 121.407 13.765 120.743 13.765Z" fill="white"/>
</g>
<defs>
<clipPath id="clip0_405_10061">
<rect width="144" height="48" fill="white" transform="translate(0.45459)"/>
</clipPath>
</defs>
</svg>
