<svg width="390" height="2369" viewBox="0 0 390 2369" fill="none" xmlns="http://www.w3.org/2000/svg">
<g clip-path="url(#clip0_405_9764)">
<rect width="401" height="2369" transform="translate(-5.5)" fill="#111111"/>
<path d="M360.252 614.537L367.203 621.725L367.112 611.726L370.783 621.027L374.525 611.754L374.357 621.752L381.363 614.617L377.382 623.79L386.585 619.879L379.397 626.831L389.396 626.739L380.095 630.411L389.368 634.153L379.37 633.985L386.505 640.991L377.332 637.01L381.243 646.213L374.291 639.025L374.383 649.024L370.711 639.723L366.969 648.996L367.137 638.998L360.131 646.132L364.112 636.96L354.909 640.87L362.097 633.919L352.098 634.01L361.399 630.339L352.126 626.597L362.124 626.765L354.99 619.759L364.162 623.74L360.252 614.537Z" fill="white" fill-opacity="0.5"/>
<path d="M376.472 666.17L383.424 673.358L383.332 663.359L387.004 672.66L390.746 663.387L390.578 673.385L397.584 666.25L393.603 675.423L402.806 671.512L395.618 678.463L405.617 678.372L396.316 682.043L405.588 685.786L395.591 685.618L402.725 692.624L393.553 688.643L397.463 697.846L390.512 690.658L390.603 700.657L386.932 691.356L383.19 700.628L383.358 690.63L376.352 697.765L380.333 688.592L371.13 692.503L378.318 685.552L368.319 685.643L377.62 681.972L368.347 678.23L378.345 678.397L371.21 671.392L380.383 675.372L376.472 666.17Z" fill="white" fill-opacity="0.5"/>
<path d="M378.691 566.329L385.642 573.517L385.551 563.518L389.222 572.819L392.964 563.546L392.796 573.544L399.802 566.409L395.821 575.582L405.024 571.671L397.836 578.623L407.835 578.531L398.534 582.203L407.807 585.945L397.809 585.777L404.944 592.783L395.771 588.802L399.682 598.005L392.73 590.817L392.822 600.816L389.15 591.515L385.408 600.788L385.576 590.79L378.57 597.924L382.551 588.752L373.348 592.662L380.536 585.711L370.537 585.802L379.838 582.131L370.565 578.389L380.563 578.557L373.429 571.551L382.601 575.532L378.691 566.329Z" fill="white" fill-opacity="0.5"/>
<path d="M42.5613 31.7762L34.5008 25.8589L36.2716 35.7002L31.089 27.1488L28.959 36.9186L27.4434 27.0348L21.7367 35.2458L24.1189 25.5343L15.7044 30.9365L21.6217 22.8759L11.7804 24.6467L20.3318 19.4642L10.562 17.3341L20.4458 15.8185L12.2348 10.1119L21.9463 12.494L16.5441 4.07955L24.6047 9.99679L22.8339 0.155509L28.0164 8.70697L30.1465 -1.06285L31.6621 8.82096L37.3687 0.609956L34.9866 10.3214L43.4011 4.91926L37.4838 12.9798L47.3251 11.209L38.7736 16.3916L48.5435 18.5216L38.6596 20.0372L46.8706 25.7439L37.1592 23.3617L42.5613 31.7762Z" fill="white" fill-opacity="0.5"/>
<path d="M32.4891 82.3983L24.4285 76.481L26.1993 86.3223L21.0168 77.7708L18.8867 87.5407L17.3711 77.6568L11.6645 85.8679L14.0466 76.1564L5.63215 81.5586L11.5494 73.498L1.70811 75.2688L10.2596 70.0862L0.489751 67.9562L10.3736 66.4406L2.16256 60.7339L11.874 63.1161L6.47186 54.7016L14.5324 60.6189L12.7616 50.7776L17.9442 59.329L20.0742 49.5592L21.5898 59.443L27.2965 51.232L24.9143 60.9435L33.3288 55.5413L27.4116 63.6019L37.2528 61.8311L28.7014 67.0136L38.4712 69.1437L28.5874 70.6593L36.7984 76.3659L27.087 73.9838L32.4891 82.3983Z" fill="white" fill-opacity="0.5"/>
<path d="M0.440741 134.455L-7.61984 128.538L-5.849 138.379L-11.0316 129.827L-13.1616 139.597L-14.6772 129.713L-20.3839 137.924L-18.0017 128.213L-26.4162 133.615L-20.499 125.555L-30.3402 127.325L-21.7888 122.143L-31.5586 120.013L-21.6748 118.497L-29.8858 112.791L-20.1744 115.173L-25.5765 106.758L-17.5159 112.675L-19.2867 102.834L-14.1042 111.386L-11.9741 101.616L-10.4585 111.5L-4.75187 103.289L-7.13404 113L1.28045 107.598L-4.63679 115.659L5.20449 113.888L-3.34698 119.07L6.42285 121.2L-3.46096 122.716L4.75004 128.423L-4.96139 126.04L0.440741 134.455Z" fill="white" fill-opacity="0.5"/>
<g clip-path="url(#clip1_405_9764)">
<path d="M6.13065 1125.18C8.65599 1125.18 10.7032 1123.13 10.7032 1120.61C10.7032 1118.08 8.65599 1116.04 6.13065 1116.04C3.60531 1116.04 1.55811 1118.08 1.55811 1120.61C1.55811 1123.13 3.60531 1125.18 6.13065 1125.18Z" fill="#00A651" fill-opacity="0.03"/>
<path d="M6.13065 1138.13C8.65599 1138.13 10.7032 1136.08 10.7032 1133.56C10.7032 1131.03 8.65599 1128.98 6.13065 1128.98C3.60531 1128.98 1.55811 1131.03 1.55811 1133.56C1.55811 1136.08 3.60531 1138.13 6.13065 1138.13Z" fill="#00A651" fill-opacity="0.03"/>
<path d="M6.13065 1151.08C8.65599 1151.08 10.7032 1149.03 10.7032 1146.51C10.7032 1143.98 8.65599 1141.93 6.13065 1141.93C3.60531 1141.93 1.55811 1143.98 1.55811 1146.51C1.55811 1149.03 3.60531 1151.08 6.13065 1151.08Z" fill="#00A651" fill-opacity="0.03"/>
<path d="M6.13065 1164.03C8.65599 1164.03 10.7032 1161.98 10.7032 1159.46C10.7032 1156.93 8.65599 1154.88 6.13065 1154.88C3.60531 1154.88 1.55811 1156.93 1.55811 1159.46C1.55811 1161.98 3.60531 1164.03 6.13065 1164.03Z" fill="#00A651" fill-opacity="0.03"/>
<path d="M6.13065 1177C8.65599 1177 10.7032 1174.95 10.7032 1172.43C10.7032 1169.9 8.65599 1167.85 6.13065 1167.85C3.60531 1167.85 1.55811 1169.9 1.55811 1172.43C1.55811 1174.95 3.60531 1177 6.13065 1177Z" fill="#00A651" fill-opacity="0.03"/>
<path d="M19.1634 1125.18C21.6889 1125.18 23.7358 1123.13 23.7358 1120.61C23.7358 1118.08 21.6889 1116.04 19.1634 1116.04C16.638 1116.04 14.5908 1118.08 14.5908 1120.61C14.5908 1123.13 16.638 1125.18 19.1634 1125.18Z" fill="#00A651" fill-opacity="0.03"/>
<path d="M19.1634 1138.13C21.6889 1138.13 23.7358 1136.08 23.7358 1133.56C23.7358 1131.03 21.6889 1128.98 19.1634 1128.98C16.638 1128.98 14.5908 1131.03 14.5908 1133.56C14.5908 1136.08 16.638 1138.13 19.1634 1138.13Z" fill="#00A651" fill-opacity="0.03"/>
<path d="M19.1634 1151.08C21.6889 1151.08 23.7358 1149.03 23.7358 1146.51C23.7358 1143.98 21.6889 1141.93 19.1634 1141.93C16.638 1141.93 14.5908 1143.98 14.5908 1146.51C14.5908 1149.03 16.638 1151.08 19.1634 1151.08Z" fill="#00A651" fill-opacity="0.03"/>
<path d="M19.1634 1164.03C21.6889 1164.03 23.7358 1161.98 23.7358 1159.46C23.7358 1156.93 21.6889 1154.88 19.1634 1154.88C16.638 1154.88 14.5908 1156.93 14.5908 1159.46C14.5908 1161.98 16.638 1164.03 19.1634 1164.03Z" fill="#00A651" fill-opacity="0.03"/>
<path d="M32.1959 1125.18C34.7214 1125.18 36.7689 1123.13 36.7689 1120.61C36.7689 1118.08 34.7214 1116.04 32.1959 1116.04C29.671 1116.04 27.6235 1118.08 27.6235 1120.61C27.6235 1123.13 29.671 1125.18 32.1959 1125.18Z" fill="#00A651" fill-opacity="0.03"/>
<path d="M32.1959 1138.13C34.7214 1138.13 36.7689 1136.08 36.7689 1133.56C36.7689 1131.03 34.7214 1128.98 32.1959 1128.98C29.671 1128.98 27.6235 1131.03 27.6235 1133.56C27.6235 1136.08 29.671 1138.13 32.1959 1138.13Z" fill="#00A651" fill-opacity="0.03"/>
<path d="M45.2087 1138.13C47.7336 1138.13 49.7811 1136.08 49.7811 1133.56C49.7811 1131.03 47.7336 1128.98 45.2087 1128.98C42.6832 1128.98 40.6357 1131.03 40.6357 1133.56C40.6357 1136.08 42.6832 1138.13 45.2087 1138.13Z" fill="#00A651" fill-opacity="0.03"/>
<path d="M32.1959 1151.08C34.7214 1151.08 36.7689 1149.03 36.7689 1146.51C36.7689 1143.98 34.7214 1141.93 32.1959 1141.93C29.671 1141.93 27.6235 1143.98 27.6235 1146.51C27.6235 1149.03 29.671 1151.08 32.1959 1151.08Z" fill="#00A651" fill-opacity="0.03"/>
<path d="M32.1959 1164.03C34.7214 1164.03 36.7689 1161.98 36.7689 1159.46C36.7689 1156.93 34.7214 1154.88 32.1959 1154.88C29.671 1154.88 27.6235 1156.93 27.6235 1159.46C27.6235 1161.98 29.671 1164.03 32.1959 1164.03Z" fill="#00A651" fill-opacity="0.03"/>
<path d="M45.2087 1151.08C47.7336 1151.08 49.7811 1149.03 49.7811 1146.51C49.7811 1143.98 47.7336 1141.93 45.2087 1141.93C42.6832 1141.93 40.6357 1143.98 40.6357 1146.51C40.6357 1149.03 42.6832 1151.08 45.2087 1151.08Z" fill="#00A651" fill-opacity="0.03"/>
<path d="M45.2087 1164.03C47.7336 1164.03 49.7811 1161.98 49.7811 1159.46C49.7811 1156.93 47.7336 1154.88 45.2087 1154.88C42.6832 1154.88 40.6357 1156.93 40.6357 1159.46C40.6357 1161.98 42.6832 1164.03 45.2087 1164.03Z" fill="#00A651" fill-opacity="0.03"/>
<path d="M58.2413 1151.08C60.7668 1151.08 62.8137 1149.03 62.8137 1146.51C62.8137 1143.98 60.7668 1141.93 58.2413 1141.93C55.7159 1141.93 53.6689 1143.98 53.6689 1146.51C53.6689 1149.03 55.7159 1151.08 58.2413 1151.08Z" fill="#00A651" fill-opacity="0.03"/>
<path d="M58.2413 1164.03C60.7668 1164.03 62.8137 1161.98 62.8137 1159.46C62.8137 1156.93 60.7668 1154.88 58.2413 1154.88C55.7159 1154.88 53.6689 1156.93 53.6689 1159.46C53.6689 1161.98 55.7159 1164.03 58.2413 1164.03Z" fill="#00A651" fill-opacity="0.03"/>
<path d="M19.1634 1175.39C21.6889 1175.39 23.7358 1173.34 23.7358 1170.82C23.7358 1168.29 21.6889 1166.24 19.1634 1166.24C16.638 1166.24 14.5908 1168.29 14.5908 1170.82C14.5908 1173.34 16.638 1175.39 19.1634 1175.39Z" fill="#00A651" fill-opacity="0.03"/>
<path d="M32.1959 1175.39C34.7214 1175.39 36.7689 1173.34 36.7689 1170.82C36.7689 1168.29 34.7214 1166.24 32.1959 1166.24C29.671 1166.24 27.6235 1168.29 27.6235 1170.82C27.6235 1173.34 29.671 1175.39 32.1959 1175.39Z" fill="#00A651" fill-opacity="0.03"/>
<path d="M45.2087 1175.39C47.7336 1175.39 49.7811 1173.34 49.7811 1170.82C49.7811 1168.29 47.7336 1166.24 45.2087 1166.24C42.6832 1166.24 40.6357 1168.29 40.6357 1170.82C40.6357 1173.34 42.6832 1175.39 45.2087 1175.39Z" fill="#00A651" fill-opacity="0.03"/>
<path d="M58.2413 1175.39C60.7668 1175.39 62.8137 1173.34 62.8137 1170.82C62.8137 1168.29 60.7668 1166.24 58.2413 1166.24C55.7159 1166.24 53.6689 1168.29 53.6689 1170.82C53.6689 1173.34 55.7159 1175.39 58.2413 1175.39Z" fill="#00A651" fill-opacity="0.03"/>
<path d="M71.254 1151.08C73.7795 1151.08 75.827 1149.03 75.827 1146.51C75.827 1143.98 73.7795 1141.93 71.254 1141.93C68.7291 1141.93 66.6816 1143.98 66.6816 1146.51C66.6816 1149.03 68.7291 1151.08 71.254 1151.08Z" fill="#00A651" fill-opacity="0.03"/>
<path d="M71.254 1164.03C73.7795 1164.03 75.827 1161.98 75.827 1159.46C75.827 1156.93 73.7795 1154.88 71.254 1154.88C68.7291 1154.88 66.6816 1156.93 66.6816 1159.46C66.6816 1161.98 68.7291 1164.03 71.254 1164.03Z" fill="#00A651" fill-opacity="0.03"/>
<path d="M71.254 1177C73.7795 1177 75.827 1174.95 75.827 1172.43C75.827 1169.9 73.7795 1167.85 71.254 1167.85C68.7291 1167.85 66.6816 1169.9 66.6816 1172.43C66.6816 1174.95 68.7291 1177 71.254 1177Z" fill="#00A651" fill-opacity="0.03"/>
<path d="M71.254 1189.95C73.7795 1189.95 75.827 1187.9 75.827 1185.38C75.827 1182.85 73.7795 1180.8 71.254 1180.8C68.7291 1180.8 66.6816 1182.85 66.6816 1185.38C66.6816 1187.9 68.7291 1189.95 71.254 1189.95Z" fill="#00A651" fill-opacity="0.03"/>
<path d="M84.2872 1151.08C86.8127 1151.08 88.8596 1149.03 88.8596 1146.51C88.8596 1143.98 86.8127 1141.93 84.2872 1141.93C81.7618 1141.93 79.7148 1143.98 79.7148 1146.51C79.7148 1149.03 81.7618 1151.08 84.2872 1151.08Z" fill="#00A651" fill-opacity="0.03"/>
<path d="M84.2872 1164.03C86.8127 1164.03 88.8596 1161.98 88.8596 1159.46C88.8596 1156.93 86.8127 1154.88 84.2872 1154.88C81.7618 1154.88 79.7148 1156.93 79.7148 1159.46C79.7148 1161.98 81.7618 1164.03 84.2872 1164.03Z" fill="#00A651" fill-opacity="0.03"/>
<path d="M84.2872 1177C86.8127 1177 88.8596 1174.95 88.8596 1172.43C88.8596 1169.9 86.8127 1167.85 84.2872 1167.85C81.7618 1167.85 79.7148 1169.9 79.7148 1172.43C79.7148 1174.95 81.7618 1177 84.2872 1177Z" fill="#00A651" fill-opacity="0.03"/>
<path d="M84.2872 1189.95C86.8127 1189.95 88.8596 1187.9 88.8596 1185.38C88.8596 1182.85 86.8127 1180.8 84.2872 1180.8C81.7618 1180.8 79.7148 1182.85 79.7148 1185.38C79.7148 1187.9 81.7618 1189.95 84.2872 1189.95Z" fill="#00A651" fill-opacity="0.03"/>
<path d="M97.2994 1164.03C99.8249 1164.03 101.872 1161.98 101.872 1159.46C101.872 1156.93 99.8249 1154.88 97.2994 1154.88C94.774 1154.88 92.7271 1156.93 92.7271 1159.46C92.7271 1161.98 94.774 1164.03 97.2994 1164.03Z" fill="#00A651" fill-opacity="0.03"/>
<path d="M108.721 1164.03C111.246 1164.03 113.294 1161.98 113.294 1159.46C113.294 1156.93 111.246 1154.88 108.721 1154.88C106.195 1154.88 104.148 1156.93 104.148 1159.46C104.148 1161.98 106.195 1164.03 108.721 1164.03Z" fill="#00A651" fill-opacity="0.03"/>
<path d="M97.2994 1189.95C99.8249 1189.95 101.872 1187.9 101.872 1185.38C101.872 1182.85 99.8249 1180.8 97.2994 1180.8C94.774 1180.8 92.7271 1182.85 92.7271 1185.38C92.7271 1187.9 94.774 1189.95 97.2994 1189.95Z" fill="#00A651" fill-opacity="0.03"/>
<path d="M97.2994 1202.9C99.8249 1202.9 101.872 1200.85 101.872 1198.33C101.872 1195.8 99.8249 1193.75 97.2994 1193.75C94.774 1193.75 92.7271 1195.8 92.7271 1198.33C92.7271 1200.85 94.774 1202.9 97.2994 1202.9Z" fill="#00A651" fill-opacity="0.03"/>
<path d="M110.332 1151.08C112.858 1151.08 114.905 1149.03 114.905 1146.51C114.905 1143.98 112.858 1141.93 110.332 1141.93C107.807 1141.93 105.759 1143.98 105.759 1146.51C105.759 1149.03 107.807 1151.08 110.332 1151.08Z" fill="#00A651" fill-opacity="0.03"/>
<path d="M110.332 1189.95C112.858 1189.95 114.905 1187.9 114.905 1185.38C114.905 1182.85 112.858 1180.8 110.332 1180.8C107.807 1180.8 105.759 1182.85 105.759 1185.38C105.759 1187.9 107.807 1189.95 110.332 1189.95Z" fill="#00A651" fill-opacity="0.03"/>
<path d="M110.332 1202.9C112.858 1202.9 114.905 1200.85 114.905 1198.33C114.905 1195.8 112.858 1193.75 110.332 1193.75C107.807 1193.75 105.759 1195.8 105.759 1198.33C105.759 1200.85 107.807 1202.9 110.332 1202.9Z" fill="#00A651" fill-opacity="0.03"/>
<path d="M202.388 1096.6C202.388 1107.72 199.628 1116.27 194.109 1122.26C188.589 1128.25 180.673 1131.23 170.36 1131.22C160.046 1131.22 152.137 1128.23 146.631 1122.26C141.125 1116.28 138.365 1107.7 138.352 1096.5C138.352 1085.3 141.118 1076.76 146.651 1070.86C152.184 1064.97 160.12 1062.01 170.46 1062C180.801 1062 188.703 1064.97 194.169 1070.92C199.648 1076.88 202.388 1085.42 202.388 1096.6ZM153.298 1096.6C153.298 1104.11 154.722 1109.76 157.569 1113.56C159.072 1115.48 161.024 1117.01 163.253 1118.01C165.483 1119 167.923 1119.44 170.36 1119.28C181.748 1119.28 187.434 1111.72 187.421 1096.6C187.407 1081.48 181.754 1073.9 170.46 1073.86C168.013 1073.7 165.564 1074.14 163.325 1075.14C161.086 1076.14 159.124 1077.67 157.609 1079.6C154.729 1083.41 153.298 1089.09 153.298 1096.6Z" fill="#00A651" fill-opacity="0.03"/>
<path d="M241.848 1092.55H268.539V1127.41C264.562 1128.77 260.479 1129.8 256.332 1130.47C252.45 1131.04 248.531 1131.33 244.608 1131.32C234.456 1131.32 226.707 1128.34 221.363 1122.38C216.018 1116.42 213.332 1107.86 213.306 1096.7C213.306 1085.84 216.414 1077.37 222.632 1071.3C228.849 1065.24 237.484 1062.17 248.536 1062.1C255.403 1062.09 262.199 1063.49 268.498 1066.23L263.764 1077.65C259.023 1075.23 253.778 1073.97 248.455 1073.96C245.674 1073.84 242.898 1074.32 240.326 1075.39C237.753 1076.45 235.446 1078.07 233.57 1080.13C229.684 1084.79 227.699 1090.76 228.01 1096.82C228.01 1104.13 229.501 1109.69 232.482 1113.54C234.039 1115.47 236.036 1117.01 238.307 1118.01C240.577 1119.02 243.056 1119.46 245.535 1119.32C248.573 1119.31 251.603 1119 254.579 1118.39V1104.29H241.828L241.848 1092.55Z" fill="#00A651" fill-opacity="0.03"/>
<path d="M339.302 1063.07V1106.57C339.397 1111.15 338.24 1115.67 335.959 1119.64C333.697 1123.42 330.339 1126.42 326.33 1128.24C321.644 1130.33 316.552 1131.35 311.424 1131.22C302.762 1131.22 296.047 1129 291.28 1124.57C288.863 1122.24 286.973 1119.41 285.736 1116.29C284.499 1113.16 283.944 1109.81 284.109 1106.45V1063.07H298.33V1104.29C298.33 1109.47 299.358 1113.28 301.453 1115.69C303.547 1118.11 306.992 1119.34 311.806 1119.34C316.62 1119.34 319.864 1118.11 321.878 1115.67C323.893 1113.24 325.041 1109.41 325.041 1104.19V1063.07H339.302Z" fill="#00A651" fill-opacity="0.03"/>
<path d="M415.424 1130.31H397.295L368.047 1079.44H367.624C368.215 1088.42 368.51 1094.83 368.51 1098.65V1130.31H355.759V1063.07H373.747L402.955 1113.42H403.297C402.834 1104.68 402.593 1098.51 402.593 1094.89V1063.07H415.424V1130.31Z" fill="#00A651" fill-opacity="0.03"/>
<path d="M153.237 1148.6C154.215 1149.53 154.979 1150.66 155.476 1151.91C155.974 1153.16 156.193 1154.51 156.118 1155.85C156.186 1157.2 155.973 1158.55 155.491 1159.82C155.009 1161.09 154.269 1162.24 153.318 1163.2C150.931 1165.18 147.867 1166.15 144.777 1165.9H138.15V1146.06H144.999C147.967 1145.84 150.909 1146.75 153.237 1148.6ZM152.734 1155.93C152.734 1151.38 150.115 1149.08 144.878 1149.08H141.514V1162.74H145.261C147.256 1162.87 149.23 1162.26 150.8 1161.03C151.46 1160.38 151.974 1159.59 152.307 1158.73C152.641 1157.86 152.787 1156.94 152.734 1156.01V1155.93Z" fill="#00A651" fill-opacity="0.03"/>
<path d="M163.31 1146.06H166.653V1165.98H163.31V1146.06Z" fill="#00A651" fill-opacity="0.03"/>
<path d="M188.831 1156.29H192.135V1163.1C191.098 1164.17 189.841 1165.01 188.45 1165.55C187.058 1166.09 185.566 1166.32 184.078 1166.22C182.712 1166.26 181.354 1166.02 180.084 1165.51C178.813 1165.01 177.658 1164.26 176.684 1163.3C174.754 1161.33 173.673 1158.68 173.673 1155.92C173.673 1153.16 174.754 1150.51 176.684 1148.54C177.651 1147.57 178.805 1146.81 180.076 1146.3C181.347 1145.79 182.708 1145.55 184.078 1145.58C186.692 1145.49 189.245 1146.39 191.228 1148.1L189.496 1150.61C188.806 1150.01 188.006 1149.53 187.139 1149.23C186.25 1148.96 185.326 1148.83 184.399 1148.84C183.463 1148.83 182.532 1149 181.661 1149.34C180.79 1149.69 179.996 1150.2 179.323 1150.86C178.022 1152.24 177.297 1154.07 177.297 1155.97C177.297 1157.87 178.022 1159.7 179.323 1161.09C179.952 1161.73 180.705 1162.24 181.535 1162.59C182.366 1162.93 183.258 1163.11 184.158 1163.1C185.821 1163.16 187.464 1162.73 188.891 1161.87L188.831 1156.29Z" fill="#00A651" fill-opacity="0.03"/>
<path d="M199.467 1146.06H202.831V1165.98H199.467V1146.06Z" fill="#00A651" fill-opacity="0.03"/>
<path d="M218.744 1149.14V1165.98H215.38V1149.14H209.337V1146.06H224.787V1149.14H218.744Z" fill="#00A651" fill-opacity="0.03"/>
<path d="M232.542 1161.45L230.528 1165.98H226.922L235.705 1146.06H239.311L248.073 1165.98H244.507L242.493 1161.45H232.542ZM241.143 1158.35L237.517 1150.13L233.912 1158.35H241.143Z" fill="#00A651" fill-opacity="0.03"/>
<path d="M253.713 1165.98V1146.06H257.077V1162.8H266.182V1165.98H253.713Z" fill="#00A651" fill-opacity="0.03"/>
<path d="M289.387 1148.6C288.54 1148.57 287.701 1148.78 286.97 1149.2C286.668 1149.4 286.423 1149.67 286.26 1149.99C286.098 1150.3 286.022 1150.66 286.043 1151.02C286.015 1151.38 286.086 1151.75 286.25 1152.07C286.413 1152.4 286.662 1152.67 286.97 1152.87C288.238 1153.52 289.595 1153.98 290.998 1154.24C292.677 1154.54 294.263 1155.23 295.631 1156.25C296.178 1156.76 296.602 1157.39 296.871 1158.09C297.139 1158.79 297.246 1159.54 297.182 1160.28C297.196 1161.09 297.022 1161.9 296.672 1162.63C296.323 1163.37 295.808 1164.01 295.168 1164.51C293.699 1165.65 291.87 1166.23 290.011 1166.14C286.935 1166.16 283.968 1165.01 281.712 1162.92L283.827 1160.38C285.525 1161.99 287.753 1162.92 290.092 1163C291.005 1163.05 291.909 1162.8 292.67 1162.3C292.974 1162.09 293.222 1161.82 293.391 1161.49C293.559 1161.17 293.645 1160.81 293.637 1160.44C293.666 1160.11 293.609 1159.77 293.471 1159.46C293.334 1159.15 293.121 1158.88 292.851 1158.67C291.897 1158.11 290.855 1157.72 289.77 1157.5C288.634 1157.26 287.517 1156.93 286.426 1156.54C285.704 1156.25 285.026 1155.86 284.411 1155.39C283.825 1154.9 283.36 1154.28 283.055 1153.58C282.751 1152.88 282.615 1152.12 282.659 1151.36C282.62 1150.54 282.784 1149.72 283.135 1148.97C283.486 1148.23 284.014 1147.58 284.673 1147.09C286.126 1146.07 287.873 1145.54 289.649 1145.6C290.943 1145.6 292.229 1145.81 293.456 1146.22C294.639 1146.61 295.739 1147.21 296.699 1148L294.866 1150.61C294.167 1150.02 293.35 1149.57 292.468 1149.31C291.49 1148.89 290.447 1148.66 289.387 1148.6Z" fill="#00A651" fill-opacity="0.03"/>
<path d="M308.644 1161.43C309.122 1161.93 309.697 1162.33 310.334 1162.6C310.971 1162.88 311.657 1163.02 312.351 1163.02C313.043 1163.02 313.73 1162.88 314.367 1162.6C315.004 1162.33 315.579 1161.93 316.057 1161.43C317.02 1160.2 317.507 1158.66 317.427 1157.1V1146.06H320.791V1157.24C320.869 1158.45 320.699 1159.66 320.29 1160.8C319.881 1161.94 319.242 1162.98 318.414 1163.87C316.75 1165.35 314.599 1166.17 312.37 1166.17C310.142 1166.17 307.991 1165.35 306.327 1163.87C305.499 1162.98 304.86 1161.94 304.451 1160.8C304.042 1159.66 303.872 1158.45 303.95 1157.24V1146.06H307.314V1157.1C307.223 1158.66 307.695 1160.19 308.644 1161.43Z" fill="#00A651" fill-opacity="0.03"/>
<path d="M332.272 1165.98H328.908V1146.06H334.145L340.189 1158.57L346.231 1146.06H351.448V1165.98H348.044V1150.43L341.075 1164.25H339.181L332.252 1150.43L332.272 1165.98Z" fill="#00A651" fill-opacity="0.03"/>
<path d="M363.152 1165.98H359.788V1146.06H365.025L371.068 1158.57L377.111 1146.06H382.328V1165.98H378.964V1150.43L372.015 1164.25H370.121L363.213 1150.43L363.152 1165.98Z" fill="#00A651" fill-opacity="0.03"/>
<path d="M323.482 1200.95V1196.18C323.482 1195.19 323.641 1194.32 323.959 1193.58C324.298 1192.84 324.827 1192.18 325.547 1191.61C326.268 1191.02 327.221 1190.47 328.407 1189.96L332.156 1188.34C333.109 1187.94 333.808 1187.44 334.253 1186.85C334.719 1186.25 334.952 1185.5 334.952 1184.59C334.952 1183.66 334.666 1182.9 334.094 1182.3C333.522 1181.71 332.686 1181.41 331.584 1181.41C330.483 1181.41 329.646 1181.72 329.074 1182.33C328.502 1182.95 328.216 1183.77 328.216 1184.81H323.165C323.165 1183.35 323.482 1182.04 324.118 1180.87C324.753 1179.69 325.696 1178.76 326.945 1178.08C328.195 1177.4 329.742 1177.06 331.584 1177.06C333.427 1177.06 334.963 1177.39 336.191 1178.05C337.441 1178.7 338.383 1179.58 339.019 1180.68C339.675 1181.78 340.004 1183.02 340.004 1184.4V1184.78C340.004 1186.56 339.516 1188.03 338.542 1189.2C337.568 1190.34 336.064 1191.36 334.03 1192.25L330.313 1193.87C329.678 1194.14 329.222 1194.43 328.947 1194.72C328.693 1195.02 328.566 1195.42 328.566 1195.93V1197.52L327.326 1196.47H340.035V1200.95H323.482Z" fill="#00A651" fill-opacity="0.03"/>
<path d="M353.788 1201.55C351.944 1201.55 350.367 1201.26 349.053 1200.66C347.74 1200.05 346.67 1199.22 345.844 1198.19C345.04 1197.15 344.436 1195.95 344.033 1194.6C343.652 1193.22 343.461 1191.77 343.461 1190.24V1188.43C343.461 1186.32 343.832 1184.4 344.574 1182.68C345.315 1180.97 346.448 1179.6 347.973 1178.59C349.498 1177.57 351.436 1177.06 353.788 1177.06C356.139 1177.06 358.066 1177.57 359.57 1178.59C361.095 1179.6 362.228 1180.97 362.969 1182.68C363.711 1184.4 364.081 1186.32 364.081 1188.43V1190.24C364.081 1191.77 363.881 1193.22 363.478 1194.6C363.097 1195.95 362.493 1197.15 361.667 1198.19C360.862 1199.22 359.803 1200.05 358.49 1200.66C357.197 1201.26 355.63 1201.55 353.788 1201.55ZM353.788 1196.76C355.503 1196.76 356.774 1196.16 357.6 1194.98C358.447 1193.77 358.871 1191.91 358.871 1189.39C358.871 1186.72 358.437 1184.8 357.568 1183.64C356.721 1182.45 355.46 1181.86 353.788 1181.86C352.072 1181.86 350.79 1182.45 349.943 1183.64C349.096 1184.8 348.672 1186.7 348.672 1189.32C348.672 1191.86 349.085 1193.74 349.911 1194.95C350.758 1196.15 352.051 1196.76 353.788 1196.76Z" fill="#00A651" fill-opacity="0.03"/>
<path d="M367.789 1200.95V1196.18C367.789 1195.19 367.948 1194.32 368.266 1193.58C368.604 1192.84 369.134 1192.18 369.855 1191.61C370.574 1191.02 371.527 1190.47 372.714 1189.96L376.463 1188.34C377.416 1187.94 378.115 1187.44 378.56 1186.85C379.026 1186.25 379.259 1185.5 379.259 1184.59C379.259 1183.66 378.973 1182.9 378.401 1182.3C377.829 1181.71 376.992 1181.41 375.891 1181.41C374.79 1181.41 373.953 1181.72 373.381 1182.33C372.809 1182.95 372.523 1183.77 372.523 1184.81H367.471C367.471 1183.35 367.789 1182.04 368.425 1180.87C369.06 1179.69 370.003 1178.76 371.252 1178.08C372.502 1177.4 374.048 1177.06 375.891 1177.06C377.734 1177.06 379.269 1177.39 380.498 1178.05C381.748 1178.7 382.69 1179.58 383.326 1180.68C383.982 1181.78 384.31 1183.02 384.31 1184.4V1184.78C384.31 1186.56 383.824 1188.03 382.849 1189.2C381.875 1190.34 380.371 1191.36 378.338 1192.25L374.62 1193.87C373.985 1194.14 373.529 1194.43 373.254 1194.72C373 1195.02 372.873 1195.42 372.873 1195.93V1197.52L371.634 1196.47H384.343V1200.95H367.789Z" fill="#00A651" fill-opacity="0.03"/>
<path d="M395.807 1201.55C394.007 1201.55 392.44 1201.22 391.105 1200.57C389.791 1199.89 388.786 1198.98 388.087 1197.84C387.387 1196.69 387.038 1195.4 387.038 1193.96H392.058C392.058 1194.94 392.386 1195.73 393.043 1196.34C393.7 1196.94 394.621 1197.23 395.807 1197.23C396.591 1197.23 397.258 1197.08 397.809 1196.79C398.359 1196.49 398.783 1196.09 399.08 1195.58C399.376 1195.05 399.524 1194.46 399.524 1193.8C399.524 1192.79 399.196 1191.95 398.54 1191.29C397.904 1190.64 396.993 1190.31 395.807 1190.31C395.172 1190.31 394.61 1190.4 394.123 1190.59C393.657 1190.78 393.255 1191.02 392.916 1191.29L390.565 1187.32L397.586 1182.75L397.3 1182.21H387.991V1177.76H403.623V1182.59L395.521 1187.73L392.979 1187.04C393.403 1186.91 393.848 1186.81 394.314 1186.75C394.801 1186.67 395.32 1186.62 395.87 1186.62C397.671 1186.62 399.217 1186.92 400.509 1187.51C401.802 1188.11 402.797 1188.94 403.496 1190.02C404.216 1191.08 404.576 1192.32 404.576 1193.74V1194.12C404.576 1195.54 404.216 1196.81 403.496 1197.93C402.797 1199.05 401.791 1199.94 400.477 1200.6C399.186 1201.23 397.629 1201.55 395.807 1201.55Z" fill="#00A651" fill-opacity="0.03"/>
</g>
</g>
<defs>
<clipPath id="clip0_405_9764">
<rect width="401" height="2369" fill="white" transform="translate(-5.5)"/>
</clipPath>
<clipPath id="clip1_405_9764">
<rect width="458" height="140.897" fill="white" transform="translate(-37.5 1062)"/>
</clipPath>
</defs>
</svg>
