<svg width="156" height="48" viewBox="0 0 156 48" fill="none" xmlns="http://www.w3.org/2000/svg">
<path d="M1.55746 3.86883C2.41762 3.86883 3.11492 3.17153 3.11492 2.31137C3.11492 1.45121 2.41762 0.753906 1.55746 0.753906C0.6973 0.753906 0 1.45121 0 2.31137C0 3.17153 0.6973 3.86883 1.55746 3.86883Z" fill="#FDFDFD"/>
<path d="M1.55746 8.28094C2.41762 8.28094 3.11492 7.58364 3.11492 6.72348C3.11492 5.86332 2.41762 5.16602 1.55746 5.16602C0.6973 5.16602 0 5.86332 0 6.72348C0 7.58364 0.6973 8.28094 1.55746 8.28094Z" fill="#FDFDFD"/>
<path d="M1.55746 12.693C2.41762 12.693 3.11492 11.9957 3.11492 11.1356C3.11492 10.2754 2.41762 9.57812 1.55746 9.57812C0.6973 9.57812 0 10.2754 0 11.1356C0 11.9957 0.6973 12.693 1.55746 12.693Z" fill="#FDFDFD"/>
<path d="M1.55746 17.1052C2.41762 17.1052 3.11492 16.4079 3.11492 15.5477C3.11492 14.6875 2.41762 13.9902 1.55746 13.9902C0.6973 13.9902 0 14.6875 0 15.5477C0 16.4079 0.6973 17.1052 1.55746 17.1052Z" fill="#FDFDFD"/>
<path d="M1.55746 21.5232C2.41762 21.5232 3.11492 20.8258 3.11492 19.9657C3.11492 19.1055 2.41762 18.4082 1.55746 18.4082C0.6973 18.4082 0 19.1055 0 19.9657C0 20.8258 0.6973 21.5232 1.55746 21.5232Z" fill="#FDFDFD"/>
<path d="M1.55746 25.9353C2.41762 25.9353 3.11492 25.2381 3.11492 24.3779C3.11492 23.5177 2.41762 22.8203 1.55746 22.8203C0.6973 22.8203 0 23.5177 0 24.3779C0 25.2381 0.6973 25.9353 1.55746 25.9353Z" fill="#FDFDFD"/>
<path d="M1.55746 30.3472C2.41762 30.3472 3.11492 29.65 3.11492 28.7898C3.11492 27.9296 2.41762 27.2324 1.55746 27.2324C0.6973 27.2324 0 27.9296 0 28.7898C0 29.65 0.6973 30.3472 1.55746 30.3472Z" fill="#FDFDFD"/>
<path d="M1.55746 34.7576C2.41762 34.7576 3.11492 34.0602 3.11492 33.2C3.11492 32.34 2.41762 31.6426 1.55746 31.6426C0.6973 31.6426 0 32.34 0 33.2C0 34.0602 0.6973 34.7576 1.55746 34.7576Z" fill="#FDFDFD"/>
<path d="M1.55746 39.1773C2.41762 39.1773 3.11492 38.4801 3.11492 37.6199C3.11492 36.7597 2.41762 36.0625 1.55746 36.0625C0.6973 36.0625 0 36.7597 0 37.6199C0 38.4801 0.6973 39.1773 1.55746 39.1773Z" fill="#FDFDFD"/>
<path d="M1.55746 43.5877C2.41762 43.5877 3.11492 42.8903 3.11492 42.0301C3.11492 41.1701 2.41762 40.4727 1.55746 40.4727C0.6973 40.4727 0 41.1701 0 42.0301C0 42.8903 0.6973 43.5877 1.55746 43.5877Z" fill="#FDFDFD"/>
<path d="M5.99008 8.28094C6.85026 8.28094 7.54756 7.58364 7.54756 6.72348C7.54756 5.86332 6.85026 5.16602 5.99008 5.16602C5.12992 5.16602 4.43262 5.86332 4.43262 6.72348C4.43262 7.58364 5.12992 8.28094 5.99008 8.28094Z" fill="#FDFDFD"/>
<path d="M5.99008 12.693C6.85026 12.693 7.54756 11.9957 7.54756 11.1356C7.54756 10.2754 6.85026 9.57812 5.99008 9.57812C5.12992 9.57812 4.43262 10.2754 4.43262 11.1356C4.43262 11.9957 5.12992 12.693 5.99008 12.693Z" fill="#FDFDFD"/>
<path d="M5.99008 17.1052C6.85026 17.1052 7.54756 16.4079 7.54756 15.5477C7.54756 14.6875 6.85026 13.9902 5.99008 13.9902C5.12992 13.9902 4.43262 14.6875 4.43262 15.5477C4.43262 16.4079 5.12992 17.1052 5.99008 17.1052Z" fill="#FDFDFD"/>
<path d="M5.99008 21.5232C6.85026 21.5232 7.54756 20.8258 7.54756 19.9657C7.54756 19.1055 6.85026 18.4082 5.99008 18.4082C5.12992 18.4082 4.43262 19.1055 4.43262 19.9657C4.43262 20.8258 5.12992 21.5232 5.99008 21.5232Z" fill="#FDFDFD"/>
<path d="M5.99008 25.9353C6.85026 25.9353 7.54756 25.2381 7.54756 24.3779C7.54756 23.5177 6.85026 22.8203 5.99008 22.8203C5.12992 22.8203 4.43262 23.5177 4.43262 24.3779C4.43262 25.2381 5.12992 25.9353 5.99008 25.9353Z" fill="#FDFDFD"/>
<path d="M5.99008 30.3472C6.85026 30.3472 7.54756 29.65 7.54756 28.7898C7.54756 27.9296 6.85026 27.2324 5.99008 27.2324C5.12992 27.2324 4.43262 27.9296 4.43262 28.7898C4.43262 29.65 5.12992 30.3472 5.99008 30.3472Z" fill="#FDFDFD"/>
<path d="M5.99008 34.7576C6.85026 34.7576 7.54756 34.0602 7.54756 33.2C7.54756 32.34 6.85026 31.6426 5.99008 31.6426C5.12992 31.6426 4.43262 32.34 4.43262 33.2C4.43262 34.0602 5.12992 34.7576 5.99008 34.7576Z" fill="#FDFDFD"/>
<path d="M5.99008 39.1773C6.85026 39.1773 7.54756 38.4801 7.54756 37.6199C7.54756 36.7597 6.85026 36.0625 5.99008 36.0625C5.12992 36.0625 4.43262 36.7597 4.43262 37.6199C4.43262 38.4801 5.12992 39.1773 5.99008 39.1773Z" fill="#FDFDFD"/>
<path d="M5.99008 43.5877C6.85026 43.5877 7.54756 42.8903 7.54756 42.0301C7.54756 41.1701 6.85026 40.4727 5.99008 40.4727C5.12992 40.4727 4.43262 41.1701 4.43262 42.0301C4.43262 42.8903 5.12992 43.5877 5.99008 43.5877Z" fill="#FDFDFD"/>
<path d="M10.4286 21.5232C11.2887 21.5232 11.986 20.8258 11.986 19.9657C11.986 19.1055 11.2887 18.4082 10.4286 18.4082C9.56839 18.4082 8.87109 19.1055 8.87109 19.9657C8.87109 20.8258 9.56839 21.5232 10.4286 21.5232Z" fill="#FDFDFD"/>
<path d="M10.4286 25.9353C11.2887 25.9353 11.986 25.2381 11.986 24.3779C11.986 23.5177 11.2887 22.8203 10.4286 22.8203C9.56839 22.8203 8.87109 23.5177 8.87109 24.3779C8.87109 25.2381 9.56839 25.9353 10.4286 25.9353Z" fill="#FDFDFD"/>
<path d="M10.4286 30.3472C11.2887 30.3472 11.986 29.65 11.986 28.7898C11.986 27.9296 11.2887 27.2324 10.4286 27.2324C9.56839 27.2324 8.87109 27.9296 8.87109 28.7898C8.87109 29.65 9.56839 30.3472 10.4286 30.3472Z" fill="#FDFDFD"/>
<path d="M10.4286 34.7576C11.2887 34.7576 11.986 34.0602 11.986 33.2C11.986 32.34 11.2887 31.6426 10.4286 31.6426C9.56839 31.6426 8.87109 32.34 8.87109 33.2C8.87109 34.0602 9.56839 34.7576 10.4286 34.7576Z" fill="#FDFDFD"/>
<path d="M10.4286 39.1773C11.2887 39.1773 11.986 38.4801 11.986 37.6199C11.986 36.7597 11.2887 36.0625 10.4286 36.0625C9.56839 36.0625 8.87109 36.7597 8.87109 37.6199C8.87109 38.4801 9.56839 39.1773 10.4286 39.1773Z" fill="#FDFDFD"/>
<path d="M10.4286 43.5877C11.2887 43.5877 11.986 42.8903 11.986 42.0301C11.986 41.1701 11.2887 40.4727 10.4286 40.4727C9.56839 40.4727 8.87109 41.1701 8.87109 42.0301C8.87109 42.8903 9.56839 43.5877 10.4286 43.5877Z" fill="#FDFDFD"/>
<path d="M14.8612 21.5232C15.7213 21.5232 16.4186 20.8258 16.4186 19.9657C16.4186 19.1055 15.7213 18.4082 14.8612 18.4082C14.001 18.4082 13.3037 19.1055 13.3037 19.9657C13.3037 20.8258 14.001 21.5232 14.8612 21.5232Z" fill="#FDFDFD"/>
<path d="M14.8612 25.9353C15.7213 25.9353 16.4186 25.2381 16.4186 24.3779C16.4186 23.5177 15.7213 22.8203 14.8612 22.8203C14.001 22.8203 13.3037 23.5177 13.3037 24.3779C13.3037 25.2381 14.001 25.9353 14.8612 25.9353Z" fill="#FDFDFD"/>
<path d="M14.8612 30.3472C15.7213 30.3472 16.4186 29.65 16.4186 28.7898C16.4186 27.9296 15.7213 27.2324 14.8612 27.2324C14.001 27.2324 13.3037 27.9296 13.3037 28.7898C13.3037 29.65 14.001 30.3472 14.8612 30.3472Z" fill="#FDFDFD"/>
<path d="M14.8612 34.7576C15.7213 34.7576 16.4186 34.0602 16.4186 33.2C16.4186 32.34 15.7213 31.6426 14.8612 31.6426C14.001 31.6426 13.3037 32.34 13.3037 33.2C13.3037 34.0602 14.001 34.7576 14.8612 34.7576Z" fill="#FDFDFD"/>
<path d="M14.8612 39.1773C15.7213 39.1773 16.4186 38.4801 16.4186 37.6199C16.4186 36.7597 15.7213 36.0625 14.8612 36.0625C14.001 36.0625 13.3037 36.7597 13.3037 37.6199C13.3037 38.4801 14.001 39.1773 14.8612 39.1773Z" fill="#FDFDFD"/>
<path d="M19.3006 21.5232C20.1608 21.5232 20.858 20.8258 20.858 19.9657C20.858 19.1055 20.1608 18.4082 19.3006 18.4082C18.4404 18.4082 17.7432 19.1055 17.7432 19.9657C17.7432 20.8258 18.4404 21.5232 19.3006 21.5232Z" fill="#FDFDFD"/>
<path d="M19.3006 25.9353C20.1608 25.9353 20.858 25.2381 20.858 24.3779C20.858 23.5177 20.1608 22.8203 19.3006 22.8203C18.4404 22.8203 17.7432 23.5177 17.7432 24.3779C17.7432 25.2381 18.4404 25.9353 19.3006 25.9353Z" fill="#FDFDFD"/>
<path d="M19.3006 30.3472C20.1608 30.3472 20.858 29.65 20.858 28.7898C20.858 27.9296 20.1608 27.2324 19.3006 27.2324C18.4404 27.2324 17.7432 27.9296 17.7432 28.7898C17.7432 29.65 18.4404 30.3472 19.3006 30.3472Z" fill="#FDFDFD"/>
<path d="M19.3006 34.7576C20.1608 34.7576 20.858 34.0602 20.858 33.2C20.858 32.34 20.1608 31.6426 19.3006 31.6426C18.4404 31.6426 17.7432 32.34 17.7432 33.2C17.7432 34.0602 18.4404 34.7576 19.3006 34.7576Z" fill="#FDFDFD"/>
<path d="M23.739 21.5232C24.5992 21.5232 25.2966 20.8258 25.2966 19.9657C25.2966 19.1055 24.5992 18.4082 23.739 18.4082C22.879 18.4082 22.1816 19.1055 22.1816 19.9657C22.1816 20.8258 22.879 21.5232 23.739 21.5232Z" fill="#FDFDFD"/>
<path d="M23.739 25.9353C24.5992 25.9353 25.2966 25.2381 25.2966 24.3779C25.2966 23.5177 24.5992 22.8203 23.739 22.8203C22.879 22.8203 22.1816 23.5177 22.1816 24.3779C22.1816 25.2381 22.879 25.9353 23.739 25.9353Z" fill="#FDFDFD"/>
<path d="M28.1719 25.9353C29.0319 25.9353 29.7293 25.2381 29.7293 24.3779C29.7293 23.5177 29.0319 22.8203 28.1719 22.8203C27.3117 22.8203 26.6143 23.5177 26.6143 24.3779C26.6143 25.2381 27.3117 25.9353 28.1719 25.9353Z" fill="#FDFDFD"/>
<path d="M23.739 30.3472C24.5992 30.3472 25.2966 29.65 25.2966 28.7898C25.2966 27.9296 24.5992 27.2324 23.739 27.2324C22.879 27.2324 22.1816 27.9296 22.1816 28.7898C22.1816 29.65 22.879 30.3472 23.739 30.3472Z" fill="#FDFDFD"/>
<path d="M23.739 34.7576C24.5992 34.7576 25.2966 34.0602 25.2966 33.2C25.2966 32.34 24.5992 31.6426 23.739 31.6426C22.879 31.6426 22.1816 32.34 22.1816 33.2C22.1816 34.0602 22.879 34.7576 23.739 34.7576Z" fill="#FDFDFD"/>
<path d="M28.1719 30.3472C29.0319 30.3472 29.7293 29.65 29.7293 28.7898C29.7293 27.9296 29.0319 27.2324 28.1719 27.2324C27.3117 27.2324 26.6143 27.9296 26.6143 28.7898C26.6143 29.65 27.3117 30.3472 28.1719 30.3472Z" fill="#FDFDFD"/>
<path d="M28.1719 34.7576C29.0319 34.7576 29.7293 34.0602 29.7293 33.2C29.7293 32.34 29.0319 31.6426 28.1719 31.6426C27.3117 31.6426 26.6143 32.34 26.6143 33.2C26.6143 34.0602 27.3117 34.7576 28.1719 34.7576Z" fill="#FDFDFD"/>
<path d="M32.6101 30.3472C33.4703 30.3472 34.1675 29.65 34.1675 28.7898C34.1675 27.9296 33.4703 27.2324 32.6101 27.2324C31.7499 27.2324 31.0527 27.9296 31.0527 28.7898C31.0527 29.65 31.7499 30.3472 32.6101 30.3472Z" fill="#FDFDFD"/>
<path d="M32.6101 34.7576C33.4703 34.7576 34.1675 34.0602 34.1675 33.2C34.1675 32.34 33.4703 31.6426 32.6101 31.6426C31.7499 31.6426 31.0527 32.34 31.0527 33.2C31.0527 34.0602 31.7499 34.7576 32.6101 34.7576Z" fill="#FDFDFD"/>
<path d="M19.3006 38.6287C20.1608 38.6287 20.858 37.9313 20.858 37.0713C20.858 36.2111 20.1608 35.5137 19.3006 35.5137C18.4404 35.5137 17.7432 36.2111 17.7432 37.0713C17.7432 37.9313 18.4404 38.6287 19.3006 38.6287Z" fill="#FDFDFD"/>
<path d="M23.739 38.6287C24.5992 38.6287 25.2966 37.9313 25.2966 37.0713C25.2966 36.2111 24.5992 35.5137 23.739 35.5137C22.879 35.5137 22.1816 36.2111 22.1816 37.0713C22.1816 37.9313 22.879 38.6287 23.739 38.6287Z" fill="#FDFDFD"/>
<path d="M28.1719 38.6287C29.0319 38.6287 29.7293 37.9313 29.7293 37.0713C29.7293 36.2111 29.0319 35.5137 28.1719 35.5137C27.3117 35.5137 26.6143 36.2111 26.6143 37.0713C26.6143 37.9313 27.3117 38.6287 28.1719 38.6287Z" fill="#FDFDFD"/>
<path d="M32.6101 38.6287C33.4703 38.6287 34.1675 37.9313 34.1675 37.0713C34.1675 36.2111 33.4703 35.5137 32.6101 35.5137C31.7499 35.5137 31.0527 36.2111 31.0527 37.0713C31.0527 37.9313 31.7499 38.6287 32.6101 38.6287Z" fill="#FDFDFD"/>
<path d="M37.0428 30.3472C37.903 30.3472 38.6003 29.65 38.6003 28.7898C38.6003 27.9296 37.903 27.2324 37.0428 27.2324C36.1828 27.2324 35.4854 27.9296 35.4854 28.7898C35.4854 29.65 36.1828 30.3472 37.0428 30.3472Z" fill="#FDFDFD"/>
<path d="M37.0428 34.7576C37.903 34.7576 38.6003 34.0602 38.6003 33.2C38.6003 32.34 37.903 31.6426 37.0428 31.6426C36.1828 31.6426 35.4854 32.34 35.4854 33.2C35.4854 34.0602 36.1828 34.7576 37.0428 34.7576Z" fill="#FDFDFD"/>
<path d="M37.0428 39.1773C37.903 39.1773 38.6003 38.4801 38.6003 37.6199C38.6003 36.7597 37.903 36.0625 37.0428 36.0625C36.1828 36.0625 35.4854 36.7597 35.4854 37.6199C35.4854 38.4801 36.1828 39.1773 37.0428 39.1773Z" fill="#FDFDFD"/>
<path d="M37.0428 43.5877C37.903 43.5877 38.6003 42.8903 38.6003 42.0301C38.6003 41.1701 37.903 40.4727 37.0428 40.4727C36.1828 40.4727 35.4854 41.1701 35.4854 42.0301C35.4854 42.8903 36.1828 43.5877 37.0428 43.5877Z" fill="#FDFDFD"/>
<path d="M41.4822 30.3472C42.3424 30.3472 43.0396 29.65 43.0396 28.7898C43.0396 27.9296 42.3424 27.2324 41.4822 27.2324C40.622 27.2324 39.9248 27.9296 39.9248 28.7898C39.9248 29.65 40.622 30.3472 41.4822 30.3472Z" fill="#FDFDFD"/>
<path d="M41.4822 34.7576C42.3424 34.7576 43.0396 34.0602 43.0396 33.2C43.0396 32.34 42.3424 31.6426 41.4822 31.6426C40.622 31.6426 39.9248 32.34 39.9248 33.2C39.9248 34.0602 40.622 34.7576 41.4822 34.7576Z" fill="#FDFDFD"/>
<path d="M41.4822 39.1773C42.3424 39.1773 43.0396 38.4801 43.0396 37.6199C43.0396 36.7597 42.3424 36.0625 41.4822 36.0625C40.622 36.0625 39.9248 36.7597 39.9248 37.6199C39.9248 38.4801 40.622 39.1773 41.4822 39.1773Z" fill="#FDFDFD"/>
<path d="M41.4822 43.5877C42.3424 43.5877 43.0396 42.8903 43.0396 42.0301C43.0396 41.1701 42.3424 40.4727 41.4822 40.4727C40.622 40.4727 39.9248 41.1701 39.9248 42.0301C39.9248 42.8903 40.622 43.5877 41.4822 43.5877Z" fill="#FDFDFD"/>
<path d="M45.9138 34.7576C46.774 34.7576 47.4714 34.0602 47.4714 33.2C47.4714 32.34 46.774 31.6426 45.9138 31.6426C45.0536 31.6426 44.3564 32.34 44.3564 33.2C44.3564 34.0602 45.0536 34.7576 45.9138 34.7576Z" fill="#FDFDFD"/>
<path d="M49.8045 34.7576C50.6647 34.7576 51.3621 34.0602 51.3621 33.2C51.3621 32.34 50.6647 31.6426 49.8045 31.6426C48.9443 31.6426 48.2471 32.34 48.2471 33.2C48.2471 34.0602 48.9443 34.7576 49.8045 34.7576Z" fill="#FDFDFD"/>
<path d="M45.9138 43.5877C46.774 43.5877 47.4714 42.8903 47.4714 42.0301C47.4714 41.1701 46.774 40.4727 45.9138 40.4727C45.0536 40.4727 44.3564 41.1701 44.3564 42.0301C44.3564 42.8903 45.0536 43.5877 45.9138 43.5877Z" fill="#FDFDFD"/>
<path d="M45.9138 47.9998C46.774 47.9998 47.4714 47.3026 47.4714 46.4424C47.4714 45.5822 46.774 44.8848 45.9138 44.8848C45.0536 44.8848 44.3564 45.5822 44.3564 46.4424C44.3564 47.3026 45.0536 47.9998 45.9138 47.9998Z" fill="#FDFDFD"/>
<path d="M50.3535 30.3472C51.2137 30.3472 51.9109 29.65 51.9109 28.7898C51.9109 27.9296 51.2137 27.2324 50.3535 27.2324C49.4933 27.2324 48.7959 27.9296 48.7959 28.7898C48.7959 29.65 49.4933 30.3472 50.3535 30.3472Z" fill="#FDFDFD"/>
<path d="M50.3535 43.5877C51.2137 43.5877 51.9109 42.8903 51.9109 42.0301C51.9109 41.1701 51.2137 40.4727 50.3535 40.4727C49.4933 40.4727 48.7959 41.1701 48.7959 42.0301C48.7959 42.8903 49.4933 43.5877 50.3535 43.5877Z" fill="#FDFDFD"/>
<path d="M50.3535 47.9998C51.2137 47.9998 51.9109 47.3026 51.9109 46.4424C51.9109 45.5822 51.2137 44.8848 50.3535 44.8848C49.4933 44.8848 48.7959 45.5822 48.7959 46.4424C48.7959 47.3026 49.4933 47.9998 50.3535 47.9998Z" fill="#FDFDFD"/>
<path d="M81.7089 11.7873C81.7089 15.5746 80.7689 18.4883 78.8891 20.5284C77.0091 22.5684 74.3127 23.586 70.7999 23.5814C67.2869 23.5814 64.5929 22.5638 62.7175 20.5284C60.8421 18.4929 59.9021 15.5678 59.8975 11.753C59.8975 7.93824 60.8399 5.02688 62.7243 3.01886C64.6089 1.01086 67.3121 0.00457404 70.8341 0C74.3561 0 77.0479 1.01315 78.9095 3.03946C80.7757 5.07032 81.7089 7.97942 81.7089 11.7873ZM64.9885 11.7873C64.9885 14.3442 65.4733 16.2699 66.4431 17.5643C66.9551 18.22 67.6199 18.7403 68.3793 19.0799C69.1387 19.4196 69.9697 19.5682 70.7999 19.5129C74.6787 19.5129 76.6157 16.9377 76.6111 11.7873C76.6065 6.63694 74.6809 4.05488 70.8341 4.04116C70.0005 3.98736 69.1665 4.13726 68.4039 4.47794C67.6411 4.81862 66.9729 5.33984 66.4567 5.99656C65.4757 7.29332 64.9885 9.22814 64.9885 11.7873Z" fill="#FDFDFD"/>
<path d="M95.1488 10.4091H104.24V22.2857C102.885 22.7487 101.495 23.0975 100.082 23.3285C98.7598 23.5219 97.425 23.6183 96.0888 23.6167C92.6308 23.6167 89.9916 22.6013 88.1712 20.5703C86.3506 18.5395 85.4358 15.6235 85.4268 11.8225C85.4268 8.12209 86.4856 5.23815 88.6034 3.17069C90.7212 1.10322 93.6622 0.0580497 97.4266 0.0351795C99.7658 0.0313087 102.08 0.510132 104.226 1.4417L102.614 5.33191C100.999 4.50871 99.212 4.07851 97.3992 4.07635C96.4518 4.03285 95.5064 4.19839 94.6302 4.56121C93.754 4.92405 92.9682 5.47529 92.329 6.17583C91.0054 7.76643 90.3294 9.79711 90.4352 11.8637C90.4352 14.3542 90.943 16.2479 91.9584 17.5583C92.4888 18.2173 93.169 18.7399 93.9424 19.0824C94.7158 19.425 95.56 19.5776 96.4044 19.5275C97.4392 19.5259 98.4714 19.4202 99.485 19.2119V14.4091H95.142L95.1488 10.4091Z" fill="#FDFDFD"/>
<path d="M128.343 0.363281V15.1832C128.375 16.7434 127.981 18.2829 127.204 19.636C126.434 20.923 125.29 21.945 123.925 22.5656C122.329 23.2772 120.594 23.624 118.847 23.581C115.897 23.581 113.61 22.8264 111.986 21.317C111.163 20.521 110.519 19.5583 110.098 18.4934C109.677 17.4285 109.488 16.2858 109.544 15.142V0.363281H114.388V14.4079C114.388 16.1712 114.738 17.4679 115.451 18.2912C116.165 19.1146 117.338 19.5331 118.978 19.5331C120.617 19.5331 121.722 19.1146 122.408 18.2844C123.094 17.4542 123.485 16.1506 123.485 14.3736V0.363281H128.343Z" fill="#FDFDFD"/>
<path d="M154.271 23.2724H148.096L138.133 5.94133H137.989C138.191 9.00137 138.291 11.1832 138.291 12.4868V23.2724H133.948V0.363281H140.075L150.024 17.5159H150.14C149.982 14.5382 149.9 12.4387 149.9 11.2038V0.363281H154.271V23.2724Z" fill="#FDFDFD"/>
<path d="M64.9671 29.5028C65.3001 29.8186 65.5603 30.2032 65.7297 30.6298C65.8991 31.0562 65.9737 31.5146 65.9483 31.9728C65.9715 32.4334 65.8989 32.894 65.7347 33.3252C65.5705 33.7562 65.3185 34.1486 64.9945 34.477C64.1815 35.1506 63.1379 35.4804 62.0855 35.3964H59.8281V28.6382H62.1609C63.1719 28.5624 64.1741 28.8712 64.9671 29.5028ZM64.7955 32.0002C64.7955 30.4496 63.9037 29.6674 62.1197 29.6674H60.9739V34.3192H62.2501C62.9297 34.3658 63.6021 34.1578 64.1369 33.736C64.3617 33.5144 64.5367 33.2474 64.6503 32.9528C64.7639 32.6582 64.8135 32.3428 64.7955 32.0276V32.0002Z" fill="#FDFDFD"/>
<path d="M68.3984 28.6387H69.5372V35.4243H68.3984V28.6387Z" fill="#FDFDFD"/>
<path d="M77.0907 32.1227H78.2159V34.4419C77.8627 34.8075 77.4345 35.0919 76.9607 35.2755C76.4867 35.4591 75.9785 35.5375 75.4715 35.5053C75.0063 35.5169 74.5439 35.4349 74.1111 35.2639C73.6785 35.0931 73.2849 34.8369 72.9533 34.5105C72.2959 33.8385 71.9277 32.9359 71.9277 31.9959C71.9277 31.0559 72.2959 30.1531 72.9533 29.4813C73.2825 29.1509 73.6755 28.8909 74.1085 28.7175C74.5415 28.5441 75.0051 28.4609 75.4715 28.4727C76.3621 28.4431 77.2315 28.7491 77.9071 29.3303L77.3171 30.1879C77.0821 29.9805 76.8095 29.8199 76.5143 29.7145C76.2115 29.6247 75.8969 29.5807 75.5811 29.5843C75.2621 29.5793 74.9451 29.6375 74.6483 29.7551C74.3517 29.8729 74.0811 30.0479 73.8521 30.2703C73.4089 30.7423 73.1621 31.3655 73.1621 32.0131C73.1621 32.6605 73.4089 33.2837 73.8521 33.7557C74.0663 33.9751 74.3227 34.1487 74.6055 34.2667C74.8885 34.3845 75.1923 34.4441 75.4989 34.4419C76.0653 34.4601 76.6251 34.3149 77.1111 34.0233L77.0907 32.1227Z" fill="#FDFDFD"/>
<path d="M80.7139 28.6387H81.8597V35.4243H80.7139V28.6387Z" fill="#FDFDFD"/>
<path d="M87.2794 29.6885V35.4243H86.1336V29.6885H84.0752V28.6387H89.3378V29.6885H87.2794Z" fill="#FDFDFD"/>
<path d="M91.9796 33.8807L91.2936 35.4243H90.0654L93.0568 28.6387H94.285L97.2694 35.4243H96.055L95.369 33.8807H91.9796ZM94.9092 32.8241L93.6742 30.0247L92.4462 32.8241H94.9092Z" fill="#FDFDFD"/>
<path d="M99.1904 35.4243V28.6387H100.336V34.3403H103.437V35.4243H99.1904Z" fill="#FDFDFD"/>
<path d="M111.342 29.5023C111.053 29.4907 110.768 29.5621 110.518 29.7081C110.416 29.7737 110.332 29.8655 110.277 29.9741C110.221 30.0825 110.196 30.2039 110.203 30.3255C110.193 30.4495 110.218 30.5737 110.273 30.6849C110.329 30.7961 110.414 30.8901 110.518 30.9569C110.95 31.1791 111.413 31.3363 111.891 31.4233C112.463 31.5271 113.003 31.7619 113.469 32.1095C113.655 32.2833 113.799 32.4971 113.891 32.7347C113.982 32.9725 114.019 33.2279 113.997 33.4817C114.002 33.7585 113.942 34.0327 113.823 34.2827C113.704 34.5327 113.529 34.7517 113.311 34.9225C112.81 35.3115 112.187 35.5085 111.554 35.4783C110.507 35.4853 109.496 35.0927 108.728 34.3805L109.448 33.5159C110.026 34.0641 110.785 34.3815 111.582 34.4079C111.893 34.4245 112.201 34.3403 112.46 34.1677C112.564 34.0987 112.648 34.0047 112.706 33.8943C112.763 33.7841 112.792 33.6609 112.789 33.5365C112.799 33.4215 112.78 33.3059 112.733 33.2003C112.686 33.0949 112.614 33.0029 112.522 32.9329C112.197 32.7425 111.842 32.6079 111.472 32.5349C111.085 32.4515 110.705 32.3415 110.333 32.2055C110.087 32.1079 109.856 31.9761 109.647 31.8145C109.447 31.6485 109.289 31.4377 109.185 31.1995C109.082 30.9611 109.035 30.7017 109.05 30.4423C109.037 30.1621 109.093 29.8831 109.212 29.6295C109.332 29.3759 109.512 29.1557 109.736 28.9877C110.231 28.6393 110.826 28.4611 111.431 28.4799C111.872 28.4797 112.31 28.5515 112.728 28.6927C113.131 28.8225 113.505 29.0275 113.832 29.2965L113.208 30.1883C112.97 29.9843 112.692 29.8323 112.391 29.7425C112.058 29.6025 111.703 29.5211 111.342 29.5023Z" fill="#FDFDFD"/>
<path d="M117.901 33.8737C118.064 34.0449 118.26 34.1811 118.477 34.2741C118.694 34.3671 118.927 34.4151 119.163 34.4151C119.399 34.4151 119.633 34.3671 119.85 34.2741C120.067 34.1811 120.263 34.0449 120.426 33.8737C120.754 33.4543 120.92 32.9305 120.892 32.3987V28.6387H122.038V32.4467C122.065 32.8583 122.007 33.2711 121.868 33.6593C121.728 34.0477 121.511 34.4033 121.229 34.7039C120.662 35.2089 119.929 35.4879 119.17 35.4879C118.411 35.4879 117.679 35.2089 117.112 34.7039C116.83 34.4033 116.612 34.0477 116.473 33.6593C116.333 33.2711 116.275 32.8583 116.302 32.4467V28.6387H117.448V32.3987C117.417 32.9287 117.578 33.4525 117.901 33.8737Z" fill="#FDFDFD"/>
<path d="M125.949 35.4243H124.803V28.6387H126.587L128.645 32.8995L130.703 28.6387H132.48V35.4243H131.321V30.1277L128.947 34.8343H128.302L125.942 30.1277L125.949 35.4243Z" fill="#FDFDFD"/>
<path d="M136.466 35.4243H135.32V28.6387H137.104L139.163 32.8995L141.221 28.6387H142.998V35.4243H141.852V30.1277L139.485 34.8343H138.84L136.487 30.1277L136.466 35.4243Z" fill="#FDFDFD"/>
<path d="M145.832 28.6387H146.978V35.4243H145.832V28.6387Z" fill="#FDFDFD"/>
<path d="M152.398 29.6885V35.4243H151.252V29.6885H149.193V28.6387H154.456V29.6885H152.398Z" fill="#FDFDFD"/>
<path d="M122.955 47.3372V45.714C122.955 45.375 123.009 45.0792 123.117 44.8266C123.233 44.574 123.413 44.3504 123.658 44.1556C123.904 43.9536 124.228 43.766 124.632 43.593L125.909 43.041C126.234 42.904 126.472 42.7344 126.623 42.5324C126.782 42.3304 126.862 42.0742 126.862 41.764C126.862 41.4466 126.764 41.1868 126.569 40.9848C126.375 40.7828 126.09 40.6818 125.714 40.6818C125.339 40.6818 125.054 40.7864 124.859 40.9956C124.665 41.2048 124.567 41.4862 124.567 41.8398H122.847C122.847 41.342 122.955 40.8946 123.171 40.4978C123.388 40.0938 123.709 39.7764 124.134 39.5456C124.56 39.3146 125.087 39.1992 125.714 39.1992C126.342 39.1992 126.865 39.311 127.284 39.5346C127.709 39.7584 128.03 40.0578 128.247 40.433C128.47 40.808 128.582 41.2302 128.582 41.699V41.829C128.582 42.435 128.416 42.9364 128.084 43.3332C127.753 43.7228 127.24 44.069 126.548 44.372L125.282 44.924C125.065 45.0178 124.91 45.1152 124.816 45.2162C124.73 45.3172 124.686 45.4542 124.686 45.6274V46.1686L124.264 45.8114H128.593V47.3372H122.955Z" fill="#FDFDFD"/>
<path d="M133.277 47.5428C132.649 47.5428 132.112 47.4418 131.664 47.2398C131.217 47.0306 130.853 46.7492 130.571 46.3958C130.297 46.0422 130.092 45.6346 129.955 45.173C129.825 44.704 129.76 44.2098 129.76 43.6902V43.0734C129.76 42.352 129.886 41.699 130.139 41.1146C130.391 40.5304 130.777 40.065 131.297 39.7186C131.816 39.3724 132.476 39.1992 133.277 39.1992C134.078 39.1992 134.734 39.3724 135.247 39.7186C135.766 40.065 136.152 40.5304 136.404 41.1146C136.657 41.699 136.783 42.352 136.783 43.0734V43.6902C136.783 44.2098 136.715 44.704 136.578 45.173C136.448 45.6346 136.242 46.0422 135.961 46.3958C135.687 46.7492 135.326 47.0306 134.879 47.2398C134.438 47.4418 133.905 47.5428 133.277 47.5428ZM133.277 45.9088C133.861 45.9088 134.294 45.7068 134.576 45.3028C134.864 44.8916 135.008 44.2566 135.008 43.3982C135.008 42.489 134.861 41.8362 134.565 41.4394C134.276 41.0354 133.847 40.8334 133.277 40.8334C132.693 40.8334 132.256 41.0354 131.967 41.4394C131.679 41.8362 131.535 42.4818 131.535 43.3764C131.535 44.2422 131.675 44.8808 131.957 45.292C132.245 45.7032 132.685 45.9088 133.277 45.9088Z" fill="#FDFDFD"/>
<path d="M138.046 47.3372V45.714C138.046 45.375 138.1 45.0792 138.208 44.8266C138.323 44.574 138.504 44.3504 138.749 44.1556C138.994 43.9536 139.319 43.766 139.723 43.593L141 43.041C141.325 42.904 141.563 42.7344 141.714 42.5324C141.873 42.3304 141.952 42.0742 141.952 41.764C141.952 41.4466 141.855 41.1868 141.66 40.9848C141.465 40.7828 141.18 40.6818 140.805 40.6818C140.43 40.6818 140.145 40.7864 139.951 40.9956C139.756 41.2048 139.658 41.4862 139.658 41.8398H137.938C137.938 41.342 138.046 40.8946 138.262 40.4978C138.479 40.0938 138.8 39.7764 139.225 39.5456C139.651 39.3146 140.178 39.1992 140.805 39.1992C141.433 39.1992 141.956 39.311 142.374 39.5346C142.8 39.7584 143.121 40.0578 143.338 40.433C143.561 40.808 143.673 41.2302 143.673 41.699V41.829C143.673 42.435 143.507 42.9364 143.175 43.3332C142.843 43.7228 142.331 44.069 141.639 44.372L140.372 44.924C140.156 45.0178 140.001 45.1152 139.907 45.2162C139.821 45.3172 139.777 45.4542 139.777 45.6274V46.1686L139.355 45.8114H143.684V47.3372H138.046Z" fill="#FDFDFD"/>
<path d="M147.589 47.5411C146.976 47.5411 146.442 47.4293 145.988 47.2057C145.54 46.9749 145.198 46.6647 144.96 46.2751C144.722 45.8855 144.603 45.4453 144.603 44.9547H146.312C146.312 45.2867 146.424 45.5571 146.648 45.7665C146.872 45.9685 147.185 46.0695 147.589 46.0695C147.856 46.0695 148.084 46.0189 148.271 45.9179C148.459 45.8169 148.603 45.6799 148.704 45.5067C148.805 45.3263 148.856 45.1243 148.856 44.9007C148.856 44.5543 148.744 44.2693 148.52 44.0457C148.304 43.8221 147.993 43.7103 147.589 43.7103C147.373 43.7103 147.182 43.7427 147.016 43.8077C146.857 43.8725 146.72 43.9519 146.605 44.0457L145.804 42.6929L148.195 41.1347L148.098 40.9507H144.927V39.4355H150.252V41.0805L147.492 42.8337L146.626 42.5955C146.771 42.5523 146.922 42.5199 147.081 42.4981C147.247 42.4693 147.423 42.4549 147.611 42.4549C148.224 42.4549 148.751 42.5559 149.191 42.7579C149.631 42.9599 149.97 43.2449 150.208 43.6129C150.454 43.9735 150.576 44.3957 150.576 44.8791V45.0089C150.576 45.4923 150.454 45.9251 150.208 46.3075C149.97 46.6899 149.628 46.9929 149.18 47.2165C148.74 47.4329 148.21 47.5411 147.589 47.5411Z" fill="#FDFDFD"/>
</svg>
