<svg width="156" height="48" viewBox="0 0 156 48" fill="none" xmlns="http://www.w3.org/2000/svg">
<path d="M1.55746 3.86981C2.41762 3.86981 3.11492 3.17251 3.11492 2.31235C3.11492 1.45218 2.41762 0.754883 1.55746 0.754883C0.6973 0.754883 0 1.45218 0 2.31235C0 3.17251 0.6973 3.86981 1.55746 3.86981Z" fill="#FDFDFD"/>
<path d="M1.55746 8.28094C2.41762 8.28094 3.11492 7.58364 3.11492 6.72348C3.11492 5.86332 2.41762 5.16602 1.55746 5.16602C0.6973 5.16602 0 5.86332 0 6.72348C0 7.58364 0.6973 8.28094 1.55746 8.28094Z" fill="#FDFDFD"/>
<path d="M1.55746 12.693C2.41762 12.693 3.11492 11.9957 3.11492 11.1356C3.11492 10.2754 2.41762 9.57812 1.55746 9.57812C0.6973 9.57812 0 10.2754 0 11.1356C0 11.9957 0.6973 12.693 1.55746 12.693Z" fill="#FDFDFD"/>
<path d="M1.55746 17.1042C2.41762 17.1042 3.11492 16.4069 3.11492 15.5467C3.11492 14.6866 2.41762 13.9893 1.55746 13.9893C0.6973 13.9893 0 14.6866 0 15.5467C0 16.4069 0.6973 17.1042 1.55746 17.1042Z" fill="#FDFDFD"/>
<path d="M1.55746 21.5232C2.41762 21.5232 3.11492 20.8258 3.11492 19.9657C3.11492 19.1055 2.41762 18.4082 1.55746 18.4082C0.6973 18.4082 0 19.1055 0 19.9657C0 20.8258 0.6973 21.5232 1.55746 21.5232Z" fill="#FDFDFD"/>
<path d="M1.55746 25.9343C2.41762 25.9343 3.11492 25.2371 3.11492 24.3769C3.11492 23.5167 2.41762 22.8193 1.55746 22.8193C0.6973 22.8193 0 23.5167 0 24.3769C0 25.2371 0.6973 25.9343 1.55746 25.9343Z" fill="#FDFDFD"/>
<path d="M1.55746 30.3462C2.41762 30.3462 3.11492 29.649 3.11492 28.7888C3.11492 27.9286 2.41762 27.2314 1.55746 27.2314C0.6973 27.2314 0 27.9286 0 28.7888C0 29.649 0.6973 30.3462 1.55746 30.3462Z" fill="#FDFDFD"/>
<path d="M1.55746 34.7586C2.41762 34.7586 3.11492 34.0612 3.11492 33.201C3.11492 32.341 2.41762 31.6436 1.55746 31.6436C0.6973 31.6436 0 32.341 0 33.201C0 34.0612 0.6973 34.7586 1.55746 34.7586Z" fill="#FDFDFD"/>
<path d="M1.55746 39.1763C2.41762 39.1763 3.11492 38.4791 3.11492 37.6189C3.11492 36.7587 2.41762 36.0615 1.55746 36.0615C0.6973 36.0615 0 36.7587 0 37.6189C0 38.4791 0.6973 39.1763 1.55746 39.1763Z" fill="#FDFDFD"/>
<path d="M1.55746 43.5886C2.41762 43.5886 3.11492 42.8912 3.11492 42.031C3.11492 41.171 2.41762 40.4736 1.55746 40.4736C0.6973 40.4736 0 41.171 0 42.031C0 42.8912 0.6973 43.5886 1.55746 43.5886Z" fill="#FDFDFD"/>
<path d="M5.99008 8.28094C6.85026 8.28094 7.54756 7.58364 7.54756 6.72348C7.54756 5.86332 6.85026 5.16602 5.99008 5.16602C5.12992 5.16602 4.43262 5.86332 4.43262 6.72348C4.43262 7.58364 5.12992 8.28094 5.99008 8.28094Z" fill="#FDFDFD"/>
<path d="M5.99008 12.693C6.85026 12.693 7.54756 11.9957 7.54756 11.1356C7.54756 10.2754 6.85026 9.57812 5.99008 9.57812C5.12992 9.57812 4.43262 10.2754 4.43262 11.1356C4.43262 11.9957 5.12992 12.693 5.99008 12.693Z" fill="#FDFDFD"/>
<path d="M5.99008 17.1042C6.85026 17.1042 7.54756 16.4069 7.54756 15.5467C7.54756 14.6866 6.85026 13.9893 5.99008 13.9893C5.12992 13.9893 4.43262 14.6866 4.43262 15.5467C4.43262 16.4069 5.12992 17.1042 5.99008 17.1042Z" fill="#FDFDFD"/>
<path d="M5.99008 21.5232C6.85026 21.5232 7.54756 20.8258 7.54756 19.9657C7.54756 19.1055 6.85026 18.4082 5.99008 18.4082C5.12992 18.4082 4.43262 19.1055 4.43262 19.9657C4.43262 20.8258 5.12992 21.5232 5.99008 21.5232Z" fill="#FDFDFD"/>
<path d="M5.99008 25.9343C6.85026 25.9343 7.54756 25.2371 7.54756 24.3769C7.54756 23.5167 6.85026 22.8193 5.99008 22.8193C5.12992 22.8193 4.43262 23.5167 4.43262 24.3769C4.43262 25.2371 5.12992 25.9343 5.99008 25.9343Z" fill="#FDFDFD"/>
<path d="M5.99008 30.3462C6.85026 30.3462 7.54756 29.649 7.54756 28.7888C7.54756 27.9286 6.85026 27.2314 5.99008 27.2314C5.12992 27.2314 4.43262 27.9286 4.43262 28.7888C4.43262 29.649 5.12992 30.3462 5.99008 30.3462Z" fill="#FDFDFD"/>
<path d="M5.99008 34.7586C6.85026 34.7586 7.54756 34.0612 7.54756 33.201C7.54756 32.341 6.85026 31.6436 5.99008 31.6436C5.12992 31.6436 4.43262 32.341 4.43262 33.201C4.43262 34.0612 5.12992 34.7586 5.99008 34.7586Z" fill="#FDFDFD"/>
<path d="M5.99008 39.1763C6.85026 39.1763 7.54756 38.4791 7.54756 37.6189C7.54756 36.7587 6.85026 36.0615 5.99008 36.0615C5.12992 36.0615 4.43262 36.7587 4.43262 37.6189C4.43262 38.4791 5.12992 39.1763 5.99008 39.1763Z" fill="#FDFDFD"/>
<path d="M5.99008 43.5886C6.85026 43.5886 7.54756 42.8912 7.54756 42.031C7.54756 41.171 6.85026 40.4736 5.99008 40.4736C5.12992 40.4736 4.43262 41.171 4.43262 42.031C4.43262 42.8912 5.12992 43.5886 5.99008 43.5886Z" fill="#FDFDFD"/>
<path d="M10.4286 21.5232C11.2887 21.5232 11.986 20.8258 11.986 19.9657C11.986 19.1055 11.2887 18.4082 10.4286 18.4082C9.56839 18.4082 8.87109 19.1055 8.87109 19.9657C8.87109 20.8258 9.56839 21.5232 10.4286 21.5232Z" fill="#FDFDFD"/>
<path d="M10.4286 25.9343C11.2887 25.9343 11.986 25.2371 11.986 24.3769C11.986 23.5167 11.2887 22.8193 10.4286 22.8193C9.56839 22.8193 8.87109 23.5167 8.87109 24.3769C8.87109 25.2371 9.56839 25.9343 10.4286 25.9343Z" fill="#FDFDFD"/>
<path d="M10.4286 30.3462C11.2887 30.3462 11.986 29.649 11.986 28.7888C11.986 27.9286 11.2887 27.2314 10.4286 27.2314C9.56839 27.2314 8.87109 27.9286 8.87109 28.7888C8.87109 29.649 9.56839 30.3462 10.4286 30.3462Z" fill="#FDFDFD"/>
<path d="M10.4286 34.7586C11.2887 34.7586 11.986 34.0612 11.986 33.201C11.986 32.341 11.2887 31.6436 10.4286 31.6436C9.56839 31.6436 8.87109 32.341 8.87109 33.201C8.87109 34.0612 9.56839 34.7586 10.4286 34.7586Z" fill="#FDFDFD"/>
<path d="M10.4286 39.1763C11.2887 39.1763 11.986 38.4791 11.986 37.6189C11.986 36.7587 11.2887 36.0615 10.4286 36.0615C9.56839 36.0615 8.87109 36.7587 8.87109 37.6189C8.87109 38.4791 9.56839 39.1763 10.4286 39.1763Z" fill="#FDFDFD"/>
<path d="M10.4286 43.5886C11.2887 43.5886 11.986 42.8912 11.986 42.031C11.986 41.171 11.2887 40.4736 10.4286 40.4736C9.56839 40.4736 8.87109 41.171 8.87109 42.031C8.87109 42.8912 9.56839 43.5886 10.4286 43.5886Z" fill="#FDFDFD"/>
<path d="M14.8612 21.5232C15.7213 21.5232 16.4186 20.8258 16.4186 19.9657C16.4186 19.1055 15.7213 18.4082 14.8612 18.4082C14.001 18.4082 13.3037 19.1055 13.3037 19.9657C13.3037 20.8258 14.001 21.5232 14.8612 21.5232Z" fill="#FDFDFD"/>
<path d="M14.8612 25.9343C15.7213 25.9343 16.4186 25.2371 16.4186 24.3769C16.4186 23.5167 15.7213 22.8193 14.8612 22.8193C14.001 22.8193 13.3037 23.5167 13.3037 24.3769C13.3037 25.2371 14.001 25.9343 14.8612 25.9343Z" fill="#FDFDFD"/>
<path d="M14.8612 30.3462C15.7213 30.3462 16.4186 29.649 16.4186 28.7888C16.4186 27.9286 15.7213 27.2314 14.8612 27.2314C14.001 27.2314 13.3037 27.9286 13.3037 28.7888C13.3037 29.649 14.001 30.3462 14.8612 30.3462Z" fill="#FDFDFD"/>
<path d="M14.8612 34.7586C15.7213 34.7586 16.4186 34.0612 16.4186 33.201C16.4186 32.341 15.7213 31.6436 14.8612 31.6436C14.001 31.6436 13.3037 32.341 13.3037 33.201C13.3037 34.0612 14.001 34.7586 14.8612 34.7586Z" fill="#FDFDFD"/>
<path d="M14.8612 39.1763C15.7213 39.1763 16.4186 38.4791 16.4186 37.6189C16.4186 36.7587 15.7213 36.0615 14.8612 36.0615C14.001 36.0615 13.3037 36.7587 13.3037 37.6189C13.3037 38.4791 14.001 39.1763 14.8612 39.1763Z" fill="#FDFDFD"/>
<path d="M19.3006 21.5232C20.1608 21.5232 20.858 20.8258 20.858 19.9657C20.858 19.1055 20.1608 18.4082 19.3006 18.4082C18.4404 18.4082 17.7432 19.1055 17.7432 19.9657C17.7432 20.8258 18.4404 21.5232 19.3006 21.5232Z" fill="#FDFDFD"/>
<path d="M19.3006 25.9343C20.1608 25.9343 20.858 25.2371 20.858 24.3769C20.858 23.5167 20.1608 22.8193 19.3006 22.8193C18.4404 22.8193 17.7432 23.5167 17.7432 24.3769C17.7432 25.2371 18.4404 25.9343 19.3006 25.9343Z" fill="#FDFDFD"/>
<path d="M19.3006 30.3462C20.1608 30.3462 20.858 29.649 20.858 28.7888C20.858 27.9286 20.1608 27.2314 19.3006 27.2314C18.4404 27.2314 17.7432 27.9286 17.7432 28.7888C17.7432 29.649 18.4404 30.3462 19.3006 30.3462Z" fill="#FDFDFD"/>
<path d="M19.3006 34.7586C20.1608 34.7586 20.858 34.0612 20.858 33.201C20.858 32.341 20.1608 31.6436 19.3006 31.6436C18.4404 31.6436 17.7432 32.341 17.7432 33.201C17.7432 34.0612 18.4404 34.7586 19.3006 34.7586Z" fill="#FDFDFD"/>
<path d="M23.739 21.5232C24.5992 21.5232 25.2966 20.8258 25.2966 19.9657C25.2966 19.1055 24.5992 18.4082 23.739 18.4082C22.879 18.4082 22.1816 19.1055 22.1816 19.9657C22.1816 20.8258 22.879 21.5232 23.739 21.5232Z" fill="#FDFDFD"/>
<path d="M23.739 25.9343C24.5992 25.9343 25.2966 25.2371 25.2966 24.3769C25.2966 23.5167 24.5992 22.8193 23.739 22.8193C22.879 22.8193 22.1816 23.5167 22.1816 24.3769C22.1816 25.2371 22.879 25.9343 23.739 25.9343Z" fill="#FDFDFD"/>
<path d="M28.1719 25.9343C29.0319 25.9343 29.7293 25.2371 29.7293 24.3769C29.7293 23.5167 29.0319 22.8193 28.1719 22.8193C27.3117 22.8193 26.6143 23.5167 26.6143 24.3769C26.6143 25.2371 27.3117 25.9343 28.1719 25.9343Z" fill="#FDFDFD"/>
<path d="M23.739 30.3462C24.5992 30.3462 25.2966 29.649 25.2966 28.7888C25.2966 27.9286 24.5992 27.2314 23.739 27.2314C22.879 27.2314 22.1816 27.9286 22.1816 28.7888C22.1816 29.649 22.879 30.3462 23.739 30.3462Z" fill="#FDFDFD"/>
<path d="M23.739 34.7586C24.5992 34.7586 25.2966 34.0612 25.2966 33.201C25.2966 32.341 24.5992 31.6436 23.739 31.6436C22.879 31.6436 22.1816 32.341 22.1816 33.201C22.1816 34.0612 22.879 34.7586 23.739 34.7586Z" fill="#FDFDFD"/>
<path d="M28.1719 30.3462C29.0319 30.3462 29.7293 29.649 29.7293 28.7888C29.7293 27.9286 29.0319 27.2314 28.1719 27.2314C27.3117 27.2314 26.6143 27.9286 26.6143 28.7888C26.6143 29.649 27.3117 30.3462 28.1719 30.3462Z" fill="#FDFDFD"/>
<path d="M28.1719 34.7586C29.0319 34.7586 29.7293 34.0612 29.7293 33.201C29.7293 32.341 29.0319 31.6436 28.1719 31.6436C27.3117 31.6436 26.6143 32.341 26.6143 33.201C26.6143 34.0612 27.3117 34.7586 28.1719 34.7586Z" fill="#FDFDFD"/>
<path d="M32.6101 30.3462C33.4703 30.3462 34.1675 29.649 34.1675 28.7888C34.1675 27.9286 33.4703 27.2314 32.6101 27.2314C31.7499 27.2314 31.0527 27.9286 31.0527 28.7888C31.0527 29.649 31.7499 30.3462 32.6101 30.3462Z" fill="#FDFDFD"/>
<path d="M32.6101 34.7586C33.4703 34.7586 34.1675 34.0612 34.1675 33.201C34.1675 32.341 33.4703 31.6436 32.6101 31.6436C31.7499 31.6436 31.0527 32.341 31.0527 33.201C31.0527 34.0612 31.7499 34.7586 32.6101 34.7586Z" fill="#FDFDFD"/>
<path d="M19.3006 38.6277C20.1608 38.6277 20.858 37.9303 20.858 37.0703C20.858 36.2101 20.1608 35.5127 19.3006 35.5127C18.4404 35.5127 17.7432 36.2101 17.7432 37.0703C17.7432 37.9303 18.4404 38.6277 19.3006 38.6277Z" fill="#FDFDFD"/>
<path d="M23.739 38.6277C24.5992 38.6277 25.2966 37.9303 25.2966 37.0703C25.2966 36.2101 24.5992 35.5127 23.739 35.5127C22.879 35.5127 22.1816 36.2101 22.1816 37.0703C22.1816 37.9303 22.879 38.6277 23.739 38.6277Z" fill="#FDFDFD"/>
<path d="M28.1719 38.6277C29.0319 38.6277 29.7293 37.9303 29.7293 37.0703C29.7293 36.2101 29.0319 35.5127 28.1719 35.5127C27.3117 35.5127 26.6143 36.2101 26.6143 37.0703C26.6143 37.9303 27.3117 38.6277 28.1719 38.6277Z" fill="#FDFDFD"/>
<path d="M32.6101 38.6277C33.4703 38.6277 34.1675 37.9303 34.1675 37.0703C34.1675 36.2101 33.4703 35.5127 32.6101 35.5127C31.7499 35.5127 31.0527 36.2101 31.0527 37.0703C31.0527 37.9303 31.7499 38.6277 32.6101 38.6277Z" fill="#FDFDFD"/>
<path d="M37.0428 30.3462C37.903 30.3462 38.6003 29.649 38.6003 28.7888C38.6003 27.9286 37.903 27.2314 37.0428 27.2314C36.1828 27.2314 35.4854 27.9286 35.4854 28.7888C35.4854 29.649 36.1828 30.3462 37.0428 30.3462Z" fill="#FDFDFD"/>
<path d="M37.0428 34.7586C37.903 34.7586 38.6003 34.0612 38.6003 33.201C38.6003 32.341 37.903 31.6436 37.0428 31.6436C36.1828 31.6436 35.4854 32.341 35.4854 33.201C35.4854 34.0612 36.1828 34.7586 37.0428 34.7586Z" fill="#FDFDFD"/>
<path d="M37.0428 39.1763C37.903 39.1763 38.6003 38.4791 38.6003 37.6189C38.6003 36.7587 37.903 36.0615 37.0428 36.0615C36.1828 36.0615 35.4854 36.7587 35.4854 37.6189C35.4854 38.4791 36.1828 39.1763 37.0428 39.1763Z" fill="#FDFDFD"/>
<path d="M37.0428 43.5886C37.903 43.5886 38.6003 42.8912 38.6003 42.031C38.6003 41.171 37.903 40.4736 37.0428 40.4736C36.1828 40.4736 35.4854 41.171 35.4854 42.031C35.4854 42.8912 36.1828 43.5886 37.0428 43.5886Z" fill="#FDFDFD"/>
<path d="M41.4822 30.3462C42.3424 30.3462 43.0396 29.649 43.0396 28.7888C43.0396 27.9286 42.3424 27.2314 41.4822 27.2314C40.622 27.2314 39.9248 27.9286 39.9248 28.7888C39.9248 29.649 40.622 30.3462 41.4822 30.3462Z" fill="#FDFDFD"/>
<path d="M41.4822 34.7586C42.3424 34.7586 43.0396 34.0612 43.0396 33.201C43.0396 32.341 42.3424 31.6436 41.4822 31.6436C40.622 31.6436 39.9248 32.341 39.9248 33.201C39.9248 34.0612 40.622 34.7586 41.4822 34.7586Z" fill="#FDFDFD"/>
<path d="M41.4822 39.1763C42.3424 39.1763 43.0396 38.4791 43.0396 37.6189C43.0396 36.7587 42.3424 36.0615 41.4822 36.0615C40.622 36.0615 39.9248 36.7587 39.9248 37.6189C39.9248 38.4791 40.622 39.1763 41.4822 39.1763Z" fill="#FDFDFD"/>
<path d="M41.4822 43.5886C42.3424 43.5886 43.0396 42.8912 43.0396 42.031C43.0396 41.171 42.3424 40.4736 41.4822 40.4736C40.622 40.4736 39.9248 41.171 39.9248 42.031C39.9248 42.8912 40.622 43.5886 41.4822 43.5886Z" fill="#FDFDFD"/>
<path d="M45.9138 34.7586C46.774 34.7586 47.4714 34.0612 47.4714 33.201C47.4714 32.341 46.774 31.6436 45.9138 31.6436C45.0536 31.6436 44.3564 32.341 44.3564 33.201C44.3564 34.0612 45.0536 34.7586 45.9138 34.7586Z" fill="#FDFDFD"/>
<path d="M49.8045 34.7586C50.6647 34.7586 51.3621 34.0612 51.3621 33.201C51.3621 32.341 50.6647 31.6436 49.8045 31.6436C48.9443 31.6436 48.2471 32.341 48.2471 33.201C48.2471 34.0612 48.9443 34.7586 49.8045 34.7586Z" fill="#FDFDFD"/>
<path d="M45.9138 43.5886C46.774 43.5886 47.4714 42.8912 47.4714 42.031C47.4714 41.171 46.774 40.4736 45.9138 40.4736C45.0536 40.4736 44.3564 41.171 44.3564 42.031C44.3564 42.8912 45.0536 43.5886 45.9138 43.5886Z" fill="#FDFDFD"/>
<path d="M45.9138 47.9998C46.774 47.9998 47.4714 47.3026 47.4714 46.4424C47.4714 45.5822 46.774 44.8848 45.9138 44.8848C45.0536 44.8848 44.3564 45.5822 44.3564 46.4424C44.3564 47.3026 45.0536 47.9998 45.9138 47.9998Z" fill="#FDFDFD"/>
<path d="M50.3535 30.3462C51.2137 30.3462 51.9109 29.649 51.9109 28.7888C51.9109 27.9286 51.2137 27.2314 50.3535 27.2314C49.4933 27.2314 48.7959 27.9286 48.7959 28.7888C48.7959 29.649 49.4933 30.3462 50.3535 30.3462Z" fill="#FDFDFD"/>
<path d="M50.3535 43.5886C51.2137 43.5886 51.9109 42.8912 51.9109 42.031C51.9109 41.171 51.2137 40.4736 50.3535 40.4736C49.4933 40.4736 48.7959 41.171 48.7959 42.031C48.7959 42.8912 49.4933 43.5886 50.3535 43.5886Z" fill="#FDFDFD"/>
<path d="M50.3535 47.9998C51.2137 47.9998 51.9109 47.3026 51.9109 46.4424C51.9109 45.5822 51.2137 44.8848 50.3535 44.8848C49.4933 44.8848 48.7959 45.5822 48.7959 46.4424C48.7959 47.3026 49.4933 47.9998 50.3535 47.9998Z" fill="#FDFDFD"/>
<path d="M81.7089 11.7873C81.7089 15.5746 80.7689 18.4883 78.8891 20.5284C77.0091 22.5684 74.3127 23.586 70.7999 23.5814C67.2869 23.5814 64.5929 22.5638 62.7175 20.5284C60.8421 18.4929 59.9021 15.5678 59.8975 11.753C59.8975 7.93824 60.8399 5.02688 62.7243 3.01886C64.6089 1.01086 67.3121 0.00457404 70.8341 0C74.3561 0 77.0479 1.01315 78.9095 3.03946C80.7757 5.07032 81.7089 7.97942 81.7089 11.7873ZM64.9885 11.7873C64.9885 14.3442 65.4733 16.2699 66.4431 17.5643C66.9551 18.22 67.6199 18.7403 68.3793 19.0799C69.1387 19.4196 69.9697 19.5682 70.7999 19.5129C74.6787 19.5129 76.6157 16.9377 76.6111 11.7873C76.6065 6.63694 74.6809 4.05488 70.8341 4.04116C70.0005 3.98736 69.1665 4.13726 68.4039 4.47794C67.6411 4.81862 66.9729 5.33984 66.4567 5.99656C65.4757 7.29332 64.9885 9.22814 64.9885 11.7873Z" fill="#FDFDFD"/>
<path d="M95.1488 10.4081H104.24V22.2847C102.885 22.7477 101.495 23.0965 100.082 23.3275C98.7598 23.5209 97.425 23.6173 96.0888 23.6157C92.6308 23.6157 89.9916 22.6003 88.1712 20.5693C86.3506 18.5385 85.4358 15.6225 85.4268 11.8215C85.4268 8.12112 86.4856 5.23718 88.6034 3.16972C90.7212 1.10224 93.6622 0.0570732 97.4266 0.034203C99.7658 0.0303322 102.08 0.509156 104.226 1.44072L102.614 5.33094C100.999 4.50774 99.212 4.07754 97.3992 4.07538C96.4518 4.03188 95.5064 4.19742 94.6302 4.56024C93.754 4.92308 92.9682 5.47432 92.329 6.17486C91.0054 7.76546 90.3294 9.79614 90.4352 11.8627C90.4352 14.3532 90.943 16.2469 91.9584 17.5574C92.4888 18.2163 93.169 18.7389 93.9424 19.0815C94.7158 19.424 95.56 19.5766 96.4044 19.5265C97.4392 19.5249 98.4714 19.4192 99.485 19.2109V14.4081H95.142L95.1488 10.4081Z" fill="#FDFDFD"/>
<path d="M128.343 0.363281V15.1832C128.375 16.7434 127.981 18.2829 127.204 19.636C126.434 20.923 125.29 21.945 123.925 22.5656C122.329 23.2772 120.594 23.624 118.847 23.581C115.897 23.581 113.61 22.8264 111.986 21.317C111.163 20.521 110.519 19.5583 110.098 18.4934C109.677 17.4285 109.488 16.2858 109.544 15.142V0.363281H114.388V14.4079C114.388 16.1712 114.738 17.4679 115.451 18.2912C116.165 19.1146 117.338 19.5331 118.978 19.5331C120.617 19.5331 121.722 19.1146 122.408 18.2844C123.094 17.4542 123.485 16.1506 123.485 14.3736V0.363281H128.343Z" fill="#FDFDFD"/>
<path d="M154.271 23.2724H148.096L138.133 5.94133H137.989C138.191 9.00137 138.291 11.1832 138.291 12.4868V23.2724H133.948V0.363281H140.075L150.024 17.5159H150.14C149.982 14.5382 149.9 12.4387 149.9 11.2038V0.363281H154.271V23.2724Z" fill="#FDFDFD"/>
<path d="M64.9671 29.5028C65.3001 29.8186 65.5603 30.2032 65.7297 30.6298C65.8991 31.0562 65.9737 31.5146 65.9483 31.9728C65.9715 32.4334 65.8989 32.894 65.7347 33.3252C65.5705 33.7562 65.3185 34.1486 64.9945 34.477C64.1815 35.1506 63.1379 35.4804 62.0855 35.3964H59.8281V28.6382H62.1609C63.1719 28.5624 64.1741 28.8712 64.9671 29.5028ZM64.7955 32.0002C64.7955 30.4496 63.9037 29.6674 62.1197 29.6674H60.9739V34.3192H62.2501C62.9297 34.3658 63.6021 34.1578 64.1369 33.736C64.3617 33.5144 64.5367 33.2474 64.6503 32.9528C64.7639 32.6582 64.8135 32.3428 64.7955 32.0276V32.0002Z" fill="#FDFDFD"/>
<path d="M68.3984 28.6377H69.5372V35.4233H68.3984V28.6377Z" fill="#FDFDFD"/>
<path d="M77.0907 32.1236H78.2159V34.4428C77.8627 34.8084 77.4345 35.0928 76.9607 35.2764C76.4867 35.46 75.9785 35.5384 75.4715 35.5062C75.0063 35.5178 74.5439 35.4358 74.1111 35.2648C73.6785 35.094 73.2849 34.8378 72.9533 34.5114C72.2959 33.8394 71.9277 32.9368 71.9277 31.9968C71.9277 31.0568 72.2959 30.154 72.9533 29.4822C73.2825 29.1518 73.6755 28.8918 74.1085 28.7184C74.5415 28.545 75.0051 28.4618 75.4715 28.4736C76.3621 28.444 77.2315 28.75 77.9071 29.3312L77.3171 30.1888C77.0821 29.9814 76.8095 29.8208 76.5143 29.7154C76.2115 29.6256 75.8969 29.5816 75.5811 29.5852C75.2621 29.5802 74.9451 29.6384 74.6483 29.756C74.3517 29.8738 74.0811 30.0488 73.8521 30.2712C73.4089 30.7432 73.1621 31.3664 73.1621 32.014C73.1621 32.6614 73.4089 33.2846 73.8521 33.7566C74.0663 33.976 74.3227 34.1496 74.6055 34.2676C74.8885 34.3854 75.1923 34.445 75.4989 34.4428C76.0653 34.461 76.6251 34.3158 77.1111 34.0242L77.0907 32.1236Z" fill="#FDFDFD"/>
<path d="M80.7139 28.6377H81.8597V35.4233H80.7139V28.6377Z" fill="#FDFDFD"/>
<path d="M87.2794 29.6875V35.4233H86.1336V29.6875H84.0752V28.6377H89.3378V29.6875H87.2794Z" fill="#FDFDFD"/>
<path d="M91.9796 33.8797L91.2936 35.4233H90.0654L93.0568 28.6377H94.285L97.2694 35.4233H96.055L95.369 33.8797H91.9796ZM94.9092 32.8231L93.6742 30.0237L92.4462 32.8231H94.9092Z" fill="#FDFDFD"/>
<path d="M99.1904 35.4233V28.6377H100.336V34.3393H103.437V35.4233H99.1904Z" fill="#FDFDFD"/>
<path d="M111.342 29.5023C111.053 29.4907 110.768 29.5621 110.518 29.7081C110.416 29.7737 110.332 29.8655 110.277 29.9741C110.221 30.0825 110.196 30.2039 110.203 30.3255C110.193 30.4495 110.218 30.5737 110.273 30.6849C110.329 30.7961 110.414 30.8901 110.518 30.9569C110.95 31.1791 111.413 31.3363 111.891 31.4233C112.463 31.5271 113.003 31.7619 113.469 32.1095C113.655 32.2833 113.799 32.4971 113.891 32.7347C113.982 32.9725 114.019 33.2279 113.997 33.4817C114.002 33.7585 113.942 34.0327 113.823 34.2827C113.704 34.5327 113.529 34.7517 113.311 34.9225C112.81 35.3115 112.187 35.5085 111.554 35.4783C110.507 35.4853 109.496 35.0927 108.728 34.3805L109.448 33.5159C110.026 34.0641 110.785 34.3815 111.582 34.4079C111.893 34.4245 112.201 34.3403 112.46 34.1677C112.564 34.0987 112.648 34.0047 112.706 33.8943C112.763 33.7841 112.792 33.6609 112.789 33.5365C112.799 33.4215 112.78 33.3059 112.733 33.2003C112.686 33.0949 112.614 33.0029 112.522 32.9329C112.197 32.7425 111.842 32.6079 111.472 32.5349C111.085 32.4515 110.705 32.3415 110.333 32.2055C110.087 32.1079 109.856 31.9761 109.647 31.8145C109.447 31.6485 109.289 31.4377 109.185 31.1995C109.082 30.9611 109.035 30.7017 109.05 30.4423C109.037 30.1621 109.093 29.8831 109.212 29.6295C109.332 29.3759 109.512 29.1557 109.736 28.9877C110.231 28.6393 110.826 28.4611 111.431 28.4799C111.872 28.4797 112.31 28.5515 112.728 28.6927C113.131 28.8225 113.505 29.0275 113.832 29.2965L113.208 30.1883C112.97 29.9843 112.692 29.8323 112.391 29.7425C112.058 29.6025 111.703 29.5211 111.342 29.5023Z" fill="#FDFDFD"/>
<path d="M117.901 33.8727C118.064 34.0439 118.26 34.1801 118.477 34.2731C118.694 34.3661 118.927 34.4141 119.163 34.4141C119.399 34.4141 119.633 34.3661 119.85 34.2731C120.067 34.1801 120.263 34.0439 120.426 33.8727C120.754 33.4533 120.92 32.9295 120.892 32.3977V28.6377H122.038V32.4457C122.065 32.8573 122.007 33.2701 121.868 33.6583C121.728 34.0467 121.511 34.4023 121.229 34.7029C120.662 35.2079 119.929 35.4869 119.17 35.4869C118.411 35.4869 117.679 35.2079 117.112 34.7029C116.83 34.4023 116.612 34.0467 116.473 33.6583C116.333 33.2701 116.275 32.8573 116.302 32.4457V28.6377H117.448V32.3977C117.417 32.9277 117.578 33.4515 117.901 33.8727Z" fill="#FDFDFD"/>
<path d="M125.949 35.4233H124.803V28.6377H126.587L128.645 32.8985L130.703 28.6377H132.48V35.4233H131.321V30.1267L128.947 34.8333H128.302L125.942 30.1267L125.949 35.4233Z" fill="#FDFDFD"/>
<path d="M136.466 35.4233H135.32V28.6377H137.104L139.163 32.8985L141.221 28.6377H142.998V35.4233H141.852V30.1267L139.485 34.8333H138.84L136.487 30.1267L136.466 35.4233Z" fill="#FDFDFD"/>
<path d="M145.832 28.6377H146.978V35.4233H145.832V28.6377Z" fill="#FDFDFD"/>
<path d="M152.398 29.6875V35.4233H151.252V29.6875H149.193V28.6377H154.456V29.6875H152.398Z" fill="#FDFDFD"/>
</svg>
