<svg width="163" height="48" viewBox="0 0 163 48" fill="none" xmlns="http://www.w3.org/2000/svg">
<path d="M156.89 48H7.13241C3.83777 48 1.14209 45.3 1.14209 42V6.00002C1.14209 2.7 3.83772 0 7.13241 0H156.89C160.185 0 162.881 2.7 162.881 6.00002V42C162.881 45.3 160.185 48 156.89 48Z" fill="#131815"/>
<path d="M156.89 0H7.13241C3.83777 0 1.14209 2.7 1.14209 6.00002V42C1.14209 45.3 3.83772 48 7.13241 48H156.89C160.185 48 162.881 45.3 162.881 42V6.00002C162.881 2.7 160.185 0 156.89 0ZM156.89 0.959969C159.665 0.959969 161.922 3.22129 161.922 6.00002V42C161.922 44.7792 159.665 47.0405 156.89 47.0405H7.13241C4.3582 47.0405 2.10055 44.7792 2.10055 42V6.00002C2.10055 3.22129 4.35815 0.960024 7.13241 0.960024L156.89 0.959969Z" fill="#A6A6A6"/>
<path d="M129.258 36.0003H131.494V20.9989H129.258V36.0003ZM149.394 26.4027L146.832 32.9066H146.755L144.095 26.4027H141.687L145.675 35.493L143.402 40.5495H145.734L151.88 26.4027H149.394ZM136.717 34.2964C135.983 34.2964 134.963 33.9299 134.963 33.0223C134.963 31.8644 136.235 31.4207 137.332 31.4207C138.316 31.4207 138.776 31.633 139.374 31.9227C139.201 33.3121 138.006 34.2964 136.717 34.2964ZM136.986 26.0746C135.367 26.0746 133.692 26.7889 132.998 28.3715L134.981 29.2011C135.406 28.3715 136.195 28.1009 137.024 28.1009C138.181 28.1009 139.356 28.796 139.374 30.0313V30.1855C138.97 29.9538 138.103 29.6066 137.043 29.6066C134.905 29.6066 132.726 30.7836 132.726 32.9838C132.726 34.9911 134.48 36.2844 136.445 36.2844C137.95 36.2844 138.776 35.6089 139.298 34.8176H139.374V35.9754H141.532V30.2238C141.532 27.5609 139.549 26.0746 136.986 26.0746ZM123.17 28.2289H119.99V23.0868H123.17C124.841 23.0868 125.79 24.4728 125.79 25.6577C125.79 26.8203 124.841 28.2289 123.17 28.2289ZM123.112 20.9989H117.756V36.0003H119.99V30.3168H123.112C125.59 30.3168 128.026 28.5199 128.026 25.6577C128.026 22.7956 125.59 20.9989 123.112 20.9989ZM93.9023 34.2991C92.3579 34.2991 91.0649 33.004 91.0649 31.2252C91.0649 29.4276 92.3579 28.1127 93.9023 28.1127C95.4271 28.1127 96.6237 29.4275 96.6237 31.2252C96.6237 33.004 95.4271 34.2991 93.9023 34.2991ZM96.4692 27.2427H96.392C95.8904 26.6436 94.9248 26.1023 93.7091 26.1023C91.1613 26.1023 88.826 28.3446 88.826 31.2252C88.826 34.0864 91.1612 36.3097 93.7091 36.3097C94.9248 36.3097 95.8904 35.7683 96.392 35.1499H96.4692V35.8844C96.4692 37.8374 95.4271 38.8813 93.7479 38.8813C92.3776 38.8813 91.5282 37.895 91.1804 37.0638L89.2314 37.8758C89.791 39.2291 91.2774 40.8917 93.7479 40.8917C96.3728 40.8917 98.5925 39.3448 98.5925 35.5752V26.4115H96.4692V27.2427ZM100.136 36.0003H102.375V20.9983H100.136V36.0003ZM105.676 31.0513C105.618 29.0791 107.201 28.0742 108.339 28.0742C109.228 28.0742 109.981 28.5185 110.231 29.1571L105.676 31.0513ZM112.624 29.3501C112.201 28.2091 110.906 26.1023 108.262 26.1023C105.637 26.1023 103.456 28.1707 103.456 31.206C103.456 34.0672 105.618 36.3097 108.513 36.3097C110.849 36.3097 112.201 34.879 112.759 34.0479L111.023 32.8877C110.444 33.7385 109.652 34.2991 108.513 34.2991C107.374 34.2991 106.564 33.777 106.043 32.7528L112.855 29.9299L112.624 29.3501ZM58.3424 27.6683V29.8334H63.5151C63.3606 31.0513 62.9553 31.9405 62.3375 32.5591C61.585 33.3134 60.4076 34.1446 58.3423 34.1446C55.1576 34.1446 52.6679 31.5734 52.6679 28.3835C52.6679 25.1938 55.1576 22.6223 58.3424 22.6223C60.0603 22.6223 61.3145 23.2991 62.2411 24.169L63.7659 22.6419C62.4728 21.4043 60.7548 20.457 58.3424 20.457C53.9802 20.457 50.313 24.0144 50.313 28.3835C50.313 32.7528 53.9802 36.3097 58.3424 36.3097C60.6972 36.3097 62.4728 35.5368 63.8623 34.0864C65.2907 32.6558 65.7348 30.6454 65.7348 29.0215C65.7348 28.5185 65.6963 28.055 65.6187 27.6683H58.3424ZM71.6156 34.2991C70.0712 34.2991 68.7393 33.0232 68.7393 31.206C68.7393 29.3693 70.0712 28.1127 71.6156 28.1127C73.1595 28.1127 74.4914 29.3693 74.4914 31.206C74.4914 33.0232 73.1595 34.2991 71.6156 34.2991ZM71.6156 26.1023C68.7972 26.1023 66.5003 28.2481 66.5003 31.206C66.5003 34.1446 68.7972 36.3097 71.6156 36.3097C74.4333 36.3097 76.7302 34.1446 76.7302 31.206C76.7302 28.2481 74.4333 26.1023 71.6156 26.1023ZM82.7733 34.2991C81.2296 34.2991 79.8976 33.0232 79.8976 31.206C79.8976 29.3693 81.2296 28.1127 82.7734 28.1127C84.3174 28.1127 85.6492 29.3693 85.6492 31.206C85.6492 33.0232 84.3173 34.2991 82.7733 34.2991ZM82.7733 26.1023C79.9552 26.1023 77.6588 28.2481 77.6588 31.206C77.6588 34.1446 79.9552 36.3097 82.7734 36.3097C85.5912 36.3097 87.8883 34.1446 87.8883 31.206C87.8883 28.2481 85.5912 26.1023 82.7733 26.1023Z" fill="white"/>
<path d="M13.7318 9.13368C13.3298 9.49701 13.0898 10.103 13.0898 10.9075V10.7256V37.2709V37.0961C13.0898 37.839 13.2957 38.4127 13.6442 38.7822L13.7333 38.8675C14.0155 39.1225 14.3772 39.2584 14.792 39.2579C15.1972 39.2579 15.653 39.1285 16.1341 38.8553L33.5242 28.9585L39.4976 25.5587C40.2563 25.127 40.6822 24.5701 40.7533 24.0029V24.0006C40.6822 23.4321 40.2563 22.8756 39.4977 22.4438L33.5238 19.0445L16.1341 9.1477C15.6521 8.874 15.1958 8.74414 14.7896 8.74414C14.3754 8.74414 14.014 8.87913 13.7318 9.13368Z" fill="#00C1FF"/>
<path d="M13.7334 38.8686L13.6442 38.7833C13.2957 38.4139 13.0898 37.8401 13.0898 37.0972V37.272V10.7333V10.9086C13.0898 10.1041 13.3298 9.4981 13.7318 9.13477L28.5756 24.0022L13.7334 38.8686Z" fill="url(#paint0_linear_405_10079)"/>
<path d="M33.5243 28.959L28.5757 24.0016L33.5238 19.0449L39.4978 22.4443C40.2564 22.8761 40.6823 23.4326 40.7534 24.0011V24.0033C40.6823 24.5706 40.2564 25.1275 39.4978 25.5592L33.5243 28.959Z" fill="url(#paint1_linear_405_10079)"/>
<path d="M14.7924 39.2588C14.3779 39.2592 14.016 39.1237 13.7339 38.8688L28.5763 24.002L33.5248 28.9594L16.1347 38.8561C15.6536 39.1294 15.1977 39.2588 14.7924 39.2588Z" fill="url(#paint2_linear_405_10079)"/>
<path d="M28.5758 24.0011L13.7319 9.13368C14.0142 8.87913 14.3755 8.74414 14.7896 8.74414C15.1959 8.74414 15.6522 8.87395 16.1342 9.1477L33.524 19.0444L28.5758 24.0011Z" fill="url(#paint3_linear_405_10079)"/>
<path d="M14.7926 39.4342C14.3779 39.4342 14.0157 39.2987 13.7334 39.0437C13.7322 39.0426 13.7306 39.0419 13.7293 39.0409L13.6521 38.9655C13.6497 38.9631 13.6474 38.9603 13.6445 38.9575L13.7335 38.8684C14.0158 39.1234 14.3775 39.2588 14.7922 39.2584C15.1973 39.2584 15.6532 39.129 16.1343 38.8558L33.5245 28.959L33.6359 29.0707L33.5231 29.1348L16.1343 39.031C15.6958 39.28 15.2788 39.4098 14.902 39.4314C14.8656 39.4332 14.8291 39.4341 14.7926 39.4342Z" fill="url(#paint4_linear_405_10079)"/>
<path d="M13.6442 38.9567C13.2957 38.5872 13.0898 38.0139 13.0898 37.2706V37.0957C13.0898 37.8386 13.2957 38.4123 13.6442 38.7818L13.7333 38.8671L13.6442 38.9567Z" fill="url(#paint5_linear_405_10079)"/>
<path d="M33.6359 29.0712L33.5244 28.9596L39.4978 25.5598C40.2565 25.1281 40.6824 24.5712 40.7535 24.0039C40.7535 24.2122 40.7072 24.4202 40.6151 24.6228C40.4292 25.0311 40.0568 25.4169 39.4979 25.7351L33.6359 29.0712Z" fill="url(#paint6_linear_405_10079)"/>
<path d="M40.7535 24.0014C40.6824 23.4328 40.2565 22.8764 39.4979 22.4447L33.5239 19.0453L33.6353 18.9336L39.4979 22.2698C40.3343 22.7461 40.7531 23.3736 40.7535 24.0014Z" fill="url(#paint7_linear_405_10079)"/>
<path d="M13.0898 10.9068V10.7235C13.0898 10.6574 13.0916 10.5927 13.095 10.5299V10.5271L13.0953 10.5243V10.5172C13.1314 9.87735 13.3298 9.37822 13.6442 9.04492L13.7318 9.13299C13.3298 9.49638 13.0898 10.1024 13.0898 10.9068Z" fill="url(#paint8_linear_405_10079)"/>
<path d="M33.5239 19.044L16.1343 9.1472C15.6522 8.8735 15.196 8.74369 14.7898 8.74369C14.3755 8.74369 14.0142 8.87868 13.7321 9.13323L13.6445 9.04511C13.6719 9.0161 13.7004 8.98813 13.7297 8.96124C13.7307 8.96027 13.7321 8.9593 13.7331 8.95838C14.0129 8.70577 14.3704 8.57078 14.7809 8.56836H14.7898C15.196 8.56836 15.6522 8.69822 16.1343 8.97203L33.6359 18.932L33.5239 19.044Z" fill="url(#paint9_linear_405_10079)"/>
<path d="M57.3371 10.8451H56.316C56.1153 10.1644 55.548 9.78911 54.8411 9.78911C53.7589 9.78911 53.1131 10.6531 53.1131 12.0582C53.1131 13.4633 53.7502 14.3099 54.8411 14.3099C55.5218 14.3099 56.0716 13.9608 56.2985 13.2888H57.3283C57.0054 14.467 56.0105 15.1302 54.8411 15.1302C53.148 15.1302 52.1182 13.9695 52.1182 12.0582C52.1182 10.1557 53.1567 8.96875 54.8673 8.96875C56.0454 8.96875 57.0578 9.61457 57.3371 10.8451Z" fill="white"/>
<path d="M60.1868 15.1315C58.834 15.1315 58.0137 14.2151 58.0137 12.6965C58.0137 11.1169 58.8602 10.2441 60.1868 10.2441C61.5395 10.2441 62.3599 11.178 62.3599 12.6965C62.3599 14.2675 61.5133 15.1315 60.1868 15.1315ZM60.1868 14.346C60.9809 14.346 61.4086 13.77 61.4086 12.6965C61.4086 11.6318 60.9722 11.0296 60.1868 11.0296C59.4013 11.0296 58.9649 11.6144 58.9649 12.6965C58.9649 13.7525 59.4013 14.346 60.1868 14.346Z" fill="white"/>
<path d="M63.269 15.018V10.3663H64.2029V10.9598C64.4996 10.4798 64.9621 10.2441 65.512 10.2441C66.1316 10.2441 66.5941 10.5147 66.821 11.0471C67.1265 10.5147 67.6327 10.2441 68.2436 10.2441C69.1599 10.2441 69.7534 10.8114 69.7534 11.9111V15.018H68.8196V12.1031C68.8196 11.4311 68.5665 11.0209 67.9905 11.0209C67.3621 11.0209 66.9781 11.6405 66.9781 12.2864V15.018H66.0443V12.1031C66.0443 11.4311 65.7825 11.0209 65.2152 11.0209C64.5869 11.0209 64.2029 11.6405 64.2029 12.2864V15.018H63.269Z" fill="white"/>
<path d="M70.8887 9.79037V8.73438H71.8225V9.79037H70.8887ZM70.8887 15.0181V10.3664H71.8225V15.0181H70.8887Z" fill="white"/>
<path d="M72.9512 15.018V10.3663H73.885V10.986C74.1992 10.4885 74.6879 10.2441 75.2901 10.2441C76.2588 10.2441 76.861 10.8114 76.861 11.9111V15.018H75.9359V12.1031C75.9359 11.4311 75.6392 11.0209 75.0021 11.0209C74.3039 11.0209 73.885 11.6405 73.885 12.2864V15.018H72.9512Z" fill="white"/>
<path d="M79.6721 15.0442C78.4852 15.0442 77.7695 14.1365 77.7695 12.6529C77.7695 11.0995 78.5026 10.2441 79.6721 10.2441C80.2655 10.2441 80.7106 10.4536 81.0073 10.855V10.3663H81.9412V15.1664C81.9412 16.4405 81.0946 17.0602 79.9775 17.0602C78.8604 17.0602 78.0575 16.5365 77.8917 15.4544H78.8255C78.9128 16.0129 79.3579 16.3096 79.9688 16.3096C80.5884 16.3096 81.0073 15.9867 81.0073 15.1838V14.3984C80.6932 14.826 80.2393 15.0442 79.6721 15.0442ZM79.8641 14.2587C80.6059 14.2587 81.0073 13.6915 81.0073 12.6442C81.0073 11.6231 80.5884 11.0296 79.8641 11.0296C79.1223 11.0296 78.7208 11.5969 78.7208 12.6529C78.7208 13.674 79.131 14.2587 79.8641 14.2587Z" fill="white"/>
<path d="M85.5307 11.5882C85.5307 12.7751 88.5067 11.7802 88.5067 13.674C88.5067 14.5555 87.7125 15.1315 86.5867 15.1315C85.4609 15.1315 84.6667 14.6078 84.4922 13.4995H85.426C85.522 14.0842 85.9584 14.4071 86.6129 14.4071C87.2413 14.4071 87.5729 14.1278 87.5729 13.7351C87.5729 12.5744 84.6406 13.5518 84.6406 11.6405C84.6406 10.9162 85.2078 10.2441 86.386 10.2441C87.4246 10.2441 88.1926 10.7241 88.3409 11.8849H87.4071C87.3024 11.2304 86.9358 10.986 86.3424 10.986C85.8275 10.986 85.5307 11.2391 85.5307 11.5882Z" fill="white"/>
<path d="M91.3035 15.1315C89.9507 15.1315 89.1304 14.2151 89.1304 12.6965C89.1304 11.1169 89.9769 10.2441 91.3035 10.2441C92.6562 10.2441 93.4766 11.178 93.4766 12.6965C93.4766 14.2675 92.63 15.1315 91.3035 15.1315ZM91.3035 14.346C92.0976 14.346 92.5253 13.77 92.5253 12.6965C92.5253 11.6318 92.0889 11.0296 91.3035 11.0296C90.518 11.0296 90.0816 11.6144 90.0816 12.6965C90.0816 13.7525 90.518 14.346 91.3035 14.346Z" fill="white"/>
<path d="M96.3318 15.1315C94.9791 15.1315 94.1587 14.2151 94.1587 12.6965C94.1587 11.1169 95.0052 10.2441 96.3318 10.2441C97.6845 10.2441 98.5049 11.178 98.5049 12.6965C98.5049 14.2675 97.6583 15.1315 96.3318 15.1315ZM96.3318 14.346C97.126 14.346 97.5536 13.77 97.5536 12.6965C97.5536 11.6318 97.1172 11.0296 96.3318 11.0296C95.5463 11.0296 95.11 11.6144 95.11 12.6965C95.11 13.7525 95.5463 14.346 96.3318 14.346Z" fill="white"/>
<path d="M99.4141 15.018V10.3663H100.348V10.986C100.662 10.4885 101.151 10.2441 101.753 10.2441C102.722 10.2441 103.324 10.8114 103.324 11.9111V15.018H102.399V12.1031C102.399 11.4311 102.102 11.0209 101.465 11.0209C100.767 11.0209 100.348 11.6405 100.348 12.2864V15.018H99.4141Z" fill="white"/>
<path d="M108.119 15.1315C106.766 15.1315 105.946 14.2151 105.946 12.6965C105.946 11.1169 106.792 10.2441 108.119 10.2441C109.472 10.2441 110.292 11.178 110.292 12.6965C110.292 14.2675 109.445 15.1315 108.119 15.1315ZM108.119 14.346C108.913 14.346 109.341 13.77 109.341 12.6965C109.341 11.6318 108.904 11.0296 108.119 11.0296C107.333 11.0296 106.897 11.6144 106.897 12.6965C106.897 13.7525 107.333 14.346 108.119 14.346Z" fill="white"/>
<path d="M111.202 15.018V10.3663H112.135V10.986C112.45 10.4885 112.938 10.2441 113.541 10.2441C114.509 10.2441 115.111 10.8114 115.111 11.9111V15.018H114.186V12.1031C114.186 11.4311 113.89 11.0209 113.253 11.0209C112.554 11.0209 112.135 11.6405 112.135 12.2864V15.018H111.202Z" fill="white"/>
<defs>
<linearGradient id="paint0_linear_405_10079" x1="22.576" y1="10.4528" x2="9.7839" y2="23.2654" gradientUnits="userSpaceOnUse">
<stop stop-color="#00A0FF"/>
<stop offset="0.00657" stop-color="#00A1FF"/>
<stop offset="0.2601" stop-color="#00BEFF"/>
<stop offset="0.5122" stop-color="#00D2FF"/>
<stop offset="0.7604" stop-color="#00DFFF"/>
<stop offset="1" stop-color="#00E3FF"/>
</linearGradient>
<linearGradient id="paint1_linear_405_10079" x1="41.6777" y1="23.9159" x2="12.6881" y2="23.9159" gradientUnits="userSpaceOnUse">
<stop stop-color="#FFE000"/>
<stop offset="0.4087" stop-color="#FFBD00"/>
<stop offset="0.7754" stop-color="#FFA500"/>
<stop offset="1" stop-color="#FF9C00"/>
</linearGradient>
<linearGradient id="paint2_linear_405_10079" x1="30.8975" y1="28.7152" x2="9.22052" y2="50.2685" gradientUnits="userSpaceOnUse">
<stop stop-color="#FF3A44"/>
<stop offset="1" stop-color="#C31162"/>
</linearGradient>
<linearGradient id="paint3_linear_405_10079" x1="9.90631" y1="6.92952" x2="19.5673" y2="16.5501" gradientUnits="userSpaceOnUse">
<stop stop-color="#32A071"/>
<stop offset="0.0685" stop-color="#2DA771"/>
<stop offset="0.4762" stop-color="#15CF74"/>
<stop offset="0.8009" stop-color="#06E775"/>
<stop offset="1" stop-color="#00F076"/>
</linearGradient>
<linearGradient id="paint4_linear_405_10079" x1="30.8865" y1="32.1537" x2="13.5264" y2="49.5418" gradientUnits="userSpaceOnUse">
<stop stop-color="#CC2E36"/>
<stop offset="1" stop-color="#9C0E4E"/>
</linearGradient>
<linearGradient id="paint5_linear_405_10079" x1="15.0672" y1="10.4513" x2="3.79768" y2="21.7392" gradientUnits="userSpaceOnUse">
<stop stop-color="#008DE0"/>
<stop offset="0.00657" stop-color="#008DE0"/>
<stop offset="0.2601" stop-color="#00A7E0"/>
<stop offset="0.5122" stop-color="#00B8E0"/>
<stop offset="0.7604" stop-color="#00C4E0"/>
<stop offset="1" stop-color="#00C7E0"/>
</linearGradient>
<linearGradient id="paint6_linear_405_10079" x1="41.6779" y1="24.0028" x2="12.6883" y2="24.0028" gradientUnits="userSpaceOnUse">
<stop stop-color="#E0C500"/>
<stop offset="0.4087" stop-color="#E0A600"/>
<stop offset="0.7754" stop-color="#E09100"/>
<stop offset="1" stop-color="#E08900"/>
</linearGradient>
<linearGradient id="paint7_linear_405_10079" x1="41.6778" y1="24.0026" x2="12.6883" y2="24.0026" gradientUnits="userSpaceOnUse">
<stop stop-color="#FFE840"/>
<stop offset="0.4087" stop-color="#FFCE40"/>
<stop offset="0.7754" stop-color="#FFBC40"/>
<stop offset="1" stop-color="#FFB540"/>
</linearGradient>
<linearGradient id="paint8_linear_405_10079" x1="15.055" y1="10.4715" x2="4.20042" y2="20.8726" gradientUnits="userSpaceOnUse">
<stop stop-color="#40B8FF"/>
<stop offset="0.00657" stop-color="#40B9FF"/>
<stop offset="0.2601" stop-color="#40CEFF"/>
<stop offset="0.5122" stop-color="#40DDFF"/>
<stop offset="0.7604" stop-color="#40E7FF"/>
<stop offset="1" stop-color="#40EAFF"/>
</linearGradient>
<linearGradient id="paint9_linear_405_10079" x1="9.88479" y1="10.0732" x2="17.6368" y2="17.8379" gradientUnits="userSpaceOnUse">
<stop stop-color="#65B895"/>
<stop offset="0.0685" stop-color="#62BD95"/>
<stop offset="0.4762" stop-color="#50DB97"/>
<stop offset="0.8009" stop-color="#44ED98"/>
<stop offset="1" stop-color="#40F498"/>
</linearGradient>
</defs>
</svg>
