<svg width="26" height="26" viewBox="0 0 26 26" fill="none" xmlns="http://www.w3.org/2000/svg">
<path fill-rule="evenodd" clip-rule="evenodd" d="M6.29596 1.46191C5.0137 1.46191 3.78392 1.97116 2.87705 2.87769C1.97018 3.78421 1.46045 5.01379 1.45996 6.29606V19.1921C1.45996 20.4746 1.96947 21.7047 2.87639 22.6116C3.78332 23.5186 5.01337 24.0281 6.29596 24.0281H19.192C20.4742 24.0276 21.7038 23.5178 22.6103 22.611C23.5169 21.7041 24.0261 20.4743 24.0261 19.1921V6.29606C24.0256 5.01411 23.5161 3.78482 22.6097 2.87835C21.7032 1.97187 20.4739 1.46241 19.192 1.46191H6.29596ZM20.583 6.30349C20.583 6.67289 20.4362 7.02717 20.175 7.28838C19.9138 7.5496 19.5595 7.69634 19.1901 7.69634C18.8207 7.69634 18.4664 7.5496 18.2052 7.28838C17.944 7.02717 17.7972 6.67289 17.7972 6.30349C17.7972 5.93408 17.944 5.5798 18.2052 5.31859C18.4664 5.05738 18.8207 4.91063 19.1901 4.91063C19.5595 4.91063 19.9138 5.05738 20.175 5.31859C20.4362 5.5798 20.583 5.93408 20.583 6.30349ZM12.7458 8.8812C11.7213 8.8812 10.7388 9.28818 10.0144 10.0126C9.28994 10.737 8.88296 11.7196 8.88296 12.7441C8.88296 13.7686 9.28994 14.7511 10.0144 15.4755C10.7388 16.1999 11.7213 16.6069 12.7458 16.6069C13.7703 16.6069 14.7528 16.1999 15.4773 15.4755C16.2017 14.7511 16.6087 13.7686 16.6087 12.7441C16.6087 11.7196 16.2017 10.737 15.4773 10.0126C14.7528 9.28818 13.7703 8.8812 12.7458 8.8812ZM7.02396 12.7441C7.02396 11.227 7.6266 9.77212 8.69931 8.69941C9.77202 7.6267 11.2269 7.02406 12.744 7.02406C14.261 7.02406 15.7159 7.6267 16.7886 8.69941C17.8613 9.77212 18.464 11.227 18.464 12.7441C18.464 14.2611 17.8613 15.716 16.7886 16.7887C15.7159 17.8614 14.261 18.4641 12.744 18.4641C11.2269 18.4641 9.77202 17.8614 8.69931 16.7887C7.6266 15.716 7.02396 14.2611 7.02396 12.7441Z" fill="#00A651"/>
</svg>
