<svg width="182" height="56" viewBox="0 0 182 56" fill="none" xmlns="http://www.w3.org/2000/svg">
<path d="M1.81704 3.63408C2.82056 3.63408 3.63407 2.82056 3.63407 1.81704C3.63407 0.813517 2.82056 0 1.81704 0C0.813517 0 0 0.813517 0 1.81704C0 2.82056 0.813517 3.63408 1.81704 3.63408Z" fill="#00A651"/>
<path d="M1.81704 8.7808C2.82056 8.7808 3.63407 7.96729 3.63407 6.96377C3.63407 5.96025 2.82056 5.14673 1.81704 5.14673C0.813517 5.14673 0 5.96025 0 6.96377C0 7.96729 0.813517 8.7808 1.81704 8.7808Z" fill="#00A651"/>
<path d="M1.81704 13.9278C2.82056 13.9278 3.63407 13.1143 3.63407 12.1107C3.63407 11.1072 2.82056 10.2937 1.81704 10.2937C0.813517 10.2937 0 11.1072 0 12.1107C0 13.1143 0.813517 13.9278 1.81704 13.9278Z" fill="#00A651"/>
<path d="M1.81704 19.0747C2.82056 19.0747 3.63407 18.2613 3.63407 17.2577C3.63407 16.2542 2.82056 15.4407 1.81704 15.4407C0.813517 15.4407 0 16.2542 0 17.2577C0 18.2613 0.813517 19.0747 1.81704 19.0747Z" fill="#00A651"/>
<path d="M1.81704 24.2298C2.82056 24.2298 3.63407 23.4162 3.63407 22.4127C3.63407 21.4092 2.82056 20.5957 1.81704 20.5957C0.813517 20.5957 0 21.4092 0 22.4127C0 23.4162 0.813517 24.2298 1.81704 24.2298Z" fill="#00A651"/>
<path d="M1.81704 29.3766C2.82056 29.3766 3.63407 28.5632 3.63407 27.5596C3.63407 26.5561 2.82056 25.7424 1.81704 25.7424C0.813517 25.7424 0 26.5561 0 27.5596C0 28.5632 0.813517 29.3766 1.81704 29.3766Z" fill="#00A651"/>
<path d="M1.81704 34.5236C2.82056 34.5236 3.63407 33.7102 3.63407 32.7066C3.63407 31.703 2.82056 30.8896 1.81704 30.8896C0.813517 30.8896 0 31.703 0 32.7066C0 33.7102 0.813517 34.5236 1.81704 34.5236Z" fill="#00A651"/>
<path d="M1.81704 39.6705C2.82056 39.6705 3.63407 38.8569 3.63407 37.8533C3.63407 36.85 2.82056 36.0364 1.81704 36.0364C0.813517 36.0364 0 36.85 0 37.8533C0 38.8569 0.813517 39.6705 1.81704 39.6705Z" fill="#00A651"/>
<path d="M1.81704 44.8253C2.82056 44.8253 3.63407 44.0119 3.63407 43.0084C3.63407 42.0048 2.82056 41.1914 1.81704 41.1914C0.813517 41.1914 0 42.0048 0 43.0084C0 44.0119 0.813517 44.8253 1.81704 44.8253Z" fill="#00A651"/>
<path d="M1.81704 49.9725C2.82056 49.9725 3.63407 49.1589 3.63407 48.1553C3.63407 47.152 2.82056 46.3384 1.81704 46.3384C0.813517 46.3384 0 47.152 0 48.1553C0 49.1589 0.813517 49.9725 1.81704 49.9725Z" fill="#00A651"/>
<path d="M6.98793 8.7808C7.99148 8.7808 8.805 7.96729 8.805 6.96377C8.805 5.96025 7.99148 5.14673 6.98793 5.14673C5.98441 5.14673 5.1709 5.96025 5.1709 6.96377C5.1709 7.96729 5.98441 8.7808 6.98793 8.7808Z" fill="#00A651"/>
<path d="M6.98793 13.9278C7.99148 13.9278 8.805 13.1143 8.805 12.1107C8.805 11.1072 7.99148 10.2937 6.98793 10.2937C5.98441 10.2937 5.1709 11.1072 5.1709 12.1107C5.1709 13.1143 5.98441 13.9278 6.98793 13.9278Z" fill="#00A651"/>
<path d="M6.98793 19.0747C7.99148 19.0747 8.805 18.2613 8.805 17.2577C8.805 16.2542 7.99148 15.4407 6.98793 15.4407C5.98441 15.4407 5.1709 16.2542 5.1709 17.2577C5.1709 18.2613 5.98441 19.0747 6.98793 19.0747Z" fill="#00A651"/>
<path d="M6.98793 24.2298C7.99148 24.2298 8.805 23.4162 8.805 22.4127C8.805 21.4092 7.99148 20.5957 6.98793 20.5957C5.98441 20.5957 5.1709 21.4092 5.1709 22.4127C5.1709 23.4162 5.98441 24.2298 6.98793 24.2298Z" fill="#00A651"/>
<path d="M6.98793 29.3766C7.99148 29.3766 8.805 28.5632 8.805 27.5596C8.805 26.5561 7.99148 25.7424 6.98793 25.7424C5.98441 25.7424 5.1709 26.5561 5.1709 27.5596C5.1709 28.5632 5.98441 29.3766 6.98793 29.3766Z" fill="#00A651"/>
<path d="M6.98793 34.5236C7.99148 34.5236 8.805 33.7102 8.805 32.7066C8.805 31.703 7.99148 30.8896 6.98793 30.8896C5.98441 30.8896 5.1709 31.703 5.1709 32.7066C5.1709 33.7102 5.98441 34.5236 6.98793 34.5236Z" fill="#00A651"/>
<path d="M6.98793 39.6705C7.99148 39.6705 8.805 38.8569 8.805 37.8533C8.805 36.85 7.99148 36.0364 6.98793 36.0364C5.98441 36.0364 5.1709 36.85 5.1709 37.8533C5.1709 38.8569 5.98441 39.6705 6.98793 39.6705Z" fill="#00A651"/>
<path d="M6.98793 44.8253C7.99148 44.8253 8.805 44.0119 8.805 43.0084C8.805 42.0048 7.99148 41.1914 6.98793 41.1914C5.98441 41.1914 5.1709 42.0048 5.1709 43.0084C5.1709 44.0119 5.98441 44.8253 6.98793 44.8253Z" fill="#00A651"/>
<path d="M6.98793 49.9725C7.99148 49.9725 8.805 49.1589 8.805 48.1553C8.805 47.152 7.99148 46.3384 6.98793 46.3384C5.98441 46.3384 5.1709 47.152 5.1709 48.1553C5.1709 49.1589 5.98441 49.9725 6.98793 49.9725Z" fill="#00A651"/>
<path d="M12.1666 24.2298C13.1702 24.2298 13.9837 23.4162 13.9837 22.4127C13.9837 21.4092 13.1702 20.5957 12.1666 20.5957C11.1631 20.5957 10.3496 21.4092 10.3496 22.4127C10.3496 23.4162 11.1631 24.2298 12.1666 24.2298Z" fill="#00A651"/>
<path d="M12.1666 29.3766C13.1702 29.3766 13.9837 28.5632 13.9837 27.5596C13.9837 26.5561 13.1702 25.7424 12.1666 25.7424C11.1631 25.7424 10.3496 26.5561 10.3496 27.5596C10.3496 28.5632 11.1631 29.3766 12.1666 29.3766Z" fill="#00A651"/>
<path d="M12.1666 34.5236C13.1702 34.5236 13.9837 33.7102 13.9837 32.7066C13.9837 31.703 13.1702 30.8896 12.1666 30.8896C11.1631 30.8896 10.3496 31.703 10.3496 32.7066C10.3496 33.7102 11.1631 34.5236 12.1666 34.5236Z" fill="#00A651"/>
<path d="M12.1666 39.6705C13.1702 39.6705 13.9837 38.8569 13.9837 37.8533C13.9837 36.85 13.1702 36.0364 12.1666 36.0364C11.1631 36.0364 10.3496 36.85 10.3496 37.8533C10.3496 38.8569 11.1631 39.6705 12.1666 39.6705Z" fill="#00A651"/>
<path d="M12.1666 44.8253C13.1702 44.8253 13.9837 44.0119 13.9837 43.0084C13.9837 42.0048 13.1702 41.1914 12.1666 41.1914C11.1631 41.1914 10.3496 42.0048 10.3496 43.0084C10.3496 44.0119 11.1631 44.8253 12.1666 44.8253Z" fill="#00A651"/>
<path d="M12.1666 49.9725C13.1702 49.9725 13.9837 49.1589 13.9837 48.1553C13.9837 47.152 13.1702 46.3384 12.1666 46.3384C11.1631 46.3384 10.3496 47.152 10.3496 48.1553C10.3496 49.1589 11.1631 49.9725 12.1666 49.9725Z" fill="#00A651"/>
<path d="M17.3375 24.2298C18.3411 24.2298 19.1546 23.4162 19.1546 22.4127C19.1546 21.4092 18.3411 20.5957 17.3375 20.5957C16.334 20.5957 15.5205 21.4092 15.5205 22.4127C15.5205 23.4162 16.334 24.2298 17.3375 24.2298Z" fill="#00A651"/>
<path d="M17.3375 29.3766C18.3411 29.3766 19.1546 28.5632 19.1546 27.5596C19.1546 26.5561 18.3411 25.7424 17.3375 25.7424C16.334 25.7424 15.5205 26.5561 15.5205 27.5596C15.5205 28.5632 16.334 29.3766 17.3375 29.3766Z" fill="#00A651"/>
<path d="M17.3375 34.5236C18.3411 34.5236 19.1546 33.7102 19.1546 32.7066C19.1546 31.703 18.3411 30.8896 17.3375 30.8896C16.334 30.8896 15.5205 31.703 15.5205 32.7066C15.5205 33.7102 16.334 34.5236 17.3375 34.5236Z" fill="#00A651"/>
<path d="M17.3375 39.6705C18.3411 39.6705 19.1546 38.8569 19.1546 37.8533C19.1546 36.85 18.3411 36.0364 17.3375 36.0364C16.334 36.0364 15.5205 36.85 15.5205 37.8533C15.5205 38.8569 16.334 39.6705 17.3375 39.6705Z" fill="#00A651"/>
<path d="M17.3375 44.8253C18.3411 44.8253 19.1546 44.0119 19.1546 43.0084C19.1546 42.0048 18.3411 41.1914 17.3375 41.1914C16.334 41.1914 15.5205 42.0048 15.5205 43.0084C15.5205 44.0119 16.334 44.8253 17.3375 44.8253Z" fill="#00A651"/>
<path d="M22.5172 24.2298C23.5208 24.2298 24.3342 23.4162 24.3342 22.4127C24.3342 21.4092 23.5208 20.5957 22.5172 20.5957C21.5137 20.5957 20.7002 21.4092 20.7002 22.4127C20.7002 23.4162 21.5137 24.2298 22.5172 24.2298Z" fill="#00A651"/>
<path d="M22.5172 29.3766C23.5208 29.3766 24.3342 28.5632 24.3342 27.5596C24.3342 26.5561 23.5208 25.7424 22.5172 25.7424C21.5137 25.7424 20.7002 26.5561 20.7002 27.5596C20.7002 28.5632 21.5137 29.3766 22.5172 29.3766Z" fill="#00A651"/>
<path d="M22.5172 34.5236C23.5208 34.5236 24.3342 33.7102 24.3342 32.7066C24.3342 31.703 23.5208 30.8896 22.5172 30.8896C21.5137 30.8896 20.7002 31.703 20.7002 32.7066C20.7002 33.7102 21.5137 34.5236 22.5172 34.5236Z" fill="#00A651"/>
<path d="M22.5172 39.6705C23.5208 39.6705 24.3342 38.8569 24.3342 37.8533C24.3342 36.85 23.5208 36.0364 22.5172 36.0364C21.5137 36.0364 20.7002 36.85 20.7002 37.8533C20.7002 38.8569 21.5137 39.6705 22.5172 39.6705Z" fill="#00A651"/>
<path d="M27.6959 24.2298C28.6994 24.2298 29.5131 23.4162 29.5131 22.4127C29.5131 21.4092 28.6994 20.5957 27.6959 20.5957C26.6925 20.5957 25.8789 21.4092 25.8789 22.4127C25.8789 23.4162 26.6925 24.2298 27.6959 24.2298Z" fill="#00A651"/>
<path d="M27.6959 29.3766C28.6994 29.3766 29.5131 28.5632 29.5131 27.5596C29.5131 26.5561 28.6994 25.7424 27.6959 25.7424C26.6925 25.7424 25.8789 26.5561 25.8789 27.5596C25.8789 28.5632 26.6925 29.3766 27.6959 29.3766Z" fill="#00A651"/>
<path d="M32.867 29.3766C33.8703 29.3766 34.684 28.5632 34.684 27.5596C34.684 26.5561 33.8703 25.7424 32.867 25.7424C31.8634 25.7424 31.0498 26.5561 31.0498 27.5596C31.0498 28.5632 31.8634 29.3766 32.867 29.3766Z" fill="#00A651"/>
<path d="M27.6959 34.5236C28.6994 34.5236 29.5131 33.7102 29.5131 32.7066C29.5131 31.703 28.6994 30.8896 27.6959 30.8896C26.6925 30.8896 25.8789 31.703 25.8789 32.7066C25.8789 33.7102 26.6925 34.5236 27.6959 34.5236Z" fill="#00A651"/>
<path d="M27.6959 39.6705C28.6994 39.6705 29.5131 38.8569 29.5131 37.8533C29.5131 36.85 28.6994 36.0364 27.6959 36.0364C26.6925 36.0364 25.8789 36.85 25.8789 37.8533C25.8789 38.8569 26.6925 39.6705 27.6959 39.6705Z" fill="#00A651"/>
<path d="M32.867 34.5236C33.8703 34.5236 34.684 33.7102 34.684 32.7066C34.684 31.703 33.8703 30.8896 32.867 30.8896C31.8634 30.8896 31.0498 31.703 31.0498 32.7066C31.0498 33.7102 31.8634 34.5236 32.867 34.5236Z" fill="#00A651"/>
<path d="M32.867 39.6705C33.8703 39.6705 34.684 38.8569 34.684 37.8533C34.684 36.85 33.8703 36.0364 32.867 36.0364C31.8634 36.0364 31.0498 36.85 31.0498 37.8533C31.0498 38.8569 31.8634 39.6705 32.867 39.6705Z" fill="#00A651"/>
<path d="M38.0455 34.5236C39.049 34.5236 39.8624 33.7102 39.8624 32.7066C39.8624 31.703 39.049 30.8896 38.0455 30.8896C37.0419 30.8896 36.2285 31.703 36.2285 32.7066C36.2285 33.7102 37.0419 34.5236 38.0455 34.5236Z" fill="#00A651"/>
<path d="M38.0455 39.6705C39.049 39.6705 39.8624 38.8569 39.8624 37.8533C39.8624 36.85 39.049 36.0364 38.0455 36.0364C37.0419 36.0364 36.2285 36.85 36.2285 37.8533C36.2285 38.8569 37.0419 39.6705 38.0455 39.6705Z" fill="#00A651"/>
<path d="M22.5172 44.1852C23.5208 44.1852 24.3342 43.3716 24.3342 42.3682C24.3342 41.3647 23.5208 40.551 22.5172 40.551C21.5137 40.551 20.7002 41.3647 20.7002 42.3682C20.7002 43.3716 21.5137 44.1852 22.5172 44.1852Z" fill="#00A651"/>
<path d="M27.6959 44.1852C28.6994 44.1852 29.5131 43.3716 29.5131 42.3682C29.5131 41.3647 28.6994 40.551 27.6959 40.551C26.6925 40.551 25.8789 41.3647 25.8789 42.3682C25.8789 43.3716 26.6925 44.1852 27.6959 44.1852Z" fill="#00A651"/>
<path d="M32.867 44.1852C33.8703 44.1852 34.684 43.3716 34.684 42.3682C34.684 41.3647 33.8703 40.551 32.867 40.551C31.8634 40.551 31.0498 41.3647 31.0498 42.3682C31.0498 43.3716 31.8634 44.1852 32.867 44.1852Z" fill="#00A651"/>
<path d="M38.0455 44.1852C39.049 44.1852 39.8624 43.3716 39.8624 42.3682C39.8624 41.3647 39.049 40.551 38.0455 40.551C37.0419 40.551 36.2285 41.3647 36.2285 42.3682C36.2285 43.3716 37.0419 44.1852 38.0455 44.1852Z" fill="#00A651"/>
<path d="M43.2164 34.5236C44.2199 34.5236 45.0336 33.7102 45.0336 32.7066C45.0336 31.703 44.2199 30.8896 43.2164 30.8896C42.213 30.8896 41.3994 31.703 41.3994 32.7066C41.3994 33.7102 42.213 34.5236 43.2164 34.5236Z" fill="#00A651"/>
<path d="M43.2164 39.6705C44.2199 39.6705 45.0336 38.8569 45.0336 37.8533C45.0336 36.85 44.2199 36.0364 43.2164 36.0364C42.213 36.0364 41.3994 36.85 41.3994 37.8533C41.3994 38.8569 42.213 39.6705 43.2164 39.6705Z" fill="#00A651"/>
<path d="M43.2164 44.8253C44.2199 44.8253 45.0336 44.0119 45.0336 43.0084C45.0336 42.0048 44.2199 41.1914 43.2164 41.1914C42.213 41.1914 41.3994 42.0048 41.3994 43.0084C41.3994 44.0119 42.213 44.8253 43.2164 44.8253Z" fill="#00A651"/>
<path d="M43.2164 49.9725C44.2199 49.9725 45.0336 49.1589 45.0336 48.1553C45.0336 47.152 44.2199 46.3384 43.2164 46.3384C42.213 46.3384 41.3994 47.152 41.3994 48.1553C41.3994 49.1589 42.213 49.9725 43.2164 49.9725Z" fill="#00A651"/>
<path d="M48.3961 34.5236C49.3996 34.5236 50.213 33.7102 50.213 32.7066C50.213 31.703 49.3996 30.8896 48.3961 30.8896C47.3925 30.8896 46.5791 31.703 46.5791 32.7066C46.5791 33.7102 47.3925 34.5236 48.3961 34.5236Z" fill="#00A651"/>
<path d="M48.3961 39.6705C49.3996 39.6705 50.213 38.8569 50.213 37.8533C50.213 36.85 49.3996 36.0364 48.3961 36.0364C47.3925 36.0364 46.5791 36.85 46.5791 37.8533C46.5791 38.8569 47.3925 39.6705 48.3961 39.6705Z" fill="#00A651"/>
<path d="M48.3961 44.8253C49.3996 44.8253 50.213 44.0119 50.213 43.0084C50.213 42.0048 49.3996 41.1914 48.3961 41.1914C47.3925 41.1914 46.5791 42.0048 46.5791 43.0084C46.5791 44.0119 47.3925 44.8253 48.3961 44.8253Z" fill="#00A651"/>
<path d="M48.3961 49.9725C49.3996 49.9725 50.213 49.1589 50.213 48.1553C50.213 47.152 49.3996 46.3384 48.3961 46.3384C47.3925 46.3384 46.5791 47.152 46.5791 48.1553C46.5791 49.1589 47.3925 49.9725 48.3961 49.9725Z" fill="#00A651"/>
<path d="M53.567 39.6705C54.5705 39.6705 55.3842 38.8569 55.3842 37.8533C55.3842 36.85 54.5705 36.0364 53.567 36.0364C52.5634 36.0364 51.75 36.85 51.75 37.8533C51.75 38.8569 52.5634 39.6705 53.567 39.6705Z" fill="#00A651"/>
<path d="M58.1051 39.6705C59.1086 39.6705 59.9222 38.8569 59.9222 37.8533C59.9222 36.85 59.1086 36.0364 58.1051 36.0364C57.1015 36.0364 56.2881 36.85 56.2881 37.8533C56.2881 38.8569 57.1015 39.6705 58.1051 39.6705Z" fill="#00A651"/>
<path d="M53.567 49.9725C54.5705 49.9725 55.3842 49.1589 55.3842 48.1553C55.3842 47.152 54.5705 46.3384 53.567 46.3384C52.5634 46.3384 51.75 47.152 51.75 48.1553C51.75 49.1589 52.5634 49.9725 53.567 49.9725Z" fill="#00A651"/>
<path d="M53.567 55.1193C54.5705 55.1193 55.3842 54.3059 55.3842 53.3023C55.3842 52.2987 54.5705 51.4851 53.567 51.4851C52.5634 51.4851 51.75 52.2987 51.75 53.3023C51.75 54.3059 52.5634 55.1193 53.567 55.1193Z" fill="#00A651"/>
<path d="M58.7459 34.5236C59.7495 34.5236 60.5629 33.7102 60.5629 32.7066C60.5629 31.703 59.7495 30.8896 58.7459 30.8896C57.7423 30.8896 56.9287 31.703 56.9287 32.7066C56.9287 33.7102 57.7423 34.5236 58.7459 34.5236Z" fill="#00A651"/>
<path d="M58.7459 49.9725C59.7495 49.9725 60.5629 49.1589 60.5629 48.1553C60.5629 47.152 59.7495 46.3384 58.7459 46.3384C57.7423 46.3384 56.9287 47.152 56.9287 48.1553C56.9287 49.1589 57.7423 49.9725 58.7459 49.9725Z" fill="#00A651"/>
<path d="M58.7459 55.1193C59.7495 55.1193 60.5629 54.3059 60.5629 53.3023C60.5629 52.2987 59.7495 51.4851 58.7459 51.4851C57.7423 51.4851 56.9287 52.2987 56.9287 53.3023C56.9287 54.3059 57.7423 55.1193 58.7459 55.1193Z" fill="#00A651"/>
<path d="M95.3265 20.7518C95.3265 25.1704 94.2299 28.5697 92.0368 30.9498C89.8434 33.3298 86.6976 34.517 82.5994 34.5116C78.5009 34.5116 75.3578 33.3244 73.1699 30.9498C70.9819 28.575 69.8852 25.1624 69.8799 20.7118C69.8799 16.2613 70.9794 12.8647 73.1778 10.522C75.3765 8.17934 78.5303 7.00534 82.6393 7C86.7483 7 89.8887 8.18201 92.0605 10.546C94.2378 12.9154 95.3265 16.3093 95.3265 20.7518ZM75.8194 20.7518C75.8194 23.7349 76.385 25.9815 77.5164 27.4917C78.1137 28.2566 78.8893 28.8637 79.7753 29.2599C80.6613 29.6562 81.6308 29.8296 82.5994 29.765C87.1246 29.765 89.3845 26.7606 89.3791 20.7518C89.3737 14.7431 87.1272 11.7307 82.6393 11.7147C81.6667 11.6519 80.6937 11.8268 79.804 12.2243C78.9141 12.6217 78.1345 13.2298 77.5323 13.996C76.3878 15.5089 75.8194 17.7662 75.8194 20.7518Z" fill="#00A651"/>
<path d="M111.007 19.143H121.614V32.999C120.033 33.5391 118.411 33.9461 116.763 34.2156C115.22 34.4412 113.663 34.5537 112.104 34.5518C108.07 34.5518 104.991 33.3672 102.867 30.9977C100.743 28.6284 99.6755 25.2265 99.665 20.7919C99.665 16.4748 100.9 13.1102 103.371 10.6982C105.842 8.28611 109.273 7.06675 113.665 7.04007C116.394 7.03555 119.094 7.59418 121.597 8.681L119.716 13.2196C117.832 12.2592 115.748 11.7573 113.633 11.7548C112.528 11.704 111.425 11.8971 110.402 12.3204C109.38 12.7438 108.463 13.3869 107.718 14.2042C106.173 16.0599 105.385 18.429 105.508 20.84C105.508 23.7456 106.101 25.9549 107.285 27.4837C107.904 28.2526 108.698 28.8622 109.6 29.2619C110.502 29.6615 111.487 29.8395 112.472 29.7811C113.68 29.7793 114.884 29.6559 116.066 29.4129V23.8097H110.999L111.007 19.143Z" fill="#00A651"/>
<path d="M149.734 7.42432V24.7142C149.771 26.5344 149.312 28.3305 148.405 29.9092C147.507 31.4107 146.172 32.603 144.579 33.3271C142.717 34.1573 140.693 34.5619 138.656 34.5117C135.213 34.5117 132.545 33.6313 130.651 31.8704C129.69 30.9417 128.939 29.8185 128.448 28.5761C127.956 27.3337 127.736 26.0006 127.801 24.6662V7.42432H133.452V23.8097C133.452 25.8668 133.861 27.3797 134.693 28.3403C135.526 29.3008 136.895 29.7891 138.807 29.7891C140.721 29.7891 142.009 29.3008 142.81 28.3323C143.61 27.3637 144.067 25.8428 144.067 23.7696V7.42432H149.734Z" fill="#00A651"/>
<path d="M179.983 34.1517H172.779L161.156 13.932H160.988C161.223 17.5021 161.34 20.0475 161.34 21.5684V34.1517H156.273V7.42432H163.421L175.028 27.4358H175.164C174.98 23.9618 174.884 21.5124 174.884 20.0715V7.42432H179.983V34.1517Z" fill="#00A651"/>
<path d="M75.7953 41.4198C76.1838 41.7882 76.4874 42.2369 76.685 42.7346C76.8826 43.2321 76.9697 43.7669 76.94 44.3015C76.9671 44.8388 76.8824 45.3762 76.6908 45.8793C76.4993 46.3821 76.2053 46.8399 75.8273 47.223C74.8788 48.0089 73.6612 48.3937 72.4334 48.2957H69.7998V40.4111H72.5214C73.7009 40.3227 74.8701 40.6829 75.7953 41.4198ZM75.5951 44.3334C75.5951 42.5244 74.5547 41.6118 72.4733 41.6118H71.1366V47.0389H72.6255C73.4183 47.0933 74.2028 46.8506 74.8267 46.3585C75.089 46.1 75.2932 45.7885 75.4257 45.4448C75.5582 45.1011 75.6161 44.7331 75.5951 44.3654V44.3334Z" fill="#00A651"/>
<path d="M79.7979 40.4109H81.1264V48.3274H79.7979V40.4109Z" fill="#00A651"/>
<path d="M89.9395 44.4774H91.2522V47.1832C90.8402 47.6097 90.3406 47.9415 89.7878 48.1557C89.2348 48.3699 88.6419 48.4614 88.0504 48.4238C87.5077 48.4373 86.9682 48.3417 86.4633 48.1422C85.9586 47.9429 85.4994 47.644 85.1125 47.2632C84.3456 46.4792 83.916 45.4262 83.916 44.3295C83.916 43.2328 84.3456 42.1796 85.1125 41.3958C85.4966 41.0103 85.9551 40.707 86.4603 40.5047C86.9655 40.3024 87.5063 40.2053 88.0504 40.2191C89.0895 40.1846 90.1038 40.5416 90.892 41.2196L90.2036 42.2202C89.9295 41.9782 89.6115 41.7908 89.2671 41.6679C88.9138 41.5631 88.5467 41.5118 88.1783 41.516C87.8061 41.5101 87.4363 41.578 87.09 41.7152C86.744 41.8527 86.4283 42.0568 86.1611 42.3163C85.6441 42.867 85.3561 43.594 85.3561 44.3496C85.3561 45.1049 85.6441 45.8319 86.1611 46.3826C86.411 46.6386 86.7102 46.8411 87.0401 46.9788C87.3703 47.1162 87.7247 47.1857 88.0824 47.1832C88.7432 47.2044 89.3963 47.035 89.9633 46.6948L89.9395 44.4774Z" fill="#00A651"/>
<path d="M94.166 40.4109H95.5028V48.3274H94.166V40.4109Z" fill="#00A651"/>
<path d="M101.826 41.6357V48.3274H100.489V41.6357H98.0879V40.4109H104.228V41.6357H101.826Z" fill="#00A651"/>
<path d="M107.309 46.5266L106.509 48.3274H105.076L108.566 40.4109H109.999L113.481 48.3274H112.064L111.264 46.5266H107.309ZM110.727 45.2939L109.286 42.0279L107.854 45.2939H110.727Z" fill="#00A651"/>
<path d="M115.722 48.3274V40.4109H117.058V47.0628H120.677V48.3274H115.722Z" fill="#00A651"/>
<path d="M129.899 41.4197C129.562 41.4062 129.229 41.4895 128.938 41.6598C128.818 41.7363 128.721 41.8434 128.656 41.9701C128.591 42.0966 128.562 42.2382 128.57 42.3801C128.558 42.5248 128.587 42.6697 128.652 42.7994C128.717 42.9291 128.816 43.0388 128.938 43.1167C129.442 43.376 129.981 43.5594 130.539 43.6609C131.206 43.782 131.836 44.0559 132.38 44.4614C132.597 44.6642 132.765 44.9136 132.872 45.1908C132.979 45.4683 133.021 45.7662 132.996 46.0623C133.002 46.3853 132.933 46.7052 132.793 46.9969C132.655 47.2885 132.45 47.544 132.196 47.7433C131.612 48.1971 130.885 48.4269 130.147 48.3917C128.924 48.3999 127.745 47.9418 126.849 47.1109L127.689 46.1023C128.364 46.7418 129.249 47.1121 130.179 47.1429C130.541 47.1623 130.901 47.064 131.203 46.8627C131.324 46.7822 131.422 46.6725 131.49 46.5437C131.557 46.4151 131.59 46.2714 131.587 46.1263C131.599 45.9921 131.576 45.8572 131.522 45.734C131.467 45.6111 131.382 45.5037 131.275 45.4221C130.896 45.1999 130.482 45.0429 130.051 44.9577C129.599 44.8604 129.155 44.7321 128.722 44.5734C128.435 44.4596 128.166 44.3058 127.921 44.1173C127.688 43.9236 127.504 43.6777 127.382 43.3998C127.262 43.1216 127.207 42.819 127.225 42.5164C127.21 42.1895 127.274 41.864 127.414 41.5681C127.554 41.2722 127.764 41.0153 128.025 40.8193C128.603 40.4129 129.297 40.205 130.003 40.2269C130.517 40.2267 131.028 40.3104 131.515 40.4752C131.985 40.6266 132.423 40.8658 132.804 41.1796L132.076 42.22C131.798 41.982 131.474 41.8047 131.123 41.6999C130.734 41.5366 130.32 41.4416 129.899 41.4197Z" fill="#00A651"/>
<path d="M137.55 46.5184C137.74 46.7181 137.969 46.877 138.222 46.9855C138.475 47.094 138.748 47.15 139.023 47.15C139.299 47.15 139.571 47.094 139.824 46.9855C140.078 46.877 140.306 46.7181 140.496 46.5184C140.879 46.0291 141.072 45.418 141.04 44.7976V40.4109H142.377V44.8536C142.408 45.3338 142.341 45.8154 142.178 46.2683C142.016 46.7214 141.762 47.1363 141.433 47.487C140.771 48.0761 139.917 48.4016 139.031 48.4016C138.146 48.4016 137.291 48.0761 136.63 47.487C136.3 47.1363 136.047 46.7214 135.884 46.2683C135.722 45.8154 135.654 45.3338 135.685 44.8536V40.4109H137.022V44.7976C136.986 45.4159 137.173 46.027 137.55 46.5184Z" fill="#00A651"/>
<path d="M146.94 48.3274H145.604V40.4109H147.685L150.086 45.3818L152.487 40.4109H154.56V48.3274H153.208V42.1481L150.438 47.6391H149.686L146.932 42.1481L146.94 48.3274Z" fill="#00A651"/>
<path d="M159.211 48.3274H157.874V40.4109H159.955L162.357 45.3818L164.758 40.4109H166.831V48.3274H165.494V42.1481L162.733 47.6391H161.98L159.235 42.1481L159.211 48.3274Z" fill="#00A651"/>
<path d="M170.138 40.4109H171.474V48.3274H170.138V40.4109Z" fill="#00A651"/>
<path d="M177.798 41.6357V48.3274H176.461V41.6357H174.06V40.4109H180.199V41.6357H177.798Z" fill="#00A651"/>
</svg>
