<svg width="104" height="33" viewBox="0 0 104 33" fill="none" xmlns="http://www.w3.org/2000/svg">
<g clip-path="url(#clip0_1211_9096)">
<path d="M1.03831 3.07955C1.61175 3.07955 2.07661 2.61468 2.07661 2.04124C2.07661 1.4678 1.61175 1.00293 1.03831 1.00293C0.464867 1.00293 0 1.4678 0 2.04124C0 2.61468 0.464867 3.07955 1.03831 3.07955Z" fill="#00A651"/>
<path d="M1.03831 6.02095C1.61175 6.02095 2.07661 5.55608 2.07661 4.98264C2.07661 4.4092 1.61175 3.94434 1.03831 3.94434C0.464867 3.94434 0 4.4092 0 4.98264C0 5.55608 0.464867 6.02095 1.03831 6.02095Z" fill="#00A651"/>
<path d="M1.03831 8.96236C1.61175 8.96236 2.07661 8.49749 2.07661 7.92405C2.07661 7.35061 1.61175 6.88574 1.03831 6.88574C0.464867 6.88574 0 7.35061 0 7.92405C0 8.49749 0.464867 8.96236 1.03831 8.96236Z" fill="#00A651"/>
<path d="M1.03831 11.9028C1.61175 11.9028 2.07661 11.4379 2.07661 10.8645C2.07661 10.291 1.61175 9.82617 1.03831 9.82617C0.464867 9.82617 0 10.291 0 10.8645C0 11.4379 0.464867 11.9028 1.03831 11.9028Z" fill="#00A651"/>
<path d="M1.03831 14.8491C1.61175 14.8491 2.07661 14.3842 2.07661 13.8108C2.07661 13.2373 1.61175 12.7725 1.03831 12.7725C0.464867 12.7725 0 13.2373 0 13.8108C0 14.3842 0.464867 14.8491 1.03831 14.8491Z" fill="#00A651"/>
<path d="M1.03831 17.7896C1.61175 17.7896 2.07661 17.3248 2.07661 16.7513C2.07661 16.1778 1.61175 15.7129 1.03831 15.7129C0.464867 15.7129 0 16.1778 0 16.7513C0 17.3248 0.464867 17.7896 1.03831 17.7896Z" fill="#00A651"/>
<path d="M1.03831 20.7308C1.61175 20.7308 2.07661 20.266 2.07661 19.6926C2.07661 19.1191 1.61175 18.6543 1.03831 18.6543C0.464867 18.6543 0 19.1191 0 19.6926C0 20.266 0.464867 20.7308 1.03831 20.7308Z" fill="#00A651"/>
<path d="M1.03831 23.6724C1.61175 23.6724 2.07661 23.2074 2.07661 22.634C2.07661 22.0606 1.61175 21.5957 1.03831 21.5957C0.464867 21.5957 0 22.0606 0 22.634C0 23.2074 0.464867 23.6724 1.03831 23.6724Z" fill="#00A651"/>
<path d="M1.03831 26.6176C1.61175 26.6176 2.07661 26.1528 2.07661 25.5793C2.07661 25.0058 1.61175 24.541 1.03831 24.541C0.464867 24.541 0 25.0058 0 25.5793C0 26.1528 0.464867 26.6176 1.03831 26.6176Z" fill="#00A651"/>
<path d="M1.03831 29.5591C1.61175 29.5591 2.07661 29.0942 2.07661 28.5207C2.07661 27.9474 1.61175 27.4824 1.03831 27.4824C0.464867 27.4824 0 27.9474 0 28.5207C0 29.0942 0.464867 29.5591 1.03831 29.5591Z" fill="#00A651"/>
<path d="M3.99338 6.02095C4.56684 6.02095 5.0317 5.55608 5.0317 4.98264C5.0317 4.4092 4.56684 3.94434 3.99338 3.94434C3.41994 3.94434 2.95508 4.4092 2.95508 4.98264C2.95508 5.55608 3.41994 6.02095 3.99338 6.02095Z" fill="#00A651"/>
<path d="M3.99338 8.96236C4.56684 8.96236 5.0317 8.49749 5.0317 7.92405C5.0317 7.35061 4.56684 6.88574 3.99338 6.88574C3.41994 6.88574 2.95508 7.35061 2.95508 7.92405C2.95508 8.49749 3.41994 8.96236 3.99338 8.96236Z" fill="#00A651"/>
<path d="M3.99338 11.9028C4.56684 11.9028 5.0317 11.4379 5.0317 10.8645C5.0317 10.291 4.56684 9.82617 3.99338 9.82617C3.41994 9.82617 2.95508 10.291 2.95508 10.8645C2.95508 11.4379 3.41994 11.9028 3.99338 11.9028Z" fill="#00A651"/>
<path d="M3.99338 14.8491C4.56684 14.8491 5.0317 14.3842 5.0317 13.8108C5.0317 13.2373 4.56684 12.7725 3.99338 12.7725C3.41994 12.7725 2.95508 13.2373 2.95508 13.8108C2.95508 14.3842 3.41994 14.8491 3.99338 14.8491Z" fill="#00A651"/>
<path d="M3.99338 17.7896C4.56684 17.7896 5.0317 17.3248 5.0317 16.7513C5.0317 16.1778 4.56684 15.7129 3.99338 15.7129C3.41994 15.7129 2.95508 16.1778 2.95508 16.7513C2.95508 17.3248 3.41994 17.7896 3.99338 17.7896Z" fill="#00A651"/>
<path d="M3.99338 20.7308C4.56684 20.7308 5.0317 20.266 5.0317 19.6926C5.0317 19.1191 4.56684 18.6543 3.99338 18.6543C3.41994 18.6543 2.95508 19.1191 2.95508 19.6926C2.95508 20.266 3.41994 20.7308 3.99338 20.7308Z" fill="#00A651"/>
<path d="M3.99338 23.6724C4.56684 23.6724 5.0317 23.2074 5.0317 22.634C5.0317 22.0606 4.56684 21.5957 3.99338 21.5957C3.41994 21.5957 2.95508 22.0606 2.95508 22.634C2.95508 23.2074 3.41994 23.6724 3.99338 23.6724Z" fill="#00A651"/>
<path d="M3.99338 26.6176C4.56684 26.6176 5.0317 26.1528 5.0317 25.5793C5.0317 25.0058 4.56684 24.541 3.99338 24.541C3.41994 24.541 2.95508 25.0058 2.95508 25.5793C2.95508 26.1528 3.41994 26.6176 3.99338 26.6176Z" fill="#00A651"/>
<path d="M3.99338 29.5591C4.56684 29.5591 5.0317 29.0942 5.0317 28.5207C5.0317 27.9474 4.56684 27.4824 3.99338 27.4824C3.41994 27.4824 2.95508 27.9474 2.95508 28.5207C2.95508 29.0942 3.41994 29.5591 3.99338 29.5591Z" fill="#00A651"/>
<path d="M6.95237 14.8491C7.52581 14.8491 7.99068 14.3842 7.99068 13.8108C7.99068 13.2373 7.52581 12.7725 6.95237 12.7725C6.37893 12.7725 5.91406 13.2373 5.91406 13.8108C5.91406 14.3842 6.37893 14.8491 6.95237 14.8491Z" fill="#00A651"/>
<path d="M6.95237 17.7896C7.52581 17.7896 7.99068 17.3248 7.99068 16.7513C7.99068 16.1778 7.52581 15.7129 6.95237 15.7129C6.37893 15.7129 5.91406 16.1778 5.91406 16.7513C5.91406 17.3248 6.37893 17.7896 6.95237 17.7896Z" fill="#00A651"/>
<path d="M6.95237 20.7308C7.52581 20.7308 7.99068 20.266 7.99068 19.6926C7.99068 19.1191 7.52581 18.6543 6.95237 18.6543C6.37893 18.6543 5.91406 19.1191 5.91406 19.6926C5.91406 20.266 6.37893 20.7308 6.95237 20.7308Z" fill="#00A651"/>
<path d="M6.95237 23.6724C7.52581 23.6724 7.99068 23.2074 7.99068 22.634C7.99068 22.0606 7.52581 21.5957 6.95237 21.5957C6.37893 21.5957 5.91406 22.0606 5.91406 22.634C5.91406 23.2074 6.37893 23.6724 6.95237 23.6724Z" fill="#00A651"/>
<path d="M6.95237 26.6176C7.52581 26.6176 7.99068 26.1528 7.99068 25.5793C7.99068 25.0058 7.52581 24.541 6.95237 24.541C6.37893 24.541 5.91406 25.0058 5.91406 25.5793C5.91406 26.1528 6.37893 26.6176 6.95237 26.6176Z" fill="#00A651"/>
<path d="M6.95237 29.5591C7.52581 29.5591 7.99068 29.0942 7.99068 28.5207C7.99068 27.9474 7.52581 27.4824 6.95237 27.4824C6.37893 27.4824 5.91406 27.9474 5.91406 28.5207C5.91406 29.0942 6.37893 29.5591 6.95237 29.5591Z" fill="#00A651"/>
<path d="M9.90745 14.8491C10.4809 14.8491 10.9458 14.3842 10.9458 13.8108C10.9458 13.2373 10.4809 12.7725 9.90745 12.7725C9.33401 12.7725 8.86914 13.2373 8.86914 13.8108C8.86914 14.3842 9.33401 14.8491 9.90745 14.8491Z" fill="#00A651"/>
<path d="M9.90745 17.7896C10.4809 17.7896 10.9458 17.3248 10.9458 16.7513C10.9458 16.1778 10.4809 15.7129 9.90745 15.7129C9.33401 15.7129 8.86914 16.1778 8.86914 16.7513C8.86914 17.3248 9.33401 17.7896 9.90745 17.7896Z" fill="#00A651"/>
<path d="M9.90745 20.7308C10.4809 20.7308 10.9458 20.266 10.9458 19.6926C10.9458 19.1191 10.4809 18.6543 9.90745 18.6543C9.33401 18.6543 8.86914 19.1191 8.86914 19.6926C8.86914 20.266 9.33401 20.7308 9.90745 20.7308Z" fill="#00A651"/>
<path d="M9.90745 23.6724C10.4809 23.6724 10.9458 23.2074 10.9458 22.634C10.9458 22.0606 10.4809 21.5957 9.90745 21.5957C9.33401 21.5957 8.86914 22.0606 8.86914 22.634C8.86914 23.2074 9.33401 23.6724 9.90745 23.6724Z" fill="#00A651"/>
<path d="M9.90745 26.6176C10.4809 26.6176 10.9458 26.1528 10.9458 25.5793C10.9458 25.0058 10.4809 24.541 9.90745 24.541C9.33401 24.541 8.86914 25.0058 8.86914 25.5793C8.86914 26.1528 9.33401 26.6176 9.90745 26.6176Z" fill="#00A651"/>
<path d="M12.8664 14.8491C13.4399 14.8491 13.9047 14.3842 13.9047 13.8108C13.9047 13.2373 13.4399 12.7725 12.8664 12.7725C12.293 12.7725 11.8281 13.2373 11.8281 13.8108C11.8281 14.3842 12.293 14.8491 12.8664 14.8491Z" fill="#00A651"/>
<path d="M12.8664 17.7896C13.4399 17.7896 13.9047 17.3248 13.9047 16.7513C13.9047 16.1778 13.4399 15.7129 12.8664 15.7129C12.293 15.7129 11.8281 16.1778 11.8281 16.7513C11.8281 17.3248 12.293 17.7896 12.8664 17.7896Z" fill="#00A651"/>
<path d="M12.8664 20.7308C13.4399 20.7308 13.9047 20.266 13.9047 19.6926C13.9047 19.1191 13.4399 18.6543 12.8664 18.6543C12.293 18.6543 11.8281 19.1191 11.8281 19.6926C11.8281 20.266 12.293 20.7308 12.8664 20.7308Z" fill="#00A651"/>
<path d="M12.8664 23.6724C13.4399 23.6724 13.9047 23.2074 13.9047 22.634C13.9047 22.0606 13.4399 21.5957 12.8664 21.5957C12.293 21.5957 11.8281 22.0606 11.8281 22.634C11.8281 23.2074 12.293 23.6724 12.8664 23.6724Z" fill="#00A651"/>
<path d="M15.8264 14.8491C16.3998 14.8491 16.8648 14.3842 16.8648 13.8108C16.8648 13.2373 16.3998 12.7725 15.8264 12.7725C15.253 12.7725 14.7881 13.2373 14.7881 13.8108C14.7881 14.3842 15.253 14.8491 15.8264 14.8491Z" fill="#00A651"/>
<path d="M15.8264 17.7896C16.3998 17.7896 16.8648 17.3248 16.8648 16.7513C16.8648 16.1778 16.3998 15.7129 15.8264 15.7129C15.253 15.7129 14.7881 16.1778 14.7881 16.7513C14.7881 17.3248 15.253 17.7896 15.8264 17.7896Z" fill="#00A651"/>
<path d="M18.7806 17.7896C19.3539 17.7896 19.8189 17.3248 19.8189 16.7513C19.8189 16.1778 19.3539 15.7129 18.7806 15.7129C18.2071 15.7129 17.7422 16.1778 17.7422 16.7513C17.7422 17.3248 18.2071 17.7896 18.7806 17.7896Z" fill="#00A651"/>
<path d="M15.8264 20.7308C16.3998 20.7308 16.8648 20.266 16.8648 19.6926C16.8648 19.1191 16.3998 18.6543 15.8264 18.6543C15.253 18.6543 14.7881 19.1191 14.7881 19.6926C14.7881 20.266 15.253 20.7308 15.8264 20.7308Z" fill="#00A651"/>
<path d="M15.8264 23.6724C16.3998 23.6724 16.8648 23.2074 16.8648 22.634C16.8648 22.0606 16.3998 21.5957 15.8264 21.5957C15.253 21.5957 14.7881 22.0606 14.7881 22.634C14.7881 23.2074 15.253 23.6724 15.8264 23.6724Z" fill="#00A651"/>
<path d="M18.7806 20.7308C19.3539 20.7308 19.8189 20.266 19.8189 19.6926C19.8189 19.1191 19.3539 18.6543 18.7806 18.6543C18.2071 18.6543 17.7422 19.1191 17.7422 19.6926C17.7422 20.266 18.2071 20.7308 18.7806 20.7308Z" fill="#00A651"/>
<path d="M18.7806 23.6724C19.3539 23.6724 19.8189 23.2074 19.8189 22.634C19.8189 22.0606 19.3539 21.5957 18.7806 21.5957C18.2071 21.5957 17.7422 22.0606 17.7422 22.634C17.7422 23.2074 18.2071 23.6724 18.7806 23.6724Z" fill="#00A651"/>
<path d="M21.7404 20.7308C22.3139 20.7308 22.7787 20.266 22.7787 19.6926C22.7787 19.1191 22.3139 18.6543 21.7404 18.6543C21.1669 18.6543 20.7021 19.1191 20.7021 19.6926C20.7021 20.266 21.1669 20.7308 21.7404 20.7308Z" fill="#00A651"/>
<path d="M21.7404 23.6724C22.3139 23.6724 22.7787 23.2074 22.7787 22.634C22.7787 22.0606 22.3139 21.5957 21.7404 21.5957C21.1669 21.5957 20.7021 22.0606 20.7021 22.634C20.7021 23.2074 21.1669 23.6724 21.7404 23.6724Z" fill="#00A651"/>
<path d="M12.8664 26.2515C13.4399 26.2515 13.9047 25.7865 13.9047 25.2132C13.9047 24.6397 13.4399 24.1748 12.8664 24.1748C12.293 24.1748 11.8281 24.6397 11.8281 25.2132C11.8281 25.7865 12.293 26.2515 12.8664 26.2515Z" fill="#00A651"/>
<path d="M15.8264 26.2515C16.3998 26.2515 16.8648 25.7865 16.8648 25.2132C16.8648 24.6397 16.3998 24.1748 15.8264 24.1748C15.253 24.1748 14.7881 24.6397 14.7881 25.2132C14.7881 25.7865 15.253 26.2515 15.8264 26.2515Z" fill="#00A651"/>
<path d="M18.7806 26.2515C19.3539 26.2515 19.8189 25.7865 19.8189 25.2132C19.8189 24.6397 19.3539 24.1748 18.7806 24.1748C18.2071 24.1748 17.7422 24.6397 17.7422 25.2132C17.7422 25.7865 18.2071 26.2515 18.7806 26.2515Z" fill="#00A651"/>
<path d="M21.7404 26.2515C22.3139 26.2515 22.7787 25.7865 22.7787 25.2132C22.7787 24.6397 22.3139 24.1748 21.7404 24.1748C21.1669 24.1748 20.7021 24.6397 20.7021 25.2132C20.7021 25.7865 21.1669 26.2515 21.7404 26.2515Z" fill="#00A651"/>
<path d="M24.6955 20.7308C25.269 20.7308 25.7339 20.266 25.7339 19.6926C25.7339 19.1191 25.269 18.6543 24.6955 18.6543C24.1222 18.6543 23.6572 19.1191 23.6572 19.6926C23.6572 20.266 24.1222 20.7308 24.6955 20.7308Z" fill="#00A651"/>
<path d="M24.6955 23.6724C25.269 23.6724 25.7339 23.2074 25.7339 22.634C25.7339 22.0606 25.269 21.5957 24.6955 21.5957C24.1222 21.5957 23.6572 22.0606 23.6572 22.634C23.6572 23.2074 24.1222 23.6724 24.6955 23.6724Z" fill="#00A651"/>
<path d="M24.6955 26.6176C25.269 26.6176 25.7339 26.1528 25.7339 25.5793C25.7339 25.0058 25.269 24.541 24.6955 24.541C24.1222 24.541 23.6572 25.0058 23.6572 25.5793C23.6572 26.1528 24.1222 26.6176 24.6955 26.6176Z" fill="#00A651"/>
<path d="M24.6955 29.5591C25.269 29.5591 25.7339 29.0942 25.7339 28.5207C25.7339 27.9474 25.269 27.4824 24.6955 27.4824C24.1222 27.4824 23.6572 27.9474 23.6572 28.5207C23.6572 29.0942 24.1222 29.5591 24.6955 29.5591Z" fill="#00A651"/>
<path d="M27.6545 20.7308C28.2279 20.7308 28.6927 20.266 28.6927 19.6926C28.6927 19.1191 28.2279 18.6543 27.6545 18.6543C27.081 18.6543 26.6162 19.1191 26.6162 19.6926C26.6162 20.266 27.081 20.7308 27.6545 20.7308Z" fill="#00A651"/>
<path d="M27.6545 23.6724C28.2279 23.6724 28.6927 23.2074 28.6927 22.634C28.6927 22.0606 28.2279 21.5957 27.6545 21.5957C27.081 21.5957 26.6162 22.0606 26.6162 22.634C26.6162 23.2074 27.081 23.6724 27.6545 23.6724Z" fill="#00A651"/>
<path d="M27.6545 26.6176C28.2279 26.6176 28.6927 26.1528 28.6927 25.5793C28.6927 25.0058 28.2279 24.541 27.6545 24.541C27.081 24.541 26.6162 25.0058 26.6162 25.5793C26.6162 26.1528 27.081 26.6176 27.6545 26.6176Z" fill="#00A651"/>
<path d="M27.6545 29.5591C28.2279 29.5591 28.6927 29.0942 28.6927 28.5207C28.6927 27.9474 28.2279 27.4824 27.6545 27.4824C27.081 27.4824 26.6162 27.9474 26.6162 28.5207C26.6162 29.0942 27.081 29.5591 27.6545 29.5591Z" fill="#00A651"/>
<path d="M30.6096 23.6724C31.183 23.6724 31.648 23.2074 31.648 22.634C31.648 22.0606 31.183 21.5957 30.6096 21.5957C30.0361 21.5957 29.5713 22.0606 29.5713 22.634C29.5713 23.2074 30.0361 23.6724 30.6096 23.6724Z" fill="#00A651"/>
<path d="M33.2033 23.6724C33.7768 23.6724 34.2417 23.2074 34.2417 22.634C34.2417 22.0606 33.7768 21.5957 33.2033 21.5957C32.6298 21.5957 32.165 22.0606 32.165 22.634C32.165 23.2074 32.6298 23.6724 33.2033 23.6724Z" fill="#00A651"/>
<path d="M30.6096 29.5591C31.183 29.5591 31.648 29.0942 31.648 28.5207C31.648 27.9474 31.183 27.4824 30.6096 27.4824C30.0361 27.4824 29.5713 27.9474 29.5713 28.5207C29.5713 29.0942 30.0361 29.5591 30.6096 29.5591Z" fill="#00A651"/>
<path d="M30.6096 32.4995C31.183 32.4995 31.648 32.0347 31.648 31.4613C31.648 30.8878 31.183 30.4229 30.6096 30.4229C30.0361 30.4229 29.5713 30.8878 29.5713 31.4613C29.5713 32.0347 30.0361 32.4995 30.6096 32.4995Z" fill="#00A651"/>
<path d="M33.5687 20.7308C34.1421 20.7308 34.6069 20.266 34.6069 19.6926C34.6069 19.1191 34.1421 18.6543 33.5687 18.6543C32.9952 18.6543 32.5303 19.1191 32.5303 19.6926C32.5303 20.266 32.9952 20.7308 33.5687 20.7308Z" fill="#00A651"/>
<path d="M33.5687 29.5591C34.1421 29.5591 34.6069 29.0942 34.6069 28.5207C34.6069 27.9474 34.1421 27.4824 33.5687 27.4824C32.9952 27.4824 32.5303 27.9474 32.5303 28.5207C32.5303 29.0942 32.9952 29.5591 33.5687 29.5591Z" fill="#00A651"/>
<path d="M33.5687 32.4995C34.1421 32.4995 34.6069 32.0347 34.6069 31.4613C34.6069 30.8878 34.1421 30.4229 33.5687 30.4229C32.9952 30.4229 32.5303 30.8878 32.5303 31.4613C32.5303 32.0347 32.9952 32.4995 33.5687 32.4995Z" fill="#00A651"/>
<path d="M54.4726 8.3582C54.4726 10.8831 53.8459 12.8255 52.5927 14.1856C51.3394 15.5456 49.5418 16.224 47.1999 16.2209C44.8579 16.2209 43.0619 15.5425 41.8116 14.1856C40.5614 12.8286 39.9347 10.8785 39.9316 8.33533C39.9316 5.79216 40.5599 3.85125 41.8162 2.51257C43.0726 1.17391 44.8747 0.503049 47.2227 0.5C49.5707 0.5 51.3652 1.17543 52.6063 2.52631C53.8504 3.88021 54.4726 5.81961 54.4726 8.3582ZM43.3256 8.3582C43.3256 10.0628 43.6488 11.3466 44.2954 12.2095C44.6367 12.6466 45.0799 12.9935 45.5862 13.22C46.0924 13.4464 46.6464 13.5455 47.1999 13.5086C49.7858 13.5086 51.0771 11.7918 51.074 8.3582C51.071 4.92463 49.7872 3.20325 47.2227 3.19411C46.667 3.15824 46.111 3.25817 45.6026 3.48529C45.094 3.71241 44.6486 4.05989 44.3044 4.49771C43.6504 5.36221 43.3256 6.65209 43.3256 8.3582Z" fill="#00A651"/>
<path d="M63.4325 7.43843H69.4932V15.3561C68.5902 15.6648 67.663 15.8973 66.7213 16.0513C65.8398 16.1803 64.95 16.2445 64.0592 16.2435C61.7538 16.2435 59.9944 15.5665 58.7808 14.2125C57.567 12.8587 56.9572 10.9147 56.9512 8.38069C56.9512 5.91375 57.657 3.99113 59.0689 2.61282C60.4808 1.2345 62.4414 0.537723 64.951 0.522476C66.5105 0.519896 68.0536 0.839112 69.484 1.46016L68.409 4.05363C67.3324 3.50483 66.1413 3.21803 64.9328 3.21659C64.3012 3.18759 63.6709 3.29795 63.0868 3.53983C62.5026 3.78173 61.9788 4.14922 61.5526 4.61625C60.6702 5.67665 60.2196 7.03043 60.2901 8.40813C60.2901 10.0685 60.6286 11.3309 61.3056 12.2046C61.6592 12.6439 62.1126 12.9923 62.6282 13.2206C63.1438 13.449 63.7066 13.5507 64.2696 13.5173C64.9594 13.5163 65.6476 13.4458 66.3233 13.3069V10.1051H63.428L63.4325 7.43843Z" fill="#00A651"/>
<path d="M85.5617 0.742188V10.6221C85.5832 11.6623 85.3206 12.6886 84.8025 13.5907C84.289 14.4487 83.5264 15.13 82.6161 15.5438C81.5521 16.0182 80.3958 16.2494 79.2313 16.2207C77.2644 16.2207 75.7397 15.7176 74.6572 14.7114C74.1084 14.1807 73.679 13.5389 73.3982 12.8289C73.1174 12.119 72.9914 11.3572 73.0289 10.5947V0.742188H76.2581V10.1053C76.2581 11.2808 76.4914 12.1453 76.9672 12.6942C77.4428 13.243 78.225 13.5221 79.3181 13.5221C80.4113 13.5221 81.1479 13.243 81.6052 12.6896C82.0627 12.1361 82.3233 11.2671 82.3233 10.0824V0.742188H85.5617Z" fill="#00A651"/>
<path d="M102.847 16.015H98.7304L92.089 4.46088H91.993C92.1271 6.50091 92.1942 7.95546 92.1942 8.82452V16.015H89.2988V0.742188H93.3834L100.016 12.1773H100.093C99.9883 10.1922 99.9335 8.7925 99.9335 7.96918V0.742188H102.847V16.015Z" fill="#00A651"/>
<path d="M43.3117 20.1689C43.5337 20.3794 43.7072 20.6358 43.8201 20.9202C43.9331 21.2045 43.9828 21.5101 43.9659 21.8155C43.9813 22.1226 43.9329 22.4297 43.8235 22.7171C43.714 23.0045 43.546 23.2661 43.33 23.485C42.788 23.9341 42.0923 24.1539 41.3907 24.0979H39.8857V19.5925H41.4409C42.1149 19.5419 42.7831 19.7478 43.3117 20.1689ZM43.1973 21.8338C43.1973 20.8001 42.6028 20.2786 41.4135 20.2786H40.6496V23.3798H41.5004C41.9535 23.4109 42.4017 23.2722 42.7583 22.991C42.9081 22.8433 43.0248 22.6653 43.1005 22.4689C43.1763 22.2725 43.2093 22.0622 43.1973 21.8521V21.8338Z" fill="#00A651"/>
<path d="M45.5986 19.5918H46.3578V24.1155H45.5986V19.5918Z" fill="#00A651"/>
<path d="M51.3941 21.9161H52.1443V23.4622C51.9088 23.706 51.6233 23.8956 51.3075 24.018C50.9915 24.1404 50.6527 24.1926 50.3147 24.1712C50.0045 24.1789 49.6963 24.1242 49.4077 24.0102C49.1193 23.8964 48.8569 23.7256 48.6359 23.508C48.1976 23.06 47.9521 22.4582 47.9521 21.8316C47.9521 21.2049 48.1976 20.603 48.6359 20.1552C48.8553 19.9349 49.1173 19.7616 49.406 19.646C49.6947 19.5304 50.0037 19.4749 50.3147 19.4828C50.9084 19.463 51.488 19.667 51.9384 20.0545L51.5451 20.6262C51.3884 20.488 51.2067 20.3809 51.0099 20.3106C50.808 20.2508 50.5983 20.2214 50.3877 20.2238C50.1751 20.2205 49.9637 20.2593 49.7659 20.3377C49.5681 20.4162 49.3877 20.5329 49.2351 20.6812C48.9396 20.9958 48.7751 21.4113 48.7751 21.843C48.7751 22.2746 48.9396 22.6901 49.2351 23.0048C49.3779 23.151 49.5488 23.2668 49.7373 23.3454C49.926 23.424 50.1285 23.4637 50.3329 23.4622C50.7105 23.4744 51.0837 23.3776 51.4077 23.1832L51.3941 21.9161Z" fill="#00A651"/>
<path d="M53.8086 19.5918H54.5725V24.1155H53.8086V19.5918Z" fill="#00A651"/>
<path d="M58.1859 20.2917V24.1155H57.4221V20.2917H56.0498V19.5918H59.5582V20.2917H58.1859Z" fill="#00A651"/>
<path d="M61.3201 23.0865L60.8627 24.1155H60.0439L62.0382 19.5918H62.857L64.8466 24.1155H64.037L63.5797 23.0865H61.3201ZM63.2731 22.3821L62.4498 20.5158L61.6311 22.3821H63.2731Z" fill="#00A651"/>
<path d="M66.127 24.1155V19.5918H66.8908V23.3929H68.9583V24.1155H66.127Z" fill="#00A651"/>
<path d="M74.2272 20.1688C74.0348 20.1611 73.8444 20.2087 73.6782 20.306C73.6097 20.3498 73.5542 20.411 73.5172 20.4834C73.4802 20.5556 73.4632 20.6366 73.4678 20.7176C73.4614 20.8003 73.4777 20.8831 73.5148 20.9572C73.5518 21.0314 73.6084 21.094 73.6782 21.1386C73.9662 21.2867 74.2745 21.3915 74.593 21.4495C74.9744 21.5187 75.3345 21.6752 75.645 21.907C75.7693 22.0228 75.8654 22.1654 75.9265 22.3238C75.9876 22.4823 76.0117 22.6526 75.9973 22.8218C76.0005 23.0063 75.9609 23.1891 75.8814 23.3558C75.8021 23.5224 75.6852 23.6684 75.5398 23.7823C75.2062 24.0416 74.7909 24.173 74.3689 24.1528C73.6705 24.1575 72.9966 23.8958 72.4844 23.421L72.9646 22.8446C73.3502 23.21 73.8562 23.4216 74.3872 23.4392C74.5945 23.4503 74.7998 23.3942 74.9726 23.2791C75.0417 23.2331 75.098 23.1704 75.1364 23.0968C75.1746 23.0234 75.194 22.9412 75.1922 22.8583C75.1988 22.7816 75.1858 22.7046 75.1546 22.6342C75.1234 22.5639 75.075 22.5026 75.0138 22.4559C74.797 22.329 74.5605 22.2392 74.3141 22.1906C74.0562 22.135 73.8025 22.0616 73.5548 21.971C73.3909 21.9059 73.2369 21.818 73.0973 21.7103C72.9641 21.5996 72.8586 21.4591 72.7894 21.3003C72.7204 21.1414 72.6894 20.9684 72.6994 20.7955C72.6906 20.6087 72.7277 20.4227 72.8074 20.2536C72.8872 20.0846 73.0072 19.9378 73.1568 19.8258C73.4868 19.5935 73.8833 19.4747 74.2866 19.4872C74.5805 19.4871 74.8726 19.535 75.151 19.6291C75.4197 19.7156 75.6696 19.8523 75.8876 20.0316L75.4713 20.6262C75.3126 20.4902 75.1272 20.3888 74.9269 20.329C74.7046 20.2356 74.4678 20.1814 74.2272 20.1688Z" fill="#00A651"/>
<path d="M78.6004 23.0818C78.7088 23.1959 78.8394 23.2867 78.9841 23.3487C79.1288 23.4107 79.2845 23.4427 79.442 23.4427C79.5993 23.4427 79.7552 23.4107 79.8998 23.3487C80.0445 23.2867 80.175 23.1959 80.2836 23.0818C80.5024 22.8022 80.6128 22.453 80.5946 22.0985V19.5918H81.3585V22.1305C81.3764 22.4049 81.3377 22.6801 81.2448 22.9389C81.152 23.1978 81.0069 23.4349 80.8188 23.6353C80.4409 23.9719 79.9525 24.1579 79.4465 24.1579C78.9405 24.1579 78.4521 23.9719 78.0742 23.6353C77.8861 23.4349 77.741 23.1978 77.6482 22.9389C77.5553 22.6801 77.5167 22.4049 77.5345 22.1305V19.5918H78.2984V22.0985C78.2776 22.4518 78.3848 22.801 78.6004 23.0818Z" fill="#00A651"/>
<path d="M83.966 24.1155H83.2021V19.5918H84.3913L85.7636 22.4323L87.1357 19.5918H88.3204V24.1155H87.5475V20.5845L85.9648 23.7222H85.5348L83.9613 20.5845L83.966 24.1155Z" fill="#00A651"/>
<path d="M90.9777 24.1155H90.2139V19.5918H91.4031L92.7753 22.4323L94.1475 19.5918H95.3321V24.1155H94.5683V20.5845L92.9903 23.7222H92.5603L90.9915 20.5845L90.9777 24.1155Z" fill="#00A651"/>
<path d="M97.2217 19.5918H97.9855V24.1155H97.2217V19.5918Z" fill="#00A651"/>
<path d="M101.599 20.2917V24.1155H100.835V20.2917H99.4629V19.5918H102.971V20.2917H101.599Z" fill="#00A651"/>
</g>
<defs>
<clipPath id="clip0_1211_9096">
<rect width="104" height="32" fill="white" transform="translate(0 0.5)"/>
</clipPath>
</defs>
</svg>
