<svg width="104" height="32" viewBox="0 0 104 32" fill="none" xmlns="http://www.w3.org/2000/svg">
<path d="M1.03831 2.57955C1.61175 2.57955 2.07661 2.11468 2.07661 1.54124C2.07661 0.967796 1.61175 0.50293 1.03831 0.50293C0.464867 0.50293 0 0.967796 0 1.54124C0 2.11468 0.464867 2.57955 1.03831 2.57955Z" fill="#00A651"/>
<path d="M1.03831 5.52095C1.61175 5.52095 2.07661 5.05608 2.07661 4.48264C2.07661 3.9092 1.61175 3.44434 1.03831 3.44434C0.464867 3.44434 0 3.9092 0 4.48264C0 5.05608 0.464867 5.52095 1.03831 5.52095Z" fill="#00A651"/>
<path d="M1.03831 8.46236C1.61175 8.46236 2.07661 7.99749 2.07661 7.42405C2.07661 6.85061 1.61175 6.38574 1.03831 6.38574C0.464867 6.38574 0 6.85061 0 7.42405C0 7.99749 0.464867 8.46236 1.03831 8.46236Z" fill="#00A651"/>
<path d="M1.03831 11.4028C1.61175 11.4028 2.07661 10.9379 2.07661 10.3645C2.07661 9.79104 1.61175 9.32617 1.03831 9.32617C0.464867 9.32617 0 9.79104 0 10.3645C0 10.9379 0.464867 11.4028 1.03831 11.4028Z" fill="#00A651"/>
<path d="M1.03831 14.3491C1.61175 14.3491 2.07661 13.8842 2.07661 13.3108C2.07661 12.7373 1.61175 12.2725 1.03831 12.2725C0.464867 12.2725 0 12.7373 0 13.3108C0 13.8842 0.464867 14.3491 1.03831 14.3491Z" fill="#00A651"/>
<path d="M1.03831 17.2896C1.61175 17.2896 2.07661 16.8248 2.07661 16.2513C2.07661 15.6778 1.61175 15.2129 1.03831 15.2129C0.464867 15.2129 0 15.6778 0 16.2513C0 16.8248 0.464867 17.2896 1.03831 17.2896Z" fill="#00A651"/>
<path d="M1.03831 20.2308C1.61175 20.2308 2.07661 19.766 2.07661 19.1926C2.07661 18.6191 1.61175 18.1543 1.03831 18.1543C0.464867 18.1543 0 18.6191 0 19.1926C0 19.766 0.464867 20.2308 1.03831 20.2308Z" fill="#00A651"/>
<path d="M1.03831 23.1724C1.61175 23.1724 2.07661 22.7074 2.07661 22.134C2.07661 21.5606 1.61175 21.0957 1.03831 21.0957C0.464867 21.0957 0 21.5606 0 22.134C0 22.7074 0.464867 23.1724 1.03831 23.1724Z" fill="#00A651"/>
<path d="M1.03831 26.1176C1.61175 26.1176 2.07661 25.6528 2.07661 25.0793C2.07661 24.5058 1.61175 24.041 1.03831 24.041C0.464867 24.041 0 24.5058 0 25.0793C0 25.6528 0.464867 26.1176 1.03831 26.1176Z" fill="#00A651"/>
<path d="M1.03831 29.0591C1.61175 29.0591 2.07661 28.5942 2.07661 28.0207C2.07661 27.4474 1.61175 26.9824 1.03831 26.9824C0.464867 26.9824 0 27.4474 0 28.0207C0 28.5942 0.464867 29.0591 1.03831 29.0591Z" fill="#00A651"/>
<path d="M3.99338 5.52095C4.56684 5.52095 5.0317 5.05608 5.0317 4.48264C5.0317 3.9092 4.56684 3.44434 3.99338 3.44434C3.41994 3.44434 2.95508 3.9092 2.95508 4.48264C2.95508 5.05608 3.41994 5.52095 3.99338 5.52095Z" fill="#00A651"/>
<path d="M3.99338 8.46236C4.56684 8.46236 5.0317 7.99749 5.0317 7.42405C5.0317 6.85061 4.56684 6.38574 3.99338 6.38574C3.41994 6.38574 2.95508 6.85061 2.95508 7.42405C2.95508 7.99749 3.41994 8.46236 3.99338 8.46236Z" fill="#00A651"/>
<path d="M3.99338 11.4028C4.56684 11.4028 5.0317 10.9379 5.0317 10.3645C5.0317 9.79104 4.56684 9.32617 3.99338 9.32617C3.41994 9.32617 2.95508 9.79104 2.95508 10.3645C2.95508 10.9379 3.41994 11.4028 3.99338 11.4028Z" fill="#00A651"/>
<path d="M3.99338 14.3491C4.56684 14.3491 5.0317 13.8842 5.0317 13.3108C5.0317 12.7373 4.56684 12.2725 3.99338 12.2725C3.41994 12.2725 2.95508 12.7373 2.95508 13.3108C2.95508 13.8842 3.41994 14.3491 3.99338 14.3491Z" fill="#00A651"/>
<path d="M3.99338 17.2896C4.56684 17.2896 5.0317 16.8248 5.0317 16.2513C5.0317 15.6778 4.56684 15.2129 3.99338 15.2129C3.41994 15.2129 2.95508 15.6778 2.95508 16.2513C2.95508 16.8248 3.41994 17.2896 3.99338 17.2896Z" fill="#00A651"/>
<path d="M3.99338 20.2308C4.56684 20.2308 5.0317 19.766 5.0317 19.1926C5.0317 18.6191 4.56684 18.1543 3.99338 18.1543C3.41994 18.1543 2.95508 18.6191 2.95508 19.1926C2.95508 19.766 3.41994 20.2308 3.99338 20.2308Z" fill="#00A651"/>
<path d="M3.99338 23.1724C4.56684 23.1724 5.0317 22.7074 5.0317 22.134C5.0317 21.5606 4.56684 21.0957 3.99338 21.0957C3.41994 21.0957 2.95508 21.5606 2.95508 22.134C2.95508 22.7074 3.41994 23.1724 3.99338 23.1724Z" fill="#00A651"/>
<path d="M3.99338 26.1176C4.56684 26.1176 5.0317 25.6528 5.0317 25.0793C5.0317 24.5058 4.56684 24.041 3.99338 24.041C3.41994 24.041 2.95508 24.5058 2.95508 25.0793C2.95508 25.6528 3.41994 26.1176 3.99338 26.1176Z" fill="#00A651"/>
<path d="M3.99338 29.0591C4.56684 29.0591 5.0317 28.5942 5.0317 28.0207C5.0317 27.4474 4.56684 26.9824 3.99338 26.9824C3.41994 26.9824 2.95508 27.4474 2.95508 28.0207C2.95508 28.5942 3.41994 29.0591 3.99338 29.0591Z" fill="#00A651"/>
<path d="M6.95237 14.3491C7.52581 14.3491 7.99068 13.8842 7.99068 13.3108C7.99068 12.7373 7.52581 12.2725 6.95237 12.2725C6.37893 12.2725 5.91406 12.7373 5.91406 13.3108C5.91406 13.8842 6.37893 14.3491 6.95237 14.3491Z" fill="#00A651"/>
<path d="M6.95237 17.2896C7.52581 17.2896 7.99068 16.8248 7.99068 16.2513C7.99068 15.6778 7.52581 15.2129 6.95237 15.2129C6.37893 15.2129 5.91406 15.6778 5.91406 16.2513C5.91406 16.8248 6.37893 17.2896 6.95237 17.2896Z" fill="#00A651"/>
<path d="M6.95237 20.2308C7.52581 20.2308 7.99068 19.766 7.99068 19.1926C7.99068 18.6191 7.52581 18.1543 6.95237 18.1543C6.37893 18.1543 5.91406 18.6191 5.91406 19.1926C5.91406 19.766 6.37893 20.2308 6.95237 20.2308Z" fill="#00A651"/>
<path d="M6.95237 23.1724C7.52581 23.1724 7.99068 22.7074 7.99068 22.134C7.99068 21.5606 7.52581 21.0957 6.95237 21.0957C6.37893 21.0957 5.91406 21.5606 5.91406 22.134C5.91406 22.7074 6.37893 23.1724 6.95237 23.1724Z" fill="#00A651"/>
<path d="M6.95237 26.1176C7.52581 26.1176 7.99068 25.6528 7.99068 25.0793C7.99068 24.5058 7.52581 24.041 6.95237 24.041C6.37893 24.041 5.91406 24.5058 5.91406 25.0793C5.91406 25.6528 6.37893 26.1176 6.95237 26.1176Z" fill="#00A651"/>
<path d="M6.95237 29.0591C7.52581 29.0591 7.99068 28.5942 7.99068 28.0207C7.99068 27.4474 7.52581 26.9824 6.95237 26.9824C6.37893 26.9824 5.91406 27.4474 5.91406 28.0207C5.91406 28.5942 6.37893 29.0591 6.95237 29.0591Z" fill="#00A651"/>
<path d="M9.90745 14.3491C10.4809 14.3491 10.9458 13.8842 10.9458 13.3108C10.9458 12.7373 10.4809 12.2725 9.90745 12.2725C9.33401 12.2725 8.86914 12.7373 8.86914 13.3108C8.86914 13.8842 9.33401 14.3491 9.90745 14.3491Z" fill="#00A651"/>
<path d="M9.90745 17.2896C10.4809 17.2896 10.9458 16.8248 10.9458 16.2513C10.9458 15.6778 10.4809 15.2129 9.90745 15.2129C9.33401 15.2129 8.86914 15.6778 8.86914 16.2513C8.86914 16.8248 9.33401 17.2896 9.90745 17.2896Z" fill="#00A651"/>
<path d="M9.90745 20.2308C10.4809 20.2308 10.9458 19.766 10.9458 19.1926C10.9458 18.6191 10.4809 18.1543 9.90745 18.1543C9.33401 18.1543 8.86914 18.6191 8.86914 19.1926C8.86914 19.766 9.33401 20.2308 9.90745 20.2308Z" fill="#00A651"/>
<path d="M9.90745 23.1724C10.4809 23.1724 10.9458 22.7074 10.9458 22.134C10.9458 21.5606 10.4809 21.0957 9.90745 21.0957C9.33401 21.0957 8.86914 21.5606 8.86914 22.134C8.86914 22.7074 9.33401 23.1724 9.90745 23.1724Z" fill="#00A651"/>
<path d="M9.90745 26.1176C10.4809 26.1176 10.9458 25.6528 10.9458 25.0793C10.9458 24.5058 10.4809 24.041 9.90745 24.041C9.33401 24.041 8.86914 24.5058 8.86914 25.0793C8.86914 25.6528 9.33401 26.1176 9.90745 26.1176Z" fill="#00A651"/>
<path d="M12.8664 14.3491C13.4399 14.3491 13.9047 13.8842 13.9047 13.3108C13.9047 12.7373 13.4399 12.2725 12.8664 12.2725C12.293 12.2725 11.8281 12.7373 11.8281 13.3108C11.8281 13.8842 12.293 14.3491 12.8664 14.3491Z" fill="#00A651"/>
<path d="M12.8664 17.2896C13.4399 17.2896 13.9047 16.8248 13.9047 16.2513C13.9047 15.6778 13.4399 15.2129 12.8664 15.2129C12.293 15.2129 11.8281 15.6778 11.8281 16.2513C11.8281 16.8248 12.293 17.2896 12.8664 17.2896Z" fill="#00A651"/>
<path d="M12.8664 20.2308C13.4399 20.2308 13.9047 19.766 13.9047 19.1926C13.9047 18.6191 13.4399 18.1543 12.8664 18.1543C12.293 18.1543 11.8281 18.6191 11.8281 19.1926C11.8281 19.766 12.293 20.2308 12.8664 20.2308Z" fill="#00A651"/>
<path d="M12.8664 23.1724C13.4399 23.1724 13.9047 22.7074 13.9047 22.134C13.9047 21.5606 13.4399 21.0957 12.8664 21.0957C12.293 21.0957 11.8281 21.5606 11.8281 22.134C11.8281 22.7074 12.293 23.1724 12.8664 23.1724Z" fill="#00A651"/>
<path d="M15.8264 14.3491C16.3998 14.3491 16.8648 13.8842 16.8648 13.3108C16.8648 12.7373 16.3998 12.2725 15.8264 12.2725C15.253 12.2725 14.7881 12.7373 14.7881 13.3108C14.7881 13.8842 15.253 14.3491 15.8264 14.3491Z" fill="#00A651"/>
<path d="M15.8264 17.2896C16.3998 17.2896 16.8648 16.8248 16.8648 16.2513C16.8648 15.6778 16.3998 15.2129 15.8264 15.2129C15.253 15.2129 14.7881 15.6778 14.7881 16.2513C14.7881 16.8248 15.253 17.2896 15.8264 17.2896Z" fill="#00A651"/>
<path d="M18.7806 17.2896C19.3539 17.2896 19.8189 16.8248 19.8189 16.2513C19.8189 15.6778 19.3539 15.2129 18.7806 15.2129C18.2071 15.2129 17.7422 15.6778 17.7422 16.2513C17.7422 16.8248 18.2071 17.2896 18.7806 17.2896Z" fill="#00A651"/>
<path d="M15.8264 20.2308C16.3998 20.2308 16.8648 19.766 16.8648 19.1926C16.8648 18.6191 16.3998 18.1543 15.8264 18.1543C15.253 18.1543 14.7881 18.6191 14.7881 19.1926C14.7881 19.766 15.253 20.2308 15.8264 20.2308Z" fill="#00A651"/>
<path d="M15.8264 23.1724C16.3998 23.1724 16.8648 22.7074 16.8648 22.134C16.8648 21.5606 16.3998 21.0957 15.8264 21.0957C15.253 21.0957 14.7881 21.5606 14.7881 22.134C14.7881 22.7074 15.253 23.1724 15.8264 23.1724Z" fill="#00A651"/>
<path d="M18.7806 20.2308C19.3539 20.2308 19.8189 19.766 19.8189 19.1926C19.8189 18.6191 19.3539 18.1543 18.7806 18.1543C18.2071 18.1543 17.7422 18.6191 17.7422 19.1926C17.7422 19.766 18.2071 20.2308 18.7806 20.2308Z" fill="#00A651"/>
<path d="M18.7806 23.1724C19.3539 23.1724 19.8189 22.7074 19.8189 22.134C19.8189 21.5606 19.3539 21.0957 18.7806 21.0957C18.2071 21.0957 17.7422 21.5606 17.7422 22.134C17.7422 22.7074 18.2071 23.1724 18.7806 23.1724Z" fill="#00A651"/>
<path d="M21.7404 20.2308C22.3139 20.2308 22.7787 19.766 22.7787 19.1926C22.7787 18.6191 22.3139 18.1543 21.7404 18.1543C21.1669 18.1543 20.7021 18.6191 20.7021 19.1926C20.7021 19.766 21.1669 20.2308 21.7404 20.2308Z" fill="#00A651"/>
<path d="M21.7404 23.1724C22.3139 23.1724 22.7787 22.7074 22.7787 22.134C22.7787 21.5606 22.3139 21.0957 21.7404 21.0957C21.1669 21.0957 20.7021 21.5606 20.7021 22.134C20.7021 22.7074 21.1669 23.1724 21.7404 23.1724Z" fill="#00A651"/>
<path d="M12.8664 25.7515C13.4399 25.7515 13.9047 25.2865 13.9047 24.7132C13.9047 24.1397 13.4399 23.6748 12.8664 23.6748C12.293 23.6748 11.8281 24.1397 11.8281 24.7132C11.8281 25.2865 12.293 25.7515 12.8664 25.7515Z" fill="#00A651"/>
<path d="M15.8264 25.7515C16.3998 25.7515 16.8648 25.2865 16.8648 24.7132C16.8648 24.1397 16.3998 23.6748 15.8264 23.6748C15.253 23.6748 14.7881 24.1397 14.7881 24.7132C14.7881 25.2865 15.253 25.7515 15.8264 25.7515Z" fill="#00A651"/>
<path d="M18.7806 25.7515C19.3539 25.7515 19.8189 25.2865 19.8189 24.7132C19.8189 24.1397 19.3539 23.6748 18.7806 23.6748C18.2071 23.6748 17.7422 24.1397 17.7422 24.7132C17.7422 25.2865 18.2071 25.7515 18.7806 25.7515Z" fill="#00A651"/>
<path d="M21.7404 25.7515C22.3139 25.7515 22.7787 25.2865 22.7787 24.7132C22.7787 24.1397 22.3139 23.6748 21.7404 23.6748C21.1669 23.6748 20.7021 24.1397 20.7021 24.7132C20.7021 25.2865 21.1669 25.7515 21.7404 25.7515Z" fill="#00A651"/>
<path d="M24.6955 20.2308C25.269 20.2308 25.7339 19.766 25.7339 19.1926C25.7339 18.6191 25.269 18.1543 24.6955 18.1543C24.1222 18.1543 23.6572 18.6191 23.6572 19.1926C23.6572 19.766 24.1222 20.2308 24.6955 20.2308Z" fill="#00A651"/>
<path d="M24.6955 23.1724C25.269 23.1724 25.7339 22.7074 25.7339 22.134C25.7339 21.5606 25.269 21.0957 24.6955 21.0957C24.1222 21.0957 23.6572 21.5606 23.6572 22.134C23.6572 22.7074 24.1222 23.1724 24.6955 23.1724Z" fill="#00A651"/>
<path d="M24.6955 26.1176C25.269 26.1176 25.7339 25.6528 25.7339 25.0793C25.7339 24.5058 25.269 24.041 24.6955 24.041C24.1222 24.041 23.6572 24.5058 23.6572 25.0793C23.6572 25.6528 24.1222 26.1176 24.6955 26.1176Z" fill="#00A651"/>
<path d="M24.6955 29.0591C25.269 29.0591 25.7339 28.5942 25.7339 28.0207C25.7339 27.4474 25.269 26.9824 24.6955 26.9824C24.1222 26.9824 23.6572 27.4474 23.6572 28.0207C23.6572 28.5942 24.1222 29.0591 24.6955 29.0591Z" fill="#00A651"/>
<path d="M27.6545 20.2308C28.2279 20.2308 28.6927 19.766 28.6927 19.1926C28.6927 18.6191 28.2279 18.1543 27.6545 18.1543C27.081 18.1543 26.6162 18.6191 26.6162 19.1926C26.6162 19.766 27.081 20.2308 27.6545 20.2308Z" fill="#00A651"/>
<path d="M27.6545 23.1724C28.2279 23.1724 28.6927 22.7074 28.6927 22.134C28.6927 21.5606 28.2279 21.0957 27.6545 21.0957C27.081 21.0957 26.6162 21.5606 26.6162 22.134C26.6162 22.7074 27.081 23.1724 27.6545 23.1724Z" fill="#00A651"/>
<path d="M27.6545 26.1176C28.2279 26.1176 28.6927 25.6528 28.6927 25.0793C28.6927 24.5058 28.2279 24.041 27.6545 24.041C27.081 24.041 26.6162 24.5058 26.6162 25.0793C26.6162 25.6528 27.081 26.1176 27.6545 26.1176Z" fill="#00A651"/>
<path d="M27.6545 29.0591C28.2279 29.0591 28.6927 28.5942 28.6927 28.0207C28.6927 27.4474 28.2279 26.9824 27.6545 26.9824C27.081 26.9824 26.6162 27.4474 26.6162 28.0207C26.6162 28.5942 27.081 29.0591 27.6545 29.0591Z" fill="#00A651"/>
<path d="M30.6096 23.1724C31.183 23.1724 31.648 22.7074 31.648 22.134C31.648 21.5606 31.183 21.0957 30.6096 21.0957C30.0361 21.0957 29.5713 21.5606 29.5713 22.134C29.5713 22.7074 30.0361 23.1724 30.6096 23.1724Z" fill="#00A651"/>
<path d="M33.2033 23.1724C33.7768 23.1724 34.2417 22.7074 34.2417 22.134C34.2417 21.5606 33.7768 21.0957 33.2033 21.0957C32.6298 21.0957 32.165 21.5606 32.165 22.134C32.165 22.7074 32.6298 23.1724 33.2033 23.1724Z" fill="#00A651"/>
<path d="M30.6096 29.0591C31.183 29.0591 31.648 28.5942 31.648 28.0207C31.648 27.4474 31.183 26.9824 30.6096 26.9824C30.0361 26.9824 29.5713 27.4474 29.5713 28.0207C29.5713 28.5942 30.0361 29.0591 30.6096 29.0591Z" fill="#00A651"/>
<path d="M30.6096 31.9995C31.183 31.9995 31.648 31.5347 31.648 30.9613C31.648 30.3878 31.183 29.9229 30.6096 29.9229C30.0361 29.9229 29.5713 30.3878 29.5713 30.9613C29.5713 31.5347 30.0361 31.9995 30.6096 31.9995Z" fill="#00A651"/>
<path d="M33.5687 20.2308C34.1421 20.2308 34.6069 19.766 34.6069 19.1926C34.6069 18.6191 34.1421 18.1543 33.5687 18.1543C32.9952 18.1543 32.5303 18.6191 32.5303 19.1926C32.5303 19.766 32.9952 20.2308 33.5687 20.2308Z" fill="#00A651"/>
<path d="M33.5687 29.0591C34.1421 29.0591 34.6069 28.5942 34.6069 28.0207C34.6069 27.4474 34.1421 26.9824 33.5687 26.9824C32.9952 26.9824 32.5303 27.4474 32.5303 28.0207C32.5303 28.5942 32.9952 29.0591 33.5687 29.0591Z" fill="#00A651"/>
<path d="M33.5687 31.9995C34.1421 31.9995 34.6069 31.5347 34.6069 30.9613C34.6069 30.3878 34.1421 29.9229 33.5687 29.9229C32.9952 29.9229 32.5303 30.3878 32.5303 30.9613C32.5303 31.5347 32.9952 31.9995 33.5687 31.9995Z" fill="#00A651"/>
<path d="M54.4726 7.8582C54.4726 10.3831 53.8459 12.3255 52.5927 13.6856C51.3394 15.0456 49.5418 15.724 47.1999 15.7209C44.8579 15.7209 43.0619 15.0425 41.8116 13.6856C40.5614 12.3286 39.9347 10.3785 39.9316 7.83533C39.9316 5.29216 40.5599 3.35125 41.8162 2.01257C43.0726 0.673909 44.8747 0.00304936 47.2227 0C49.5707 0 51.3652 0.675433 52.6063 2.02631C53.8504 3.38021 54.4726 5.31961 54.4726 7.8582ZM43.3256 7.8582C43.3256 9.5628 43.6488 10.8466 44.2954 11.7095C44.6367 12.1466 45.0799 12.4935 45.5862 12.72C46.0924 12.9464 46.6464 13.0455 47.1999 13.0086C49.7858 13.0086 51.0771 11.2918 51.074 7.8582C51.071 4.42463 49.7872 2.70325 47.2227 2.69411C46.667 2.65824 46.111 2.75817 45.6026 2.98529C45.094 3.21241 44.6486 3.55989 44.3044 3.99771C43.6504 4.86221 43.3256 6.15209 43.3256 7.8582Z" fill="#00A651"/>
<path d="M63.4325 6.93843H69.4932V14.8561C68.5902 15.1648 67.663 15.3973 66.7213 15.5513C65.8398 15.6803 64.95 15.7445 64.0592 15.7435C61.7538 15.7435 59.9944 15.0665 58.7808 13.7125C57.567 12.3587 56.9572 10.4147 56.9512 7.88069C56.9512 5.41375 57.657 3.49113 59.0689 2.11282C60.4808 0.734502 62.4414 0.0377233 64.951 0.0224765C66.5105 0.0198959 68.0536 0.339112 69.484 0.960155L68.409 3.55363C67.3324 3.00483 66.1413 2.71803 64.9328 2.71659C64.3012 2.68759 63.6709 2.79795 63.0868 3.03983C62.5026 3.28173 61.9788 3.64922 61.5526 4.11625C60.6702 5.17665 60.2196 6.53043 60.2901 7.90813C60.2901 9.5685 60.6286 10.8309 61.3056 11.7046C61.6592 12.1439 62.1126 12.4923 62.6282 12.7206C63.1438 12.949 63.7066 13.0507 64.2696 13.0173C64.9594 13.0163 65.6476 12.9458 66.3233 12.8069V9.6051H63.428L63.4325 6.93843Z" fill="#00A651"/>
<path d="M85.5617 0.242188V10.1221C85.5832 11.1623 85.3206 12.1886 84.8025 13.0907C84.289 13.9487 83.5264 14.63 82.6161 15.0438C81.5521 15.5182 80.3958 15.7494 79.2313 15.7207C77.2644 15.7207 75.7397 15.2176 74.6572 14.2114C74.1084 13.6807 73.679 13.0389 73.3982 12.3289C73.1174 11.619 72.9914 10.8572 73.0289 10.0947V0.242188H76.2581V9.60526C76.2581 10.7808 76.4914 11.6453 76.9672 12.1942C77.4428 12.743 78.225 13.0221 79.3181 13.0221C80.4113 13.0221 81.1479 12.743 81.6052 12.1896C82.0627 11.6361 82.3233 10.7671 82.3233 9.58238V0.242188H85.5617Z" fill="#00A651"/>
<path d="M102.847 15.515H98.7304L92.089 3.96088H91.993C92.1271 6.00091 92.1942 7.45546 92.1942 8.32452V15.515H89.2988V0.242188H93.3834L100.016 11.6773H100.093C99.9883 9.69216 99.9335 8.2925 99.9335 7.46918V0.242188H102.847V15.515Z" fill="#00A651"/>
<path d="M43.3117 19.6689C43.5337 19.8794 43.7072 20.1358 43.8201 20.4202C43.9331 20.7045 43.9828 21.0101 43.9659 21.3155C43.9813 21.6226 43.9329 21.9297 43.8235 22.2171C43.714 22.5045 43.546 22.7661 43.33 22.985C42.788 23.4341 42.0923 23.6539 41.3907 23.5979H39.8857V19.0925H41.4409C42.1149 19.0419 42.7831 19.2478 43.3117 19.6689ZM43.1973 21.3338C43.1973 20.3001 42.6028 19.7786 41.4135 19.7786H40.6496V22.8798H41.5004C41.9535 22.9109 42.4017 22.7722 42.7583 22.491C42.9081 22.3433 43.0248 22.1653 43.1005 21.9689C43.1763 21.7725 43.2093 21.5622 43.1973 21.3521V21.3338Z" fill="#00A651"/>
<path d="M45.5986 19.0918H46.3578V23.6155H45.5986V19.0918Z" fill="#00A651"/>
<path d="M51.3941 21.4161H52.1443V22.9622C51.9088 23.206 51.6233 23.3956 51.3075 23.518C50.9915 23.6404 50.6527 23.6926 50.3147 23.6712C50.0045 23.6789 49.6963 23.6242 49.4077 23.5102C49.1193 23.3964 48.8569 23.2256 48.6359 23.008C48.1976 22.56 47.9521 21.9582 47.9521 21.3316C47.9521 20.7049 48.1976 20.103 48.6359 19.6552C48.8553 19.4349 49.1173 19.2616 49.406 19.146C49.6947 19.0304 50.0037 18.9749 50.3147 18.9828C50.9084 18.963 51.488 19.167 51.9384 19.5545L51.5451 20.1262C51.3884 19.988 51.2067 19.8809 51.0099 19.8106C50.808 19.7508 50.5983 19.7214 50.3877 19.7238C50.1751 19.7205 49.9637 19.7593 49.7659 19.8377C49.5681 19.9162 49.3877 20.0329 49.2351 20.1812C48.9396 20.4958 48.7751 20.9113 48.7751 21.343C48.7751 21.7746 48.9396 22.1901 49.2351 22.5048C49.3779 22.651 49.5488 22.7668 49.7373 22.8454C49.926 22.924 50.1285 22.9637 50.3329 22.9622C50.7105 22.9744 51.0837 22.8776 51.4077 22.6832L51.3941 21.4161Z" fill="#00A651"/>
<path d="M53.8086 19.0918H54.5725V23.6155H53.8086V19.0918Z" fill="#00A651"/>
<path d="M58.1859 19.7917V23.6155H57.4221V19.7917H56.0498V19.0918H59.5582V19.7917H58.1859Z" fill="#00A651"/>
<path d="M61.3201 22.5865L60.8627 23.6155H60.0439L62.0382 19.0918H62.857L64.8466 23.6155H64.037L63.5797 22.5865H61.3201ZM63.2731 21.8821L62.4498 20.0158L61.6311 21.8821H63.2731Z" fill="#00A651"/>
<path d="M66.127 23.6155V19.0918H66.8908V22.8929H68.9583V23.6155H66.127Z" fill="#00A651"/>
<path d="M74.2272 19.6688C74.0348 19.6611 73.8444 19.7087 73.6782 19.806C73.6097 19.8498 73.5542 19.911 73.5172 19.9834C73.4802 20.0556 73.4632 20.1366 73.4678 20.2176C73.4614 20.3003 73.4777 20.3831 73.5148 20.4572C73.5518 20.5314 73.6084 20.594 73.6782 20.6386C73.9662 20.7867 74.2745 20.8915 74.593 20.9495C74.9744 21.0187 75.3345 21.1752 75.645 21.407C75.7693 21.5228 75.8654 21.6654 75.9265 21.8238C75.9876 21.9823 76.0117 22.1526 75.9973 22.3218C76.0005 22.5063 75.9609 22.6891 75.8814 22.8558C75.8021 23.0224 75.6852 23.1684 75.5398 23.2823C75.2062 23.5416 74.7909 23.673 74.3689 23.6528C73.6705 23.6575 72.9966 23.3958 72.4844 22.921L72.9646 22.3446C73.3502 22.71 73.8562 22.9216 74.3872 22.9392C74.5945 22.9503 74.7998 22.8942 74.9726 22.7791C75.0417 22.7331 75.098 22.6704 75.1364 22.5968C75.1746 22.5234 75.194 22.4412 75.1922 22.3583C75.1988 22.2816 75.1858 22.2046 75.1546 22.1342C75.1234 22.0639 75.075 22.0026 75.0138 21.9559C74.797 21.829 74.5605 21.7392 74.3141 21.6906C74.0562 21.635 73.8025 21.5616 73.5548 21.471C73.3909 21.4059 73.2369 21.318 73.0973 21.2103C72.9641 21.0996 72.8586 20.9591 72.7894 20.8003C72.7204 20.6414 72.6894 20.4684 72.6994 20.2955C72.6906 20.1087 72.7277 19.9227 72.8074 19.7536C72.8872 19.5846 73.0072 19.4378 73.1568 19.3258C73.4868 19.0935 73.8833 18.9747 74.2866 18.9872C74.5805 18.9871 74.8726 19.035 75.151 19.1291C75.4197 19.2156 75.6696 19.3523 75.8876 19.5316L75.4713 20.1262C75.3126 19.9902 75.1272 19.8888 74.9269 19.829C74.7046 19.7356 74.4678 19.6814 74.2272 19.6688Z" fill="#00A651"/>
<path d="M78.6004 22.5818C78.7088 22.6959 78.8394 22.7867 78.9841 22.8487C79.1288 22.9107 79.2845 22.9427 79.442 22.9427C79.5993 22.9427 79.7552 22.9107 79.8998 22.8487C80.0445 22.7867 80.175 22.6959 80.2836 22.5818C80.5024 22.3022 80.6128 21.953 80.5946 21.5985V19.0918H81.3585V21.6305C81.3764 21.9049 81.3377 22.1801 81.2448 22.4389C81.152 22.6978 81.0069 22.9349 80.8188 23.1353C80.4409 23.4719 79.9525 23.6579 79.4465 23.6579C78.9405 23.6579 78.4521 23.4719 78.0742 23.1353C77.8861 22.9349 77.741 22.6978 77.6482 22.4389C77.5553 22.1801 77.5167 21.9049 77.5345 21.6305V19.0918H78.2984V21.5985C78.2776 21.9518 78.3848 22.301 78.6004 22.5818Z" fill="#00A651"/>
<path d="M83.966 23.6155H83.2021V19.0918H84.3913L85.7636 21.9323L87.1357 19.0918H88.3204V23.6155H87.5475V20.0845L85.9648 23.2222H85.5348L83.9613 20.0845L83.966 23.6155Z" fill="#00A651"/>
<path d="M90.9777 23.6155H90.2139V19.0918H91.4031L92.7753 21.9323L94.1475 19.0918H95.3321V23.6155H94.5683V20.0845L92.9903 23.2222H92.5603L90.9915 20.0845L90.9777 23.6155Z" fill="#00A651"/>
<path d="M97.2217 19.0918H97.9855V23.6155H97.2217V19.0918Z" fill="#00A651"/>
<path d="M101.599 19.7917V23.6155H100.835V19.7917H99.4629V19.0918H102.971V19.7917H101.599Z" fill="#00A651"/>
</svg>
