<svg width="273" height="500" viewBox="0 0 273 500" fill="none" xmlns="http://www.w3.org/2000/svg">
<path opacity="0.0344828" d="M-97.615 260.805C-119.918 251.826 -116.494 219.241 -92.8107 215.095L-63.437 209.954C-49.6697 207.544 -40.298 194.645 -42.2605 180.807L-46.4478 151.282C-49.8238 127.478 -19.8913 114.151 -4.45996 132.588L14.6794 155.456C23.65 166.174 39.5067 167.84 50.5097 159.222L73.9853 140.833C92.9127 126.007 119.42 145.266 111.169 167.848L100.934 195.857C96.1377 208.985 102.623 223.551 115.588 228.77L143.251 239.906C165.555 248.885 162.13 281.471 138.447 285.616L109.073 290.757C95.3058 293.167 85.9341 306.066 87.8966 319.904L92.0839 349.429C95.4599 373.234 65.5274 386.561 50.0961 368.123L30.9567 345.256C21.9861 334.538 6.12941 332.871 -4.87352 341.49L-28.3491 359.878C-47.2765 374.704 -73.7842 355.445 -65.5327 332.863L-55.2984 304.854C-50.5016 291.726 -56.9866 277.161 -69.9521 271.941L-97.615 260.805Z" stroke="#00A651" stroke-opacity="0.2" stroke-width="2"/>
<path opacity="0.0689655" d="M-95.6528 254.853C-117.456 244.719 -112.33 212.358 -88.4628 209.457L-60.6286 206.075C-46.754 204.389 -36.72 191.998 -37.9557 178.077L-40.4345 150.147C-42.5601 126.199 -11.9711 114.457 2.47415 133.676L19.3203 156.09C27.7176 167.263 43.4654 169.757 54.9043 161.726L77.8523 145.615C97.5297 131.8 122.993 152.42 113.571 174.539L102.583 200.336C97.1057 213.194 102.819 228.079 115.494 233.97L140.921 245.788C162.724 255.922 157.598 288.284 133.731 291.184L105.897 294.566C92.022 296.252 81.9881 308.643 83.2237 322.565L85.7026 350.494C87.8281 374.442 57.2392 386.184 42.7939 366.965L25.9478 344.551C17.5504 333.378 1.80267 330.884 -9.63625 338.915L-32.5842 355.026C-52.2616 368.841 -77.725 348.221 -68.3029 326.102L-57.3148 300.305C-51.8376 287.447 -57.5514 272.562 -70.226 266.671L-95.6528 254.853Z" stroke="#00A651" stroke-opacity="0.2" stroke-width="2"/>
<path opacity="0.103448" d="M-92.9807 249.303C-114.223 238.042 -107.411 205.993 -83.4248 204.346L-57.2288 202.547C-43.285 201.59 -32.6163 189.741 -33.1216 175.773L-34.071 149.533C-34.9402 125.506 -3.77863 115.381 9.64093 135.33L24.2967 157.117C32.0978 168.714 47.6934 172.029 59.537 164.608L81.7873 150.665C102.161 137.899 126.51 159.823 115.943 181.419L104.403 205.005C98.2603 217.56 103.187 232.723 115.536 239.269L138.736 251.568C159.978 262.828 153.166 294.878 129.18 296.525L102.984 298.323C89.04 299.281 78.3713 311.13 78.8766 325.097L79.826 351.338C80.6953 375.365 49.5337 385.49 36.1141 365.54L21.4584 343.753C13.6573 332.156 -1.93836 328.841 -13.7819 336.263L-36.0322 350.205C-56.4057 362.972 -80.755 341.047 -70.1882 319.451L-58.6479 295.865C-52.5052 283.311 -57.4322 268.147 -69.7811 261.601L-92.9807 249.303Z" stroke="#00A651" stroke-opacity="0.2" stroke-width="2"/>
<path opacity="0.137931" d="M-90.1724 243.169C-110.797 230.812 -102.316 199.163 -78.2768 198.774L-53.581 198.374C-39.6062 198.147 -28.332 186.873 -28.1056 172.898L-27.7056 148.203C-27.3162 124.163 4.33262 115.683 16.6897 136.307L29.384 157.494C36.5675 169.483 51.9683 173.61 64.184 166.819L85.7712 154.817C106.785 143.135 129.953 166.303 118.271 187.317L106.269 208.904C99.4781 221.12 103.605 236.521 115.594 243.704L136.781 256.398C157.405 268.755 148.925 300.404 124.885 300.794L100.19 301.194C86.2149 301.42 74.9407 312.694 74.7143 326.669L74.3143 351.365C73.9249 375.404 42.2761 383.885 29.919 363.26L17.2247 342.073C10.0412 330.084 -5.35958 325.957 -17.5753 332.749L-39.1625 344.75C-60.1762 356.433 -83.3447 333.264 -71.6621 312.251L-59.6607 290.663C-52.8693 278.448 -56.996 263.047 -68.9853 255.863L-90.1724 243.169Z" stroke="#00A651" stroke-opacity="0.2" stroke-width="2"/>
<path opacity="0.172414" d="M-87.3942 238.315C-107.343 224.896 -97.2184 193.734 -73.1913 194.604L-50.2886 195.432C-36.3211 195.937 -24.4723 185.269 -23.5149 171.325L-21.9449 148.461C-20.2979 124.475 11.7513 117.662 23.0121 138.905L33.7459 159.154C40.292 171.503 55.4558 176.43 68.0102 170.287L88.5958 160.215C110.192 149.648 132.116 173.997 119.35 194.371L107.181 213.791C99.7597 225.634 103.075 241.23 114.672 249.031L133.687 261.823C153.637 275.242 143.512 306.404 119.485 305.534L96.5818 304.706C82.6143 304.201 70.7655 314.869 69.8081 328.813L68.2381 351.677C66.5911 375.663 34.5419 382.476 23.2811 361.233L12.5473 340.984C6.00115 328.635 -9.16255 323.708 -21.717 329.851L-42.3026 339.923C-63.899 350.49 -85.8232 326.141 -73.0568 305.767L-60.8879 286.347C-53.4665 274.504 -56.7815 258.908 -68.3784 251.107L-87.3942 238.315Z" stroke="#00A651" stroke-opacity="0.2" stroke-width="2"/>
<path opacity="0.206897" d="M-84.5944 233.752C-103.814 219.307 -92.072 188.718 -68.1233 190.843L-47.0697 192.712C-33.1477 193.947 -20.7569 183.913 -19.071 170.039L-16.5214 149.057C-13.6213 125.189 18.7405 120.064 28.8741 141.867L37.7827 161.034C43.6735 173.709 58.5586 179.423 71.4173 173.945L90.8631 165.662C112.983 156.24 133.603 181.703 119.788 201.381L107.642 218.68C99.6114 230.118 102.106 245.866 113.278 254.264L130.175 266.963C149.394 281.408 137.652 311.997 113.704 309.871L92.6499 308.003C78.728 306.767 66.3371 316.801 64.6512 330.676L62.1017 351.658C59.2016 375.525 26.8397 380.651 16.7062 358.848L7.79759 339.68C1.90673 327.006 -12.9784 321.292 -25.8371 326.769L-45.2828 335.052C-67.4026 344.474 -88.0224 319.011 -74.2073 299.334L-62.0622 282.035C-54.0311 270.596 -56.5253 254.848 -67.6981 246.451L-84.5944 233.752Z" stroke="#00A651" stroke-opacity="0.2" stroke-width="2"/>
<path opacity="0.241379" d="M-81.1453 228.796C-99.5825 213.365 -86.2557 183.432 -62.4511 186.808L-43.2877 189.526C-29.4496 191.489 -16.5505 182.117 -14.1408 168.35L-10.8038 149.284C-6.6585 125.602 25.9272 122.177 34.9058 144.48L42.1338 162.435C47.3533 175.4 61.9189 181.885 75.0467 177.089L93.2262 170.446C115.809 162.195 135.068 188.702 120.242 207.63L108.306 222.867C99.6876 233.87 101.354 249.726 112.072 258.697L126.915 271.119C145.352 286.551 132.025 316.483 108.22 313.107L89.0571 310.389C75.219 308.427 62.32 317.799 59.9102 331.566L56.5732 350.631C52.4279 374.314 19.8422 377.739 10.8636 355.435L3.63557 337.481C-1.58389 324.515 -16.1495 318.03 -29.2773 322.827L-47.4568 329.47C-70.0394 337.721 -89.2983 311.213 -74.4722 292.286L-62.5369 277.049C-53.9182 266.046 -55.5848 250.189 -66.3028 241.219L-81.1453 228.796Z" stroke="#00A651" stroke-opacity="0.2" stroke-width="2"/>
<path opacity="0.275862" d="M-77.6958 224.692C-95.3002 208.317 -80.425 179.123 -56.8297 183.74L-39.583 187.115C-25.8665 189.799 -12.4947 181.115 -9.36772 167.493L-5.436 150.365C-0.0569661 126.931 32.6634 125.217 40.4624 147.959L46.163 164.583C50.6968 177.804 64.903 185.042 78.2638 180.939L95.0632 175.78C118.047 168.722 135.892 196.201 120.096 214.326L108.55 227.575C99.3668 238.112 100.201 254.034 110.435 263.553L123.303 275.522C140.907 291.897 126.032 321.091 102.437 316.474L85.19 313.099C71.4736 310.415 58.1017 319.099 54.9748 332.721L51.043 349.85C45.664 373.283 12.9437 374.998 5.14464 352.255L-0.555963 335.632C-5.08972 322.411 -19.296 315.172 -32.6568 319.275L-49.4563 324.435C-72.4397 331.493 -90.2849 304.014 -74.4886 285.888L-62.9425 272.639C-53.7597 262.103 -54.5942 246.18 -64.828 236.661L-77.6958 224.692Z" stroke="#00A651" stroke-opacity="0.2" stroke-width="2"/>
<path opacity="0.310345" d="M-74.0918 220.48C-90.8151 203.206 -74.4325 174.83 -51.1111 180.676L-35.5766 184.57C-22.0193 187.968 -8.21134 179.996 -4.37574 166.556L0.0192854 151.156C6.61735 128.036 39.3826 128.036 45.9807 151.156L50.3757 166.556C54.2113 179.996 68.0193 187.968 81.5765 184.57L97.111 180.676C120.432 174.83 136.815 203.206 120.092 220.48L108.952 231.986C99.2307 242.028 99.2307 257.972 108.952 268.014L120.092 279.52C136.815 296.794 120.432 325.17 97.1111 319.324L81.5765 315.43C68.0193 312.032 54.2113 320.004 50.3757 333.444L45.9807 348.844C39.3826 371.964 6.61738 371.964 0.0192856 348.844L-4.37574 333.444C-8.21136 320.004 -22.0193 312.032 -35.5765 315.43L-51.1111 319.324C-74.4324 325.17 -90.8151 296.794 -74.0918 279.52L-62.9523 268.014C-53.2307 257.972 -53.2307 242.028 -62.9523 231.986L-74.0918 220.48Z" stroke="#00A651" stroke-opacity="0.2" stroke-width="2"/>
<path opacity="0.344828" d="M-70.6446 216.683C-86.4409 198.558 -68.5957 171.078 -45.6122 178.137L-32.0056 182.315C-18.6448 186.419 -4.43851 179.18 0.0952314 165.959L4.71241 152.495C12.5114 129.752 45.2318 131.467 50.6108 154.901L53.7953 168.774C56.9223 182.396 70.2941 191.08 84.0106 188.396L97.9795 185.662C121.575 181.045 136.45 210.239 118.846 226.614L108.423 236.308C98.1895 245.828 97.3551 261.75 106.538 272.287L115.89 283.017C131.686 301.143 113.841 328.622 90.8572 321.564L77.2505 317.385C63.8898 313.282 49.6835 320.52 45.1497 333.741L40.5326 347.205C32.7335 369.948 0.0131759 368.233 -5.36586 344.8L-8.55037 330.927C-11.6773 317.305 -25.0491 308.621 -38.7656 311.305L-52.7345 314.038C-76.3299 318.656 -91.205 289.462 -73.6006 273.087L-63.1784 263.392C-52.9446 253.873 -52.1101 237.951 -61.2929 227.414L-70.6446 216.683Z" stroke="#00A651" stroke-opacity="0.2" stroke-width="2"/>
<path opacity="0.37931" d="M-66.5704 213.618C-81.3964 194.69 -62.1375 168.183 -39.555 176.434L-27.8588 180.708C-14.731 185.505 -0.165386 179.02 5.05407 166.054L9.70437 154.503C18.683 132.199 51.2687 135.624 55.414 159.307L57.5609 171.573C59.9707 185.34 72.8697 194.712 86.7079 192.749L99.037 191.001C122.842 187.625 136.169 217.557 117.731 232.989L108.182 240.981C97.464 249.951 95.7973 265.808 104.416 276.811L112.095 286.614C126.921 305.542 107.662 332.049 85.0795 323.798L73.3833 319.524C60.2556 314.727 45.6899 321.212 40.4705 334.178L35.8202 345.73C26.8416 368.033 -5.74419 364.608 -9.88944 340.925L-12.0364 328.659C-14.4461 314.892 -27.3452 305.52 -41.1833 307.483L-53.5125 309.231C-77.3172 312.607 -90.644 282.675 -72.2067 267.243L-62.6574 259.251C-51.9394 250.28 -50.2728 234.424 -58.8915 223.421L-66.5704 213.618Z" stroke="#00A651" stroke-opacity="0.2" stroke-width="2"/>
<path opacity="0.413793" d="M-62.5105 210.602C-76.3257 190.924 -55.7058 165.461 -33.5861 174.883L-23.7684 179.065C-10.9097 184.542 3.97542 178.828 9.86628 166.154L14.364 156.477C24.4976 134.674 56.8594 139.799 59.7595 163.667L61.0467 174.26C62.7326 188.134 75.1235 198.168 89.0454 196.933L99.6749 195.989C123.624 193.864 135.366 224.453 116.146 238.898L107.615 245.309C96.4427 253.707 93.9485 269.455 101.98 280.893L108.111 289.627C121.926 309.305 101.307 334.768 79.1868 325.346L69.3691 321.164C56.5104 315.687 41.6253 321.401 35.7345 334.075L31.2368 343.752C21.1032 365.555 -11.2587 360.429 -14.1588 336.562L-15.446 325.969C-17.1319 312.094 -29.5227 302.06 -43.4447 303.296L-54.0741 304.239C-78.0228 306.365 -89.7648 275.776 -70.5452 261.331L-62.0147 254.919C-50.8419 246.522 -48.3477 230.774 -56.3788 219.335L-62.5105 210.602Z" stroke="#00A651" stroke-opacity="0.2" stroke-width="2"/>
<path opacity="0.448276" d="M-58.2452 207.36C-71.0115 186.986 -49.0873 162.637 -27.491 173.204L-19.3057 177.208C-6.75131 183.351 8.41245 178.424 14.9586 166.075L19.2265 158.024C30.4873 136.781 62.5366 143.594 64.1836 167.58L64.8078 176.671C65.7653 190.615 77.614 201.284 91.5816 200.778L100.688 200.449C124.715 199.58 134.84 230.741 114.891 244.161L107.33 249.247C95.733 257.048 92.418 272.644 99.8394 284.487L104.678 292.209C117.444 312.583 95.5202 336.932 73.9238 326.365L65.7386 322.36C53.1842 316.217 38.0204 321.144 31.4743 333.493L27.2063 341.544C15.9455 362.787 -16.1037 355.975 -17.7508 331.989L-18.375 322.897C-19.3325 308.954 -31.1812 298.285 -45.1487 298.79L-54.2553 299.12C-78.2824 299.989 -88.4075 268.827 -68.4582 255.408L-60.8971 250.322C-49.3002 242.521 -45.9852 226.925 -53.4066 215.081L-58.2452 207.36Z" stroke="#00A651" stroke-opacity="0.2" stroke-width="2"/>
<path opacity="0.482759" d="M-54.1884 204.977C-65.871 183.963 -42.7025 160.795 -21.6888 172.477L-15.2812 176.039C-3.06548 182.831 12.3353 178.704 19.5188 166.715L23.2868 160.426C35.6438 139.802 67.2926 148.282 67.6821 172.322L67.8008 179.652C68.0272 193.627 79.3014 204.901 93.2762 205.127L100.606 205.246C124.646 205.636 133.126 237.284 112.502 249.641L106.213 253.409C94.224 260.593 90.0973 275.994 96.8887 288.209L100.451 294.617C112.134 315.631 88.9651 338.799 67.9513 327.117L61.5438 323.554C49.3281 316.763 33.9272 320.89 26.7438 332.879L22.9758 339.168C10.6187 359.792 -21.0301 351.312 -21.4195 327.272L-21.5382 319.942C-21.7646 305.967 -33.0388 294.693 -47.0136 294.466L-54.3439 294.348C-78.3836 293.958 -86.8639 262.309 -66.2396 249.952L-59.9507 246.184C-47.9614 239.001 -43.8347 223.6 -50.6261 211.384L-54.1884 204.977Z" stroke="#00A651" stroke-opacity="0.2" stroke-width="2"/>
<path opacity="0.517241" d="M-50.1306 203.169C-60.6974 181.573 -36.3481 159.649 -15.9746 172.415L-11.2717 175.362C0.571877 182.783 16.1676 179.468 23.9686 167.871L27.0664 163.266C40.4859 143.317 71.6475 153.442 70.7782 177.469L70.5776 183.015C70.0723 196.983 80.7409 208.832 94.6847 209.789L100.222 210.169C124.208 211.816 131.02 243.866 109.778 255.126L104.874 257.726C92.5251 264.272 87.5981 279.436 93.7409 291.99L96.1801 296.975C106.747 318.572 82.3976 340.496 62.0241 327.729L57.3212 324.783C45.4776 317.361 29.8819 320.676 22.0809 332.273L18.9831 336.878C5.56358 356.827 -25.598 346.702 -24.7288 322.675L-24.5281 317.129C-24.0228 303.161 -34.6915 291.313 -48.6353 290.355L-54.1722 289.975C-78.1586 288.328 -84.9709 256.279 -63.7281 245.018L-58.8245 242.419C-46.4756 235.872 -41.5486 220.709 -47.6914 208.154L-50.1306 203.169Z" stroke="#00A651" stroke-opacity="0.2" stroke-width="2"/>
<path opacity="0.551724" d="M-46.0611 201.255C-55.4832 179.135 -30.0198 158.515 -10.3424 172.33L-7.25797 174.496C4.18095 182.527 19.9287 180.033 28.3261 168.86L30.5903 165.847C45.0355 146.628 75.6245 158.37 73.499 182.318L73.1658 186.072C71.9302 199.994 81.9641 212.385 95.8387 214.071L99.5798 214.526C123.447 217.426 128.573 249.788 106.77 259.921L103.352 261.509C90.6777 267.4 84.9638 282.285 90.4411 295.144L91.918 298.611C101.34 320.731 75.8767 341.351 56.1993 327.536L53.1149 325.37C41.6759 317.339 25.9281 319.833 17.5308 331.006L15.2666 334.019C0.82135 353.239 -29.7676 341.497 -27.6421 317.548L-27.3089 313.794C-26.0733 299.872 -36.1072 287.481 -49.9818 285.795L-53.723 285.341C-77.5903 282.441 -82.7159 250.079 -60.9129 239.945L-57.4953 238.357C-44.8208 232.466 -39.1069 217.581 -44.5842 204.722L-46.0611 201.255Z" stroke="#00A651" stroke-opacity="0.2" stroke-width="2"/>
<path opacity="0.586207" d="M-41.9692 199.84C-50.2207 177.258 -23.713 157.999 -4.78561 172.825L-3.22106 174.05C7.78188 182.669 23.6386 181.002 32.6092 170.284L33.8847 168.76C49.316 150.323 79.2485 163.65 75.8725 187.455L75.5935 189.422C73.6309 203.26 83.0026 216.16 96.77 218.569L98.7275 218.912C122.41 223.057 125.835 255.643 103.532 264.622L101.688 265.364C88.7228 270.583 82.2377 285.149 87.0345 298.277L87.7166 300.143C95.9681 322.726 69.4605 341.985 50.533 327.159L48.9685 325.933C37.9655 317.314 22.1088 318.981 13.1383 329.699L11.8627 331.223C-3.56862 349.66 -33.5011 336.334 -30.1251 312.529L-29.846 310.561C-27.8835 296.723 -37.2552 283.824 -51.0225 281.414L-52.9802 281.072C-76.663 276.926 -80.0879 244.341 -57.7844 235.362L-55.9408 234.62C-42.9753 229.4 -36.4903 214.835 -41.2871 201.707L-41.9692 199.84Z" stroke="#00A651" stroke-opacity="0.2" stroke-width="2"/>
<path opacity="0.62069" d="M-37.4739 199.033C-44.5322 176.05 -16.8983 158.104 1.22723 173.901C11.764 183.083 27.8194 182.242 37.3386 172.008C53.7137 154.404 83.072 169.362 78.4548 192.958C75.7707 206.674 84.5271 220.158 98.1495 223.285C121.583 228.664 123.307 261.568 100.565 269.367C87.3437 273.901 80.0447 288.226 84.1478 301.587C91.2062 324.57 63.5723 342.516 45.4467 326.72C34.91 317.537 18.8545 318.378 9.33534 328.612C-7.03975 346.217 -36.3981 331.258 -31.7808 307.663C-29.0967 293.946 -37.8531 280.462 -51.4755 277.335C-74.9089 271.956 -76.6334 239.052 -53.8906 231.253C-40.6697 226.719 -33.3707 212.394 -37.4739 199.033Z" stroke="#00A651" stroke-opacity="0.2" stroke-width="2"/>
<path opacity="0.655172" d="M-34.2793 196.532C-40.0511 173.506 -12.0347 157.331 5.02071 173.843C14.9452 183.451 30.7031 183.451 40.6276 173.843C57.6829 157.331 85.6994 173.506 79.9276 196.532C76.569 209.931 84.4479 223.578 97.731 227.369C120.558 233.883 120.558 266.234 97.731 272.749C84.4479 276.539 76.569 290.186 79.9276 303.585C85.6994 326.611 57.6829 342.787 40.6276 326.275C30.7031 316.667 14.9452 316.667 5.0207 326.275C-12.0347 342.787 -40.0511 326.611 -34.2793 303.585C-30.9207 290.186 -38.7996 276.539 -52.0827 272.749C-74.9099 266.234 -74.9099 233.883 -52.0827 227.369C-38.7996 223.578 -30.9207 209.931 -34.2793 196.532Z" stroke="#00A651" stroke-opacity="0.2" stroke-width="2"/>
<path opacity="0.689655" d="M-32.7925 194.392C-37.2744 171.488 -8.93637 157.049 6.95856 174.138C16.2202 184.095 31.7116 184.906 41.9633 175.972C59.5573 160.639 86.2308 177.961 79.3795 200.27C75.3873 213.27 82.4299 227.092 95.2931 231.503C117.369 239.073 115.704 270.834 92.9582 276.055C79.7044 279.098 71.2556 292.108 73.8671 305.453C78.3489 328.356 50.0109 342.795 34.116 325.707C24.8544 315.75 9.36296 314.938 -0.888716 323.873C-18.4828 339.206 -45.1563 321.884 -38.3049 299.574C-34.3128 286.575 -41.3554 272.753 -54.2185 268.342C-76.2944 260.772 -74.6299 229.011 -51.8836 223.789C-38.6299 220.747 -30.1811 207.737 -32.7925 194.392Z" stroke="#00A651" stroke-opacity="0.2" stroke-width="2"/>
<path opacity="0.724138" d="M-29.1525 192.59C-32.3732 169.88 -3.81732 157.166 10.9043 174.756C19.4942 185.019 34.678 186.615 45.214 178.362C63.2709 164.217 88.5595 182.591 80.6875 204.135C76.0943 216.705 82.3041 230.653 94.7193 235.651C115.997 244.216 112.73 275.304 90.136 279.258C76.9529 281.566 67.9789 293.917 69.8582 307.168C73.079 329.878 44.523 342.592 29.8014 325.003C21.2115 314.739 6.02772 313.144 -4.50827 321.396C-22.5652 335.541 -47.8538 317.167 -39.9818 295.623C-35.3885 283.053 -41.5984 269.105 -54.0136 264.107C-75.2913 255.542 -72.024 224.455 -49.4303 220.5C-36.2472 218.193 -27.2732 205.841 -29.1525 192.59Z" stroke="#00A651" stroke-opacity="0.2" stroke-width="2"/>
<path opacity="0.758621" d="M-25.253 191.107C-27.2453 168.659 1.42704 157.653 14.9672 175.668C22.879 186.195 37.7163 188.545 48.4938 180.978C66.9383 168.029 90.8062 187.356 81.9745 208.09C76.8139 220.206 82.1974 234.23 94.1391 239.78C114.576 249.279 109.772 279.613 87.3997 282.331C74.3273 283.92 64.8735 295.594 66.0377 308.711C68.0301 331.159 39.3577 342.166 25.8176 324.15C17.9058 313.624 3.06846 311.274 -7.70907 318.84C-26.1536 331.79 -50.0215 312.462 -41.1898 291.728C-36.0292 279.613 -41.4127 265.588 -53.3544 260.038C-73.7913 250.54 -68.9868 220.205 -46.615 217.487C-33.5426 215.899 -24.0888 204.224 -25.253 191.107Z" stroke="#00A651" stroke-opacity="0.2" stroke-width="2"/>
<path opacity="0.793103" d="M-21.4017 190.001C-22.2038 167.83 6.55085 158.487 18.9339 176.896C26.1789 187.666 40.663 190.745 51.6624 183.852C70.4622 172.072 92.9308 192.303 83.1802 212.231C77.4753 223.891 82.0511 237.973 93.5198 244.053C113.122 254.444 106.836 284.018 84.702 285.538C71.752 286.427 61.8437 297.431 62.313 310.403C63.1152 332.574 34.3605 341.917 21.9775 323.509C14.7324 312.738 0.248337 309.66 -10.7511 316.552C-29.5509 328.332 -52.0194 308.102 -42.2688 288.173C-36.5639 276.514 -41.1397 262.431 -52.6084 256.351C-72.2104 245.96 -65.9243 216.387 -43.7906 214.867C-30.8407 213.978 -20.9324 202.973 -21.4017 190.001Z" stroke="#00A651" stroke-opacity="0.2" stroke-width="2"/>
<path opacity="0.827586" d="M-17.5586 189.12C-17.2058 167.338 11.471 159.654 22.6676 178.342C29.2286 189.292 43.2949 193.061 54.452 186.858C73.4924 176.273 94.4852 197.266 83.8997 216.306C77.6968 227.463 81.4659 241.53 92.4163 248.09C111.104 259.287 103.42 287.964 81.6377 288.317C68.8739 288.524 58.5767 298.821 58.3699 311.585C58.0171 333.367 29.3403 341.051 18.1437 322.363C11.5827 311.413 -2.48355 307.644 -13.6407 313.847C-32.6811 324.432 -53.6739 303.439 -43.0884 284.399C-36.8855 273.242 -40.6546 259.175 -51.605 252.614C-70.2925 241.418 -62.6086 212.741 -40.8264 212.388C-28.0626 212.181 -17.7654 201.884 -17.5586 189.12Z" stroke="#00A651" stroke-opacity="0.2" stroke-width="2"/>
<path opacity="0.862069" d="M-16.5821 187.868C-15.1171 166.534 13.3883 160.475 23.4039 179.369C29.2821 190.457 42.8986 194.882 54.172 189.366C73.3803 179.967 92.8803 201.624 81.5255 219.745C74.8614 230.38 77.8381 244.384 88.2518 251.389C105.995 263.325 96.9898 291.041 75.6194 290.268C63.0771 289.814 52.4373 299.394 51.5776 311.915C50.1127 333.249 21.6072 339.308 11.5916 320.415C5.71344 309.326 -7.90306 304.901 -19.1765 310.417C-38.3848 319.816 -57.8848 298.159 -46.53 280.038C-39.8659 269.403 -42.8426 255.399 -53.2563 248.394C-70.9997 236.458 -61.9943 208.742 -40.6239 209.515C-28.0816 209.969 -17.4418 200.389 -16.5821 187.868Z" stroke="#00A651" stroke-opacity="0.2" stroke-width="2"/>
<path opacity="0.896552" d="M-12.6887 187.512C-10.1576 166.682 18.0865 162.209 26.9306 181.237C32.1298 192.424 45.2672 197.467 56.616 192.632C75.9213 184.409 93.9174 206.633 81.8601 223.806C74.772 233.902 76.9734 247.801 86.8343 255.212C103.608 267.819 93.3605 294.516 72.459 292.661C60.1718 291.571 49.2358 300.426 47.7478 312.672C45.2167 333.502 16.9726 337.976 8.12848 318.947C2.92928 307.761 -10.2081 302.718 -21.557 307.552C-40.8622 315.775 -58.8583 293.552 -46.801 276.378C-39.7129 266.282 -41.9143 252.383 -51.7752 244.972C-68.5493 232.365 -58.3014 205.668 -37.3999 207.523C-25.1127 208.614 -14.1767 199.758 -12.6887 187.512Z" stroke="#00A651" stroke-opacity="0.2" stroke-width="2"/>
<path opacity="0.931035" d="M-9.04894 187.4C-5.50023 167.125 22.3962 164.193 30.0827 183.287C34.609 194.531 47.2404 200.155 58.6248 195.995C77.9576 188.931 94.445 211.624 81.7526 227.828C74.2784 237.369 75.7236 251.12 85.0184 258.9C100.802 272.11 89.3934 297.735 69.0144 294.845C57.0139 293.143 45.8278 301.27 43.738 313.209C40.1893 333.484 12.2929 336.416 4.60644 317.322C0.0800921 306.079 -12.5513 300.455 -23.9357 304.615C-43.2685 311.679 -59.7559 288.986 -47.0634 272.782C-39.5893 263.24 -41.0345 249.489 -50.3292 241.71C-66.1132 228.499 -54.7043 202.874 -34.3253 205.764C-22.3248 207.466 -11.1387 199.339 -9.04894 187.4Z" stroke="#00A651" stroke-opacity="0.2" stroke-width="2"/>
<path opacity="0.965517" d="M-4.71622 187.037C-0.189716 167.318 27.3447 165.874 33.9077 185.013C37.7783 196.3 49.9069 202.48 61.3136 198.977C80.6544 193.037 95.6713 216.161 82.3786 231.414C74.5388 240.41 75.2512 254.003 83.9884 262.13C98.8026 275.91 86.2851 300.477 66.4294 296.592C54.719 294.3 43.3028 301.714 40.6332 313.344C36.1067 333.063 8.57227 334.506 2.00933 315.368C-1.86135 304.081 -13.9899 297.901 -25.3967 301.404C-44.7374 307.344 -59.7543 284.22 -46.4616 268.967C-38.6219 259.971 -39.3343 246.378 -48.0714 238.251C-62.8856 224.471 -50.3681 199.904 -30.5124 203.789C-18.802 206.081 -7.38585 198.667 -4.71622 187.037Z" stroke="#00A651" stroke-opacity="0.2" stroke-width="2"/>
<path d="M-0.87188 187.401C4.57049 168.331 31.5966 168.331 37.039 187.401C40.2546 198.669 51.8308 205.352 63.1967 202.503C82.4331 197.681 95.9462 221.087 82.1521 235.335C74.0019 243.754 74.0019 257.121 82.1521 265.539C95.9462 279.788 82.4331 303.193 63.1967 298.371C51.8308 295.522 40.2546 302.205 37.039 313.473C31.5966 332.543 4.57049 332.543 -0.87188 313.473C-4.08752 302.205 -15.6637 295.522 -27.0296 298.371C-46.266 303.193 -59.7791 279.788 -45.985 265.539C-37.8348 257.121 -37.8348 243.754 -45.985 235.335C-59.7791 221.087 -46.266 197.681 -27.0296 202.503C-15.6637 205.352 -4.08752 198.669 -0.87188 187.401Z" stroke="#00A651" stroke-opacity="0.2" stroke-width="2"/>
</svg>
