<svg width="281" height="196" viewBox="0 0 281 196" fill="none" xmlns="http://www.w3.org/2000/svg">
<g filter="url(#filter0_d_697_1652)">
<rect x="15" y="15" width="251" height="166" rx="12" fill="white"/>
<rect x="119.5" y="39" width="42" height="42" rx="10" fill="#E6ECF2" fill-opacity="0.72"/>
<path d="M129.614 68.0466V61.8409L135.043 59.5146L140.473 61.8426V68.0466L135.043 70.3712L129.614 68.0466Z" stroke="black" stroke-linecap="round" stroke-linejoin="round"/>
<path d="M129.614 61.8297L135.043 64.156L140.473 61.8297M135.043 53.3525L140.471 55.6805L145.9 53.3543" stroke="black" stroke-linecap="round" stroke-linejoin="round"/>
<path d="M140.471 61.8291L145.9 64.1554L151.329 61.8291" stroke="black" stroke-linecap="round" stroke-linejoin="round"/>
<path d="M135.043 64.1589V70.3732M145.903 64.1589V70.3732M140.47 55.6801V61.8926M135.046 59.5115V53.3058L140.474 50.9795L145.903 53.3058V59.5115L140.474 61.8378L135.046 59.5115ZM140.47 68.0469V61.8412L145.9 59.5149L151.329 61.8429V68.0469L145.9 70.3715L140.47 68.0469Z" stroke="black" stroke-linecap="round" stroke-linejoin="round"/>
<path d="M75.9411 129.112C75.7704 129.112 75.6317 129.075 75.5251 129C75.4291 128.915 75.3704 128.808 75.3491 128.68C75.3384 128.541 75.3704 128.387 75.4451 128.216L79.8451 118.2C79.9411 117.987 80.0531 117.837 80.1811 117.752C80.3197 117.656 80.4691 117.608 80.6291 117.608C80.7891 117.608 80.9331 117.656 81.0611 117.752C81.1997 117.837 81.3117 117.987 81.3971 118.2L85.8131 128.216C85.8984 128.387 85.9304 128.541 85.9091 128.68C85.8984 128.819 85.8451 128.925 85.7491 129C85.6531 129.075 85.5197 129.112 85.3491 129.112C85.1571 129.112 85.0024 129.064 84.8851 128.968C84.7677 128.861 84.6717 128.712 84.5971 128.52L83.4131 125.784L84.0531 126.12H77.1731L77.8291 125.784L76.6611 128.52C76.5651 128.723 76.4637 128.872 76.3571 128.968C76.2504 129.064 76.1117 129.112 75.9411 129.112ZM80.6131 119.256L78.0371 125.32L77.6531 125.016H83.5731L83.2211 125.32L80.6451 119.256H80.6131ZM90.8792 129.144C90.1005 129.144 89.4285 128.973 88.8632 128.632C88.2979 128.291 87.8605 127.816 87.5512 127.208C87.2525 126.589 87.1032 125.875 87.1032 125.064C87.1032 124.445 87.1885 123.891 87.3592 123.4C87.5299 122.909 87.7805 122.493 88.1112 122.152C88.4419 121.8 88.8365 121.533 89.2952 121.352C89.7645 121.171 90.2925 121.08 90.8792 121.08C91.2632 121.08 91.6632 121.139 92.0792 121.256C92.4952 121.373 92.8739 121.576 93.2152 121.864C93.3219 121.939 93.3912 122.029 93.4232 122.136C93.4552 122.243 93.4552 122.349 93.4232 122.456C93.3912 122.552 93.3379 122.637 93.2632 122.712C93.1885 122.776 93.0925 122.813 92.9752 122.824C92.8685 122.835 92.7565 122.797 92.6392 122.712C92.3619 122.499 92.0792 122.349 91.7912 122.264C91.5032 122.179 91.2259 122.136 90.9592 122.136C90.5432 122.136 90.1805 122.205 89.8712 122.344C89.5619 122.472 89.3005 122.659 89.0872 122.904C88.8739 123.149 88.7085 123.453 88.5912 123.816C88.4845 124.179 88.4312 124.6 88.4312 125.08C88.4312 126.008 88.6499 126.744 89.0872 127.288C89.5245 127.821 90.1485 128.088 90.9592 128.088C91.2259 128.088 91.4979 128.045 91.7752 127.96C92.0632 127.875 92.3512 127.725 92.6392 127.512C92.7565 127.427 92.8685 127.389 92.9752 127.4C93.0819 127.411 93.1725 127.453 93.2472 127.528C93.3219 127.592 93.3699 127.677 93.3912 127.784C93.4232 127.891 93.4232 127.997 93.3912 128.104C93.3592 128.2 93.2899 128.285 93.1832 128.36C92.8419 128.637 92.4685 128.84 92.0632 128.968C91.6579 129.085 91.2632 129.144 90.8792 129.144ZM98.1292 129.144C97.3505 129.144 96.6785 128.973 96.1132 128.632C95.5479 128.291 95.1105 127.816 94.8012 127.208C94.5025 126.589 94.3532 125.875 94.3532 125.064C94.3532 124.445 94.4385 123.891 94.6092 123.4C94.7799 122.909 95.0305 122.493 95.3612 122.152C95.6919 121.8 96.0865 121.533 96.5452 121.352C97.0145 121.171 97.5425 121.08 98.1292 121.08C98.5132 121.08 98.9132 121.139 99.3292 121.256C99.7452 121.373 100.124 121.576 100.465 121.864C100.572 121.939 100.641 122.029 100.673 122.136C100.705 122.243 100.705 122.349 100.673 122.456C100.641 122.552 100.588 122.637 100.513 122.712C100.439 122.776 100.343 122.813 100.225 122.824C100.119 122.835 100.007 122.797 99.8892 122.712C99.6119 122.499 99.3292 122.349 99.0412 122.264C98.7532 122.179 98.4759 122.136 98.2092 122.136C97.7932 122.136 97.4305 122.205 97.1212 122.344C96.8119 122.472 96.5505 122.659 96.3372 122.904C96.1239 123.149 95.9585 123.453 95.8412 123.816C95.7345 124.179 95.6812 124.6 95.6812 125.08C95.6812 126.008 95.8999 126.744 96.3372 127.288C96.7745 127.821 97.3985 128.088 98.2092 128.088C98.4759 128.088 98.7479 128.045 99.0252 127.96C99.3132 127.875 99.6012 127.725 99.8892 127.512C100.007 127.427 100.119 127.389 100.225 127.4C100.332 127.411 100.423 127.453 100.497 127.528C100.572 127.592 100.62 127.677 100.641 127.784C100.673 127.891 100.673 127.997 100.641 128.104C100.609 128.2 100.54 128.285 100.433 128.36C100.092 128.637 99.7185 128.84 99.3132 128.968C98.9079 129.085 98.5132 129.144 98.1292 129.144ZM105.587 129.144C104.766 129.144 104.057 128.984 103.459 128.664C102.873 128.333 102.414 127.869 102.083 127.272C101.763 126.675 101.603 125.96 101.603 125.128C101.603 124.317 101.763 123.613 102.083 123.016C102.403 122.408 102.841 121.933 103.395 121.592C103.961 121.251 104.611 121.08 105.347 121.08C105.87 121.08 106.339 121.171 106.755 121.352C107.171 121.523 107.523 121.773 107.811 122.104C108.11 122.435 108.334 122.835 108.483 123.304C108.643 123.773 108.723 124.301 108.723 124.888C108.723 125.059 108.675 125.187 108.579 125.272C108.483 125.347 108.345 125.384 108.163 125.384H102.595V124.536H107.859L107.603 124.744C107.603 124.168 107.518 123.683 107.347 123.288C107.177 122.883 106.926 122.573 106.595 122.36C106.275 122.147 105.87 122.04 105.379 122.04C104.835 122.04 104.371 122.168 103.987 122.424C103.614 122.669 103.331 123.016 103.139 123.464C102.947 123.901 102.851 124.413 102.851 125V125.096C102.851 126.077 103.086 126.824 103.555 127.336C104.035 127.848 104.713 128.104 105.587 128.104C105.95 128.104 106.307 128.056 106.659 127.96C107.022 127.864 107.374 127.704 107.715 127.48C107.865 127.384 107.998 127.341 108.115 127.352C108.243 127.352 108.345 127.389 108.419 127.464C108.494 127.528 108.542 127.613 108.563 127.72C108.595 127.816 108.585 127.923 108.531 128.04C108.489 128.157 108.398 128.259 108.259 128.344C107.907 128.6 107.491 128.797 107.011 128.936C106.531 129.075 106.057 129.144 105.587 129.144ZM113.223 129.144C112.743 129.144 112.257 129.085 111.767 128.968C111.287 128.851 110.839 128.648 110.423 128.36C110.316 128.285 110.241 128.2 110.199 128.104C110.156 127.997 110.14 127.896 110.151 127.8C110.172 127.693 110.215 127.603 110.279 127.528C110.353 127.453 110.439 127.411 110.535 127.4C110.641 127.379 110.759 127.4 110.887 127.464C111.303 127.72 111.703 127.901 112.087 128.008C112.481 128.104 112.871 128.152 113.255 128.152C113.863 128.152 114.321 128.04 114.631 127.816C114.94 127.592 115.095 127.288 115.095 126.904C115.095 126.605 114.993 126.371 114.791 126.2C114.588 126.019 114.268 125.88 113.831 125.784L112.375 125.464C111.703 125.325 111.201 125.085 110.871 124.744C110.551 124.403 110.391 123.96 110.391 123.416C110.391 122.936 110.513 122.525 110.759 122.184C111.015 121.832 111.372 121.56 111.831 121.368C112.289 121.176 112.823 121.08 113.431 121.08C113.9 121.08 114.343 121.144 114.759 121.272C115.185 121.389 115.569 121.581 115.911 121.848C116.017 121.923 116.087 122.013 116.119 122.12C116.161 122.216 116.167 122.317 116.135 122.424C116.113 122.52 116.065 122.605 115.991 122.68C115.916 122.744 115.825 122.781 115.719 122.792C115.612 122.803 115.5 122.771 115.383 122.696C115.063 122.483 114.737 122.328 114.407 122.232C114.076 122.125 113.751 122.072 113.431 122.072C112.833 122.072 112.38 122.189 112.071 122.424C111.761 122.659 111.607 122.968 111.607 123.352C111.607 123.651 111.703 123.896 111.895 124.088C112.087 124.28 112.385 124.419 112.791 124.504L114.247 124.808C114.94 124.957 115.457 125.197 115.799 125.528C116.151 125.848 116.327 126.285 116.327 126.84C116.327 127.544 116.044 128.104 115.479 128.52C114.913 128.936 114.161 129.144 113.223 129.144ZM120.926 129.144C120.446 129.144 119.961 129.085 119.47 128.968C118.99 128.851 118.542 128.648 118.126 128.36C118.019 128.285 117.945 128.2 117.902 128.104C117.859 127.997 117.843 127.896 117.854 127.8C117.875 127.693 117.918 127.603 117.982 127.528C118.057 127.453 118.142 127.411 118.238 127.4C118.345 127.379 118.462 127.4 118.59 127.464C119.006 127.72 119.406 127.901 119.79 128.008C120.185 128.104 120.574 128.152 120.958 128.152C121.566 128.152 122.025 128.04 122.334 127.816C122.643 127.592 122.798 127.288 122.798 126.904C122.798 126.605 122.697 126.371 122.494 126.2C122.291 126.019 121.971 125.88 121.534 125.784L120.078 125.464C119.406 125.325 118.905 125.085 118.574 124.744C118.254 124.403 118.094 123.96 118.094 123.416C118.094 122.936 118.217 122.525 118.462 122.184C118.718 121.832 119.075 121.56 119.534 121.368C119.993 121.176 120.526 121.08 121.134 121.08C121.603 121.08 122.046 121.144 122.462 121.272C122.889 121.389 123.273 121.581 123.614 121.848C123.721 121.923 123.79 122.013 123.822 122.12C123.865 122.216 123.87 122.317 123.838 122.424C123.817 122.52 123.769 122.605 123.694 122.68C123.619 122.744 123.529 122.781 123.422 122.792C123.315 122.803 123.203 122.771 123.086 122.696C122.766 122.483 122.441 122.328 122.11 122.232C121.779 122.125 121.454 122.072 121.134 122.072C120.537 122.072 120.083 122.189 119.774 122.424C119.465 122.659 119.31 122.968 119.31 123.352C119.31 123.651 119.406 123.896 119.598 124.088C119.79 124.28 120.089 124.419 120.494 124.504L121.95 124.808C122.643 124.957 123.161 125.197 123.502 125.528C123.854 125.848 124.03 126.285 124.03 126.84C124.03 127.544 123.747 128.104 123.182 128.52C122.617 128.936 121.865 129.144 120.926 129.144ZM133.25 129.144C132.642 129.144 132.13 129.037 131.714 128.824C131.309 128.6 131.005 128.28 130.802 127.864C130.599 127.437 130.498 126.92 130.498 126.312V122.232H129.426C129.245 122.232 129.106 122.189 129.01 122.104C128.914 122.008 128.866 121.88 128.866 121.72C128.866 121.56 128.914 121.437 129.01 121.352C129.106 121.267 129.245 121.224 129.426 121.224H130.498V119.384C130.498 119.171 130.557 119.011 130.674 118.904C130.791 118.787 130.951 118.728 131.154 118.728C131.357 118.728 131.511 118.787 131.618 118.904C131.735 119.011 131.794 119.171 131.794 119.384V121.224H133.81C133.991 121.224 134.13 121.267 134.226 121.352C134.322 121.437 134.37 121.56 134.37 121.72C134.37 121.88 134.322 122.008 134.226 122.104C134.13 122.189 133.991 122.232 133.81 122.232H131.794V126.184C131.794 126.792 131.922 127.256 132.178 127.576C132.434 127.885 132.85 128.04 133.426 128.04C133.629 128.04 133.799 128.019 133.938 127.976C134.087 127.933 134.21 127.912 134.306 127.912C134.402 127.901 134.482 127.933 134.546 128.008C134.61 128.083 134.642 128.211 134.642 128.392C134.642 128.52 134.615 128.637 134.562 128.744C134.519 128.851 134.439 128.925 134.322 128.968C134.194 129.011 134.023 129.048 133.81 129.08C133.607 129.123 133.421 129.144 133.25 129.144ZM138.878 129.144C138.12 129.144 137.464 128.979 136.91 128.648C136.355 128.317 135.923 127.853 135.614 127.256C135.315 126.648 135.166 125.933 135.166 125.112C135.166 124.493 135.251 123.939 135.422 123.448C135.592 122.947 135.843 122.52 136.174 122.168C136.504 121.816 136.894 121.549 137.342 121.368C137.8 121.176 138.312 121.08 138.878 121.08C139.635 121.08 140.291 121.245 140.846 121.576C141.4 121.907 141.827 122.376 142.126 122.984C142.435 123.581 142.59 124.291 142.59 125.112C142.59 125.731 142.504 126.285 142.334 126.776C142.163 127.267 141.912 127.693 141.582 128.056C141.251 128.408 140.856 128.68 140.398 128.872C139.95 129.053 139.443 129.144 138.878 129.144ZM138.878 128.104C139.358 128.104 139.779 127.987 140.142 127.752C140.504 127.517 140.782 127.176 140.974 126.728C141.176 126.28 141.278 125.741 141.278 125.112C141.278 124.141 141.059 123.4 140.622 122.888C140.195 122.376 139.614 122.12 138.878 122.12C138.387 122.12 137.96 122.237 137.598 122.472C137.246 122.696 136.968 123.032 136.766 123.48C136.574 123.917 136.478 124.461 136.478 125.112C136.478 126.072 136.696 126.813 137.134 127.336C137.571 127.848 138.152 128.104 138.878 128.104ZM149.301 129.08C149.088 129.08 148.928 129.021 148.821 128.904C148.715 128.776 148.661 128.6 148.661 128.376V121.832C148.661 121.608 148.715 121.437 148.821 121.32C148.928 121.203 149.088 121.144 149.301 121.144C149.504 121.144 149.664 121.203 149.781 121.32C149.899 121.437 149.957 121.608 149.957 121.832V128.376C149.957 128.6 149.899 128.776 149.781 128.904C149.675 129.021 149.515 129.08 149.301 129.08ZM149.301 119.352C149.035 119.352 148.827 119.283 148.677 119.144C148.528 118.995 148.453 118.797 148.453 118.552C148.453 118.296 148.528 118.104 148.677 117.976C148.827 117.837 149.035 117.768 149.301 117.768C149.579 117.768 149.787 117.837 149.925 117.976C150.075 118.104 150.149 118.296 150.149 118.552C150.149 118.797 150.075 118.995 149.925 119.144C149.787 119.283 149.579 119.352 149.301 119.352ZM153.02 129.112C152.807 129.112 152.647 129.053 152.54 128.936C152.433 128.819 152.38 128.653 152.38 128.44V121.768C152.38 121.555 152.433 121.395 152.54 121.288C152.647 121.171 152.801 121.112 153.004 121.112C153.207 121.112 153.361 121.171 153.468 121.288C153.585 121.395 153.644 121.555 153.644 121.768V123.144L153.468 122.952C153.692 122.333 154.055 121.869 154.556 121.56C155.068 121.24 155.655 121.08 156.316 121.08C156.935 121.08 157.447 121.192 157.852 121.416C158.268 121.64 158.577 121.981 158.78 122.44C158.983 122.888 159.084 123.459 159.084 124.152V128.44C159.084 128.653 159.025 128.819 158.908 128.936C158.801 129.053 158.647 129.112 158.444 129.112C158.231 129.112 158.065 129.053 157.948 128.936C157.841 128.819 157.788 128.653 157.788 128.44V124.232C157.788 123.507 157.644 122.979 157.356 122.648C157.079 122.307 156.631 122.136 156.012 122.136C155.297 122.136 154.727 122.36 154.3 122.808C153.884 123.245 153.676 123.832 153.676 124.568V128.44C153.676 128.888 153.457 129.112 153.02 129.112ZM164.434 129.144C163.74 129.144 163.132 128.979 162.61 128.648C162.098 128.317 161.698 127.853 161.41 127.256C161.132 126.648 160.994 125.933 160.994 125.112C160.994 124.28 161.132 123.565 161.41 122.968C161.698 122.36 162.098 121.896 162.61 121.576C163.132 121.245 163.74 121.08 164.434 121.08C165.138 121.08 165.74 121.256 166.242 121.608C166.743 121.96 167.079 122.435 167.25 123.032H167.074V118.264C167.074 118.051 167.127 117.891 167.234 117.784C167.351 117.667 167.516 117.608 167.73 117.608C167.932 117.608 168.087 117.667 168.194 117.784C168.311 117.891 168.37 118.051 168.37 118.264V128.44C168.37 128.653 168.316 128.819 168.21 128.936C168.103 129.053 167.943 129.112 167.73 129.112C167.527 129.112 167.367 129.053 167.25 128.936C167.143 128.819 167.09 128.653 167.09 128.44V126.92L167.266 127.144C167.095 127.752 166.754 128.237 166.242 128.6C165.74 128.963 165.138 129.144 164.434 129.144ZM164.706 128.104C165.186 128.104 165.607 127.987 165.97 127.752C166.332 127.517 166.61 127.176 166.802 126.728C167.004 126.28 167.106 125.741 167.106 125.112C167.106 124.141 166.887 123.4 166.45 122.888C166.023 122.376 165.442 122.12 164.706 122.12C164.215 122.12 163.788 122.237 163.426 122.472C163.074 122.696 162.796 123.032 162.594 123.48C162.402 123.917 162.306 124.461 162.306 125.112C162.306 126.072 162.524 126.813 162.962 127.336C163.399 127.848 163.98 128.104 164.706 128.104ZM173.554 129.144C172.925 129.144 172.402 129.032 171.986 128.808C171.581 128.573 171.271 128.227 171.058 127.768C170.855 127.309 170.754 126.739 170.754 126.056V121.768C170.754 121.544 170.807 121.379 170.914 121.272C171.031 121.165 171.191 121.112 171.394 121.112C171.607 121.112 171.767 121.165 171.874 121.272C171.991 121.379 172.05 121.544 172.05 121.768V126.04C172.05 126.723 172.189 127.235 172.466 127.576C172.754 127.907 173.202 128.072 173.81 128.072C174.471 128.072 175.01 127.848 175.426 127.4C175.842 126.952 176.05 126.365 176.05 125.64V121.768C176.05 121.544 176.103 121.379 176.21 121.272C176.327 121.165 176.493 121.112 176.706 121.112C176.909 121.112 177.063 121.165 177.17 121.272C177.287 121.379 177.346 121.544 177.346 121.768V128.44C177.346 128.888 177.138 129.112 176.722 129.112C176.519 129.112 176.359 129.053 176.242 128.936C176.135 128.819 176.082 128.653 176.082 128.44V126.984L176.29 127.208C176.077 127.837 175.725 128.317 175.234 128.648C174.754 128.979 174.194 129.144 173.554 129.144ZM182.395 129.144C181.915 129.144 181.429 129.085 180.939 128.968C180.459 128.851 180.011 128.648 179.595 128.36C179.488 128.285 179.413 128.2 179.371 128.104C179.328 127.997 179.312 127.896 179.323 127.8C179.344 127.693 179.387 127.603 179.451 127.528C179.525 127.453 179.611 127.411 179.707 127.4C179.813 127.379 179.931 127.4 180.059 127.464C180.475 127.72 180.875 127.901 181.259 128.008C181.653 128.104 182.043 128.152 182.427 128.152C183.035 128.152 183.493 128.04 183.803 127.816C184.112 127.592 184.267 127.288 184.267 126.904C184.267 126.605 184.165 126.371 183.963 126.2C183.76 126.019 183.44 125.88 183.003 125.784L181.547 125.464C180.875 125.325 180.373 125.085 180.043 124.744C179.723 124.403 179.563 123.96 179.563 123.416C179.563 122.936 179.685 122.525 179.931 122.184C180.187 121.832 180.544 121.56 181.003 121.368C181.461 121.176 181.995 121.08 182.603 121.08C183.072 121.08 183.515 121.144 183.931 121.272C184.357 121.389 184.741 121.581 185.083 121.848C185.189 121.923 185.259 122.013 185.291 122.12C185.333 122.216 185.339 122.317 185.307 122.424C185.285 122.52 185.237 122.605 185.163 122.68C185.088 122.744 184.997 122.781 184.891 122.792C184.784 122.803 184.672 122.771 184.555 122.696C184.235 122.483 183.909 122.328 183.579 122.232C183.248 122.125 182.923 122.072 182.603 122.072C182.005 122.072 181.552 122.189 181.243 122.424C180.933 122.659 180.779 122.968 180.779 123.352C180.779 123.651 180.875 123.896 181.067 124.088C181.259 124.28 181.557 124.419 181.963 124.504L183.419 124.808C184.112 124.957 184.629 125.197 184.971 125.528C185.323 125.848 185.499 126.285 185.499 126.84C185.499 127.544 185.216 128.104 184.651 128.52C184.085 128.936 183.333 129.144 182.395 129.144ZM190.516 129.144C189.908 129.144 189.396 129.037 188.98 128.824C188.574 128.6 188.27 128.28 188.068 127.864C187.865 127.437 187.764 126.92 187.764 126.312V122.232H186.692C186.51 122.232 186.372 122.189 186.276 122.104C186.18 122.008 186.132 121.88 186.132 121.72C186.132 121.56 186.18 121.437 186.276 121.352C186.372 121.267 186.51 121.224 186.692 121.224H187.764V119.384C187.764 119.171 187.822 119.011 187.94 118.904C188.057 118.787 188.217 118.728 188.42 118.728C188.622 118.728 188.777 118.787 188.884 118.904C189.001 119.011 189.06 119.171 189.06 119.384V121.224H191.076C191.257 121.224 191.396 121.267 191.492 121.352C191.588 121.437 191.636 121.56 191.636 121.72C191.636 121.88 191.588 122.008 191.492 122.104C191.396 122.189 191.257 122.232 191.076 122.232H189.06V126.184C189.06 126.792 189.188 127.256 189.444 127.576C189.7 127.885 190.116 128.04 190.692 128.04C190.894 128.04 191.065 128.019 191.204 127.976C191.353 127.933 191.476 127.912 191.572 127.912C191.668 127.901 191.748 127.933 191.812 128.008C191.876 128.083 191.908 128.211 191.908 128.392C191.908 128.52 191.881 128.637 191.828 128.744C191.785 128.851 191.705 128.925 191.588 128.968C191.46 129.011 191.289 129.048 191.076 129.08C190.873 129.123 190.686 129.144 190.516 129.144ZM193.645 129.112C193.432 129.112 193.267 129.053 193.149 128.936C193.043 128.819 192.989 128.653 192.989 128.44V121.768C192.989 121.555 193.043 121.395 193.149 121.288C193.256 121.171 193.411 121.112 193.613 121.112C193.816 121.112 193.971 121.171 194.077 121.288C194.195 121.395 194.253 121.555 194.253 121.768V123.064H194.093C194.264 122.435 194.589 121.949 195.069 121.608C195.549 121.267 196.141 121.085 196.845 121.064C197.005 121.053 197.133 121.091 197.229 121.176C197.325 121.251 197.379 121.384 197.389 121.576C197.4 121.757 197.357 121.901 197.261 122.008C197.165 122.115 197.016 122.179 196.813 122.2L196.557 122.232C195.832 122.296 195.272 122.531 194.877 122.936C194.493 123.331 194.301 123.875 194.301 124.568V128.44C194.301 128.653 194.243 128.819 194.125 128.936C194.019 129.053 193.859 129.112 193.645 129.112ZM200.936 131.992C200.776 131.992 200.648 131.949 200.552 131.864C200.456 131.779 200.398 131.661 200.376 131.512C200.366 131.373 200.392 131.229 200.456 131.08L201.56 128.6V129.16L198.488 122.024C198.424 121.864 198.403 121.715 198.424 121.576C198.446 121.437 198.51 121.325 198.616 121.24C198.723 121.155 198.872 121.112 199.064 121.112C199.235 121.112 199.368 121.149 199.464 121.224C199.56 121.299 199.646 121.432 199.72 121.624L202.344 128.056H201.912L204.568 121.624C204.654 121.432 204.744 121.299 204.84 121.224C204.936 121.149 205.075 121.112 205.256 121.112C205.427 121.112 205.555 121.155 205.64 121.24C205.736 121.325 205.79 121.437 205.8 121.576C205.822 121.704 205.8 121.848 205.736 122.008L201.64 131.48C201.555 131.672 201.459 131.805 201.352 131.88C201.256 131.955 201.118 131.992 200.936 131.992ZM118.142 151.144C117.321 151.144 116.611 150.984 116.014 150.664C115.427 150.333 114.969 149.869 114.638 149.272C114.318 148.675 114.158 147.96 114.158 147.128C114.158 146.317 114.318 145.613 114.638 145.016C114.958 144.408 115.395 143.933 115.95 143.592C116.515 143.251 117.166 143.08 117.902 143.08C118.425 143.08 118.894 143.171 119.31 143.352C119.726 143.523 120.078 143.773 120.366 144.104C120.665 144.435 120.889 144.835 121.038 145.304C121.198 145.773 121.278 146.301 121.278 146.888C121.278 147.059 121.23 147.187 121.134 147.272C121.038 147.347 120.899 147.384 120.718 147.384H115.15V146.536H120.414L120.158 146.744C120.158 146.168 120.073 145.683 119.902 145.288C119.731 144.883 119.481 144.573 119.15 144.36C118.83 144.147 118.425 144.04 117.934 144.04C117.39 144.04 116.926 144.168 116.542 144.424C116.169 144.669 115.886 145.016 115.694 145.464C115.502 145.901 115.406 146.413 115.406 147V147.096C115.406 148.077 115.641 148.824 116.11 149.336C116.59 149.848 117.267 150.104 118.142 150.104C118.505 150.104 118.862 150.056 119.214 149.96C119.577 149.864 119.929 149.704 120.27 149.48C120.419 149.384 120.553 149.341 120.67 149.352C120.798 149.352 120.899 149.389 120.974 149.464C121.049 149.528 121.097 149.613 121.118 149.72C121.15 149.816 121.139 149.923 121.086 150.04C121.043 150.157 120.953 150.259 120.814 150.344C120.462 150.6 120.046 150.797 119.566 150.936C119.086 151.075 118.611 151.144 118.142 151.144ZM123.123 151.096C122.984 151.096 122.862 151.053 122.755 150.968C122.648 150.883 122.59 150.771 122.579 150.632C122.579 150.483 122.648 150.328 122.787 150.168L125.587 146.648V147.32L122.963 144.04C122.824 143.869 122.755 143.715 122.755 143.576C122.766 143.437 122.824 143.325 122.931 143.24C123.038 143.155 123.16 143.112 123.299 143.112C123.459 143.112 123.592 143.144 123.699 143.208C123.816 143.261 123.923 143.352 124.019 143.48L126.307 146.376H125.859L128.163 143.48C128.259 143.352 128.36 143.261 128.467 143.208C128.574 143.144 128.707 143.112 128.867 143.112C129.016 143.112 129.139 143.155 129.235 143.24C129.342 143.325 129.395 143.443 129.395 143.592C129.406 143.731 129.342 143.885 129.203 144.056L126.595 147.288V146.696L129.395 150.168C129.523 150.328 129.582 150.483 129.571 150.632C129.571 150.771 129.518 150.883 129.411 150.968C129.304 151.053 129.176 151.096 129.027 151.096C128.878 151.096 128.744 151.064 128.627 151C128.52 150.947 128.414 150.856 128.307 150.728L125.843 147.624H126.307L123.843 150.728C123.747 150.845 123.64 150.936 123.523 151C123.416 151.064 123.283 151.096 123.123 151.096ZM132.137 153.992C131.924 153.992 131.764 153.933 131.657 153.816C131.551 153.709 131.497 153.549 131.497 153.336V143.768C131.497 143.555 131.551 143.395 131.657 143.288C131.764 143.171 131.919 143.112 132.121 143.112C132.335 143.112 132.495 143.171 132.601 143.288C132.719 143.395 132.777 143.555 132.777 143.768V145.288L132.601 145.064C132.772 144.456 133.108 143.976 133.609 143.624C134.121 143.261 134.729 143.08 135.433 143.08C136.127 143.08 136.729 143.245 137.241 143.576C137.764 143.896 138.164 144.36 138.441 144.968C138.729 145.565 138.873 146.28 138.873 147.112C138.873 147.933 138.729 148.648 138.441 149.256C138.164 149.853 137.769 150.317 137.257 150.648C136.745 150.979 136.137 151.144 135.433 151.144C134.729 151.144 134.127 150.968 133.625 150.616C133.124 150.253 132.783 149.773 132.601 149.176H132.793V153.336C132.793 153.549 132.735 153.709 132.617 153.816C132.5 153.933 132.34 153.992 132.137 153.992ZM135.161 150.104C135.652 150.104 136.073 149.987 136.425 149.752C136.788 149.517 137.065 149.176 137.257 148.728C137.46 148.28 137.561 147.741 137.561 147.112C137.561 146.141 137.343 145.4 136.905 144.888C136.479 144.376 135.897 144.12 135.161 144.12C134.681 144.12 134.26 144.237 133.897 144.472C133.535 144.696 133.252 145.032 133.049 145.48C132.857 145.917 132.761 146.461 132.761 147.112C132.761 148.072 132.98 148.813 133.417 149.336C133.855 149.848 134.436 150.104 135.161 150.104ZM144.329 151.144C143.508 151.144 142.799 150.984 142.201 150.664C141.615 150.333 141.156 149.869 140.825 149.272C140.505 148.675 140.345 147.96 140.345 147.128C140.345 146.317 140.505 145.613 140.825 145.016C141.145 144.408 141.583 143.933 142.137 143.592C142.703 143.251 143.353 143.08 144.089 143.08C144.612 143.08 145.081 143.171 145.497 143.352C145.913 143.523 146.265 143.773 146.553 144.104C146.852 144.435 147.076 144.835 147.225 145.304C147.385 145.773 147.465 146.301 147.465 146.888C147.465 147.059 147.417 147.187 147.321 147.272C147.225 147.347 147.087 147.384 146.905 147.384H141.337V146.536H146.601L146.345 146.744C146.345 146.168 146.26 145.683 146.089 145.288C145.919 144.883 145.668 144.573 145.337 144.36C145.017 144.147 144.612 144.04 144.121 144.04C143.577 144.04 143.113 144.168 142.729 144.424C142.356 144.669 142.073 145.016 141.881 145.464C141.689 145.901 141.593 146.413 141.593 147V147.096C141.593 148.077 141.828 148.824 142.297 149.336C142.777 149.848 143.455 150.104 144.329 150.104C144.692 150.104 145.049 150.056 145.401 149.96C145.764 149.864 146.116 149.704 146.457 149.48C146.607 149.384 146.74 149.341 146.857 149.352C146.985 149.352 147.087 149.389 147.161 149.464C147.236 149.528 147.284 149.613 147.305 149.72C147.337 149.816 147.327 149.923 147.273 150.04C147.231 150.157 147.14 150.259 147.001 150.344C146.649 150.6 146.233 150.797 145.753 150.936C145.273 151.075 144.799 151.144 144.329 151.144ZM149.997 151.112C149.784 151.112 149.618 151.053 149.501 150.936C149.394 150.819 149.341 150.653 149.341 150.44V143.768C149.341 143.555 149.394 143.395 149.501 143.288C149.608 143.171 149.762 143.112 149.965 143.112C150.168 143.112 150.322 143.171 150.429 143.288C150.546 143.395 150.605 143.555 150.605 143.768V145.064H150.445C150.616 144.435 150.941 143.949 151.421 143.608C151.901 143.267 152.493 143.085 153.197 143.064C153.357 143.053 153.485 143.091 153.581 143.176C153.677 143.251 153.73 143.384 153.741 143.576C153.752 143.757 153.709 143.901 153.613 144.008C153.517 144.115 153.368 144.179 153.165 144.2L152.909 144.232C152.184 144.296 151.624 144.531 151.229 144.936C150.845 145.331 150.653 145.875 150.653 146.568V150.44C150.653 150.653 150.594 150.819 150.477 150.936C150.37 151.053 150.21 151.112 149.997 151.112ZM158.617 151.144C158.009 151.144 157.497 151.037 157.081 150.824C156.676 150.6 156.372 150.28 156.169 149.864C155.967 149.437 155.865 148.92 155.865 148.312V144.232H154.793C154.612 144.232 154.473 144.189 154.377 144.104C154.281 144.008 154.233 143.88 154.233 143.72C154.233 143.56 154.281 143.437 154.377 143.352C154.473 143.267 154.612 143.224 154.793 143.224H155.865V141.384C155.865 141.171 155.924 141.011 156.041 140.904C156.159 140.787 156.319 140.728 156.521 140.728C156.724 140.728 156.879 140.787 156.985 140.904C157.103 141.011 157.161 141.171 157.161 141.384V143.224H159.177C159.359 143.224 159.497 143.267 159.593 143.352C159.689 143.437 159.737 143.56 159.737 143.72C159.737 143.88 159.689 144.008 159.593 144.104C159.497 144.189 159.359 144.232 159.177 144.232H157.161V148.184C157.161 148.792 157.289 149.256 157.545 149.576C157.801 149.885 158.217 150.04 158.793 150.04C158.996 150.04 159.167 150.019 159.305 149.976C159.455 149.933 159.577 149.912 159.673 149.912C159.769 149.901 159.849 149.933 159.913 150.008C159.977 150.083 160.009 150.211 160.009 150.392C160.009 150.52 159.983 150.637 159.929 150.744C159.887 150.851 159.807 150.925 159.689 150.968C159.561 151.011 159.391 151.048 159.177 151.08C158.975 151.123 158.788 151.144 158.617 151.144ZM163.715 151.144C163.235 151.144 162.75 151.085 162.259 150.968C161.779 150.851 161.331 150.648 160.915 150.36C160.808 150.285 160.734 150.2 160.691 150.104C160.648 149.997 160.632 149.896 160.643 149.8C160.664 149.693 160.707 149.603 160.771 149.528C160.846 149.453 160.931 149.411 161.027 149.4C161.134 149.379 161.251 149.4 161.379 149.464C161.795 149.72 162.195 149.901 162.579 150.008C162.974 150.104 163.363 150.152 163.747 150.152C164.355 150.152 164.814 150.04 165.123 149.816C165.432 149.592 165.587 149.288 165.587 148.904C165.587 148.605 165.486 148.371 165.283 148.2C165.08 148.019 164.76 147.88 164.323 147.784L162.867 147.464C162.195 147.325 161.694 147.085 161.363 146.744C161.043 146.403 160.883 145.96 160.883 145.416C160.883 144.936 161.006 144.525 161.251 144.184C161.507 143.832 161.864 143.56 162.323 143.368C162.782 143.176 163.315 143.08 163.923 143.08C164.392 143.08 164.835 143.144 165.251 143.272C165.678 143.389 166.062 143.581 166.403 143.848C166.51 143.923 166.579 144.013 166.611 144.12C166.654 144.216 166.659 144.317 166.627 144.424C166.606 144.52 166.558 144.605 166.483 144.68C166.408 144.744 166.318 144.781 166.211 144.792C166.104 144.803 165.992 144.771 165.875 144.696C165.555 144.483 165.23 144.328 164.899 144.232C164.568 144.125 164.243 144.072 163.923 144.072C163.326 144.072 162.872 144.189 162.563 144.424C162.254 144.659 162.099 144.968 162.099 145.352C162.099 145.651 162.195 145.896 162.387 146.088C162.579 146.28 162.878 146.419 163.283 146.504L164.739 146.808C165.432 146.957 165.95 147.197 166.291 147.528C166.643 147.848 166.819 148.285 166.819 148.84C166.819 149.544 166.536 150.104 165.971 150.52C165.406 150.936 164.654 151.144 163.715 151.144Z" fill="#282828"/>
</g>
<path d="M111 181L31 181C22.1634 181 15 173.837 15 165L15 85" stroke="#004622" stroke-width="4"/>
<path d="M169 15H253C259.627 15 265 20.3726 265 27V111" stroke="#004622" stroke-width="4"/>
<defs>
<filter id="filter0_d_697_1652" x="0.6" y="0.6" width="279.8" height="194.8" filterUnits="userSpaceOnUse" color-interpolation-filters="sRGB">
<feFlood flood-opacity="0" result="BackgroundImageFix"/>
<feColorMatrix in="SourceAlpha" type="matrix" values="0 0 0 0 0 0 0 0 0 0 0 0 0 0 0 0 0 0 127 0" result="hardAlpha"/>
<feMorphology radius="1" operator="dilate" in="SourceAlpha" result="effect1_dropShadow_697_1652"/>
<feOffset/>
<feGaussianBlur stdDeviation="6.7"/>
<feComposite in2="hardAlpha" operator="out"/>
<feColorMatrix type="matrix" values="0 0 0 0 0.768627 0 0 0 0 0.768627 0 0 0 0 0.768627 0 0 0 0.21 0"/>
<feBlend mode="normal" in2="BackgroundImageFix" result="effect1_dropShadow_697_1652"/>
<feBlend mode="normal" in="SourceGraphic" in2="effect1_dropShadow_697_1652" result="shape"/>
</filter>
</defs>
</svg>
